<?xml version="1.0" encoding="utf-8"?>
<!-- Generator: Adobe Illustrator 17.1.0, SVG Export Plug-In . SVG Version: 6.00 Build 0)  -->
<!DOCTYPE svg PUBLIC "-//W3C//DTD SVG 1.1//EN" "http://www.w3.org/Graphics/SVG/1.1/DTD/svg11.dtd">
<svg version="1.1" id="Layer_1" xmlns="http://www.w3.org/2000/svg" xmlns:xlink="http://www.w3.org/1999/xlink" x="0px" y="0px"
	 viewBox="114 124 40 64" style="enable-background:new 114 124 40 64;" xml:space="preserve">
<style type="text/css">
	.st0{fill:#ED1C24;}
	.st1{fill:#FFFFFF;}
</style>
<rect x="114" y="124" class="st0" width="40" height="64"/>
<path class="st1" d="M150.0939026,131.568512h0.2187653c0.2697144,0,0.4906006-0.089447,0.4906006-0.325943
	c0-0.177887-0.1304474-0.3425446-0.4729919-0.3425446c-0.1071777,0-0.1801453,0-0.236496,0.0077972v0.6606903H150.0939026z
	 M150.0939026,132.7175446h-0.3668213V130.68013c0.1701965-0.0242767,0.3415375-0.0574951,0.6109924-0.0574951
	c0.325943,0,0.5292358,0.0662994,0.6595612,0.1646729c0.1138458,0.0894318,0.1790009,0.2264252,0.1790009,0.423172
	c0,0.260788-0.1712036,0.4308624-0.3899689,0.4883575v0.0154724c0.177887,0.0332031,0.2915955,0.1956024,0.3326111,0.4982758
	c0.0486908,0.3181458,0.089447,0.4386597,0.1226501,0.5049591h-0.3746185
	c-0.0486755-0.0662994-0.0905762-0.2529907-0.1314545-0.5204315c-0.0397644-0.2463074-0.177887-0.3435516-0.4309845-0.3435516
	h-0.2110901v0.8639832H150.0939026z M150.4276428,130.1342926c-0.8066101,0-1.4584961,0.6761627-1.4584961,1.5236511
	c0,0.8475037,0.651886,1.5236664,1.4661713,1.5236664c0.806488,0.0088043,1.4506989-0.6761627,1.4506989-1.5236664
	c0-0.8474884-0.6442108-1.5236511-1.4506989-1.5236511C150.435318,130.1342926,150.4276428,130.1342926,150.4276428,130.1342926z
	 M150.435318,129.8249512c1.0087738,0,1.8153839,0.8154297,1.8153839,1.8253174
	c0,1.0265045-0.8066101,1.8407898-1.8230591,1.8407898c-1.0177002,0-1.8407898-0.8142853-1.8407898-1.8407898
	c0-1.0098877,0.8230896-1.8253174,1.8407898-1.8253174C150.4276428,129.8249512,150.435318,129.8249512,150.435318,129.8249512z"/>
<path class="st1" d="M124.2801895,162.498764l-0.3060608-1.8129883c-0.0873032-0.5225677-0.1988831-1.3392334-0.2839279-1.904953
	h-0.0332108c-0.0894394,0.5699921-0.2143555,1.4098206-0.3060608,1.9093475l-0.3293381,1.8085938H124.2801895z
	 M122.8571777,163.68013l-0.3977737,2.0119934h-1.4694366l1.8329926-8.3706665h1.8009109l1.6650467,8.3706665h-1.4771042
	l-0.3889694-2.0119934H122.8571777z"/>
<path class="st1" d="M129.6334991,161.953064c0-0.1115875,0-0.2420349-0.0221405-0.3614197
	c-0.0585022-0.4132385-0.2783966-0.7854767-0.632019-0.7854767c-0.6065826,0-0.8297577,0.8739166-0.8297577,1.8960114
	c0,1.1744537,0.3181458,1.842926,0.8087616,1.842926c0.2242889,0,0.4828033-0.114975,0.6231995-0.6078491
	c0.0342102-0.0982513,0.0519562-0.2297058,0.0519562-0.3833008V161.953064z M131.1416779,157.0993042v6.8569489
	c0,0.5434418,0.0276794,1.2120514,0.0498199,1.7346191h-1.3026428l-0.0850372-0.6972961h-0.0309448
	c-0.2187653,0.4299774-0.6949005,0.7955475-1.2640076,0.7955475c-1.247406,0-1.8660736-1.3766022-1.8660736-3.1147461
	c0-2.1179199,0.9224701-3.1478271,1.9279633-3.1478271c0.5259552,0,0.8662415,0.2575073,1.0375824,0.6299896h0.0254059v-3.0572357
	H131.1416779z"/>
<path class="st1" d="M134.2828369,164.6324158c0.5756378,0,0.7181702-1.0850067,0.7181702-1.9833221
	c0-0.8540344-0.1425323-1.9668427-0.7434692-1.9668427c-0.6365204,0-0.7702484,1.1128082-0.7702484,1.9668427
	c0,1.0309143,0.1679382,1.9833221,0.7822113,1.9833221H134.2828369z M134.2541504,165.7892456
	c-1.3899384,0-2.2617035-1.1159515-2.2617035-3.1134796c0-2.180069,1.1192169-3.1490784,2.2970428-3.1490784
	c1.3712006,0,2.2307739,1.1702881,2.2307739,3.1137238c0,2.4970856-1.3467865,3.1488342-2.2539062,3.1488342H134.2541504z"/>
<path class="st1" d="M138.8715363,163.5252686c0,0.1513367,0.0276794,0.2928619,0.0597534,0.3877106
	c0.1513367,0.5073395,0.4077148,0.6321259,0.6131287,0.6321259c0.5834503,0,0.8188171-0.7393036,0.8188171-1.9215546
	c0-1.0761871-0.248703-1.8173828-0.82547-1.8173828c-0.2860718,0-0.5269775,0.3105927-0.6098785,0.6441956
	c-0.0288086,0.1049194-0.0563507,0.2683258-0.0563507,0.3810425V163.5252686z M137.3632202,157.0993042h1.508194v3.1598969
	h0.0242767c0.2971344-0.4663391,0.6927643-0.7326508,1.2672729-0.7326508c1.1369629,0,1.7082062,1.2928162,1.7082062,2.9832916
	c0,2.13591-0.8518982,3.2792816-1.9557648,3.2792816c-0.5259705,0-0.8761749-0.2332306-1.1921844-0.8240967h-0.0318298
	l-0.0839081,0.7258453h-1.2949524c0.0221405-0.5026855,0.0506897-1.1911774,0.0506897-1.7346191V157.0993042
	L137.3632202,157.0993042z"/>
<path class="st1" d="M145.4854431,162.0801086c0.0077972-0.8517761-0.2420349-1.4486847-0.7204285-1.4486847
	c-0.5458374,0-0.7779388,0.7990723-0.7944183,1.4486847H145.4854431z M143.9650574,163.1464996
	c0.017746,1.0970764,0.5945282,1.4540863,1.3104401,1.4540863c0.4539948,0,0.8429565-0.100769,1.1302795-0.2088165
	l0.2032928,1.0849915c-0.4000397,0.1722107-1.0177002,0.2805328-1.6099548,0.2805328
	c-1.6186371,0-2.5026093-1.1061401-2.5026093-2.9953613c0-2.0274658,1.0253754-3.2451935,2.3644867-3.2451935
	c1.2938232,0,2.0108643,1.0762024,2.0108643,2.832962c0,0.4021606-0.0166016,0.6287231-0.0431519,0.8053436L143.9650574,163.1464996
	z"/>
<polygon class="st1" points="137.225235,129.7487183 146.8731232,129.7487183 146.8731232,152.8466034 "/>
<polygon class="st1" points="130.4279022,129.7487183 120.7744751,129.7487183 120.7744751,152.8466034 "/>
<polygon class="st1" points="133.8276978,138.2596588 139.9741516,152.8453369 135.9468689,152.8453369 134.1082306,148.1994019 
	129.608078,148.1994019 "/>
</svg>
