<?xml version="1.0" encoding="utf-8"?>
<!-- Generator: Adobe Illustrator 16.0.0, SVG Export Plug-In . SVG Version: 6.00 Build 0)  -->
<!DOCTYPE svg PUBLIC "-//W3C//DTD SVG 1.1//EN" "http://www.w3.org/Graphics/SVG/1.1/DTD/svg11.dtd">
<svg version="1.1" id="Layer_1" xmlns="http://www.w3.org/2000/svg" xmlns:xlink="http://www.w3.org/1999/xlink" x="0px" y="0px"
	 width="95.002px" height="195px" viewBox="2.7 3 95.002 195" enable-background="new 2.7 3 95.002 195" xml:space="preserve">
<g id="step_2_android">
	<path fill="#444444" d="M89.4,5.9C82.6,4.2,67.6,3,50.2,3C32.8,3,17.9,4.2,11.1,5.9c-4.7,0.6-8.4,4.6-8.4,9.4v169.9
		c0,3.1,1.5,5.8,3.8,7.6c2.3,2.9,20.9,5.2,43.6,5.2c18.7,0,34.601-1.6,41-3.8H91.2c0.1,0,0.2-0.101,0.2-0.101
		c3.699-1.3,6.3-4.8,6.3-8.899V15.3C97.8,10.5,94.1,6.5,89.4,5.9z"/>
</g>
<g>
	<path fill="#545051" d="M94.201,178c0,1.104-0.896,2-2,2h-84c-1.104,0-2-0.896-2-2V23c0-1.104,0.896-2,2-2h84c1.104,0,2,0.896,2,2
		V178z"/>
	<g>
		<g>
			<path fill="#222222" d="M94.201,130.35v47.5c0,1.201-0.899,2.1-2.1,2.1h-45.8L94.201,130.35z"/>
			<path fill="#222222" d="M8.301,20.95h39l-41.1,42.6v-40.5C6.201,21.95,7.102,20.95,8.301,20.95z"/>
			<path fill="#222222" d="M6.201,81.15l58-60.101h27.9c1.1,0,2.1,1,2.1,2.101v77.1l-76.9,79.801h-9c-1.1,0-2.1-1-2.1-2.102V81.15z"
				/>
		</g>
		<g>
			<path fill-rule="evenodd" clip-rule="evenodd" fill="#EEEEEE" d="M68.126,83.01c-1.514,0-2.738,1.246-2.738,2.783v10.874
				c0,1.538,1.225,2.784,2.738,2.784s2.74-1.246,2.74-2.784V85.793C70.866,84.256,69.64,83.01,68.126,83.01z M35.079,83.01
				c-1.512,0-2.739,1.246-2.739,2.783v10.874c0,1.538,1.228,2.784,2.739,2.784c1.514,0,2.74-1.246,2.74-2.784V85.793
				C37.819,84.256,36.592,83.01,35.079,83.01z"/>
			<path fill-rule="evenodd" clip-rule="evenodd" fill="#EEEEEE" d="M39.468,83.094v19.869c0,1.18,0.956,2.135,2.136,2.135h2.441
				v6.051c0,1.537,1.227,2.783,2.739,2.783c1.513,0,2.74-1.246,2.74-2.783v-6.051h4.264v6.051c0,1.537,1.229,2.783,2.74,2.783
				c1.514,0,2.74-1.246,2.74-2.783v-6.051h2.441c1.18,0,2.137-0.955,2.137-2.135V83.094H39.468z"/>
			<path fill-rule="evenodd" clip-rule="evenodd" fill="#EEEEEE" d="M57.382,72.8l2.252-3.271c0.133-0.193,0.1-0.448-0.074-0.569
				c-0.176-0.119-0.426-0.06-0.559,0.134l-2.34,3.396c-1.541-0.606-3.254-0.945-5.059-0.945s-3.518,0.339-5.059,0.945l-2.339-3.396
				c-0.134-0.193-0.384-0.253-0.558-0.134c-0.176,0.121-0.209,0.376-0.075,0.569l2.253,3.271c-3.581,1.665-6.092,4.83-6.411,8.523
				h24.378C63.472,77.63,60.962,74.465,57.382,72.8z M46.459,77.952c-0.744,0-1.349-0.604-1.349-1.35
				c0-0.744,0.604-1.348,1.349-1.348c0.746,0,1.35,0.604,1.35,1.348C47.81,77.348,47.206,77.952,46.459,77.952z M56.913,77.952
				c-0.744,0-1.348-0.604-1.348-1.35c0-0.744,0.604-1.348,1.348-1.348c0.746,0,1.35,0.604,1.35,1.348
				C58.263,77.348,57.659,77.952,56.913,77.952z"/>
		</g>
	</g>
</g>
</svg>
