<?xml version="1.0" encoding="utf-8"?>
<!-- Generator: Adobe Illustrator 16.0.0, SVG Export Plug-In . SVG Version: 6.00 Build 0)  -->
<!DOCTYPE svg PUBLIC "-//W3C//DTD SVG 1.1//EN" "http://www.w3.org/Graphics/SVG/1.1/DTD/svg11.dtd">
<svg version="1.1" xmlns="http://www.w3.org/2000/svg" xmlns:xlink="http://www.w3.org/1999/xlink" x="0px" y="0px" width="100.5px"
     height="201px" viewBox="0 0 100.5 201" enable-background="new 0 0 100.5 201" xml:space="preserve">
<g id="step_2_android">
    <path fill="#444444" d="M91.6,3c-7.2-1.8-23-3-41.4-3S16.1,1.2,8.9,3C3.9,3.6,0,7.7,0,12.7v175.1c0,3.2,1.6,6,4,7.8
        c2.4,3,22.1,5.4,46.1,5.4c19.8,0,36.6-1.6,43.3-3.9c0,0,0.1,0,0.1,0c0.1,0,0.2-0.1,0.2-0.1c3.9-1.3,6.7-4.9,6.7-9.2V12.7
        C100.5,7.7,96.6,3.6,91.6,3z"/>
</g>
<g>
    <path fill="#222222" d="M97.3,129.1v49c0,1.2-1,2.2-2.2,2.2H46.7L97.3,129.1z"/>
    <polygon fill="#D1D1D1" points="4.3,60.2 47.7,16.3 65.7,16.3 4.3,78.3 				"/>
    <path fill="#222222" d="M6.5,16.3h41.2L4.3,60.2V18.5C4.3,17.3,5.3,16.3,6.5,16.3z"/>
    <path fill="#222222" d="M4.3,78.3l61.3-62h29.5c1.2,0,2.2,1,2.2,2.2V98L16,180.3H6.5c-1.2,0-2.2-1-2.2-2.2V78.3z"/>
    <polygon fill="#D1D1D1" points="16,180.3 97.3,98 97.3,129.1 46.7,180.3 				"/>
</g>
</svg>