<?xml version="1.0" encoding="utf-8"?>
<!-- Generator: Adobe Illustrator 16.0.0, SVG Export Plug-In . SVG Version: 6.00 Build 0)  -->
<!DOCTYPE svg PUBLIC "-//W3C//DTD SVG 1.1//EN" "http://www.w3.org/Graphics/SVG/1.1/DTD/svg11.dtd">
<svg version="1.1" id="Layer_1" xmlns="http://www.w3.org/2000/svg" xmlns:xlink="http://www.w3.org/1999/xlink" x="0px" y="0px"
	 width="95px" height="195px" viewBox="2.7 3 95 195" enable-background="new 2.7 3 95 195" xml:space="preserve">
<g>
	<g id="step_2_android">
		<path fill="#545051" d="M89.4,5.9C82.6,4.2,67.6,3,50.2,3C32.8,3,17.9,4.2,11.1,5.9c-4.7,0.6-8.4,4.6-8.4,9.4v169.9
			c0,3.1,1.5,5.8,3.8,7.6c2.3,2.9,20.9,5.2,43.6,5.2c18.7,0,34.6-1.6,41-3.8h0.1c0.1,0,0.2-0.1,0.2-0.1c3.7-1.3,6.3-4.8,6.3-8.9
			V15.3C97.8,10.5,94.1,6.5,89.4,5.9z"/>
	</g>
	<g>
		<path fill="#222222" d="M94.8,128.2v47.5c0,1.2-0.9,2.1-2.1,2.1H46.9L94.8,128.2z"/>
		<path fill="#222222" d="M8.9,18.8h39L6.8,61.4V20.9C6.8,19.8,7.7,18.8,8.9,18.8z"/>
		<path fill="#222222" d="M6.8,79l58-60.1h27.9c1.1,0,2.1,1,2.1,2.1v77.1l-76.9,79.8h-9c-1.1,0-2.1-1-2.1-2.1V79z"/>
	</g>
</g>
</svg>
