<?xml version="1.0" encoding="utf-8"?>
<!-- Generator: Adobe Illustrator 17.1.0, SVG Export Plug-In . SVG Version: 6.00 Build 0)  -->
<!DOCTYPE svg PUBLIC "-//W3C//DTD SVG 1.1//EN" "http://www.w3.org/Graphics/SVG/1.1/DTD/svg11.dtd">
<svg version="1.1" id="Layer_1" xmlns="http://www.w3.org/2000/svg" xmlns:xlink="http://www.w3.org/1999/xlink" x="0px" y="0px"
	 width="30px" height="30px" viewBox="0 0 30 30" enable-background="new 0 0 30 30" xml:space="preserve">
<g>
	<path fill="#45B8DA" d="M19.866,8.596c-2.106,0-2.997,1.034-4.464,1.034c-1.505,0-2.652-1.028-4.476-1.028
		c-1.787,0-3.693,1.122-4.903,3.034c-1.699,2.696-1.411,7.774,1.342,12.1c0.984,1.549,2.301,3.285,4.025,3.304
		c0.013,0,0.019,0,0.031,0c1.498,0,1.943-1.009,4.006-1.022c0.013,0,0.019,0,0.031,0c2.031,0,2.439,1.016,3.931,1.016
		c0.013,0,0.019,0,0.031,0c1.724-0.019,3.11-1.943,4.094-3.486c0.708-1.11,0.972-1.668,1.517-2.922
		c-3.981-1.555-4.62-7.36-0.683-9.586C23.145,9.492,21.458,8.596,19.866,8.596L19.866,8.596z"/>
	<path fill="#45B8DA" d="M19.402,2.96c-1.254,0.088-2.715,0.909-3.574,1.981c-0.777,0.972-1.417,2.414-1.166,3.812
		c0.031,0,0.063,0,0.1,0c1.335,0,2.702-0.828,3.498-1.887C19.032,5.856,19.615,4.427,19.402,2.96L19.402,2.96z"/>
</g>
</svg>
