<?xml version="1.0" encoding="utf-8"?>
<!-- Generator: Adobe Illustrator 17.1.0, SVG Export Plug-In . SVG Version: 6.00 Build 0)  -->
<!DOCTYPE svg PUBLIC "-//W3C//DTD SVG 1.1//EN" "http://www.w3.org/Graphics/SVG/1.1/DTD/svg11.dtd">
<svg version="1.1" id="Layer_1" xmlns="http://www.w3.org/2000/svg" xmlns:xlink="http://www.w3.org/1999/xlink" x="0px" y="0px"
	 width="30px" height="30px" viewBox="0 0 30 30" enable-background="new 0 0 30 30" xml:space="preserve">
<g>
	<path fill="#FFFFFF" d="M19.9,8.6c-2.1,0-3,1-4.5,1c-1.5,0-2.7-1-4.5-1c-1.8,0-3.7,1.1-4.9,3c-1.7,2.7-1.4,7.8,1.3,12.1
		c1,1.5,2.3,3.3,4,3.3c0,0,0,0,0,0c1.5,0,1.9-1,4-1c0,0,0,0,0,0c2,0,2.4,1,3.9,1c0,0,0,0,0,0c1.7,0,3.1-1.9,4.1-3.5
		c0.7-1.1,1-1.7,1.5-2.9c-4-1.6-4.6-7.4-0.7-9.6C23.1,9.5,21.5,8.6,19.9,8.6L19.9,8.6z"/>
	<path fill="#FFFFFF" d="M19.4,3c-1.3,0.1-2.7,0.9-3.6,2c-0.8,1-1.4,2.4-1.2,3.8c0,0,0.1,0,0.1,0c1.3,0,2.7-0.8,3.5-1.9
		C19,5.9,19.6,4.4,19.4,3L19.4,3z"/>
</g>
</svg>
