<?xml version="1.0" encoding="utf-8"?>
<!-- Generator: Adobe Illustrator 17.0.0, SVG Export Plug-In . SVG Version: 6.00 Build 0)  -->
<!DOCTYPE svg PUBLIC "-//W3C//DTD SVG 1.1//EN" "http://www.w3.org/Graphics/SVG/1.1/DTD/svg11.dtd">
<svg version="1.1" id="Layer_1" xmlns="http://www.w3.org/2000/svg" xmlns:xlink="http://www.w3.org/1999/xlink" x="0px" y="0px"
	 width="1153.5px" height="470px" viewBox="846.5 0 1153.5 470" enable-background="new 846.5 0 1153.5 470" xml:space="preserve">
<polygon fill="#B6F2E7" points="1611.035,98.456 1819.471,394.751 1618.812,265.982 "/>
<polygon fill="#5ED3BD" points="1405.482,124.734 1611.035,98.456 1464.027,257.823 "/>
<polygon fill="#1EC6AA" points="1405.482,124.734 1285.329,228.375 1464.027,257.823 "/>
<polygon fill="#07AD91" points="1213.965,200.477 1405.482,124.734 1285.329,228.375 "/>
<polygon fill="#B6F2E7" points="1015.5,380.334 1115.5,130 1275.5,360 "/>
<polygon fill="#A7EADD" points="1611.035,98.456 1630.717,316.679 1464.027,257.823 "/>
<polygon fill="#46CEB4" points="1355.5,220 1275.5,360 1115.5,130 "/>
<polygon fill="#07AD91" points="1585.5,199.666 1353.931,219.867 1454.265,380.334 "/>
<polygon fill="#1EC6AA" points="1355.5,220 1455.5,360 1275.5,360 "/>
<polygon fill="#46CEB4" points="1710.809,335.587 1454.265,380.334 1585.5,199.666 "/>
<polygon fill="#80DDCB" points="1015.5,280 1345.5,290 1245.5,530 "/>
<polygon fill="#1EC6AA" points="1485.5,560 1245.5,530 1345.5,290 "/>
<polygon fill="#5ED3BD" points="1585.5,340 1345.5,290 1485.5,560 "/>
<polygon fill="#A7EADD" points="885.5,498.25 1015.5,280 1245.5,530 "/>
<polygon fill="#80DDCB" points="1585.5,199.666 1791.551,346.722 1692.016,354.306 "/>
<polygon fill="#1EC6AA" points="1791.551,255.167 1485.5,560 1585.5,340 "/>
<polygon fill="#B6F2E7" points="1923.544,340.267 1791.551,255.167 1825.5,518.25 "/>
<polygon fill="#5ED3BD" points="1825.5,518.25 1791.551,255.167 1485.5,560 "/>
<polygon fill="#A7EADD" points="2005.5,528.25 1923.544,340.267 1825.5,518.25 "/>
</svg>
