<?xml version="1.0" encoding="utf-8"?>
<!-- Generator: Adobe Illustrator 17.1.0, SVG Export Plug-In . SVG Version: 6.00 Build 0)  -->
<!DOCTYPE svg PUBLIC "-//W3C//DTD SVG 1.1//EN" "http://www.w3.org/Graphics/SVG/1.1/DTD/svg11.dtd">
<svg version="1.1"
	 id="svg8549" xmlns:rdf="http://www.w3.org/1999/02/22-rdf-syntax-ns#" xmlns:dc="http://purl.org/dc/elements/1.1/" xmlns:svg="http://www.w3.org/2000/svg" xmlns:cc="http://creativecommons.org/ns#"
	 xmlns="http://www.w3.org/2000/svg" xmlns:xlink="http://www.w3.org/1999/xlink" x="0px" y="0px" width="30px" height="30px"
	 viewBox="0 0 30 30" enable-background="new 0 0 30 30" xml:space="preserve">
<g id="layer1" transform="translate(-592,-327.21937)">
	<path id="path10138" fill="#FFFFFF" d="M596.5,330.2c-0.5,0.2-0.8,0.7-0.8,1.4v10.6v10.6c0,0.7,0.3,1.2,0.8,1.4l10.9-12
		L596.5,330.2z M598.5,330.7l9.7,10.6l3.2-3.5L598.5,330.7L598.5,330.7z M612.3,338.3l-3.5,3.8l3.5,3.8l4.7-2.6
		c0.9-0.5,1.2-0.7,1.2-1.2s-0.3-0.7-1.2-1.2L612.3,338.3z M608.1,342.9l-9.7,10.7l13-7.1L608.1,342.9z"/>
</g>
</svg>
