<?xml version="1.0" encoding="utf-8"?>
<!-- Generator: Adobe Illustrator 17.1.0, SVG Export Plug-In . SVG Version: 6.00 Build 0)  -->
<!DOCTYPE svg PUBLIC "-//W3C//DTD SVG 1.1//EN" "http://www.w3.org/Graphics/SVG/1.1/DTD/svg11.dtd">
<svg version="1.1" xmlns="http://www.w3.org/2000/svg" xmlns:xlink="http://www.w3.org/1999/xlink" x="0px" y="0px"
	 viewBox="0 -12.0099945 370 170" enable-background="new 0 -12.0099945 370 170" xml:space="preserve">
<g id="Layer_2" display="none">
	<rect x="-47" y="-10" display="inline" fill="#2D3033" width="481" height="223"/>
</g>
<g id="Layer_1">
	<g>
		<g>
			<g>
				<path fill="#222222" d="M241.1673279-3.7479889H37.0313187c-5.1150017,0-9.3159981,4.2010002-9.3159981,9.3149996v129.970993
					H250.484314V5.5690117C250.484314,0.4540107,246.2803345-3.7479889,241.1673279-3.7479889z"/>
			</g>
			<g>
				<g>
					<g>
						<rect x="35.1505089" y="3.2842712" fill="#3B4250" width="207.8468018" height="124.6757355"/>
					</g>
				</g>
				<g>
					<g>
						<rect x="35.1505051" y="3.2842665" fill="#242C3C" width="207.7544708" height="17.8401585"/>
					</g>
				</g>
				<g>
					<g>
						<rect x="52.4633789" y="35.7459106" fill="#E36A5C" width="25.9693089" height="4.328218"/>
					</g>
				</g>
				<g>
					<g>
						<rect x="52.4633751" y="27.0894699" fill="#6DBEC4" width="17.3128719" height="4.328218"/>
					</g>
				</g>
				<g>
					<g opacity="0.5">
						<g>
							<rect x="61.2550697" y="53.0587845" fill="#95989F" width="51.9386177" height="4.328218"/>
						</g>
					</g>
					<g>
						<g>
							<rect x="121.7148666" y="53.0587845" fill="#95989F" width="51.9386177" height="4.328218"/>
						</g>
					</g>
					<g opacity="0.5">
						<g>
							<rect x="78.5003128" y="70.3716583" fill="#95989F" width="43.2145538" height="4.328218"/>
						</g>
					</g>
					<g>
						<g>
							<rect x="69.7762527" y="62.1135788" fill="#E36A5C" width="17.4481297" height="4.328218"/>
						</g>
					</g>
					<g>
						<g>
							<rect x="95.6779327" y="62.1135788" fill="#95989F" width="34.6933746" height="4.328218"/>
						</g>
					</g>
					<g opacity="0.5">
						<g>
							<rect x="87.2243805" y="79.4264526" fill="#95989F" width="51.80336" height="4.328218"/>
						</g>
					</g>
					<g>
						<g>
							<rect x="147.6841736" y="79.4264526" fill="#95989F" width="77.9079361" height="4.328218"/>
						</g>
					</g>
					<g>
						<g>
							<rect x="52.4633789" y="122.1401138" fill="#6DBEC4" width="25.9693089" height="4.328218"/>
						</g>
					</g>
					<g opacity="0.5">
						<g>
							<rect x="87.1229401" y="122.1401138" fill="#95989F" width="60.5612373" height="4.328218"/>
						</g>
					</g>
					<g opacity="0.5">
						<g>
							<rect x="130.3713074" y="70.5418091" fill="#95989F" width="17.3128719" height="4.328218"/>
						</g>
					</g>
					<g opacity="0.5">
						<g>
							<rect x="52.4633789" y="96.7393188" fill="#95989F" width="34.6257439" height="4.328218"/>
						</g>
					</g>
					<g>
						<g>
							<rect x="61.2550697" y="104.9973984" fill="#95989F" width="34.4228592" height="4.328218"/>
						</g>
					</g>
					<g>
						<g>
							<rect x="156.4758759" y="70.3716583" fill="#6DBEC4" width="34.6257439" height="4.328218"/>
						</g>
					</g>
				</g>
			</g>
			<g>
				<path fill="#EEEEEE" d="M-0.1426783,135.4480133c0,10.2299957,8.3120003,18.5419922,18.5409966,18.5419922l0,0l0,0h241.0360107
					c10.2290039,0,18.5419922-8.3119965,18.5419922-18.5419922H-0.1426783z"/>
			</g>
			<g>
				<g id="XMLID_1_">
					<g>
						<path fill="#606060" d="M250.4873352,5.5700111v129.9700012H27.7173195V5.5700111
							c0-5.1199999,4.2000008-9.3199997,9.3100014-9.3199997h204.1400146
							C246.2773132-3.7499888,250.4873352,0.450011,250.4873352,5.5700111z M242.9973145,127.9600067V5.480011
							c0-1.0100002-0.8200073-1.8300002-1.8299866-1.8300002V3.740011H36.9373207c-1,0-1.8300018,0.8199999-1.8300018,1.8300002
							v122.3899994H242.9973145z"/>
					</g>
				</g>
			</g>
			<path fill="#A0A0A0" d="M157.6863251,135.4480133h-9.3159943h-15.1620026h-3.470993h-9.3159943h-9.3160019
				c0,5.1139984,4.2020035,9.3159943,9.3160019,9.3159943h37.173996c5.1150055,0,9.3159943-4.1089935,9.3159943-9.3159943
				H157.6863251z"/>
		</g>
	</g>
	<g>
		<g>
			<path fill="#606060" d="M370.1426697,119.1951141c0,2.3969727-1.9611816,4.3581696-4.3581238,4.3581696H330.915863
				c-2.3969421,0-4.3588257-1.9611969-4.3588257-4.3581696V49.4583168c0-2.39711,1.9618835-4.3584862,4.3588257-4.3584862
				h34.8686829c2.3969421,0,4.3581238,1.9613762,4.3581238,4.3584862V119.1951141z"/>
		</g>
		<g>
			<circle cx="348.3498535" cy="119.1951141" r="2.7239344"/>
		</g>
		<g>
			<rect x="330.915863" y="53.9531136" fill="#FFFFFF" width="34.868679" height="60.8831711"/>
		</g>
		<g>
			<circle fill="#E36A5C" cx="348.3498535" cy="81.3692627" r="13.0758371"/>
		</g>
		<g>
			<g>
				<path d="M350.5292664,50.859272h-4.3588257c-0.7736511,0-1.4009705-0.6272774-1.4009705-1.4009552
					c0-0.7736816,0.6273193-1.400959,1.4009705-1.400959h4.3588257c0.7736816,0,1.4009705,0.6272774,1.4009705,1.400959
					C351.9302368,50.2319946,351.302948,50.859272,350.5292664,50.859272z"/>
			</g>
		</g>
		<g>
			<g>
				<g>
					<rect x="340.2711182" y="77.1663971" fill="#DB3F2D" width="15.9351921" height="2.8019149"/>
				</g>
			</g>
			<g>
				<g>
					<rect x="340.2711182" y="82.7702255" fill="#DB3F2D" width="10.8026791" height="2.8019149"/>
				</g>
			</g>
		</g>
	</g>
	<g>
		<g>
			<circle fill="#606060" cx="288.7085571" cy="84.3269653" r="17.0139408"/>
		</g>
		<path fill="#2D3033" d="M292.0200806,77.5100632c-0.8292236-0.8292236-2.1816711-0.8337173-3.0053711-0.0100327
			c-0.8236694,0.8237305-0.8191833,2.1760941,0.0101013,3.0053177l1.7103271,1.7103348h-10.6266174
			c-1.1727295,0-2.1322021,0.9530792-2.1322021,2.1179962c0,1.1648788,0.9594727,2.1179962,2.1322021,2.1179962h10.6123352
			l-1.696106,1.6960983c-0.8292236,0.8292236-0.8337097,2.1815872-0.0099792,3.0053101
			c0.8236694,0.8236923,2.1760864,0.819191,3.0053101-0.0100327l5.4816284-5.4816208
			c0.3072815-0.3547287,0.4746094-0.8260574,0.4746094-1.3277512c0-0.5557404-0.2187195-1.0629349-0.5744019-1.4417725
			L292.0200806,77.5100632z"/>
	</g>
</g>
</svg>
