<?xml version="1.0" encoding="utf-8"?>
<!-- Generator: Adobe Illustrator 17.1.0, SVG Export Plug-In . SVG Version: 6.00 Build 0)  -->
<!DOCTYPE svg PUBLIC "-//W3C//DTD SVG 1.1//EN" "http://www.w3.org/Graphics/SVG/1.1/DTD/svg11.dtd">
<svg version="1.1" id="Layer_1" xmlns="http://www.w3.org/2000/svg" xmlns:xlink="http://www.w3.org/1999/xlink" x="0px" y="0px"
	 viewBox="0.5038409 6.1150203 150 100" style="enable-background:new 0.5038409 6.1150203 150 100;" xml:space="preserve">
<style type="text/css">
	.st0{fill:#222222;}
	.st1{fill:#EEEEEE;}
	.st2{fill:#606060;}
	.st3{fill:#A0A0A0;}
	.st4{enable-background:new    ;}
	.st5{fill:#FFFFFF;}
	.st6{fill:#7A7E82;}
</style>
<g id="computer">
	<g>
		<g>
			<g>
				<path class="st0" d="M129.7770538,15.6125278H20.4184818c-2.7401791,0-4.9907122,2.250536-4.9907122,4.9901772v69.6273193
					h119.3405228V20.6037769C134.7682953,17.8635998,132.5161591,15.6125278,129.7770538,15.6125278z"/>
			</g>
			<g>
				<path class="st1" d="M0.5038409,90.1818085c0,5.4803543,4.452857,9.9332123,9.9326782,9.9332123l0,0l0,0h129.1264343
					c5.4798126,0,9.933197-4.452858,9.933197-9.9332123H0.5038409z"/>
			</g>
			<g>
				<g id="XMLID_1_">
					<g>
						<path class="st2" d="M134.7699127,20.6043129v69.6267853H15.4288406V20.6043129c0-2.742857,2.25-4.992857,4.9875011-4.992857
							h109.3607101C132.5145416,15.6114559,134.7699127,17.8614559,134.7699127,20.6043129z M130.7574005,86.1703796V20.5560989
							c0-0.5410709-0.4392853-0.9803581-0.9803467-0.9803581v0.0482159H20.3681259
							c-0.5357132,0-0.9803581,0.4392853-0.9803581,0.9803562v65.5660706H130.7574005z"/>
					</g>
				</g>
			</g>
			<path class="st3" d="M85.0550842,90.1818085h-4.9907074h-8.1225052h-1.8594589h-4.9907074h-4.9907188
				c0,2.7396469,2.2510757,4.990715,4.9907188,4.990715H85.00634c2.740181,0,4.990715-2.2012482,4.990715-4.990715H85.0550842z"/>
		</g>
	</g>
</g>
<g class="st4">
	<path class="st5" d="M25.2060547,36.2543945c-0.2924805-0.2275391-0.5200195-0.3706055-0.9555664-0.3706055
		s-0.7148438,0.2080078-0.7148438,0.5395508c0,0.7148438,2.0668945,0.5786133,2.0668945,1.7680664
		c0,0.559082-0.4614258,0.9619141-1.144043,1.0336914v0.9487305h-0.3901367v-0.9423828
		c-0.480957-0.0390625-0.9423828-0.253418-1.2412109-0.5068359l0.253418-0.3706055
		c0.324707,0.2338867,0.7211914,0.4418945,1.2089844,0.4418945c0.5136719,0,0.7866211-0.2338867,0.7866211-0.5654297
		c0-0.8061523-2.0605469-0.6630859-2.0605469-1.7939453c0-0.5463867,0.4223633-0.9165039,1.0527344-0.9814453v-0.8583984h0.3901367
		v0.8515625c0.4746094,0.0390625,0.7734375,0.2407227,1.0336914,0.4941406L25.2060547,36.2543945z"/>
	<path class="st5" d="M30.6787109,36.2998047h0.4418945l0.0454102,0.5395508h0.0263672
		c0.331543-0.3510742,0.6953125-0.6176758,1.1894531-0.6176758c0.7475586,0,1.0917969,0.4423828,1.0917969,1.2744141v1.9628906
		H32.940918v-1.8916016c0-0.5981445-0.2080078-0.8837891-0.7280273-0.8837891c-0.3769531,0-0.6308594,0.1884766-1.0009766,0.5717773
		v2.2036133h-0.5332031V36.2998047z"/>
	<path class="st5" d="M35.1118164,39.7255859v1.065918h-0.5332031v-4.4916992h0.4418945l0.0458984,0.4033203h0.019043
		c0.2924805-0.2797852,0.7021484-0.4814453,1.0922852-0.4814453c0.8515625,0,1.3066406,0.6308594,1.3066406,1.6123047
		c0,1.0722656-0.6762695,1.703125-1.4365234,1.703125c-0.2924805,0-0.6630859-0.1494141-0.9492188-0.409668L35.1118164,39.7255859z
		 M35.956543,39.0883789c0.565918,0,0.9750977-0.4746094,0.9750977-1.2543945c0-0.6958008-0.2597656-1.1635742-0.890625-1.1635742
		c-0.2792969,0-0.6044922,0.1494141-0.9291992,0.4746094v1.5727539
		C35.4106445,38.984375,35.7421875,39.0883789,35.956543,39.0883789z"/>
	<path class="st5" d="M38.2641602,36.2998047h0.4160156l0.0454102,0.4160156h0.0195312
		c0.1557617-0.2924805,0.3510742-0.4941406,0.7084961-0.4941406c0.3183594,0,0.5200195,0.1821289,0.5981445,0.5463867
		c0.1884766-0.331543,0.3964844-0.5463867,0.7475586-0.5463867c0.4355469,0,0.6889648,0.3447266,0.6889648,0.9750977v2.262207
		h-0.5136719v-2.2167969c0-0.3701172-0.1103516-0.5585938-0.3447266-0.5585938
		c-0.2270508,0-0.3769531,0.1621094-0.5390625,0.4873047v2.2880859h-0.4291992v-2.2167969
		c0-0.3701172-0.1235352-0.5585938-0.3574219-0.5585938c-0.2211914,0-0.3642578,0.1621094-0.5268555,0.4873047v2.2880859h-0.5131836
		V36.2998047z"/>
	<path class="st5" d="M46.2587891,36.2998047h2.0019531v3.1591797h-0.5327148v-2.7236328h-1.4692383V36.2998047z
		 M47.5068359,35.2402344c0-0.253418,0.1821289-0.4160156,0.4291992-0.4160156c0.2402344,0,0.4287109,0.1625977,0.4287109,0.4160156
		c0,0.2470703-0.1884766,0.409668-0.4287109,0.409668C47.6889648,35.6499023,47.5068359,35.4873047,47.5068359,35.2402344z"/>
	<path class="st5" d="M50.1782227,36.2998047h0.4418945l0.0458984,0.5395508h0.0258789
		c0.331543-0.3510742,0.6953125-0.6176758,1.1894531-0.6176758c0.7475586,0,1.0917969,0.4423828,1.0917969,1.2744141v1.9628906
		h-0.5327148v-1.8916016c0-0.5981445-0.2080078-0.8837891-0.7280273-0.8837891
		c-0.3769531,0-0.6303711,0.1884766-1.0009766,0.5717773v2.2036133h-0.5332031V36.2998047z"/>
	<path class="st5" d="M54.2016602,38.6918945c0.3510742,0.2602539,0.7412109,0.4291992,1.3066406,0.4291992
		s0.8447266-0.2211914,0.8447266-0.4941406c0-0.2470703-0.253418-0.4223633-1.0268555-0.6108398
		c-0.6499023-0.1625977-1.2026367-0.4487305-1.2026367-0.8969727c0-0.5073242,0.4550781-0.8974609,1.3261719-0.8974609
		c0.4746094,0,0.9555664,0.1884766,1.2675781,0.4033203l-0.2602539,0.3442383
		c-0.2792969-0.1948242-0.6171875-0.331543-1.0073242-0.331543c-0.5913086,0-0.7797852,0.2080078-0.7797852,0.4550781
		c0,0.2602539,0.3896484,0.4160156,0.9619141,0.559082c0.8515625,0.2143555,1.2607422,0.4614258,1.2607422,0.9423828
		c0,0.5136719-0.5004883,0.9428711-1.4038086,0.9428711c-0.6176758,0-1.1635742-0.2275391-1.5473633-0.4941406
		L54.2016602,38.6918945z"/>
	<path class="st5" d="M58.7128906,36.7353516h-0.8901367v-0.402832l0.909668-0.0327148l0.0717773-0.8837891h0.4418945v0.8837891
		h1.546875v0.4355469h-1.546875v1.5014648c0,0.5654297,0.1884766,0.8647461,0.7993164,0.8647461
		c0.2993164,0,0.5395508-0.0585938,0.7607422-0.1430664l0.1103516,0.3901367
		c-0.2792969,0.1040039-0.6435547,0.1884766-0.987793,0.1884766c-0.9165039,0-1.2158203-0.5268555-1.2158203-1.3066406V36.7353516z"
		/>
	<path class="st5" d="M64.0883789,37.4570312C64.0756836,37.027832,63.8608398,36.6640625,63.25,36.6640625
		c-0.409668,0-0.8125,0.1948242-1.1049805,0.3769531l-0.2080078-0.3642578
		c0.3183594-0.2080078,0.8515625-0.4550781,1.4038086-0.4550781c0.8647461,0,1.2807617,0.5136719,1.2807617,1.300293v1.9370117
		h-0.4355469l-0.0454102-0.4291992h-0.0195312c-0.3510742,0.2729492-0.7998047,0.5073242-1.2480469,0.5073242
		c-0.5917969,0-1.0727539-0.331543-1.0727539-0.8969727C61.800293,37.9316406,62.4570312,37.5869141,64.0883789,37.4570312z
		 M63.0161133,39.1079102c0.3574219,0,0.7148438-0.1689453,1.0722656-0.4677734v-0.8320312
		c-1.3520508,0.1103516-1.7680664,0.3769531-1.7680664,0.7929688
		C62.3203125,38.9584961,62.6518555,39.1079102,63.0161133,39.1079102z"/>
	<path class="st5" d="M65.7001953,34.8310547H67.3125v3.6074219c0,0.4614258,0.2402344,0.65625,0.6171875,0.65625
		c0.1821289,0,0.3642578-0.0454102,0.5981445-0.1494141l0.1367188,0.4033203
		c-0.2861328,0.1040039-0.5073242,0.1884766-0.8515625,0.1884766c-0.6694336,0-1.0336914-0.3901367-1.0336914-1.1376953v-3.1333008
		h-1.0791016V34.8310547z"/>
	<path class="st5" d="M69.6000977,34.8310547h1.6123047v3.6074219c0,0.4614258,0.2402344,0.65625,0.6176758,0.65625
		c0.1816406,0,0.3637695-0.0454102,0.5976562-0.1494141l0.1367188,0.4033203
		c-0.2861328,0.1040039-0.5073242,0.1884766-0.8515625,0.1884766c-0.6694336,0-1.0336914-0.3901367-1.0336914-1.1376953v-3.1333008
		h-1.0791016V34.8310547z"/>
	<path class="st5" d="M78.0107422,39.7255859v1.065918h-0.5322266v-4.4916992h0.4414062l0.0458984,0.4033203h0.0195312
		c0.2919922-0.2797852,0.7021484-0.4814453,1.0917969-0.4814453c0.8515625,0,1.3066406,0.6308594,1.3066406,1.6123047
		c0,1.0722656-0.6757812,1.703125-1.4365234,1.703125c-0.2929688,0-0.6630859-0.1494141-0.9492188-0.409668L78.0107422,39.7255859z
		 M78.8564453,39.0883789c0.5654297,0,0.9746094-0.4746094,0.9746094-1.2543945c0-0.6958008-0.2597656-1.1635742-0.890625-1.1635742
		c-0.2792969,0-0.6044922,0.1494141-0.9296875,0.4746094v1.5727539
		C78.3105469,38.984375,78.6416016,39.0883789,78.8564453,39.0883789z"/>
	<path class="st5" d="M81.3779297,34.8310547h0.5332031v1.2607422l-0.0263672,0.7475586
		c0.3378906-0.3510742,0.7021484-0.6176758,1.1962891-0.6176758c0.7470703,0,1.0917969,0.4423828,1.0917969,1.2744141v1.9628906
		h-0.5332031v-1.8916016c0-0.5981445-0.2080078-0.8837891-0.7275391-0.8837891
		c-0.3769531,0-0.6308594,0.1884766-1.0009766,0.5717773v2.2036133h-0.5332031V34.8310547z"/>
	<path class="st5" d="M86.6240234,36.2216797c0.8320312,0,1.5595703,0.6044922,1.5595703,1.6640625
		c0,1.046875-0.7275391,1.6513672-1.5595703,1.6513672s-1.5605469-0.6044922-1.5605469-1.6513672
		C85.0634766,36.8261719,85.7919922,36.2216797,86.6240234,36.2216797z M86.6240234,39.0947266
		c0.6044922,0,1.0078125-0.4873047,1.0078125-1.2089844c0-0.7280273-0.4033203-1.2216797-1.0078125-1.2216797
		s-1.0078125,0.4936523-1.0078125,1.2216797C85.6162109,38.6074219,86.0195312,39.0947266,86.6240234,39.0947266z"/>
	<path class="st5" d="M89.1777344,36.2998047h0.4423828l0.0449219,0.5395508h0.0263672
		c0.3310547-0.3510742,0.6953125-0.6176758,1.1894531-0.6176758c0.7470703,0,1.0917969,0.4423828,1.0917969,1.2744141v1.9628906
		h-0.5332031v-1.8916016c0-0.5981445-0.2080078-0.8837891-0.7275391-0.8837891
		c-0.3769531,0-0.6308594,0.1884766-1.0009766,0.5717773v2.2036133h-0.5332031V36.2998047z"/>
	<path class="st5" d="M94.5273438,36.2216797c0.9042969,0,1.4365234,0.5917969,1.4365234,1.4824219
		c0,0.1103516-0.0058594,0.2143555-0.0195312,0.2924805h-2.4697266c0.0390625,0.6821289,0.5205078,1.1113281,1.2089844,1.1113281
		c0.3710938,0,0.6699219-0.1103516,0.9619141-0.2924805l0.1884766,0.3510742
		c-0.3115234,0.2016602-0.7080078,0.3706055-1.2148438,0.3706055c-0.9365234,0-1.6972656-0.6176758-1.6972656-1.6513672
		C92.921875,36.8525391,93.7089844,36.2216797,94.5273438,36.2216797z M95.4707031,37.6455078
		c0-0.6435547-0.3515625-1.0009766-0.9365234-1.0009766c-0.5136719,0-0.9882812,0.3637695-1.0664062,1.0009766H95.4707031z"/>
	<path class="st5" d="M97.3613281,39.3354492v-0.0258789c-0.1689453-0.0913086-0.3251953-0.253418-0.3251953-0.5200195
		c0-0.2016602,0.1367188-0.4291992,0.3769531-0.5917969V38.171875c-0.2148438-0.1625977-0.3896484-0.4418945-0.3896484-0.8188477
		c0-0.6889648,0.5712891-1.1313477,1.2412109-1.1313477c0.1816406,0,0.3310547,0.0263672,0.4677734,0.078125h1.3066406v0.409668
		h-0.8447266c0.1494141,0.1557617,0.2919922,0.3833008,0.2919922,0.6630859c0,0.6757812-0.5390625,1.0854492-1.2216797,1.0854492
		c-0.1621094,0-0.3574219-0.0390625-0.5332031-0.1171875c-0.15625,0.0976562-0.2470703,0.2148438-0.2470703,0.3642578
		c0,0.253418,0.2402344,0.3637695,0.65625,0.3637695h0.7089844c0.8125,0,1.2021484,0.2080078,1.2021484,0.7412109
		c0,0.5913086-0.6816406,1.1049805-1.7548828,1.1049805c-0.9228516,0-1.4560547-0.3183594-1.4560547-0.8774414
		C96.8408203,39.7841797,97.0234375,39.5302734,97.3613281,39.3354492z M98.3359375,40.5444336
		c0.734375,0,1.1894531-0.324707,1.1894531-0.6499023c0-0.2988281-0.2402344-0.3837891-0.7216797-0.3837891h-0.6171875
		c-0.1816406,0-0.3447266-0.0126953-0.4804688-0.0517578c-0.2998047,0.1625977-0.4033203,0.3447266-0.4033203,0.5263672
		C97.3027344,40.3168945,97.6601562,40.5444336,98.3359375,40.5444336z M98.9921875,37.3530273
		c0-0.4418945-0.3242188-0.7412109-0.7275391-0.7412109c-0.3964844,0-0.7285156,0.2993164-0.7285156,0.7412109
		c0,0.4550781,0.3320312,0.7475586,0.7285156,0.7475586C98.6679688,38.1005859,98.9921875,37.8081055,98.9921875,37.3530273z"/>
	<path class="st5" d="M103.0878906,37.4570312c-0.0126953-0.4291992-0.2275391-0.7929688-0.8378906-0.7929688
		c-0.4101562,0-0.8134766,0.1948242-1.1054688,0.3769531l-0.2080078-0.3642578
		c0.3183594-0.2080078,0.8515625-0.4550781,1.4042969-0.4550781c0.8642578,0,1.2802734,0.5136719,1.2802734,1.300293v1.9370117
		h-0.4355469l-0.0458984-0.4291992h-0.0195312c-0.3505859,0.2729492-0.7988281,0.5073242-1.2480469,0.5073242
		c-0.5908203,0-1.0722656-0.331543-1.0722656-0.8969727C100.7998047,37.9316406,101.4560547,37.5869141,103.0878906,37.4570312z
		 M102.015625,39.1079102c0.3574219,0,0.7148438-0.1689453,1.0722656-0.4677734v-0.8320312
		c-1.3515625,0.1103516-1.7675781,0.3769531-1.7675781,0.7929688
		C101.3203125,38.9584961,101.6513672,39.1079102,102.015625,39.1079102z"/>
	<path class="st5" d="M105.3105469,39.7255859v1.065918h-0.5332031v-4.4916992h0.4423828l0.0449219,0.4033203h0.0195312
		c0.2929688-0.2797852,0.7021484-0.4814453,1.0917969-0.4814453c0.8515625,0,1.3066406,0.6308594,1.3066406,1.6123047
		c0,1.0722656-0.6757812,1.703125-1.4365234,1.703125c-0.2919922,0-0.6630859-0.1494141-0.9482422-0.409668L105.3105469,39.7255859z
		 M106.1552734,39.0883789c0.5654297,0,0.9755859-0.4746094,0.9755859-1.2543945
		c0-0.6958008-0.2607422-1.1635742-0.890625-1.1635742c-0.2802734,0-0.6044922,0.1494141-0.9296875,0.4746094v1.5727539
		C105.609375,38.984375,105.9414062,39.0883789,106.1552734,39.0883789z"/>
	<path class="st5" d="M112.84375,37.3203125h2.1582031v0.4682617H112.84375V37.3203125z"/>
	<path class="st5" d="M116.8613281,39.3354492v-0.0258789c-0.1689453-0.0913086-0.3251953-0.253418-0.3251953-0.5200195
		c0-0.2016602,0.1367188-0.4291992,0.3769531-0.5917969V38.171875c-0.2148438-0.1625977-0.3896484-0.4418945-0.3896484-0.8188477
		c0-0.6889648,0.5712891-1.1313477,1.2412109-1.1313477c0.1816406,0,0.3310547,0.0263672,0.4677734,0.078125h1.3066406v0.409668
		h-0.8447266c0.1494141,0.1557617,0.2919922,0.3833008,0.2919922,0.6630859c0,0.6757812-0.5390625,1.0854492-1.2216797,1.0854492
		c-0.1621094,0-0.3574219-0.0390625-0.5332031-0.1171875c-0.15625,0.0976562-0.2470703,0.2148438-0.2470703,0.3642578
		c0,0.253418,0.2402344,0.3637695,0.65625,0.3637695h0.7089844c0.8125,0,1.2021484,0.2080078,1.2021484,0.7412109
		c0,0.5913086-0.6816406,1.1049805-1.7548828,1.1049805c-0.9228516,0-1.4560547-0.3183594-1.4560547-0.8774414
		C116.3408203,39.7841797,116.5234375,39.5302734,116.8613281,39.3354492z M117.8359375,40.5444336
		c0.734375,0,1.1894531-0.324707,1.1894531-0.6499023c0-0.2988281-0.2402344-0.3837891-0.7216797-0.3837891h-0.6171875
		c-0.1816406,0-0.3447266-0.0126953-0.4804688-0.0517578c-0.2998047,0.1625977-0.4033203,0.3447266-0.4033203,0.5263672
		C116.8027344,40.3168945,117.1601562,40.5444336,117.8359375,40.5444336z M118.4921875,37.3530273
		c0-0.4418945-0.3242188-0.7412109-0.7275391-0.7412109c-0.3964844,0-0.7285156,0.2993164-0.7285156,0.7412109
		c0,0.4550781,0.3320312,0.7475586,0.7285156,0.7475586C118.1679688,38.1005859,118.4921875,37.8081055,118.4921875,37.3530273z"/>
</g>
<g id="term">
	<g>
		<rect x="19.4109001" y="19.3798103" class="st6" width="111.2970352" height="9.5572271"/>
	</g>
</g>
</svg>
