<?xml version="1.0" encoding="utf-8"?>
<!-- Generator: Adobe Illustrator 17.1.0, SVG Export Plug-In . SVG Version: 6.00 Build 0)  -->
<!DOCTYPE svg PUBLIC "-//W3C//DTD SVG 1.1//EN" "http://www.w3.org/Graphics/SVG/1.1/DTD/svg11.dtd">
<svg version="1.1" id="Layer_1" xmlns="http://www.w3.org/2000/svg" xmlns:xlink="http://www.w3.org/1999/xlink" x="0px" y="0px"
	 viewBox="25.504 34.604 446.977 253.511" enable-background="new 25.504 34.604 446.977 253.511" xml:space="preserve">
<g id="computer">
	<g>
		<g>
			<g>
				<path fill="#222222" d="M413.323,34.608H85.248c-8.221,0-14.972,6.752-14.972,14.971V258.46h358.022V49.581
					C428.297,41.361,421.541,34.608,413.323,34.608z"/>
			</g>
			<g>
				<path fill="#EEEEEE" d="M25.504,258.315c0,16.441,13.359,29.8,29.798,29.8l0,0l0,0h387.379c16.439,0,29.8-13.359,29.8-29.8
					H25.504z"/>
			</g>
			<g>
				<g id="XMLID_1_">
					<g>
						<path fill="#606060" d="M428.302,49.583v208.88H70.279V49.583c0-8.229,6.75-14.979,14.963-14.979h328.082
							C421.536,34.604,428.302,41.354,428.302,49.583z M416.265,246.281V49.438c0-1.623-1.318-2.941-2.941-2.941v0.145H85.097
							c-1.607,0-2.941,1.318-2.941,2.941v196.698H416.265z"/>
					</g>
				</g>
			</g>
			<path fill="#A0A0A0" d="M279.158,258.315h-14.972h-24.368h-5.578h-14.972h-14.972c0,8.219,6.753,14.972,14.972,14.972h59.744
				c8.221,0,14.972-6.604,14.972-14.972H279.158z"/>
		</g>
	</g>
</g>
<g enable-background="new    ">
	<path fill="#FFFFFF" d="M99.61,96.533c-0.877-0.683-1.56-1.112-2.867-1.112s-2.145,0.624-2.145,1.619
		c0,2.145,6.201,1.736,6.201,5.304c0,1.677-1.384,2.886-3.432,3.101v2.846h-1.17v-2.827c-1.443-0.117-2.827-0.76-3.724-1.521
		l0.76-1.112c0.974,0.702,2.164,1.326,3.627,1.326c1.541,0,2.36-0.702,2.36-1.696c0-2.418-6.182-1.989-6.182-5.382
		c0-1.639,1.267-2.75,3.158-2.944V91.56h1.17v2.555c1.424,0.117,2.32,0.722,3.101,1.482L99.61,96.533z"/>
	<path fill="#FFFFFF" d="M116.028,96.669h1.326l0.136,1.619h0.079c0.995-1.053,2.086-1.853,3.568-1.853
		c2.243,0,3.275,1.327,3.275,3.823v5.889h-1.598v-5.675c0-1.794-0.624-2.651-2.184-2.651c-1.131,0-1.893,0.565-3.003,1.715v6.611
		h-1.6V96.669z"/>
	<path fill="#FFFFFF" d="M129.328,106.947v3.198h-1.6V96.669h1.326l0.138,1.21h0.057c0.877-0.839,2.106-1.444,3.277-1.444
		c2.555,0,3.92,1.893,3.92,4.837c0,3.217-2.029,5.109-4.31,5.109c-0.877,0-1.989-0.448-2.848-1.229L129.328,106.947z
		 M131.862,105.035c1.698,0,2.925-1.424,2.925-3.763c0-2.087-0.779-3.491-2.672-3.491c-0.838,0-1.813,0.448-2.788,1.424v4.718
		C130.224,104.723,131.219,105.035,131.862,105.035z"/>
	<path fill="#FFFFFF" d="M138.785,96.669h1.248l0.136,1.248h0.059c0.467-0.877,1.053-1.482,2.125-1.482
		c0.955,0,1.56,0.546,1.794,1.639c0.565-0.995,1.189-1.639,2.243-1.639c1.307,0,2.067,1.034,2.067,2.925v6.787h-1.541v-6.65
		c0-1.11-0.331-1.676-1.034-1.676c-0.681,0-1.131,0.486-1.617,1.462v6.864h-1.288v-6.65c0-1.11-0.371-1.676-1.072-1.676
		c-0.664,0-1.093,0.486-1.581,1.462v6.864h-1.54V96.669z"/>
	<path fill="#FFFFFF" d="M162.769,96.669h6.006v9.478h-1.598v-8.171h-4.408V96.669z M166.513,93.491c0-0.76,0.546-1.248,1.288-1.248
		c0.721,0,1.286,0.488,1.286,1.248c0,0.741-0.565,1.229-1.286,1.229C167.059,94.72,166.513,94.232,166.513,93.491z"/>
	<path fill="#FFFFFF" d="M174.527,96.669h1.326l0.138,1.619h0.078c0.995-1.053,2.086-1.853,3.568-1.853
		c2.243,0,3.275,1.327,3.275,3.823v5.889h-1.598v-5.675c0-1.794-0.624-2.651-2.184-2.651c-1.131,0-1.891,0.565-3.003,1.715v6.611
		h-1.6V96.669z"/>
	<path fill="#FFFFFF" d="M186.597,103.846c1.053,0.781,2.224,1.288,3.92,1.288s2.534-0.664,2.534-1.482
		c0-0.741-0.76-1.267-3.081-1.833c-1.95-0.488-3.608-1.346-3.608-2.691c0-1.522,1.365-2.692,3.979-2.692
		c1.424,0,2.867,0.565,3.803,1.21l-0.781,1.033c-0.838-0.584-1.852-0.995-3.022-0.995c-1.774,0-2.339,0.624-2.339,1.365
		c0,0.781,1.169,1.248,2.886,1.677c2.555,0.643,3.782,1.384,3.782,2.827c0,1.541-1.501,2.829-4.211,2.829
		c-1.853,0-3.491-0.683-4.642-1.482L186.597,103.846z"/>
	<path fill="#FFFFFF" d="M200.131,97.976h-2.67v-1.208l2.729-0.098l0.215-2.651h1.326v2.651h4.641v1.307h-4.641v4.504
		c0,1.696,0.565,2.594,2.398,2.594c0.898,0,1.619-0.176,2.282-0.429l0.331,1.17c-0.838,0.312-1.931,0.565-2.963,0.565
		c-2.75,0-3.647-1.581-3.647-3.92V97.976z"/>
	<path fill="#FFFFFF" d="M216.257,100.141c-0.038-1.288-0.683-2.379-2.515-2.379c-1.229,0-2.438,0.584-3.315,1.131l-0.624-1.093
		c0.955-0.624,2.555-1.365,4.211-1.365c2.594,0,3.842,1.541,3.842,3.901v5.811h-1.307l-0.136-1.288h-0.059
		c-1.053,0.819-2.399,1.522-3.744,1.522c-1.775,0-3.218-0.995-3.218-2.691C209.393,101.565,211.363,100.531,216.257,100.141z
		 M213.041,105.094c1.072,0,2.145-0.507,3.217-1.403v-2.496c-4.056,0.331-5.304,1.131-5.304,2.379
		C210.953,104.645,211.948,105.094,213.041,105.094z"/>
	<path fill="#FFFFFF" d="M221.093,92.263h4.837v10.822c0,1.384,0.721,1.969,1.852,1.969c0.546,0,1.093-0.136,1.794-0.448l0.41,1.21
		c-0.858,0.312-1.522,0.565-2.555,0.565c-2.008,0-3.101-1.17-3.101-3.413v-9.4h-3.237V92.263z"/>
	<path fill="#FFFFFF" d="M232.793,92.263h4.837v10.822c0,1.384,0.721,1.969,1.853,1.969c0.545,0,1.091-0.136,1.793-0.448l0.41,1.21
		c-0.858,0.312-1.522,0.565-2.555,0.565c-2.008,0-3.101-1.17-3.101-3.413v-9.4h-3.237V92.263z"/>
	<path fill="#FFFFFF" d="M258.025,106.947v3.198h-1.597V96.669h1.324l0.138,1.21h0.059c0.876-0.839,2.106-1.444,3.275-1.444
		c2.555,0,3.92,1.893,3.92,4.837c0,3.217-2.027,5.109-4.31,5.109c-0.879,0-1.989-0.448-2.848-1.229L258.025,106.947z
		 M260.562,105.035c1.696,0,2.924-1.424,2.924-3.763c0-2.087-0.779-3.491-2.672-3.491c-0.838,0-1.813,0.448-2.789,1.424v4.718
		C258.924,104.723,259.917,105.035,260.562,105.035z"/>
	<path fill="#FFFFFF" d="M268.126,92.263h1.6v3.782l-0.079,2.243c1.014-1.053,2.106-1.853,3.589-1.853
		c2.241,0,3.275,1.327,3.275,3.823v5.889h-1.6v-5.675c0-1.794-0.624-2.651-2.183-2.651c-1.131,0-1.893,0.565-3.003,1.715v6.611h-1.6
		V92.263z"/>
	<path fill="#FFFFFF" d="M283.864,96.435c2.496,0,4.679,1.813,4.679,4.992c0,3.141-2.183,4.954-4.679,4.954
		s-4.682-1.813-4.682-4.954C279.183,98.248,281.368,96.435,283.864,96.435z M283.864,105.054c1.813,0,3.023-1.462,3.023-3.627
		c0-2.184-1.21-3.665-3.023-3.665s-3.023,1.481-3.023,3.665C280.841,103.592,282.051,105.054,283.864,105.054z"/>
	<path fill="#FFFFFF" d="M291.526,96.669h1.327l0.135,1.619h0.079c0.993-1.053,2.086-1.853,3.568-1.853
		c2.241,0,3.275,1.327,3.275,3.823v5.889h-1.6v-5.675c0-1.794-0.624-2.651-2.183-2.651c-1.131,0-1.893,0.565-3.003,1.715v6.611h-1.6
		V96.669z"/>
	<path fill="#FFFFFF" d="M307.574,96.435c2.713,0,4.31,1.775,4.31,4.447c0,0.331-0.018,0.643-0.059,0.877h-7.409
		c0.117,2.046,1.562,3.334,3.627,3.334c1.113,0,2.01-0.331,2.886-0.877l0.565,1.053c-0.935,0.605-2.124,1.112-3.645,1.112
		c-2.81,0-5.092-1.853-5.092-4.954C302.758,98.328,305.119,96.435,307.574,96.435z M310.404,100.706c0-1.931-1.055-3.003-2.81-3.003
		c-1.541,0-2.965,1.091-3.199,3.003H310.404z"/>
	<path fill="#FFFFFF" d="M316.076,105.776v-0.078c-0.507-0.274-0.976-0.76-0.976-1.56c0-0.605,0.41-1.288,1.131-1.775v-0.078
		c-0.645-0.488-1.169-1.326-1.169-2.457c0-2.067,1.714-3.394,3.724-3.394c0.545,0,0.993,0.079,1.403,0.234h3.92v1.229h-2.534
		c0.448,0.467,0.876,1.15,0.876,1.989c0,2.027-1.617,3.256-3.665,3.256c-0.486,0-1.072-0.117-1.6-0.352
		c-0.469,0.293-0.741,0.645-0.741,1.093c0,0.76,0.721,1.091,1.969,1.091h2.127c2.438,0,3.606,0.624,3.606,2.224
		c0,1.774-2.045,3.315-5.265,3.315c-2.769,0-4.368-0.955-4.368-2.632C314.515,107.122,315.063,106.361,316.076,105.776z
		 M319,109.403c2.203,0,3.568-0.974,3.568-1.95c0-0.896-0.721-1.151-2.165-1.151h-1.852c-0.545,0-1.034-0.038-1.441-0.155
		c-0.899,0.488-1.21,1.034-1.21,1.579C315.901,108.721,316.973,109.403,319,109.403z M320.969,99.829
		c0-1.326-0.973-2.224-2.183-2.224c-1.189,0-2.186,0.898-2.186,2.224c0,1.365,0.996,2.243,2.186,2.243
		C319.996,102.072,320.969,101.194,320.969,99.829z"/>
	<path fill="#FFFFFF" d="M333.256,100.141c-0.038-1.288-0.683-2.379-2.514-2.379c-1.23,0-2.44,0.584-3.316,1.131l-0.624-1.093
		c0.955-0.624,2.555-1.365,4.213-1.365c2.593,0,3.841,1.541,3.841,3.901v5.811h-1.307l-0.138-1.288h-0.059
		c-1.052,0.819-2.396,1.522-3.744,1.522c-1.772,0-3.217-0.995-3.217-2.691C326.392,101.565,328.36,100.531,333.256,100.141z
		 M330.039,105.094c1.072,0,2.145-0.507,3.217-1.403v-2.496c-4.055,0.331-5.303,1.131-5.303,2.379
		C327.953,104.645,328.946,105.094,330.039,105.094z"/>
	<path fill="#FFFFFF" d="M339.924,106.947v3.198h-1.6V96.669h1.327l0.135,1.21h0.059c0.879-0.839,2.106-1.444,3.275-1.444
		c2.555,0,3.92,1.893,3.92,4.837c0,3.217-2.027,5.109-4.31,5.109c-0.876,0-1.989-0.448-2.845-1.229L339.924,106.947z
		 M342.458,105.035c1.696,0,2.927-1.424,2.927-3.763c0-2.087-0.782-3.491-2.672-3.491c-0.841,0-1.813,0.448-2.789,1.424v4.718
		C340.82,104.723,341.817,105.035,342.458,105.035z"/>
	<path fill="#FFFFFF" d="M362.524,99.731h6.475v1.405h-6.475V99.731z"/>
	<path fill="#FFFFFF" d="M374.576,105.776v-0.078c-0.507-0.274-0.976-0.76-0.976-1.56c0-0.605,0.41-1.288,1.131-1.775v-0.078
		c-0.645-0.488-1.169-1.326-1.169-2.457c0-2.067,1.714-3.394,3.724-3.394c0.545,0,0.993,0.079,1.403,0.234h3.92v1.229h-2.534
		c0.448,0.467,0.876,1.15,0.876,1.989c0,2.027-1.617,3.256-3.665,3.256c-0.486,0-1.072-0.117-1.6-0.352
		c-0.469,0.293-0.741,0.645-0.741,1.093c0,0.76,0.721,1.091,1.969,1.091h2.127c2.438,0,3.606,0.624,3.606,2.224
		c0,1.774-2.045,3.315-5.265,3.315c-2.769,0-4.368-0.955-4.368-2.632C373.015,107.122,373.563,106.361,374.576,105.776z
		 M377.5,109.403c2.203,0,3.568-0.974,3.568-1.95c0-0.896-0.721-1.151-2.165-1.151h-1.852c-0.545,0-1.034-0.038-1.441-0.155
		c-0.899,0.488-1.21,1.034-1.21,1.579C374.401,108.721,375.473,109.403,377.5,109.403z M379.469,99.829
		c0-1.326-0.973-2.224-2.183-2.224c-1.189,0-2.186,0.898-2.186,2.224c0,1.365,0.996,2.243,2.186,2.243
		C378.496,102.072,379.469,101.194,379.469,99.829z"/>
</g>
<g id="term">
	<g>
		<rect x="82.225" y="45.909" fill="#7A7E82" width="333.891" height="28.672"/>
	</g>
</g>
</svg>
