<?xml version="1.0" encoding="utf-8"?>
<!-- Generator: Adobe Illustrator 16.0.0, SVG Export Plug-In . SVG Version: 6.00 Build 0)  -->
<!DOCTYPE svg PUBLIC "-//W3C//DTD SVG 1.1//EN" "http://www.w3.org/Graphics/SVG/1.1/DTD/svg11.dtd">
<svg version="1.1" xmlns="http://www.w3.org/2000/svg" xmlns:xlink="http://www.w3.org/1999/xlink" x="0px" y="0px" width="94px"
	 height="198.9px" viewBox="0 0 94 198.9" enable-background="new 0 0 94 198.9" xml:space="preserve">
<g id="Layer_2">
	<path fill="#EEEEEE" d="M94,189c0,5.5-4.4,9.9-9.9,9.9H9.9c-5.5,0-9.9-4.4-9.9-9.9V9.9C0,4.4,4.4,0,9.9,0h74.2
		C89.6,0,94,4.4,94,9.9V189z"/>
</g>
<g id="Layer_3">
	<line fill="none" x1="91.8" y1="78.2" x2="-2.2" y2="172.2"/>
	<line fill="none" x1="92.2" y1="122.2" x2="34.9" y2="179.6"/>
	<g>
		<g id="XMLID_1_">
			<g>
				<path fill="#222222" d="M89.3,125.9v44.1c0,1.1-0.9,2-2,2H43.2L89.3,125.9z"/>
				<polygon fill="#D1D1D1" points="89.3,97.9 89.3,125.9 43.2,171.9 15.2,171.9 				"/>
				<path fill="#222222" d="M89.3,26.3v71.6l-74.1,74.1H6.7c-1.1,0-2-0.9-2-2V80.1l55.8-55.8h26.8C88.4,24.3,89.3,25.2,89.3,26.3z"
					/>
				<polygon fill="#D1D1D1" points="60.5,24.3 4.7,80.1 4.7,63.8 44.2,24.3 				"/>
				<path fill="#222222" d="M44.2,24.3L4.7,63.8V26.3c0-1.1,0.9-2,2-2H44.2z"/>
			</g>
			<g>
			</g>
		</g>
	</g>
</g>
<g id="Layer_4">
	<circle fill="#666666" stroke="#222222" stroke-width="0.5" stroke-miterlimit="10" cx="47" cy="186.9" r="7.7"/>
</g>
</svg>
