<?xml version="1.0" encoding="utf-8"?>
<!-- Generator: Adobe Illustrator 16.0.0, SVG Export Plug-In . SVG Version: 6.00 Build 0)  -->
<!DOCTYPE svg PUBLIC "-//W3C//DTD SVG 1.1//EN" "http://www.w3.org/Graphics/SVG/1.1/DTD/svg11.dtd">
<svg version="1.1" id="Layer_1" xmlns="http://www.w3.org/2000/svg" xmlns:xlink="http://www.w3.org/1999/xlink" x="0px" y="0px"
	 width="95px" height="195px" viewBox="-1.6 1.9 95 195" enable-background="new -1.6 1.9 95 195" xml:space="preserve">
<g>
	<g id="step_2_iphone">
		<path fill="#EEEEEE" d="M93.4,187.2c0,5.4-4.3,9.7-9.8,9.7H10.3c-5.4,0-9.8-4.3-9.8-9.7V11.7c0-5.4,4.3-9.7,9.8-9.7h73.3
			c5.4,0,9.8,4.3,9.8,9.7V187.2z"/>
	</g>
	<g>
		<line fill="none" x1="91.2" y1="78.6" x2="-1.6" y2="170.8"/>
		<line fill="none" x1="91.6" y1="121.8" x2="35" y2="178"/>
		<g>
			<path fill="#222222" d="M88.8,125.4v43.2c0,1.1-0.9,2-2,2H43.2L88.8,125.4z"/>
			<polygon fill="#545051" stroke="#545051" stroke-width="0.2" points="88.8,97.9 88.8,125.4 43.2,170.5 15.6,170.5 			"/>
			<path fill="#222222" d="M88.8,27.7v70.2l-73.2,72.6H7.2c-1.1,0-2-0.9-2-2V80.5l55.1-54.7h26.5C87.9,25.8,88.8,26.7,88.8,27.7z"/>
			<polygon fill="#545051" stroke="#545051" stroke-width="0.2" points="60.3,25.8 5.2,80.5 5.2,64.5 44.2,25.8 			"/>
			<path fill="#222222" d="M44.2,25.8l-39,38.7V27.7c0-1.1,0.9-2,2-2H44.2z"/>
		</g>
	</g>
	<g>
		<ellipse fill="#666666" stroke="#222222" stroke-width="0.5" stroke-miterlimit="10" cx="47" cy="185.2" rx="7.6" ry="7.5"/>
	</g>
</g>
</svg>
