<?xml version="1.0" encoding="utf-8"?>
<!-- Generator: Adobe Illustrator 16.0.0, SVG Export Plug-In . SVG Version: 6.00 Build 0)  -->
<!DOCTYPE svg PUBLIC "-//W3C//DTD SVG 1.1//EN" "http://www.w3.org/Graphics/SVG/1.1/DTD/svg11.dtd">
<svg version="1.1" id="Layer_1" xmlns="http://www.w3.org/2000/svg" xmlns:xlink="http://www.w3.org/1999/xlink" x="0px" y="0px"
	 width="95px" height="195px" viewBox="0 -0.05 95 195" enable-background="new 0 -0.05 95 195" xml:space="preserve">
<g>
	<g>
		<path fill="#EFEEEE" d="M95,185.23c0,5.377-4.473,9.72-10.008,9.72h-74.98C4.473,194.95,0,190.607,0,185.23V9.668
			C0,4.29,4.473-0.05,10.012-0.05h74.98C90.527-0.05,95,4.293,95,9.668V185.23z"/>
	</g>
	<g>
		<g>
			<path fill="#222222" d="M90.88,162.221c0,1.251-1.04,2.264-2.332,2.264H7.7c-1.292,0-2.332-1.013-2.332-2.264V21.475
				c0-1.253,1.041-2.265,2.332-2.265h80.848c1.292,0,2.332,1.012,2.332,2.265V162.221z"/>
			<polygon fill="#383636" points="90.88,91.903 90.88,119.406 44.441,164.485 16.106,164.485 			"/>
			<polygon fill="#383636" points="61.816,19.211 5.368,74.01 5.368,58.086 45.204,19.211 			"/>
		</g>
	</g>
	<g>
		<path fill="#676767" d="M47.5,175.511c4.35,0,7.881,3.425,7.881,7.649c0,4.226-3.531,7.65-7.881,7.65
			c-4.354,0-7.88-3.425-7.88-7.65C39.62,178.936,43.146,175.511,47.5,175.511z"/>
	</g>
</g>
<path id="text1535" fill="#EEEEEE" d="M40.76,75.881c1.258,0,2.776,0.261,4.557,0.781c1.795,0.52,2.986,0.779,3.574,0.779
	c0.756,0,1.989-0.294,3.701-0.882c1.712-0.587,3.196-0.881,4.457-0.881c2.063,0,3.901,0.554,5.514,1.661
	c0.905,0.639,1.804,1.503,2.692,2.595c-1.344,1.141-2.323,2.155-2.945,3.046c-1.124,1.61-1.688,3.391-1.688,5.338
	c0,2.133,0.597,4.053,1.787,5.766c1.193,1.712,2.553,2.794,4.08,3.247c-0.638,2.064-1.695,4.222-3.173,6.47
	c-2.231,3.375-4.446,5.062-6.646,5.062c-0.875,0-2.082-0.277-3.627-0.83c-1.526-0.555-2.82-0.832-3.877-0.832
	c-1.058,0-2.292,0.285-3.701,0.855c-1.394,0.588-2.526,0.883-3.398,0.883c-2.636,0-5.221-2.234-7.755-6.7
	c-2.534-4.412-3.802-8.743-3.802-12.989c0-3.944,0.965-7.159,2.896-9.643C35.354,77.122,37.805,75.881,40.76,75.881 M56.62,65.961
	c0.067,0.219,0.109,0.41,0.127,0.58c0.017,0.167,0.024,0.335,0.024,0.502c0,1.075-0.252,2.25-0.756,3.525s-1.301,2.459-2.392,3.55
	c-0.94,0.923-1.871,1.544-2.795,1.864c-0.588,0.184-1.478,0.327-2.669,0.427c0.033-2.551,0.695-4.758,1.989-6.621
	C51.458,67.925,53.616,66.649,56.62,65.961"/>
</svg>
