<?xml version="1.0" encoding="utf-8"?>
<!-- Generator: Adobe Illustrator 16.0.0, SVG Export Plug-In . SVG Version: 6.00 Build 0)  -->
<!DOCTYPE svg PUBLIC "-//W3C//DTD SVG 1.1//EN" "http://www.w3.org/Graphics/SVG/1.1/DTD/svg11.dtd">
<svg version="1.1" id="Layer_1" xmlns="http://www.w3.org/2000/svg" xmlns:xlink="http://www.w3.org/1999/xlink" x="0px" y="0px"
	 width="95px" height="194.9px" viewBox="-1.6 2 95 194.9" enable-background="new -1.6 2 95 194.9" xml:space="preserve">
<g>
	<g id="step_2_iphone">
		<path fill="#EEEEEE" d="M93.4,187.2c0,5.399-4.301,9.7-9.801,9.7H10.3c-5.4,0-9.8-4.301-9.8-9.7V11.7C0.5,6.3,4.8,2,10.3,2h73.3
			C89,2,93.4,6.3,93.4,11.7V187.2L93.4,187.2z"/>
	</g>
	<g>
		<line fill="none" x1="91.2" y1="78.6" x2="-1.6" y2="170.8"/>
		<line fill="none" x1="91.6" y1="121.8" x2="35" y2="178"/>
		<g>
			<path fill="#222222" d="M88.8,125.4V168.6c0,1.101-0.899,2-2,2H43.2L88.8,125.4z"/>
			<polygon fill="#545051" stroke="#545051" stroke-width="0.2" points="88.8,97.9 88.8,125.4 43.2,170.5 15.6,170.5 			"/>
			<path fill="#222222" d="M88.8,27.7v70.2l-73.2,72.6H7.2c-1.1,0-2-0.9-2-2v-88l55.1-54.7h26.5C87.9,25.8,88.8,26.7,88.8,27.7z"/>
			<polygon fill="#545051" stroke="#545051" stroke-width="0.2" points="60.3,25.8 5.2,80.5 5.2,64.5 44.2,25.8 			"/>
			<path fill="#222222" d="M44.2,25.8l-39,38.7V27.7c0-1.1,0.9-2,2-2h37V25.8z"/>
		</g>
	</g>
	<g>
		<ellipse fill="#666666" stroke="#222222" stroke-width="0.5" stroke-miterlimit="10" cx="47" cy="185.2" rx="7.6" ry="7.5"/>
	</g>
</g>
<path id="text1535" fill="#EEEEEE" d="M40.159,74.881c1.258,0,2.776,0.26,4.557,0.781c1.795,0.519,2.986,0.779,3.574,0.779
	c0.756,0,1.989-0.294,3.701-0.882c1.712-0.587,3.196-0.881,4.457-0.881c2.064,0,3.902,0.554,5.514,1.662
	c0.905,0.638,1.804,1.503,2.693,2.594c-1.344,1.141-2.324,2.156-2.946,3.046c-1.124,1.611-1.687,3.391-1.687,5.338
	c0,2.133,0.596,4.053,1.787,5.766c1.193,1.713,2.553,2.795,4.079,3.248c-0.637,2.064-1.694,4.221-3.172,6.469
	c-2.232,3.375-4.447,5.062-6.646,5.062c-0.874,0-2.082-0.277-3.626-0.83c-1.527-0.555-2.821-0.832-3.878-0.832
	s-2.291,0.285-3.701,0.855c-1.394,0.588-2.526,0.883-3.398,0.883c-2.636,0-5.221-2.234-7.755-6.699
	c-2.534-4.412-3.802-8.744-3.802-12.99c0-3.945,0.965-7.159,2.896-9.643C34.754,76.122,37.204,74.881,40.159,74.881 M56.02,64.961
	c0.067,0.218,0.109,0.41,0.126,0.58c0.017,0.167,0.025,0.335,0.025,0.502c0,1.075-0.252,2.25-0.756,3.525
	c-0.504,1.276-1.301,2.459-2.392,3.55c-0.94,0.923-1.871,1.544-2.794,1.864c-0.589,0.184-1.478,0.327-2.669,0.427
	c0.033-2.551,0.695-4.758,1.989-6.621C50.858,66.925,53.016,65.649,56.02,64.961"/>
</svg>
