<?xml version="1.0" encoding="utf-8"?>
<!-- Generator: Adobe Illustrator 16.0.0, SVG Export Plug-In . SVG Version: 6.00 Build 0)  -->
<!DOCTYPE svg PUBLIC "-//W3C//DTD SVG 1.1//EN" "http://www.w3.org/Graphics/SVG/1.1/DTD/svg11.dtd">
<svg version="1.1" id="Layer_1" xmlns="http://www.w3.org/2000/svg" xmlns:xlink="http://www.w3.org/1999/xlink" x="0px" y="0px"
	 width="350px" height="157.99px" viewBox="16.6 7.229 350 157.99" enable-background="new 16.6 7.229 350 157.99"
	 xml:space="preserve">
<g>
	<g>
		<g>
			<path fill="#222222" d="M257.91,7.481H53.774c-5.115,0-9.316,4.201-9.316,9.315v129.971h222.769V16.798
				C267.227,11.683,263.023,7.481,257.91,7.481z"/>
		</g>
		<g>
			<path fill="#EEEEEE" d="M16.6,146.677c0,10.23,8.312,18.542,18.541,18.542l0,0l0,0h241.036c10.229,0,18.542-8.312,18.542-18.542
				H16.6z"/>
		</g>
		<g>
			<g id="XMLID_1_">
				<g>
					<path fill="#606060" d="M267.23,16.799v129.97H44.46V16.799c0-5.12,4.2-9.32,9.31-9.32h204.14
						C263.02,7.479,267.23,11.679,267.23,16.799z M259.74,139.189V16.709c0-1.01-0.82-1.83-1.83-1.83v0.09H53.68
						c-1,0-1.83,0.82-1.83,1.83v122.39H259.74z"/>
				</g>
				<g>
				</g>
			</g>
		</g>
		<path fill="#A0A0A0" d="M174.429,146.677h-9.316h-15.162h-3.471h-9.316h-9.316c0,5.114,4.202,9.316,9.316,9.316h37.174
			c5.115,0,9.316-4.109,9.316-9.316H174.429z"/>
	</g>
	<g>
		<g>
			<path fill="#EFEEEE" d="M366.6,115.532c0,2.375-1.918,4.293-4.291,4.293h-32.151c-2.375,0-4.293-1.918-4.293-4.293V37.987
				c0-2.375,1.918-4.292,4.293-4.292h32.151c2.373,0,4.291,1.918,4.291,4.292V115.532z"/>
		</g>
		<g>
			<g>
				<path fill="#222222" d="M364.833,105.369c0,0.553-0.447,1-1,1h-34.666c-0.553,0-1-0.447-1-1V43.202c0-0.553,0.447-1,1-1h34.666
					c0.553,0,1,0.447,1,1V105.369z"/>
				<polygon fill="#383636" points="364.833,74.31 364.833,86.458 344.921,106.369 332.772,106.369 				"/>
				<polygon fill="#383636" points="352.371,42.202 328.167,66.406 328.167,59.373 345.248,42.202 				"/>
			</g>
		</g>
		<g>
			<circle fill="#676767" cx="346.232" cy="114.618" r="3.379"/>
		</g>
	</g>
	<g>
		<polygon fill="#FFFFFF" points="277,69.864 287.869,76.166 277,82.468 		"/>
	</g>
	<g>
		<polygon fill="#FFFFFF" points="292.436,69.864 303.396,76.166 292.436,82.468 		"/>
	</g>
	<g>
		<polygon fill="#FFFFFF" points="307.871,69.864 318.832,76.166 307.871,82.468 		"/>
	</g>
</g>
</svg>
