<?xml version="1.0" encoding="utf-8"?>
<!-- Generator: Adobe Illustrator 16.0.0, SVG Export Plug-In . SVG Version: 6.00 Build 0)  -->
<!DOCTYPE svg PUBLIC "-//W3C//DTD SVG 1.1//EN" "http://www.w3.org/Graphics/SVG/1.1/DTD/svg11.dtd">
<svg version="1.1" id="Layer_1" xmlns="http://www.w3.org/2000/svg" xmlns:xlink="http://www.w3.org/1999/xlink" x="0px" y="0px"
	 width="350px" height="157.738px" viewBox="16.6 7.481 350 157.738" enable-background="new 16.6 7.481 350 157.738"
	 xml:space="preserve">
<g>
	<g>
		<g>
			<path fill="#3A3A3A" d="M257.91,7.481H53.774c-5.115,0-9.316,4.201-9.316,9.316v129.97h222.769V16.798
				C267.226,11.683,263.024,7.481,257.91,7.481z"/>
		</g>
		<g>
			<path fill="#EEEEEE" d="M16.6,146.677c0,10.23,8.312,18.542,18.541,18.542l0,0l0,0h241.036c10.229,0,18.542-8.312,18.542-18.542
				H16.6z"/>
		</g>
		<g>
			<path fill="#454545" d="M257.91,14.879c1.005,0,1.827,0.822,1.827,1.827v122.483H51.855V16.798c0-1.005,0.822-1.827,1.827-1.827
				H257.91V14.879z M257.91,7.481H53.774c-5.115,0-9.316,4.201-9.316,9.316v129.97h222.769V16.798
				C267.226,11.683,263.024,7.481,257.91,7.481L257.91,7.481z"/>
		</g>
		<path fill="#666766" d="M174.429,146.677h-9.316h-15.162h-3.471h-9.316h-9.316c0,5.114,4.202,9.316,9.316,9.316h37.174
			c5.115,0,9.316-4.109,9.316-9.316H174.429z"/>
	</g>
	<g>
		<g>
			<path fill="#EFEEEE" d="M366.6,115.532c0,2.375-1.918,4.293-4.292,4.293h-32.151c-2.375,0-4.293-1.918-4.293-4.293V37.987
				c0-2.375,1.918-4.292,4.293-4.292h32.151c2.374,0,4.292,1.918,4.292,4.292V115.532z"/>
		</g>
		<g>
			<line fill="none" x1="365.595" y1="67.58" x2="324.86" y2="108.316"/>
			<line fill="none" x1="365.778" y1="86.579" x2="340.935" y2="111.513"/>
			<g>
				<path fill="#222222" d="M364.5,88.222v19.09c0,0.457-0.365,0.822-0.821,0.822h-19.09L364.5,88.222z"/>
				<polygon fill="#545051" points="364.5,76.075 364.5,88.222 344.588,108.134 332.44,108.134 				"/>
				<path fill="#222222" d="M364.5,45.112v31.054l-32.06,32.059h-3.653c-0.457,0-0.822-0.365-0.822-0.822v-39l24.204-24.204h11.51
					C364.134,44.199,364.5,44.655,364.5,45.112z"/>
				<polygon fill="#545051" points="352.077,44.199 327.873,68.403 327.873,61.37 344.954,44.199 				"/>
				<path fill="#222222" d="M344.954,44.199L327.873,61.37V45.112c0-0.457,0.366-0.822,0.823-0.822h16.258V44.199z"/>
			</g>
		</g>
		<g>
			<circle fill="#676767" stroke="#222222" stroke-width="0.5" stroke-miterlimit="10" cx="346.232" cy="114.618" r="3.379"/>
		</g>
	</g>
	<g>
		<polygon fill="#FFFFFF" points="277,69.864 287.869,76.166 277,82.468 		"/>
	</g>
	<g>
		<polygon fill="#FFFFFF" points="292.436,69.864 303.396,76.166 292.436,82.468 		"/>
	</g>
	<g>
		<polygon fill="#FFFFFF" points="307.871,69.864 318.832,76.166 307.871,82.468 		"/>
	</g>
</g>
</svg>
