<?xml version="1.0" encoding="utf-8"?>
<!-- Generator: Adobe Illustrator 16.0.0, SVG Export Plug-In . SVG Version: 6.00 Build 0)  -->
<!DOCTYPE svg PUBLIC "-//W3C//DTD SVG 1.1//EN" "http://www.w3.org/Graphics/SVG/1.1/DTD/svg11.dtd">
<svg version="1.1" id="Layer_1" xmlns="http://www.w3.org/2000/svg" xmlns:xlink="http://www.w3.org/1999/xlink" x="0px" y="0px"
	 width="109px" height="40px" viewBox="0 0 109 40" enable-background="new 0 0 109 40" xml:space="preserve">
<g>
	<path fill="#FFFFFF" d="M26.1,9.3C26,7,24,6.5,24,6.5S16.9,5.4,13.8,5c-3.1-0.4-2.9,2.6-2.9,2.6s0.7,21.9,0.8,24.6
		c0.1,3.2,3.1,2.7,3.1,2.7l10.7-1.8c1.9-0.4,2-2.8,2-2.8S26.2,11.8,26.1,9.3C26,7,26.2,11.8,26.1,9.3z M23.7,27.9l-7.9,0.8
		c0,0-2.3,0.4-2.4-2.5c0-2.1-0.5-13.9-0.5-13.9s-0.2-2.2,2.2-2c2.4,0.2,8.2,0.6,8.2,0.6s1.6,0.4,1.6,2.1c0.1,1.9,0.7,12.6,0.7,12.6
		S25.9,27.5,23.7,27.9z"/>
	<path fill="#FFFFFF" d="M4.3,24.7l-1.5,0.1c0,0-1.5,0.2-1.5-1.4c0-1.2-0.2-8-0.2-8s-0.1-1.3,1.4-1.1c0.4,0,0.9,0.1,1.5,0.1
		c0-1.1,0-2.1-0.1-2.8c-0.8-0.1-1.6-0.1-2.2-0.2c-2-0.2-1.9,1.5-1.9,1.5s0.2,12.4,0.3,13.9c0.1,1.8,2,1.5,2,1.5L4.4,28
		C4.4,27.1,4.3,26,4.3,24.7z"/>
	<path fill="#FFFFFF" d="M10.1,13.4c0-0.2,0-0.3-0.1-0.4c-0.6-0.1-2.2-0.5-2.8,0.1c-0.3,0.3-0.2,1.1-0.2,1.5c0.7,0,1.2,0.1,1.2,0.1
		s1,0.2,1,1.2c0,1.1,0,7.3,0,7.3s0.1,1-1.3,1.2l-0.7,0.1c0,0.2,0,0.4,0,0.5c0,1.8,1.9,1.2,3.1,1.1c0.1-1.9-0.1-3.8-0.1-5.7
		C10.3,18.1,10.2,15.8,10.1,13.4C10.1,13.3,10.2,14.9,10.1,13.4z"/>
	<path fill="#FFFFFF" d="M10.7,26.8L8.6,27c0,0-2,0.3-2-2c0-1.7-0.2-11.3-0.2-11.3S6.2,12,8.3,12.1c0.5,0,1.2,0.1,2,0.2
		c-0.1-1.8-0.1-3.3-0.1-4C9.1,8.1,8.1,8,7.3,7.9C4.6,7.6,4.8,10,4.8,10s0.3,17.6,0.4,19.8c0.1,2.6,2.7,2.2,2.7,2.2l3-0.4
		C10.9,30.5,10.8,28.9,10.7,26.8z"/>
	<path fill="#FFFFFF" d="M15.1,11.1c-0.4,0-0.8,0-1.1,0.3c-0.3,0.3-0.3,0.8-0.3,1.1c1.1,0.1,1.8,0.2,1.8,0.2s1.3,0.3,1.4,1.8
		c0.1,1.6,0.4,10.1,0.4,10.1s0.2,1.4-1.8,1.8l-1.4,0.1c0.2,2.2,3.1,1.3,4.6,1.1c-0.2-3.4-0.6-13.9-0.7-16.3
		C16.9,11.3,15.8,11.2,15.1,11.1C15,11.1,15.8,11.2,15.1,11.1z"/>
</g>
<g>
	<path fill="#FFFFFF" d="M40,12.8c1.2,0,2,0.3,2.6,0.9c1.2,1.2,1.2,3.7,0,5c-1.4,1.4-4.3,0.9-6.1,0.9v4.7h-1.5V12.8H40z M39.4,18.3
		c0.9,0,1.5-0.2,1.9-0.5c0.8-0.7,0.8-2.4,0-3.1c-1.1-1-3.5-0.5-4.9-0.5v4.2H39.4z"/>
	<path fill="#FFFFFF" d="M46.2,12.8v4.4h0c0.6-1.5,2.9-1.8,4.2-1.1c1.1,0.6,1.2,1.9,1.2,3c0,1.7,0,3.4,0,5.1h-1.4c0-1.1,0-2.2,0-3.3
		c0-1,0.3-2.8-0.4-3.5C49,16.6,47.2,17,46.6,18c-0.5,0.7-0.4,1.5-0.4,2.3c0,1.3,0,2.6,0,3.9h-1.4V12.8
		C45.3,12.8,45.7,12.8,46.2,12.8z"/>
	<path fill="#FFFFFF" d="M53.5,18.4c0.7-2.2,3.1-3.1,5.2-2.4c2.3,0.8,3,3.6,2.3,5.8c-0.7,2.2-3.1,3.1-5.2,2.4
		C53.4,23.4,52.8,20.6,53.5,18.4C53.6,17.9,53.3,19,53.5,18.4z M54.9,21.5c0.5,1.5,2.2,2.3,3.6,1.5c1.4-0.8,1.6-2.8,1.1-4.1
		c-0.5-1.5-2.2-2.3-3.6-1.5C54.6,18.1,54.4,20.1,54.9,21.5C55,21.9,54.7,21.1,54.9,21.5z"/>
	<path fill="#FFFFFF" d="M64.1,16v1.3c1-1.2,2.2-1.9,3.9-1.4c1.4,0.4,1.7,1.8,1.7,3.1c0,1.7,0,3.5,0,5.2h-1.4c0-1.1,0-2.2,0-3.3
		c0-1,0.3-2.8-0.4-3.5C67,16.6,65.2,17,64.6,18c-0.5,0.7-0.4,1.5-0.4,2.3c0,1.3,0,2.6,0,3.9h-1.4V16C63.2,16,63.7,16,64.1,16z"/>
	<path fill="#FFFFFF" d="M77.5,23.7c-1,0.8-2.6,0.9-3.8,0.5c-1.5-0.5-2.2-1.9-2.4-3.4c-0.2-1.6,0.2-3.2,1.5-4.2
		c1.1-0.9,2.9-1.1,4.2-0.3c1.4,0.9,2,2.7,1.9,4.3h-6.2c-0.1,2,2.2,3.6,4,2.3c0.4-0.3,0.6-0.7,0.7-1.2h1.3
		C78.5,22.6,78.1,23.3,77.5,23.7C76.9,24.2,78.1,23.3,77.5,23.7z M77.2,18.4c-1-2.4-4.4-1.5-4.5,0.9h4.8
		C77.4,19,77.3,18.7,77.2,18.4C77.1,18.1,77.3,18.7,77.2,18.4z"/>
	<path fill="#FFFFFF" d="M87.4,24.1c-2.1,0.8-4.5,0.3-6-1.4c-1.6-1.8-1.8-4.5-1-6.7c0.8-2.2,2.7-3.5,5-3.5c2.4,0,4.5,1.3,4.9,3.8
		h-1.5c-0.4-2-2.5-2.8-4.4-2.4c-2.2,0.5-3.1,3-2.9,5.1c0.1,2.2,1.6,4.2,3.9,4.2c2.1,0,3.8-1.6,3.7-3.7h-3.6v-1.3h5v6h-1l-0.4-1.4
		C88.7,23.4,88.1,23.9,87.4,24.1C86.8,24.4,88.1,23.9,87.4,24.1z"/>
	<path fill="#FFFFFF" d="M98.9,24.4c-0.4,0-0.6-0.1-0.8-0.3c-0.2-0.2-0.3-0.5-0.3-1c-1.4,1.6-5.4,2-5.6-0.7
		c-0.1-1.3,0.5-2.3,1.8-2.6c1-0.3,2.8-0.1,3.6-0.9c0.3-0.3,0.3-1,0.1-1.3c-0.9-1.4-3.7-0.7-3.7,0.9h-1.4c0.1-1.5,1.1-2.4,2.5-2.7
		c1.2-0.2,3.1-0.2,3.8,1c0.5,0.8,0.3,2.2,0.3,3.1c0,0.9-0.2,2.1,0.1,3c0.1,0.3,0.6,0.2,0.8,0.1v1.1C99.6,24.4,99.3,24.4,98.9,24.4z
		 M97,20.3c-1,0.2-2.5,0.1-3.2,1c-0.5,0.6-0.2,1.6,0.5,1.9c0.8,0.3,1.9,0.2,2.6-0.3c1-0.7,0.8-1.8,0.8-2.8
		C97.5,20.1,97.2,20.2,97,20.3C96.7,20.3,97.2,20.2,97,20.3z"/>
	<path fill="#FFFFFF" d="M102.5,16v1.1h0c0.7-1.4,2.8-1.6,4.1-1.1c1.7,0.6,2.4,2.4,2.4,4.1c0,1.7-0.7,3.4-2.4,4.1
		c-1.3,0.5-3.3,0.3-4.1-1h0v4.3h-1.4V16H102.5z M107.4,18.9c-0.7-2.4-3.9-2.6-4.7-0.2c-0.4,1.1-0.3,2.6,0.4,3.6
		c0.7,0.9,2.2,1.3,3.2,0.7C107.6,22.2,107.8,20.3,107.4,18.9C107.3,18.6,107.5,19.3,107.4,18.9z"/>
</g>
</svg>
