<?xml version="1.0" encoding="utf-8"?>
<!-- Generator: Adobe Illustrator 17.1.0, SVG Export Plug-In . SVG Version: 6.00 Build 0)  -->
<!DOCTYPE svg PUBLIC "-//W3C//DTD SVG 1.1//EN" "http://www.w3.org/Graphics/SVG/1.1/DTD/svg11.dtd">
<svg version="1.1" id="Layer_1" xmlns="http://www.w3.org/2000/svg" xmlns:xlink="http://www.w3.org/1999/xlink" x="0px" y="0px"
	 width="59.7391205px" height="17.9019451px" viewBox="0 0 59.7391205 17.9019451"
	 style="enable-background:new 0 0 59.7391205 17.9019451;" xml:space="preserve">
<style type="text/css">
	.st0{fill:#010101;}
</style>
<g>
	<g>
		<path class="st0" d="M4.8076911,11.5959873L4.168335,11.642477c0.0019178,0.1239958,0.0038357,0.2298717,0.0051584,0.3061209
			c0.0154748,0.793045,0.4656296,0.9596291,0.8408575,0.9596291c0.0542274,0,0.087822-0.0038357,0.087822-0.0038357
			c0.0038357,0,0.0077376-0.0013227,0.0116391-0.0013227l1.0662327-0.1020403
			c0.0406704-0.1252518,0.0458288-0.2195549,0.0458288-0.2195549S6.0850801,5.8792148,6.0463271,5.0331988
			C6.03859,4.8449898,5.9856191,4.6932187,5.9106922,4.5704794c-0.3887186-0.03128-0.7400737-0.0590553-1.0055237-0.0777702
			C4.8644977,4.4897995,4.8244882,4.4884768,4.7869921,4.4884768c-0.2608876,0-0.4559083,0.0665278-0.5799041,0.1985917
			C4.0172257,4.8892317,4.0346179,5.196609,4.0346179,5.1979318c0.0006614,0.0048275,0.0006614,0.0093246,0.0006614,0.0141521
			c0,0.0097213,0.003902,0.1892672,0.0103164,0.4801779C4.5616169,5.7210288,4.940681,5.741662,4.940681,5.741662
			s0.5941882,0.1282282,0.6193838,0.7372298c0.0277753,0.6642213,0.0238733,4.380857,0.0238733,4.380857
			S5.6498051,11.4655104,4.8076911,11.5959873z"/>
		<path class="st0" d="M2.768868,11.7431946l-1.0707953,0.0775061c0,0-0.8815281,0.121417-0.902161-0.8446932
			c-0.0142182-0.713026-0.1020404-4.7447767-0.1020404-4.7447767S0.6331629,5.4836841,1.539887,5.5443926
			C1.8110907,5.562777,2.2154164,5.5873117,2.6526096,5.6128383C2.6403091,4.9473605,2.6293314,4.36415,2.6209326,3.9178972
			C2.0487661,3.8749783,1.5017954,3.8297446,1.1239883,3.7890739c-1.1967092-0.1301396-1.1231052,0.8734598-1.1231052,0.8734598
			s0.1440336,7.3996782,0.1711474,8.3051453c0.0329333,1.0810461,1.1973703,0.9054012,1.1973703,0.9054012l1.4394766-0.1536884
			C2.7978997,13.1846552,2.7836814,12.5039673,2.768868,11.7431946z"/>
	</g>
	<path class="st0" d="M15.571394,2.5642855c-0.0529051-1.3855928-1.2709084-1.6768543-1.2709084-1.6768543
		s-4.2210188-0.6354739-6.0699787-0.866999C6.3808846-0.2098033,6.4958205,1.5816826,6.4958205,1.5816826
		s0.4198008,13.0650663,0.4637117,14.6834946c0.0490694,1.9283829,1.8482995,1.6184273,1.8482995,1.6184273l6.3593025-1.0991669
		c1.1560373-0.2311935,1.2141676-1.6765556,1.2141676-1.6765556S15.6301842,4.0754876,15.571394,2.5642855z M14.1487141,13.6625853
		l-4.7293024,0.4895029c0,0-1.377511,0.2079821-1.4085264-1.464673c-0.0226173-1.2322216-0.2951436-8.2944984-0.2951436-8.2944984
		S7.6208434,3.0983672,9.0383644,3.2046068c1.4460239,0.1072054,4.9120884,0.3706982,4.9120884,0.3706982
		s0.9273577,0.2211757,0.9680281,1.2777529c0.043911,1.1495576,0.444335,7.5320721,0.444335,7.5320721
		S15.466774,13.4352264,14.1487141,13.6625853z"/>
	<g>
		<path class="st0" d="M9.3942165,13.9027729l1.821846-0.1885395c-0.0839205-1.8547802-0.4107399-9.0700836-0.4546509-10.1150351
			c0-0.0051649-0.0012569-0.0096881-0.0012569-0.014853c-0.6645517-0.0500548-1.297493-0.097517-1.7411671-0.1304569
			c-0.0484076-0.0038753-0.09622-0.0054889-0.1413879-0.0054889c-0.3035421,0-0.5340748,0.0813744-0.6852512,0.2425029
			C7.9424391,3.9573114,7.9650559,4.3718877,7.9650559,4.3747973C7.9657173,4.377707,7.9657173,4.3802862,7.9657173,4.3831959
			c0,0.0051584,0.0019178,0.0435805,0.0044971,0.1097779C8.710288,4.5569224,9.2715425,4.6063223,9.2715425,4.6063223
			s0.7988644,0.1795464,0.8350382,1.045269c0.0367689,0.941906,0.2653847,6.0528507,0.2653847,6.0528507
			s0.0898056,0.8615561-1.0455341,1.0462608l-1.0565767,0.1007175c0.0730085,0.8692942,0.5799704,1.0578337,1.0068464,1.0578337
			c0.0645437,0,0.1052809-0.0051584,0.1052809-0.0051584l0,0C9.3858175,13.9040956,9.389719,13.9027729,9.3942165,13.9027729z"/>
		<path class="st0" d="M6.6094999,13.0102673l-1.4711533,0.1407938c0,0-1.1883104,0.1718082-1.2141676-1.1986275
			C3.9048026,10.9424133,3.786031,5.217308,3.786031,5.217308S3.7033672,4.1578212,4.922627,4.2433949
			C5.2803965,4.2685909,5.7892756,4.3095922,6.3343945,4.354495C6.2994771,3.2653153,6.2717023,2.4005713,6.2568889,1.9472092
			c-0.7142825-0.07039-1.4001284-0.1404625-1.8928719-0.1966475C2.752732,1.567471,2.8541112,2.9911685,2.8541112,2.9911685
			s0.1917801,10.5021877,0.2292767,11.7886353c0.043911,1.5331841,1.6119466,1.2864494,1.6119466,1.2864494l2.0006652-0.2557297
			C6.6779456,15.2073421,6.6469302,14.2088947,6.6094999,13.0102673z"/>
	</g>
</g>
<g>
	<path d="M22.5784512,6.1369276c0.6190529,0,1.0875912,0.1591778,1.4056168,0.4772687
		c0.3180904,0.3180246,0.4772682,0.7636161,0.4772682,1.3367748s-0.1591778,1.0204034-0.4772682,1.3410735
		c-0.3180256,0.3212643-0.7865639,0.4788551-1.4056168,0.4730358H20.704361v2.510272h-0.8166542V6.1369276H22.5784512z
		 M22.3033447,9.0773163c0.4643726,0.0058193,0.8037586-0.0888138,1.018816-0.2838345
		c0.2150593-0.1947565,0.322258-0.4756813,0.322258-0.8425107c0-0.3667636-0.1071987-0.6461015-0.322258-0.8382125
		c-0.2150574-0.1918464-0.5544434-0.2880673-1.018816-0.2880673H20.704361v2.252625H22.3033447z"/>
	<path d="M25.9405575,6.1369276v2.3471928h0.017128c0.0571365-0.1375532,0.1375523-0.2538118,0.2409153-0.348115
		c0.1029663-0.0945673,0.2192249-0.1720729,0.3480492-0.23212c0.1288891-0.0604439,0.2635326-0.1046195,0.4039955-0.1333861
		c0.140461-0.0287671,0.2763615-0.0429192,0.4084244-0.0429192c0.2922344,0,0.5357285,0.040009,0.7307491,0.1204247
		c0.1947575,0.0800848,0.3526115,0.1921105,0.4727726,0.3351521c0.1204243,0.1433725,0.2050056,0.313859,0.2538109,0.5115252
		c0.0484085,0.1975994,0.0729427,0.4168243,0.0729427,0.6577396v2.9229307H28.158596V9.2665176
		c0-0.2751055-0.080349-0.4930735-0.2408504-0.653574c-0.1604996-0.1605005-0.3810463-0.2405186-0.661972-0.2405186
		c-0.2234573,0-0.4168911,0.0341892-0.5802345,0.1029654c-0.1634102,0.0687771-0.2993755,0.1663198-0.4081612,0.2922335
		c-0.1091824,0.1262445-0.190855,0.2738495-0.2450829,0.4430132c-0.0546246,0.1688986-0.0817375,0.3539333-0.0817375,0.5544434
		v2.510272h-0.7307491V6.1369276H25.9405575z"/>
	<path d="M29.8616047,9.14186c0.0917244-0.2838345,0.2292767-0.5301733,0.4127254-0.7394114
		c0.1833801-0.209239,0.4097481-0.3739719,0.6793652-0.4943967c0.2692852-0.1204247,0.5786476-0.1804719,0.9283485-0.1804719
		c0.3551884,0,0.6661396,0.0600471,0.9328442,0.1804719c0.2664452,0.1204247,0.4914894,0.2851577,0.6749344,0.4943967
		c0.1833839,0.2092381,0.3209343,0.4555769,0.4126587,0.7394114c0.0913925,0.2835045,0.1375542,0.5883694,0.1375542,0.915123
		c0,0.3268204-0.0461617,0.6309576-0.1375542,0.9118824c-0.0917244,0.2809248-0.2292747,0.5256767-0.4126587,0.7349815
		c-0.183445,0.209239-0.4084892,0.3725824-0.6749344,0.4901638c-0.2667046,0.1168537-0.5776558,0.1756449-0.9328442,0.1756449
		c-0.3497009,0-0.6590633-0.0587912-0.9283485-0.1756449c-0.2696171-0.1175814-0.495985-0.2809248-0.6793652-0.4901638
		c-0.1834488-0.2093048-0.3210011-0.4540567-0.4127254-0.7349815c-0.0916576-0.2809248-0.1375523-0.585062-0.1375523-0.9118824
		C29.7240524,9.7302294,29.7699471,9.4253645,29.8616047,9.14186z M30.6052494,10.7751675
		c0.0716858,0.209239,0.1705532,0.384222,0.2967968,0.524354c0.1259136,0.1407928,0.2734528,0.2479916,0.4426823,0.322257
		c0.1688976,0.0749264,0.348114,0.1117611,0.5373154,0.1117611c0.1891994,0,0.3680859-0.0368347,0.5373135-0.1117611
		c0.1688995-0.0742655,0.3167686-0.1814642,0.4426842-0.322257c0.1259804-0.140132,0.2251091-0.315115,0.2967949-0.524354
		c0.0713577-0.2093048,0.1075287-0.4482374,0.1075287-0.7181845c0-0.2686243-0.036171-0.5082178-0.1075287-0.7174568
		c-0.0716858-0.2093048-0.1708145-0.3856106-0.2967949-0.5286522c-0.1259155-0.1433725-0.2737846-0.2521582-0.4426842-0.3267536
		c-0.1692276-0.0745964-0.348114-0.1116953-0.5373135-0.1116953c-0.1892014,0-0.3684177,0.0370989-0.5373154,0.1116953
		c-0.1692295,0.0745955-0.3167686,0.1833811-0.4426823,0.3267536c-0.1262436,0.1430416-0.225111,0.3193474-0.2967968,0.5286522
		c-0.0716858,0.209239-0.1071987,0.4488325-0.1071987,0.7174568C30.4980507,10.32693,30.5335636,10.5658627,30.6052494,10.7751675z"
		/>
	<path d="M35.5812874,7.8305459v0.7052226h0.0173912c0.3035431-0.5389028,0.7846489-0.8081884,1.4440422-0.8081884
		c0.2925644,0,0.5360565,0.040009,0.7304153,0.1204247c0.1950226,0.0800848,0.3526115,0.1921105,0.4733696,0.3351521
		c0.1201591,0.1433725,0.2047424,0.313859,0.2531471,0.5115252c0.0491371,0.1975994,0.0736732,0.4168243,0.0736732,0.6577396
		v2.9229307h-0.7310829V9.2665176c0-0.2751055-0.0800819-0.4930735-0.2409134-0.653574
		c-0.1601028-0.1605005-0.3809814-0.2405186-0.6619072-0.2405186c-0.2234573,0-0.4165611,0.0341892-0.5799713,0.1029654
		c-0.1634102,0.0687771-0.2996407,0.1663198-0.4088211,0.2922335c-0.1084557,0.1262445-0.1904564,0.2738495-0.244751,0.4430132
		c-0.0542297,0.1688986-0.0820045,0.3539333-0.0820045,0.5544434v2.510272h-0.7304192V7.8305459H35.5812874z"/>
	<path d="M42.794342,11.991848c-0.3325729,0.251893-0.7511177,0.3778076-1.254837,0.3778076
		c-0.355854,0-0.6638908-0.0568733-0.924118-0.1718092c-0.260952-0.114275-0.4805069-0.2751055-0.6581345-0.4811039
		c-0.1775627-0.2066603-0.3106194-0.452734-0.399765-0.7394781c-0.089077-0.2867451-0.1388092-0.5986853-0.1504478-0.9370785
		c0-0.3383932,0.0516472-0.6477547,0.1550102-0.9286795c0.1032982-0.2805948,0.2479935-0.524354,0.4339523-0.7307491
		c0.1860275-0.2063293,0.4069061-0.3664989,0.6619759-0.4814348c0.2551308-0.1142745,0.5347328-0.1717424,0.8382759-0.1717424
		c0.3951988,0,0.723278,0.0816717,0.98423,0.2450819c0.2608871,0.1633434,0.4701271,0.3709955,0.6277161,0.6231537
		c0.1575928,0.252224,0.2667084,0.5273294,0.3267555,0.8253832c0.060112,0.2980528,0.0846481,0.5815563,0.0730095,0.8515043
		H40.180706c-0.0058174,0.1943588,0.0174599,0.3790636,0.0691071,0.5541124
		c0.051651,0.174983,0.1343155,0.3293333,0.2493172,0.4643068c0.1142731,0.1343784,0.2608871,0.2421722,0.4385147,0.322257
		c0.1775627,0.0800848,0.3868027,0.1201601,0.6277161,0.1201601c0.3093605,0,0.5625114-0.0716858,0.7607727-0.2143974
		c0.1976013-0.1433716,0.3280754-0.3616705,0.3907051-0.653574h0.7226791
		C43.3419762,11.364131,43.126915,11.7393589,42.794342,11.991848z M42.6180382,9.1373634
		c-0.0658684-0.1546803-0.1543503-0.2880669-0.2661133-0.3997622c-0.1116943-0.1116962-0.244091-0.20051-0.3958588-0.2663765
		c-0.1517715-0.0658665-0.3196793-0.0987997-0.5030632-0.0987997c-0.1886024,0-0.3597527,0.0329332-0.5115242,0.0987997
		c-0.1517677,0.0658665-0.2821808,0.1562681-0.3907013,0.2708731C40.4416618,8.8567696,40.3557587,8.9897585,40.292469,9.14186
		c-0.0626259,0.1517715-0.1001205,0.3135281-0.111763,0.4856672h2.5535889
		C42.7226562,9.4553881,42.6839027,9.2920446,42.6180382,9.1373634z"/>
	<path d="M48.1352234,12.2024097c-0.3552551,0.140132-0.7130241,0.210495-1.0746307,0.210495
		c-0.4585495,0-0.8679695-0.0845814-1.2289772-0.2538109c-0.3610115-0.1685686-0.6677933-0.3965225-0.9202843-0.6832676
		c-0.2518921-0.2867441-0.4436722-0.6160774-0.57547-0.9887266c-0.1323967-0.3719873-0.1982613-0.75945-0.1982613-1.1605349
		c0-0.4469147,0.0620308-0.872468,0.1853638-1.2767277c0.1227379-0.403995,0.3061218-0.757863,0.5502129-1.0617356
		c0.2434921-0.3035417,0.5470352-0.5457139,0.9112854-0.7262521c0.3635902-0.1808023,0.7891426-0.2708731,1.2761307-0.2708731
		c0.3325729,0,0.646431,0.0387526,0.9415741,0.1159277c0.2951431,0.0775056,0.5586128,0.1991873,0.7911263,0.3655071
		c0.2318573,0.1663194,0.4268799,0.3768148,0.5844688,0.6319489c0.1575241,0.2550678,0.2647247,0.5631065,0.322258,0.9241166
		h-0.8163223c-0.0406723-0.2350302-0.1149368-0.4371929-0.2234573-0.606092
		c-0.1091156-0.1691632-0.244091-0.3080387-0.4042587-0.4171553c-0.1608315-0.108521-0.3429565-0.1901932-0.5457153-0.2447515
		c-0.2040825-0.0546241-0.4204597-0.081738-0.6496735-0.081738c-0.3719864,0-0.6916656,0.0745959-0.9584351,0.2234573
		c-0.2660484,0.1491919-0.4843445,0.3455348-0.653511,0.588964c-0.1685677,0.2434945-0.2932243,0.5215101-0.37397,0.8337812
		c-0.0800858,0.3125353-0.1200943,0.6318827-0.1200943,0.958703c0,0.3209343,0.0458298,0.6287088,0.1375542,0.9244471
		c0.0917244,0.2951431,0.226696,0.5554352,0.4042587,0.7820673c0.1776276,0.226697,0.3965225,0.4069042,0.6574745,0.5418777
		c0.2608871,0.1343126,0.5631065,0.2015018,0.906723,0.2015018c0.3209343,0,0.6050987-0.0517139,0.8511734-0.1543503
		c0.2466698-0.103363,0.4546547-0.2454119,0.6238174-0.4256201c0.1685677-0.1808023,0.296463-0.3926201,0.3823013-0.6361151
		c0.085907-0.243495,0.1234016-0.5056381,0.111763-0.7872248h-1.9600601v-0.687499h2.6904793v3.2326221h-0.5153618
		l-0.2150574-0.7652702C48.7887306,11.8310175,48.4910088,12.0616159,48.1352234,12.2024097z"/>
	<path d="M54.2923622,12.3696556c-0.1892014,0-0.3397141-0.0529718-0.4514084-0.1588478
		c-0.111763-0.1059418-0.1679077-0.279007-0.1679077-0.5199223c-0.2002449,0.2409153-0.434021,0.4139805-0.7007256,0.5199223
		c-0.2660446,0.105876-0.5541153,0.1588478-0.8634758,0.1588478c-0.20084,0-0.3900414-0.0212946-0.5676689-0.0639496
		c-0.1775627-0.0432491-0.3338318-0.1149359-0.4688034-0.2150583c-0.1343803-0.1001225-0.2402534-0.2292767-0.3177605-0.3868008
		c-0.077507-0.1575909-0.1162567-0.348114-0.1162567-0.5715714c0-0.2524891,0.0432472-0.4585533,0.1291542-0.619318
		c0.0859032-0.1601696,0.1989212-0.2906466,0.3397141-0.3913641c0.1401329-0.1001225,0.3009644-0.1757107,0.4811058-0.2273588
		c0.1808662-0.0516491,0.3655701-0.0948982,0.5547714-0.1291542c0.2001801-0.0400095,0.3913651-0.0697689,0.5715714-0.0904016
		c0.1808052-0.0200377,0.3396492-0.0484743,0.4772034-0.0859041c0.1375542-0.0370998,0.2460747-0.0917234,0.3268204-0.1634102
		c0.0800858-0.0716858,0.1200943-0.1763058,0.1200943-0.313858c0-0.1601696-0.0296936-0.2893238-0.0904007-0.3868008
		c-0.0600471-0.0972128-0.1375542-0.1718092-0.2318573-0.2234573c-0.0948982-0.0516491-0.20084-0.0859041-0.3183556-0.1030321
		c-0.1175804-0.0174589-0.2331772-0.0257912-0.348114-0.0257912c-0.3093605,0-0.567009,0.0587244-0.7736664,0.1759748
		c-0.2060013,0.1175146-0.3177605,0.3396492-0.3352203,0.6664696h-0.7310143
		c0.0116386-0.2751055,0.0691071-0.5072918,0.1724052-0.6964931c0.1026993-0.1889372,0.2402534-0.3422947,0.4126587-0.4598761
		c0.1718063-0.1175151,0.3694077-0.2020969,0.592865-0.2534809c0.2234573-0.0516481,0.4585533-0.0774393,0.7052231-0.0774393
		c0.2002449,0,0.3997612,0.0141521,0.5974274,0.0429192c0.1976013,0.0287666,0.3764839,0.0874915,0.5373154,0.1763053
		c0.1601028,0.0888143,0.2893257,0.2134719,0.3868027,0.3739057c0.0975418,0.1605005,0.1459503,0.3697395,0.1459503,0.627717
		v2.2865496c0,0.1717424,0.0103188,0.2983179,0.0303535,0.3784027c0.0200386,0.0800848,0.087162,0.1201601,0.2021637,0.1201601
		c0.0626259,0,0.1375542-0.0142183,0.2234573-0.042654v0.567008C54.6908035,12.3328199,54.5158195,12.3696556,54.2923622,12.3696556
		z M53.2693825,10.1305876c-0.1491928,0.0310154-0.3054619,0.0568724-0.4688683,0.0775051
		c-0.1633453,0.0193768-0.3280792,0.042655-0.4939995,0.0684462c-0.1666527,0.025857-0.3151855,0.0671892-0.4469185,0.1246567
		c-0.1323929,0.0574684-0.2395935,0.138876-0.3229179,0.2447519c-0.0826645,0.1066027-0.1246567,0.2512321-0.1246567,0.43468
		c0,0.1200933,0.0245361,0.2221336,0.0730095,0.3047981c0.0490723,0.0833254,0.1123581,0.1504478,0.1892014,0.2021627
		c0.0775032,0.0516481,0.1692276,0.0890789,0.2751045,0.1116953c0.1059418,0.0232782,0.2138023,0.034256,0.3229179,0.034256
		c0.2402534,0,0.4469185-0.0329332,0.6187248-0.0987997c0.1717415-0.0659332,0.3125343-0.1485968,0.4210548-0.2493143
		c0.1091156-0.1001225,0.1892014-0.209239,0.2408524-0.3267536c0.051712-0.1169205,0.0775032-0.2273598,0.0775032-0.3306561
		v-0.748538C53.5387344,10.0485849,53.4179115,10.0989761,53.2693825,10.1305876z"/>
	<path d="M56.2569199,7.8305459v0.6019254h0.0174637c0.1200905-0.2464037,0.3092918-0.4256191,0.5676651-0.5373149
		c0.2576485-0.1117616,0.541153-0.1675763,0.8511734-0.1675763c0.3435555,0,0.6431923,0.0629568,0.8983269,0.1892009
		c0.254406,0.1259141,0.4668846,0.2963996,0.636116,0.5114579c0.1685677,0.2147284,0.296402,0.4627199,0.3823013,0.7436447
		c0.085907,0.2809258,0.1291542,0.5789785,0.1291542,0.8941593s-0.0419235,0.6134987-0.124588,0.8938284
		c-0.0833282,0.2809258-0.2093048,0.5262718-0.3784714,0.7349157c-0.1692276,0.2098999-0.3810463,0.374567-0.6361122,0.4946604
		c-0.2551346,0.1201611-0.5515366,0.1802082-0.8899269,0.1802082c-0.1091843,0-0.2306023-0.0109777-0.3655739-0.034256
		c-0.1343117-0.0226173-0.2679634-0.0600471-0.399765-0.1116962c-0.1317329-0.0516481-0.2563896-0.1214161-0.3739052-0.2105608
		c-0.1175117-0.0890789-0.2163124-0.1989231-0.2963943-0.3313169h-0.0174637v2.2868805h-0.7304153V7.8305459H56.2569199z
		 M58.8834496,9.4083033c-0.0542259-0.1976662-0.1375504-0.3739719-0.2493134-0.5286531
		c-0.1116943-0.1549444-0.2550659-0.2780151-0.4294548-0.3696728c-0.174984-0.0917234-0.3797264-0.1375523-0.6148224-0.1375523
		c-0.246666,0-0.4559059,0.0487385-0.6277122,0.1459513c-0.1718102,0.097477-0.3125381,0.2250443-0.4210587,0.3826342
		c-0.1091194,0.1575909-0.1879463,0.3367405-0.2363548,0.5373154c-0.0491333,0.200841-0.0736694,0.4042597-0.0736694,0.6102591
		c0,0.2176371,0.025856,0.4288597,0.077507,0.6322794c0.051712,0.2034197,0.1337166,0.3823042,0.2454109,0.5373154
		c0.111763,0.1543503,0.2563896,0.279007,0.4340172,0.3739052c0.1775627,0.0943031,0.3926239,0.1414547,0.644516,0.1414547
		c0.2524872,0,0.4630508-0.0484743,0.6322136-0.1459513c0.1685677-0.0975437,0.304863-0.2260361,0.4081612-0.3868675
		c0.103363-0.1601696,0.1776276-0.3435507,0.2234573-0.550211c0.0458298-0.2059984,0.0691071-0.417882,0.0691071-0.6361151
		C58.9654541,9.8077345,58.9376793,9.6059027,58.8834496,9.4083033z"/>
</g>
</svg>
