<?xml version="1.0" encoding="utf-8"?>
<!-- Generator: Adobe Illustrator 17.1.0, SVG Export Plug-In . SVG Version: 6.00 Build 0)  -->
<!DOCTYPE svg PUBLIC "-//W3C//DTD SVG 1.1//EN" "http://www.w3.org/Graphics/SVG/1.1/DTD/svg11.dtd">
<svg version="1.1" id="Layer_1" xmlns="http://www.w3.org/2000/svg" xmlns:xlink="http://www.w3.org/1999/xlink" x="0px" y="0px"
	 viewBox="0 70 150 80" style="enable-background:new 0 70 150 80;" xml:space="preserve">
<style type="text/css">
	.st0{fill:#222222;}
	.st1{display:none;}
	.st2{display:inline;}
	.st3{fill:#3B4250;}
	.st4{fill:#242C3C;}
	.st5{fill:#E36A5C;}
	.st6{fill:#6DBEC4;}
	.st7{opacity:0.5;}
	.st8{fill:#95989F;}
	.st9{fill:#EEEEEE;}
	.st10{fill:#606060;}
	.st11{fill:#A0A0A0;}
	.st12{fill:#D6D6D6;}
	.st13{fill:#B5B5B5;}
	.st14{fill:#6D6D6D;}
	.st15{fill:#0B2F47;}
	.st16{fill:#868687;}
	.st17{enable-background:new    ;}
	.st18{fill:#00CAF9;}
	.st19{fill:#FFFFFF;}
	.st20{fill:#7A7E82;}
	.st21{fill:#146D82;}
</style>
<g>
	<g>
		<g>
			<path class="st0" d="M104.4657822,76.6508789H15.7966652c-2.2217674,0-4.046524,1.8247604-4.046524,4.0460892v56.4545822
				h96.7625885V80.6978378C108.5127258,78.4760742,106.686676,76.6508789,104.4657822,76.6508789z"/>
		</g>
		<g class="st1">
			<g class="st2">
				<g>
					<rect x="14.9797173" y="79.7054291" class="st3" width="90.2809372" height="54.1545105"/>
				</g>
			</g>
			<g class="st2">
				<g>
					<rect x="14.9797058" y="79.7054367" class="st4" width="90.2408371" height="7.749105"/>
				</g>
			</g>
			<g class="st2">
				<g>
					<rect x="22.4997807" y="93.8055649" class="st5" width="11.2801046" height="1.8800189"/>
				</g>
			</g>
			<g class="st2">
				<g>
					<rect x="22.4997787" y="90.0455322" class="st6" width="7.5200682" height="1.8800189"/>
				</g>
			</g>
			<g class="st2">
				<g class="st7">
					<g>
						<rect x="26.3185654" y="101.3256378" class="st8" width="22.5602093" height="1.8800189"/>
					</g>
				</g>
				<g>
					<g>
						<rect x="52.5800591" y="101.3256378" class="st8" width="22.5602112" height="1.8800189"/>
					</g>
				</g>
				<g class="st7">
					<g>
						<rect x="33.8092613" y="108.8457031" class="st8" width="18.7707996" height="1.8800189"/>
					</g>
				</g>
				<g>
					<g>
						<rect x="30.0198517" y="105.2587051" class="st5" width="7.5788207" height="1.8800189"/>
					</g>
				</g>
				<g>
					<g>
						<rect x="41.2705841" y="105.2587051" class="st8" width="15.0695143" height="1.8800189"/>
					</g>
				</g>
				<g class="st7">
					<g>
						<rect x="37.5986748" y="112.7787781" class="st8" width="22.5014591" height="1.8800189"/>
					</g>
				</g>
				<g>
					<g>
						<rect x="63.8601608" y="112.7787781" class="st8" width="33.840313" height="1.8800189"/>
					</g>
				</g>
				<g>
					<g>
						<rect x="22.4997807" y="131.3320007" class="st6" width="11.2801046" height="1.8800189"/>
					</g>
				</g>
				<g class="st7">
					<g>
						<rect x="37.5546074" y="131.3320007" class="st8" width="26.3055553" height="1.8800189"/>
					</g>
				</g>
				<g class="st7">
					<g>
						<rect x="56.3400993" y="108.9196167" class="st8" width="7.5200677" height="1.8800189"/>
					</g>
				</g>
				<g class="st7">
					<g>
						<rect x="22.4997807" y="120.2988434" class="st8" width="15.0401411" height="1.8800189"/>
					</g>
				</g>
				<g>
					<g>
						<rect x="26.3185673" y="123.8858414" class="st8" width="14.9520149" height="1.8800189"/>
					</g>
				</g>
				<g>
					<g>
						<rect x="67.6789474" y="108.8457031" class="st6" width="15.0401392" height="1.8800189"/>
					</g>
				</g>
			</g>
		</g>
		<g>
			<path class="st9" d="M-0.3503387,137.1124573c0,4.4435272,3.610425,8.0539551,8.0535212,8.0539551l0,0l0,0h104.6970978
				c4.4431,0,8.0539551-3.6104279,8.0539551-8.0539551H-0.3503387z"/>
		</g>
		<g>
			<g id="XMLID_1_">
				<g>
					<path class="st10" d="M108.5140457,80.6982727V137.15242h-96.763031V80.6982727
						c0-2.223938,1.8243246-4.0482635,4.0439186-4.0482635h88.6708527
						C106.6853714,76.6500092,108.5140457,78.4743347,108.5140457,80.6982727z M105.2606506,133.8599548V80.6591797
						c0-0.4387054-0.3561707-0.7948837-0.7948685-0.7948837v0.039093H15.7558384
						c-0.4343634,0-0.7948856,0.3561783-0.7948856,0.7948837v53.1616821H105.2606506z"/>
				</g>
			</g>
		</g>
		<path class="st11" d="M68.2047272,137.1124573h-4.046524h-6.5858116H56.064724h-4.046524h-4.046524
			c0,2.2213287,1.8251915,4.046524,4.046524,4.046524h16.147007c2.2217712,0,4.046524-1.78479,4.046524-4.046524H68.2047272z"/>
	</g>
</g>
<g>
	<path class="st10" d="M147.0226135,129.6752625c0,1.2488098-1.021759,2.2705688-2.2705383,2.2705688h-18.166275
		c-1.2487869,0-2.2709045-1.021759-2.2709045-2.2705688V93.3430176c0-1.2488708,1.0221176-2.2707291,2.2709045-2.2707291h18.166275
		c1.2487793,0,2.2705383,1.0218582,2.2705383,2.2707291V129.6752625z"/>
</g>
<g>
	<circle cx="135.6687622" cy="129.6752625" r="1.419149"/>
</g>
<g>
	<rect x="126.5857925" y="95.6847687" class="st12" width="18.1662693" height="31.7195873"/>
</g>
<g>
	<g>
		<path d="M136.8042145,94.0729065h-2.2709198c-0.4030609,0-0.7298889-0.3268127-0.7298889-0.7298889
			s0.326828-0.7298889,0.7298889-0.7298889h2.2709198c0.4030762,0,0.7298889,0.3268127,0.7298889,0.7298889
			S137.2072906,94.0729065,136.8042145,94.0729065z"/>
	</g>
</g>
<polygon class="st13" points="144.7520599,118.0084152 144.7520599,118.0084152 126.5858002,118.0084152 126.5858002,118.0084152 
	126.5858002,101.6430283 126.5858002,101.6430283 144.7520599,101.6430283 144.7520599,101.6430283 "/>
<g>
	<path class="st14" d="M144.3018494,109.8144684c0-3.1515274-0.5852814-5.7627792-1.350647-6.3480606
		c-0.1800995-0.8103943-3.3766327-1.4406967-7.2485046-1.4406967c-3.9168854,0-7.0684052,0.6303024-7.2485046,1.4406967
		c-0.765358,0.5852814-1.350647,3.1965332-1.350647,6.3480606c0,3.1515121,0.585289,5.7627792,1.350647,6.3480606
		c0.1800995,0.8103867,3.3766327,1.4406891,7.2485046,1.4406891c3.9168854,0,7.0684052-0.6303024,7.2485046-1.4406891
		C143.716568,115.5772476,144.3018494,112.9659805,144.3018494,109.8144684z"/>
	<path class="st15" d="M144.0767365,110.264679c0-2.9714279-0.5852814-5.4476242-1.3056335-5.9878845
		c-0.180069-0.7653656-3.2865753-1.350647-7.0683899-1.350647c-3.7818298,0-6.8883362,0.5852814-7.0684204,1.350647
		c-0.7653656,0.5402603-1.3056183,3.0164566-1.3056183,5.9878845c0,2.9714355,0.5852737,5.4476318,1.3056183,5.9878922
		c0.1800842,0.7653656,3.2865906,1.350647,7.0684204,1.350647c3.7818146,0,6.8883209-0.5852814,7.0683899-1.350647
		C143.4914551,115.7123108,144.0767365,113.2361145,144.0767365,110.264679z"/>
</g>
<rect x="126.5857925" y="117.828331" class="st16" width="18.1662693" height="2.7463202"/>
<g class="st17">
	<path class="st18" d="M128.6255341,107.999321v0.1307907h-0.8286819v-0.1307907h0.3484268v-0.9071579h-0.2615891v-0.1014938
		c0.1307907-0.0198822,0.224968-0.0502243,0.3023911-0.0910263h0.1182251v1.099678H128.6255341z"/>
	<path class="st18" d="M128.904892,108.0359421c0.4164429-0.3683014,0.6455841-0.5848923,0.6455841-0.7889252
		c0-0.1412506-0.0868378-0.2416992-0.2678528-0.2416992c-0.1161499,0-0.2165985,0.065918-0.2950592,0.1485748l-0.0910339-0.0899811
		c0.1098633-0.1119537,0.2312317-0.1872864,0.4049225-0.1872864c0.246933,0,0.4017792,0.1443863,0.4017792,0.3620224
		c0,0.2322845-0.2312317,0.4614258-0.5670929,0.7659073c0.0753326-0.0052338,0.155899-0.0115128,0.2291412-0.0115128h0.4049225
		v0.1370697h-0.8653107V108.0359421z"/>
	<path class="st18" d="M130.7662964,107.036705h-0.7104492v-0.1370621h0.8914642v0.0983505
		c-0.3264465,0.3724899-0.4070129,0.649765-0.4248047,1.1321182h-0.1653137
		C130.3781128,107.6634521,130.4837952,107.3819962,130.7662964,107.036705z"/>
	<path class="st18" d="M131.6556702,107.8277206c0.0868378,0,0.155899,0.0648727,0.155899,0.1632309
		c0,0.0973053-0.0690613,0.162178-0.155899,0.162178c-0.086853,0-0.155899-0.0648727-0.155899-0.162178
		C131.4997711,107.8925934,131.5688171,107.8277206,131.6556702,107.8277206z"/>
	<path class="st18" d="M132.3703003,107.5106888c0-0.4122467,0.1674042-0.6340637,0.4415436-0.6340637
		s0.4415436,0.221817,0.4415436,0.6340637c0,0.409111-0.1674042,0.6424408-0.4415436,0.6424408
		S132.3703003,107.9197998,132.3703003,107.5106888z M132.5188751,107.5106888c0,0.353653,0.1213684,0.5158386,0.2929688,0.5158386
		s0.2929688-0.1621857,0.2929688-0.5158386c0-0.3546982-0.1213684-0.5074615-0.2929688-0.5074615
		S132.5188751,107.1559906,132.5188751,107.5106888z M132.6925659,107.4970856c0-0.0784683,0.0554504-0.1266022,0.119278-0.1266022
		s0.119278,0.0481339,0.119278,0.1266022c0,0.0816116-0.0554504,0.1297455-0.119278,0.1297455
		S132.6925659,107.5786972,132.6925659,107.4970856z"/>
	<path class="st18" d="M133.9690704,107.8277206c0.086853,0,0.155899,0.0648727,0.155899,0.1632309
		c0,0.0973053-0.069046,0.162178-0.155899,0.162178c-0.0868378,0-0.155899-0.0648727-0.155899-0.162178
		C133.8131714,107.8925934,133.8822327,107.8277206,133.9690704,107.8277206z"/>
	<path class="st18" d="M134.6837006,107.5106888c0-0.4122467,0.1674194-0.6340637,0.4415588-0.6340637
		c0.2741241,0,0.4415436,0.221817,0.4415436,0.6340637c0,0.409111-0.1674194,0.6424408-0.4415436,0.6424408
		C134.85112,108.1531296,134.6837006,107.9197998,134.6837006,107.5106888z M134.8322906,107.5106888
		c0,0.353653,0.1213684,0.5158386,0.2929688,0.5158386c0.1715851,0,0.2929688-0.1621857,0.2929688-0.5158386
		c0-0.3546982-0.1213837-0.5074615-0.2929688-0.5074615C134.9536591,107.0032272,134.8322906,107.1559906,134.8322906,107.5106888z
		 M135.0059662,107.4970856c0-0.0784683,0.0554657-0.1266022,0.1192932-0.1266022
		c0.0638123,0,0.119278,0.0481339,0.119278,0.1266022c0,0.0816116-0.0554657,0.1297455-0.119278,0.1297455
		C135.0614319,107.6268311,135.0059662,107.5786972,135.0059662,107.4970856z"/>
	<path class="st18" d="M136.282486,107.8277206c0.0868378,0,0.155899,0.0648727,0.155899,0.1632309
		c0,0.0973053-0.0690613,0.162178-0.155899,0.162178c-0.086853,0-0.1559143-0.0648727-0.1559143-0.162178
		C136.1265717,107.8925934,136.1956329,107.8277206,136.282486,107.8277206z"/>
	<path class="st18" d="M137.8791656,107.999321v0.1307907h-0.8297424v-0.1307907h0.3484344v-0.9071579h-0.2615814v-0.1014938
		c0.1307831-0.0198822,0.2249603-0.0502243,0.3023834-0.0910263H137.5569v1.099678H137.8791656z"/>
	<path class="st18" d="M138.5948334,107.1371536c0.086853,0,0.1559143,0.0648727,0.1559143,0.162178
		c0,0.0983582-0.0690613,0.1632309-0.1559143,0.1632309c-0.0868378,0-0.155899-0.0648727-0.155899-0.1632309
		C138.4389343,107.2020264,138.5079956,107.1371536,138.5948334,107.1371536z M138.5948334,107.8277206
		c0.086853,0,0.1559143,0.0648727,0.1559143,0.1632309c0,0.0973053-0.0690613,0.162178-0.1559143,0.162178
		c-0.0868378,0-0.155899-0.0648727-0.155899-0.162178C138.4389343,107.8925934,138.5079956,107.8277206,138.5948334,107.8277206z"/>
	<path class="st18" d="M139.3649292,107.8758545c0.0805664,0.0774307,0.1946106,0.1464844,0.3526154,0.1464844
		c0.1674042,0,0.2950592-0.0889359,0.2950592-0.2260056c0-0.1464844-0.1234741-0.2448349-0.4478302-0.2448349v-0.121376
		c0.2919312,0,0.4038849-0.1004486,0.4038849-0.2291412c0-0.1203308-0.1004486-0.1956635-0.2511139-0.1956635
		c-0.1161499,0-0.2218323,0.0523148-0.3034363,0.1255569l-0.0847473-0.100441
		c0.1025391-0.0889435,0.2354126-0.1538086,0.3934021-0.1538086c0.2322845,0,0.4080658,0.1140442,0.4080658,0.3117981
		c0,0.1485748-0.1109009,0.2437897-0.262619,0.294014v0.0073242c0.1632233,0.0345306,0.3044739,0.1433487,0.3044739,0.312851
		c0,0.2176361-0.2008972,0.3505173-0.4457245,0.3505173c-0.2124023,0-0.3526154-0.0826569-0.4436493-0.1736908
		L139.3649292,107.8758545z"/>
	<path class="st18" d="M140.4667053,107.5106888c0-0.4122467,0.1674042-0.6340637,0.4415436-0.6340637
		s0.4415436,0.221817,0.4415436,0.6340637c0,0.409111-0.1674042,0.6424408-0.4415436,0.6424408
		S140.4667053,107.9197998,140.4667053,107.5106888z M140.6152802,107.5106888c0,0.353653,0.1213684,0.5158386,0.2929688,0.5158386
		s0.2929688-0.1621857,0.2929688-0.5158386c0-0.3546982-0.1213684-0.5074615-0.2929688-0.5074615
		S140.6152802,107.1559906,140.6152802,107.5106888z M140.7889709,107.4970856c0-0.0784683,0.0554504-0.1266022,0.119278-0.1266022
		s0.119278,0.0481339,0.119278,0.1266022c0,0.0816116-0.0554504,0.1297455-0.119278,0.1297455
		S140.7889709,107.5786972,140.7889709,107.4970856z"/>
	<path class="st18" d="M141.6239319,107.5106888c0-0.4122467,0.1674042-0.6340637,0.4415436-0.6340637
		s0.4415436,0.221817,0.4415436,0.6340637c0,0.409111-0.1674042,0.6424408-0.4415436,0.6424408
		S141.6239319,107.9197998,141.6239319,107.5106888z M141.7725067,107.5106888c0,0.353653,0.1213684,0.5158386,0.2929688,0.5158386
		s0.2929688-0.1621857,0.2929688-0.5158386c0-0.3546982-0.1213684-0.5074615-0.2929688-0.5074615
		S141.7725067,107.1559906,141.7725067,107.5106888z M141.9461975,107.4970856c0-0.0784683,0.0554504-0.1266022,0.119278-0.1266022
		s0.119278,0.0481339,0.119278,0.1266022c0,0.0816116-0.0554504,0.1297455-0.119278,0.1297455
		S141.9461975,107.5786972,141.9461975,107.4970856z"/>
	<path class="st18" d="M142.7801056,107.5106888c0-0.4122467,0.1674194-0.6340637,0.4415436-0.6340637
		c0.2741394,0,0.4415436,0.221817,0.4415436,0.6340637c0,0.409111-0.1674042,0.6424408-0.4415436,0.6424408
		C142.947525,108.1531296,142.7801056,107.9197998,142.7801056,107.5106888z M142.9286804,107.5106888
		c0,0.353653,0.1213837,0.5158386,0.2929688,0.5158386c0.1716003,0,0.2929688-0.1621857,0.2929688-0.5158386
		c0-0.3546982-0.1213684-0.5074615-0.2929688-0.5074615C143.0500641,107.0032272,142.9286804,107.1559906,142.9286804,107.5106888z
		 M143.1023712,107.4970856c0-0.0784683,0.0554504-0.1266022,0.119278-0.1266022s0.119278,0.0481339,0.119278,0.1266022
		c0,0.0816116-0.0554504,0.1297455-0.119278,0.1297455S143.1023712,107.5786972,143.1023712,107.4970856z"/>
</g>
<g class="st17">
	<path class="st19" d="M19.8206043,93.7866745c-0.2380371-0.1851959-0.4237595-0.3018646-0.7784595-0.3018646
		c-0.354702,0-0.5827999,0.1695023-0.5827999,0.4399796c0,0.5822754,1.6845703,0.4713669,1.6845703,1.4407806
		c0,0.4551468-0.3761501,0.7836914-0.9322681,0.8417587v0.7737503h-0.3180809v-0.7679977
		c-0.3918457-0.0319138-0.7679958-0.2066422-1.0112648-0.4132919l0.2066479-0.3018646
		c0.264719,0.1904297,0.5875072,0.3599319,0.9851074,0.3599319c0.4185276,0,0.6408691-0.1904297,0.6408691-0.4608994
		c0-0.6565628-1.6793385-0.5399017-1.6793385-1.4617081c0-0.4452057,0.3442383-0.7470703,0.8579788-0.7999039v-0.6989441h0.3180809
		v0.6937103c0.3866138,0.0319138,0.6304054,0.1956635,0.8422852,0.4023056L19.8206043,93.7866745z"/>
	<path class="st19" d="M24.7079506,96.6153946v0.8694839h-0.4342213V93.823822h0.3599319l0.0371437,0.328537h0.0156956
		c0.2385597-0.2275696,0.5723362-0.3918457,0.8898926-0.3918457c0.694231,0,1.0651512,0.5137482,1.0651512,1.313652
		c0,0.8736801-0.5514088,1.3874207-1.1708298,1.3874207c-0.2385597,0-0.5404224-0.121376-0.7732277-0.333252L24.7079506,96.6153946z
		 M25.3964272,96.0964203c0.4609013,0,0.7946777-0.3866119,0.7946777-1.0222549
		c0-0.5671005-0.2118797-0.9484863-0.7256222-0.9484863c-0.228096,0-0.492815,0.1218948-0.7575321,0.3866196v1.2822571
		C24.9517422,96.0116653,25.2216911,96.0964203,25.3964272,96.0964203z"/>
	<path class="st19" d="M27.447731,92.6268311h0.4342213v1.0274811l-0.0214481,0.6094818
		c0.2757034-0.2861633,0.5723343-0.5032806,0.9746437-0.5032806c0.6094799,0,0.8898926,0.3599396,0.8898926,1.0379486v1.599823
		h-0.4342213v-1.5412292c0-0.4875793-0.1695042-0.7203903-0.5932617-0.7203903
		c-0.3070946,0-0.5137424,0.1532898-0.8156052,0.4661331v1.7954865H27.447731V92.6268311z"/>
	<path class="st19" d="M31.7182732,93.7605133c0.6780128,0,1.2712746,0.4922943,1.2712746,1.3560333
		c0,0.8527451-0.5932617,1.3450394-1.2712746,1.3450394s-1.2712746-0.4922943-1.2712746-1.3450394
		C30.4469986,94.2528076,31.0402603,93.7605133,31.7182732,93.7605133z M31.7182732,96.1016541
		c0.4928169,0,0.8213577-0.3970795,0.8213577-0.9851074c0-0.5932617-0.3285408-0.9960938-0.8213577-0.9960938
		c-0.4922905,0-0.8208351,0.402832-0.8208351,0.9960938C30.897438,95.7045746,31.2259827,96.1016541,31.7182732,96.1016541z"/>
	<path class="st19" d="M33.7967834,93.823822h0.3599319l0.0371437,0.4399719h0.0209274
		c0.2704735-0.2861633,0.5671043-0.5032806,0.9694138-0.5032806c0.609478,0,0.8898926,0.3599396,0.8898926,1.0379486v1.599823
		h-0.4342232v-1.5412292c0-0.4875793-0.1695023-0.7203903-0.5932617-0.7203903
		c-0.3070946,0-0.5137405,0.1532898-0.8156052,0.4661331v1.7954865h-0.4342194V93.823822z"/>
	<path class="st19" d="M38.1520767,93.7605133c0.7366066,0,1.1708298,0.4818344,1.1708298,1.2074509
		c0,0.0899887-0.0052338,0.174736-0.0156975,0.2385635h-2.0131111c0.0319099,0.5561142,0.4237556,0.9055862,0.98563,0.9055862
		c0.3018608,0,0.5451317-0.0899811,0.7836914-0.2380371l0.1538086,0.2856445
		c-0.2542572,0.1642685-0.5775681,0.3018646-0.9908638,0.3018646c-0.762764,0-1.3821831-0.5027542-1.3821831-1.3450394
		S37.4850502,93.7605133,38.1520767,93.7605133z M38.9205971,94.9203568c0-0.5242004-0.2861671-0.8156052-0.762764-0.8156052
		c-0.4185295,0-0.8051414,0.2966309-0.868969,0.8156052H38.9205971z"/>
	<path class="st19" d="M40.4576378,96.2978363v-0.0214539c-0.1375923-0.0742874-0.2647209-0.2066422-0.2647209-0.4237518
		c0-0.1642761,0.1109123-0.349472,0.3070946-0.4818344V95.34935c-0.174736-0.1323624-0.3180809-0.3599319-0.3180809-0.6675491
		c0-0.561348,0.4666595-0.9212875,1.0117912-0.9212875c0.1485748,0,0.2704697,0.0209274,0.381382,0.0633087h1.0646248v0.3337708
		H41.951252c0.1218987,0.1271286,0.2385635,0.312851,0.2385635,0.5404205c0,0.5508881-0.4394531,0.8846664-0.9960938,0.8846664
		c-0.1323624,0-0.2908783-0.0319138-0.4342232-0.0952148c-0.1271286,0.0789948-0.201416,0.174736-0.201416,0.2961044
		c0,0.2066498,0.1961861,0.2971573,0.5351906,0.2971573h0.5775681c0.6617966,0,0.9798737,0.1695023,0.9798737,0.6037216
		c0,0.4818268-0.5561142,0.9008789-1.4303131,0.9008789c-0.7523041,0-1.1865234-0.2594833-1.1865234-0.715683
		C40.0338783,96.663002,40.1819305,96.4563522,40.4576378,96.2978363z M41.2523155,97.2829437
		c0.5984917,0,0.9694099-0.2647171,0.9694099-0.5299606c0-0.2432709-0.1961823-0.3123245-0.588028-0.3123245h-0.5032806
		c-0.1485748,0-0.2809334-0.0104675-0.3918457-0.0423737c-0.2437897,0.1323547-0.3285408,0.2809296-0.3285408,0.4289856
		C40.4100304,97.0977478,40.7014275,97.2829437,41.2523155,97.2829437z M41.7869835,94.6818008
		c0-0.3599319-0.2647209-0.6037292-0.5932617-0.6037292c-0.3227921,0-0.5932617,0.2437973-0.5932617,0.6037292
		c0,0.3709183,0.2704697,0.6094742,0.5932617,0.6094742C41.5222626,95.291275,41.7869835,95.0527191,41.7869835,94.6818008z"/>
	<path class="st19" d="M45.1205482,94.7665482c-0.0104637-0.3494644-0.1851997-0.6460953-0.6832466-0.6460953
		c-0.3337746,0-0.6623192,0.1590347-0.9003563,0.3070908l-0.1695023-0.2961044
		c0.2594872-0.1695099,0.6937103-0.3709259,1.1441498-0.3709259c0.7041702,0,1.0431747,0.4185333,1.0431747,1.0594025v1.5783691
		h-0.3546982l-0.0371475-0.349472h-0.0156937c-0.2861671,0.2223434-0.6518555,0.4127731-1.0170212,0.4127731
		c-0.4823494,0-0.8741951-0.2699509-0.8741951-0.7308578C43.256012,95.1536865,43.7912025,94.8727493,45.1205482,94.7665482z
		 M44.2468719,96.112114c0.2908783,0,0.5822754-0.1375885,0.8736763-0.3813858v-0.678009
		c-1.1017723,0.0899811-1.4407806,0.3070908-1.4407806,0.6461029C43.6797676,95.9902191,43.9497185,96.112114,44.2468719,96.112114z
		"/>
	<path class="st19" d="M46.9285812,96.6153946v0.8694839h-0.4342194V93.823822h0.3599319l0.0371437,0.328537h0.0156975
		c0.2385597-0.2275696,0.5723343-0.3918457,0.8898926-0.3918457c0.6942291,0,1.0651474,0.5137482,1.0651474,1.313652
		c0,0.8736801-0.5514069,1.3874207-1.170826,1.3874207c-0.2385597,0-0.5404243-0.121376-0.7732277-0.333252L46.9285812,96.6153946z
		 M47.6170578,96.0964203c0.4609032,0,0.7946777-0.3866119,0.7946777-1.0222549
		c0-0.5671005-0.2118759-0.9484863-0.7256203-0.9484863c-0.228096,0-0.4928131,0.1218948-0.757534,0.3866196v1.2822571
		C47.1723747,96.0116653,47.4423256,96.0964203,47.6170578,96.0964203z"/>
	<path class="st19" d="M54.2099037,93.7605133c0.4185257,0,0.7256203,0.1695099,0.9375,0.376152l-0.2171135,0.2804184
		c-0.2118759-0.1852036-0.4342194-0.2966309-0.7046928-0.2966309c-0.5932617,0-1.0008011,0.402832-1.0008011,0.9960938
		c0,0.588028,0.3970757,0.9851074,0.9903374,0.9851074c0.3180809,0,0.582798-0.1428223,0.7999115-0.3233185l0.1904297,0.2809372
		c-0.2804146,0.2542572-0.6408691,0.4023132-1.0222549,0.4023132c-0.8051376,0-1.4088631-0.4922943-1.4088631-1.3450394
		C52.7743568,94.2528076,53.4314423,93.7605133,54.2099037,93.7605133z"/>
	<path class="st19" d="M56.2978287,93.823822h0.3604546l0.0371437,0.6094742h0.0156975
		c0.2699471-0.4132919,0.6727791-0.6727829,1.1493797-0.6727829c0.1909523,0,0.3442383,0.0261612,0.5032768,0.1056824
		l-0.0899849,0.376152c-0.179966-0.0633011-0.2809334-0.0899887-0.4823494-0.0899887
		c-0.3866158,0-0.7517815,0.201416-1.0588722,0.736084v1.5098419h-0.4347458V93.823822z"/>
	<path class="st19" d="M60.3727112,93.7605133c0.7366066,0,1.170826,0.4818344,1.170826,1.2074509
		c0,0.0899887-0.0052299,0.174736-0.0156937,0.2385635h-2.0131149c0.0319138,0.5561142,0.4237595,0.9055862,0.98563,0.9055862
		c0.3018646,0,0.5451317-0.0899811,0.7836914-0.2380371l0.1538086,0.2856445
		c-0.2542534,0.1642685-0.5775642,0.3018646-0.99086,0.3018646c-0.762764,0-1.3821869-0.5027542-1.3821869-1.3450394
		S59.7056808,93.7605133,60.3727112,93.7605133z M61.1412277,94.9203568c0-0.5242004-0.2861671-0.8156052-0.762764-0.8156052
		c-0.4185257,0-0.8051414,0.2966309-0.8689651,0.8156052H61.1412277z"/>
	<path class="st19" d="M64.1671753,94.7665482c-0.0104599-0.3494644-0.1851959-0.6460953-0.6832428-0.6460953
		c-0.3337746,0-0.6623192,0.1590347-0.9003563,0.3070908l-0.1695023-0.2961044
		c0.2594872-0.1695099,0.6937065-0.3709259,1.144146-0.3709259c0.7041702,0,1.0431824,0.4185333,1.0431824,1.0594025v1.5783691
		h-0.3547058l-0.0371399-0.349472h-0.0157013c-0.2861633,0.2223434-0.6518517,0.4127731-1.0170174,0.4127731
		c-0.4823494,0-0.8741951-0.2699509-0.8741951-0.7308578C62.3026428,95.1536865,62.8378334,94.8727493,64.1671753,94.7665482z
		 M63.2929802,96.112114c0.2914009,0,0.582798-0.1375885,0.8741951-0.3813858v-0.678009
		c-1.1017685,0.0899811-1.4407768,0.3070908-1.4407768,0.6461029C62.7263985,95.9902191,62.9968719,96.112114,63.2929802,96.112114z
		"/>
	<path class="st19" d="M66.1394882,94.1790466h-0.7256241V93.850502l0.7413177-0.02668l0.0580673-0.7203903h0.3604584v0.7203903
		h1.2608109v0.3552246h-1.2608109V95.40271c0,0.4603806,0.1538086,0.7041702,0.651329,0.7041702
		c0.2437973,0,0.4399796-0.0476074,0.6199417-0.1166611l0.0899887,0.3180771
		c-0.2275772,0.0847549-0.5242081,0.1532898-0.8051453,0.1532898c-0.7470703,0-0.9903336-0.4289932-0.9903336-1.0646286V94.1790466z
		"/>
	<path class="st19" d="M69.896286,93.7605133c0.736084,0,1.1703033,0.4818344,1.1703033,1.2074509
		c0,0.0899887-0.0052261,0.174736-0.0156937,0.2385635h-2.0131149c0.0319138,0.5561142,0.4237595,0.9055862,0.9851074,0.9055862
		c0.3023911,0,0.5456543-0.0899811,0.7842178-0.2380371l0.1538086,0.2856445
		c-0.2542572,0.1642685-0.5775681,0.3018646-0.99086,0.3018646c-0.7627716,0-1.3821869-0.5027542-1.3821869-1.3450394
		S69.2287369,93.7605133,69.896286,93.7605133z M70.6642838,94.9203568c0-0.5242004-0.286171-0.8156052-0.762764-0.8156052
		c-0.4185257,0-0.8051453,0.2966309-0.8689651,0.8156052H70.6642838z"/>
	<path class="st19" d="M74.8893127,93.823822h0.3390045l0.0366211,0.3390045h0.0162201
		c0.1271286-0.2380371,0.2861633-0.4023132,0.5770416-0.4023132c0.2594833,0,0.4237595,0.148056,0.487587,0.4446869
		c0.1538086-0.2699509,0.3233109-0.4446869,0.6089554-0.4446869c0.3552246,0,0.5618668,0.2804184,0.5618668,0.7946777v1.8430939
		h-0.4185257v-1.8064728c0-0.301857-0.0899811-0.4551468-0.2809372-0.4551468c-0.1851959,0-0.3070908,0.1323624-0.4394531,0.3970795
		v1.8645401h-0.3499908v-1.8064728c0-0.301857-0.1004486-0.4551468-0.2908783-0.4551468
		c-0.1804886,0-0.2971497,0.1323624-0.429512,0.3970795v1.8645401h-0.4179993V93.823822z"/>
	<path class="st19" d="M78.4237671,97.1453552c0.3599319,0,0.5775681-0.2333298,0.7046967-0.5508881l0.0789948-0.1909561
		l-1.2022171-2.579689h0.4394531l0.6304092,1.4250793c0.1009674,0.2275772,0.2118759,0.4980469,0.3180771,0.7470703h0.0209274
		c0.0905075-0.2437897,0.1909561-0.514267,0.2757034-0.7470703l0.561348-1.4250793h0.4132996l-1.1336899,2.7863388
		c-0.1904297,0.5085068-0.5085068,0.8956451-1.0913086,0.8956451c-0.1213684,0-0.2490234-0.0209274-0.3390045-0.05336
		l0.0899811-0.3442383C78.2594986,97.1291351,78.3442459,97.1453552,78.4237671,97.1453552z"/>
	<path class="st19" d="M83.134285,95.3388824h-1.2608109l-0.333252,1.0594025h-0.4504395l1.1708298-3.474823h0.4975281
		l1.1708221,3.474823h-0.4661331L83.134285,95.3388824z M83.0233765,94.9841843l-0.1642685-0.5299606
		c-0.1218948-0.3866119-0.2333298-0.7679977-0.3442383-1.1703033h-0.0214539
		c-0.1114273,0.4023056-0.2223358,0.7836914-0.3442383,1.1703033l-0.1642685,0.5299606H83.0233765z"/>
	<path class="st19" d="M85.0213242,96.6153946v0.8694839h-0.434227V93.823822h0.3599319l0.0371475,0.328537h0.0156937
		c0.2385635-0.2275696,0.5723343-0.3918457,0.8898926-0.3918457c0.6942291,0,1.0646286,0.5137482,1.0646286,1.313652
		c0,0.8736801-0.5503616,1.3874207-1.1703033,1.3874207c-0.2385635,0-0.5404282-0.121376-0.7732315-0.333252L85.0213242,96.6153946z
		 M85.7098007,96.0964203c0.4608994,0,0.7946777-0.3866119,0.7946777-1.0222549
		c0-0.5671005-0.2118835-0.9484863-0.7256241-0.9484863c-0.228096,0-0.4928131,0.1218948-0.7575302,0.3866196v1.2822571
		C85.2651138,96.0116653,85.5350647,96.0964203,85.7098007,96.0964203z"/>
	<path class="st19" d="M88.1958466,96.6153946v0.8694839h-0.4342194V93.823822h0.3599319l0.0371399,0.328537h0.0157013
		c0.2385559-0.2275696,0.5723343-0.3918457,0.8898926-0.3918457c0.6942291,0,1.064621,0.5137482,1.064621,1.313652
		c0,0.8736801-0.5503616,1.3874207-1.1703033,1.3874207c-0.2385559,0-0.5404205-0.121376-0.7732239-0.333252L88.1958466,96.6153946z
		 M88.8843231,96.0964203c0.4608994,0,0.7946777-0.3866119,0.7946777-1.0222549
		c0-0.5671005-0.2118835-0.9484863-0.7256241-0.9484863c-0.228096,0-0.4928131,0.1218948-0.7575302,0.3866196v1.2822571
		C88.4396362,96.0116653,88.7095871,96.0964203,88.8843231,96.0964203z"/>
	<path class="st19" d="M19.8206043,101.1124649c-0.2380371-0.1852036-0.4237595-0.3013382-0.7784595-0.3013382
		c-0.354702,0-0.5827999,0.1695023-0.5827999,0.4394531c0,0.5827942,1.6845703,0.4718857,1.6845703,1.440773
		c0,0.4551468-0.3761501,0.7836914-0.9322681,0.8422852v0.7732315h-0.3180809v-0.7679977
		c-0.3918457-0.0313873-0.7679958-0.2061234-1.0112648-0.4132996l0.2066479-0.3013382
		c0.2647171,0.1904297,0.5875072,0.3599319,0.9851074,0.3599319c0.4185257,0,0.6408691-0.1904297,0.6408691-0.4614258
		c0-0.6560364-1.6793385-0.5398941-1.6793385-1.4617004c0-0.4446869,0.3442383-0.7470703,0.8579788-0.7993851v-0.6999893h0.3180809
		v0.6947556c0.3866138,0.0313873,0.6304054,0.1956635,0.8422852,0.4017868L19.8206043,101.1124649z"/>
	<path class="st19" d="M25.6402187,101.0863037c0.4185257,0,0.7256203,0.1695023,0.9375,0.3766785l-0.2171116,0.2804108
		c-0.2118778-0.1851959-0.4342213-0.2971573-0.7046947-0.2971573c-0.5932617,0-1.0008011,0.402832-1.0008011,0.9960938
		c0,0.588028,0.3970776,0.9856339,0.9903393,0.9856339c0.318079,0,0.582798-0.1433487,0.7999077-0.3233109l0.1904297,0.2804108
		c-0.2804127,0.2542572-0.6408672,0.402832-1.0222511,0.402832c-0.8051395,0-1.408865-0.4928131-1.408865-1.3455658
		C24.2046719,101.5791168,24.8617592,101.0863037,25.6402187,101.0863037z"/>
	<path class="st19" d="M28.4433022,101.0863037c0.312849,0,0.5404224,0.127655,0.7784595,0.3337784l-0.0156956-0.4771194v-0.9898224
		h0.4342232v3.7709274h-0.3599339l-0.0371437-0.3390045h-0.0156956c-0.2118797,0.2176361-0.5194969,0.402832-0.8370533,0.402832
		c-0.672781,0-1.1179905-0.487587-1.1179905-1.3455658C27.2724724,101.605278,27.8343449,101.0863037,28.4433022,101.0863037z
		 M28.4804459,103.4227295c0.2542553,0,0.4980469-0.1328812,0.7256203-0.3871384v-1.2817383
		c-0.2328053-0.2176285-0.4556694-0.3023834-0.6780128-0.3023834c-0.444685,0-0.8051414,0.3975983-0.8051414,0.9856339
		C27.7229118,103.0512848,28.003849,103.4227295,28.4804459,103.4227295z"/>
	<path class="st19" d="M33.6215248,101.1501312h0.3390045l0.0371475,0.3390045h0.0162163
		c0.1271286-0.2385559,0.2856445-0.402832,0.5770454-0.402832c0.2600098,0,0.4237556,0.1485748,0.4875832,0.4446869
		c0.153286-0.2699509,0.3227882-0.4446869,0.6089554-0.4446869c0.3552246,0,0.561348,0.2804108,0.561348,0.7941589v1.843605
		H35.830822v-1.8059387c0-0.3023911-0.0905075-0.4551468-0.2809372-0.4551468c-0.1851959,0-0.3070908,0.1318359-0.4394531,0.396553
		v1.8645325h-0.3499908v-1.8059387c0-0.3023911-0.1004486-0.4551468-0.2914009-0.4551468
		c-0.179966,0-0.2961082,0.1318359-0.4289894,0.396553v1.8645325h-0.4185257V101.1501312z"/>
	<path class="st19" d="M37.1565056,104.471138c0.3604584,0,0.5775681-0.2333298,0.7046967-0.5503616l0.0795174-0.1914749
		l-1.2027397-2.5791702h0.4399757l0.6298828,1.4250793c0.1009712,0.2270508,0.2118797,0.4980469,0.3180809,0.7460251h0.0209274
		c0.0899811-0.2427444,0.1909523-0.5137405,0.2757034-0.7460251l0.561348-1.4250793h0.4132957l-1.1336861,2.7863388
		c-0.1904297,0.5085144-0.5085068,0.8945999-1.0913086,0.8945999c-0.1218948,0-0.248497-0.0209274-0.3390045-0.0523148
		l0.0905075-0.3442383C36.9922333,104.4554443,37.0769844,104.471138,37.1565056,104.471138z"/>
	<path class="st19" d="M41.8665009,102.6651993H40.60569l-0.333252,1.0588684h-0.4504395l1.1708298-3.4748154h0.4975243
		l1.170826,3.4748154h-0.4661331L41.8665009,102.6651993z M41.7555923,102.3104935L41.59132,101.780014
		c-0.1218948-0.3860931-0.2333298-0.7679977-0.3442383-1.1708298h-0.02145
		c-0.1114311,0.402832-0.2223396,0.7847366-0.3442383,1.1708298l-0.1642723,0.5304794H41.7555923z"/>
	<path class="st19" d="M43.7540588,103.9417038v0.8684387h-0.4342232v-3.6600113h0.3599319l0.0371475,0.3285446h0.0156937
		c0.2385597-0.228096,0.5723343-0.3923721,0.8898926-0.3923721c0.6942291,0,1.0651512,0.5137405,1.0651512,1.3141785
		c0,0.8736725-0.5514107,1.387413-1.1708298,1.387413c-0.2385597,0-0.5404243-0.121376-0.7732277-0.3337784L43.7540588,103.9417038z
		 M44.4425354,103.4227295c0.4609032,0,0.7946777-0.3871384,0.7946777-1.0222473
		c0-0.5671082-0.2118797-0.9490128-0.7256203-0.9490128c-0.2280998,0-0.4928169,0.1224213-0.757534,0.3871384v1.2817383
		C43.9978485,103.3379745,44.2677994,103.4227295,44.4425354,103.4227295z"/>
	<path class="st19" d="M46.9285812,103.9417038v0.8684387h-0.4342194v-3.6600113h0.3599319l0.0371437,0.3285446h0.0156975
		c0.2385597-0.228096,0.5723343-0.3923721,0.8898926-0.3923721c0.6942291,0,1.0651474,0.5137405,1.0651474,1.3141785
		c0,0.8736725-0.5514069,1.387413-1.170826,1.387413c-0.2385597,0-0.5404243-0.121376-0.7732277-0.3337784L46.9285812,103.9417038z
		 M47.6170578,103.4227295c0.4609032,0,0.7946777-0.3871384,0.7946777-1.0222473
		c0-0.5671082-0.2118759-0.9490128-0.7256203-0.9490128c-0.228096,0-0.4928131,0.1224213-0.757534,0.3871384v1.2817383
		C47.1723747,103.3379745,47.4423256,103.4227295,47.6170578,103.4227295z"/>
	<path class="st19" d="M50.0926437,104.5715866h-0.3923683l1.7374115-4.6079788h0.3923683L50.0926437,104.5715866z"/>
	<path class="st19" d="M19.8206043,108.4387741c-0.2380371-0.1851959-0.4237595-0.3023834-0.7784595-0.3023834
		c-0.354702,0-0.5827999,0.1695023-0.5827999,0.4404984c0,0.581749,1.6845703,0.4708405,1.6845703,1.440773
		c0,0.4551544-0.3761501,0.7836914-0.9322681,0.8412399v0.7732315h-0.3180809v-0.7669525
		c-0.3918457-0.0324326-0.7679958-0.2071686-1.0112648-0.4132919l0.2066479-0.3023911
		c0.2647171,0.1904297,0.5875072,0.3599396,0.9851074,0.3599396c0.4185257,0,0.6408691-0.1904297,0.6408691-0.4603806
		c0-0.6570892-1.6793385-0.5399017-1.6793385-1.4617081c0-0.4457321,0.3442383-0.7470703,0.8579788-0.8004303v-0.6989441h0.3180809
		v0.6937103c0.3866138,0.0324402,0.6304054,0.1956635,0.8422852,0.402832L19.8206043,108.4387741z"/>
	<path class="st19" d="M24.7079506,111.2669678v0.8684464h-0.4342213v-3.6600189h0.3599319l0.0371437,0.3285446h0.0156956
		c0.2385597-0.2270508,0.5723362-0.3913269,0.8898926-0.3913269c0.694231,0,1.0651512,0.5137405,1.0651512,1.3131332
		c0,0.8736725-0.5514088,1.387413-1.1708298,1.387413c-0.2385597,0-0.5404224-0.121376-0.7732277-0.3327255L24.7079506,111.2669678z
		 M25.3964272,110.7479935c0.4609013,0,0.7946777-0.3860931,0.7946777-1.0222473
		c0-0.5671082-0.2118797-0.9479675-0.7256222-0.9479675c-0.228096,0-0.492815,0.121376-0.7575321,0.3860931v1.2827835
		C24.9517422,110.6632462,25.2216911,110.7479935,25.3964272,110.7479935z"/>
	<path class="st19" d="M27.447731,107.2784042h0.4342213v1.0274887l-0.0214481,0.6100006
		c0.2757034-0.2866898,0.5723343-0.5032806,0.9746437-0.5032806c0.6094799,0,0.8898926,0.3599319,0.8898926,1.0379486v1.5998154
		h-0.4342213v-1.5412216c0-0.487587-0.1695042-0.7209091-0.5932617-0.7209091c-0.3070946,0-0.5137424,0.1538086-0.8156052,0.4666519
		v1.7954788H27.447731V107.2784042z"/>
	<path class="st19" d="M31.7182732,108.4126129c0.6780128,0,1.2712746,0.4917679,1.2712746,1.3560257
		c0,0.8527527-0.5932617,1.3445206-1.2712746,1.3445206s-1.2712746-0.4917679-1.2712746-1.3445206
		C30.4469986,108.9043808,31.0402603,108.4126129,31.7182732,108.4126129z M31.7182732,110.7532272
		c0.4928169,0,0.8213577-0.396553,0.8213577-0.9845886c0-0.5932617-0.3285408-0.9960938-0.8213577-0.9960938
		c-0.4922905,0-0.8208351,0.402832-0.8208351,0.9960938C30.897438,110.3566742,31.2259827,110.7532272,31.7182732,110.7532272z"/>
	<path class="st19" d="M33.7967834,108.4753952h0.3599319l0.0371437,0.4404984h0.0209274
		c0.2704735-0.2866898,0.5671043-0.5032806,0.9694138-0.5032806c0.609478,0,0.8898926,0.3599319,0.8898926,1.0379486v1.5998154
		h-0.4342232v-1.5412216c0-0.487587-0.1695023-0.7209091-0.5932617-0.7209091c-0.3070946,0-0.5137405,0.1538086-0.8156052,0.4666519
		v1.7954788h-0.4342194V108.4753952z"/>
	<path class="st19" d="M38.1520767,108.4126129c0.7366066,0,1.1708298,0.481308,1.1708298,1.2074509
		c0,0.0899811-0.0052338,0.174736-0.0156975,0.2385635h-2.0131111c0.0319099,0.5555954,0.4237556,0.9050598,0.98563,0.9050598
		c0.3018608,0,0.5451317-0.0899811,0.7836914-0.2375107l0.1538086,0.2856445
		c-0.2542572,0.1642685-0.5775681,0.3013382-0.9908638,0.3013382c-0.762764,0-1.3821831-0.5022354-1.3821831-1.3445206
		S37.4850502,108.4126129,38.1520767,108.4126129z M38.9205971,109.5719376c0-0.5242081-0.2861671-0.8150864-0.762764-0.8150864
		c-0.4185295,0-0.8051414,0.2961121-0.868969,0.8150864H38.9205971z"/>
	<path class="st19" d="M40.4576378,110.9499359v-0.0219727c-0.1375923-0.0742874-0.2647209-0.2061234-0.2647209-0.4237595
		c0-0.1642761,0.1109123-0.349472,0.3070946-0.481308v-0.0219727c-0.174736-0.1318359-0.3180809-0.3599319-0.3180809-0.6675491
		c0-0.5608292,0.4666595-0.9207611,1.0117912-0.9207611c0.1485748,0,0.2704697,0.0209274,0.381382,0.0627823h1.0646248v0.3337708
		H41.951252c0.1218987,0.127655,0.2385635,0.312851,0.2385635,0.540947c0,0.5503616-0.4394531,0.88414-0.9960938,0.88414
		c-0.1323624,0-0.2908783-0.0313873-0.4342232-0.0952148c-0.1271286,0.0795212-0.201416,0.174736-0.201416,0.2961044
		c0,0.2071762,0.1961861,0.2971573,0.5351906,0.2971573h0.5775681c0.6617966,0,0.9798737,0.1695023,0.9798737,0.6037216
		c0,0.4823532-0.5561142,0.9008789-1.4303131,0.9008789c-0.7523041,0-1.1865234-0.2605286-1.1865234-0.7156754
		C40.0338783,111.3151016,40.1819305,111.1079254,40.4576378,110.9499359z M41.2523155,111.9345169
		c0.5984917,0,0.9694099-0.2647171,0.9694099-0.5294342c0-0.2437897-0.1961823-0.312851-0.588028-0.312851h-0.5032806
		c-0.1485748,0-0.2809334-0.0104599-0.3918457-0.0418549c-0.2437897,0.1318359-0.3285408,0.2804184-0.3285408,0.4289932
		C40.4100304,111.749321,40.7014275,111.9345169,41.2523155,111.9345169z M41.7869835,109.333374
		c0-0.3599319-0.2647209-0.6037216-0.5932617-0.6037216c-0.3227921,0-0.5932617,0.2437897-0.5932617,0.6037216
		c0,0.3714447,0.2704697,0.6100006,0.5932617,0.6100006C41.5222626,109.9433746,41.7869835,109.7048187,41.7869835,109.333374z"/>
	<path class="st19" d="M45.1205482,109.418129c-0.0104637-0.349472-0.1851997-0.6455841-0.6832466-0.6455841
		c-0.3337746,0-0.6623192,0.1590424-0.9003563,0.306572l-0.1695023-0.2961044
		c0.2594872-0.1695023,0.6937103-0.3703995,1.1441498-0.3703995c0.7041702,0,1.0431747,0.4185257,1.0431747,1.058876v1.5788879
		h-0.3546982l-0.0371475-0.3494644h-0.0156937c-0.2861671,0.221817-0.6518555,0.4122467-1.0170212,0.4122467
		c-0.4823494,0-0.8741951-0.2699509-0.8741951-0.7303314C43.256012,109.8052597,43.7912025,109.5248489,45.1205482,109.418129z
		 M44.2468719,110.7636871c0.2908783,0,0.5822754-0.1370621,0.8736763-0.3808594v-0.678009
		c-1.1017723,0.0899811-1.4407806,0.306572-1.4407806,0.6455765
		C43.6797676,110.6423187,43.9497185,110.7636871,44.2468719,110.7636871z"/>
	<path class="st19" d="M46.9285812,111.2669678v0.8684464h-0.4342194v-3.6600189h0.3599319l0.0371437,0.3285446h0.0156975
		c0.2385597-0.2270508,0.5723343-0.3913269,0.8898926-0.3913269c0.6942291,0,1.0651474,0.5137405,1.0651474,1.3131332
		c0,0.8736725-0.5514069,1.387413-1.170826,1.387413c-0.2385597,0-0.5404243-0.121376-0.7732277-0.3327255L46.9285812,111.2669678z
		 M47.6170578,110.7479935c0.4609032,0,0.7946777-0.3860931,0.7946777-1.0222473
		c0-0.5671082-0.2118759-0.9479675-0.7256203-0.9479675c-0.228096,0-0.4928131,0.121376-0.757534,0.3860931v1.2827835
		C47.1723747,110.6632462,47.4423256,110.7479935,47.6170578,110.7479935z"/>
	<path class="st19" d="M52.9438591,110.4246826c0.2861671,0.2124023,0.6037254,0.349472,1.0646286,0.349472
		s0.6884766-0.1799698,0.6884766-0.4017868c0-0.2019424-0.2066498-0.3442383-0.8365326-0.4980469
		c-0.5299568-0.1328812-0.9803963-0.3651657-0.9803963-0.7313766c0-0.4132919,0.3709183-0.7303314,1.0808449-0.7303314
		c0.3866119,0,0.7784576,0.1527634,1.0327148,0.3274994l-0.2118797,0.281456
		c-0.2275734-0.1590347-0.5027542-0.2699432-0.8208351-0.2699432c-0.4818306,0-0.6356392,0.1695023-0.6356392,0.3703918
		c0,0.2113571,0.3175583,0.3390045,0.784214,0.4551468c0.6937103,0.174736,1.0274849,0.3766785,1.0274849,0.7679977
		c0,0.4185257-0.4080658,0.7679977-1.1441498,0.7679977c-0.5032768,0-0.9484863-0.1851959-1.2608109-0.4017868
		L52.9438591,110.4246826z"/>
	<path class="st19" d="M57.198185,108.4126129c0.7366066,0,1.170826,0.481308,1.170826,1.2074509
		c0,0.0899811-0.0052299,0.174736-0.0156937,0.2385635h-2.0131149c0.0319138,0.5555954,0.4237595,0.9050598,0.9856339,0.9050598
		c0.3018608,0,0.5451279-0.0899811,0.7836914-0.2375107l0.1538086,0.2856445
		c-0.2542572,0.1642685-0.5775681,0.3013382-0.9908638,0.3013382c-0.762764,0-1.3821831-0.5022354-1.3821831-1.3445206
		S56.5311584,108.4126129,57.198185,108.4126129z M57.9667053,109.5719376c0-0.5242081-0.286171-0.8150864-0.7627678-0.8150864
		c-0.4185257,0-0.8051414,0.2961121-0.8689651,0.8150864H57.9667053z"/>
	<path class="st19" d="M59.4723549,108.4753952h0.3604546l0.0371437,0.6100006h0.0156975
		c0.2699471-0.4132919,0.6727791-0.6727829,1.1493759-0.6727829c0.1909561,0,0.3442383,0.0261612,0.5032806,0.1056824
		l-0.0899849,0.3756256c-0.179966-0.0627823-0.2809334-0.0899811-0.4823494-0.0899811
		c-0.3866158,0-0.7517815,0.2019348-1.058876,0.7366028v1.5098343h-0.434742V108.4753952z"/>
	<path class="st19" d="M62.1436005,108.4753952h0.4399757l0.5932617,1.4627533
		c0.1056786,0.2594833,0.2008934,0.5137405,0.2914009,0.7575302h0.0209274
		c0.0899811-0.2437897,0.1747322-0.4980469,0.2809334-0.7575302l0.5932655-1.4627533h0.4185257l-1.0651512,2.5749817h-0.4870605
		L62.1436005,108.4753952z"/>
	<path class="st19" d="M66.7217636,108.4126129c0.7366028,0,1.1708221,0.481308,1.1708221,1.2074509
		c0,0.0899811-0.0052261,0.174736-0.0156937,0.2385635h-2.0131149c0.0319138,0.5555954,0.4237595,0.9050598,0.9856339,0.9050598
		c0.3018646,0,0.5451279-0.0899811,0.7836914-0.2375107l0.1538086,0.2856445
		c-0.2542572,0.1642685-0.5775681,0.3013382-0.99086,0.3013382c-0.762764,0-1.3821869-0.5022354-1.3821869-1.3445206
		S66.0547333,108.4126129,66.7217636,108.4126129z M67.4902802,109.5719376c0-0.5242081-0.286171-0.8150864-0.762764-0.8150864
		c-0.4185257,0-0.8051453,0.2961121-0.8689651,0.8150864H67.4902802z"/>
	<path class="st19" d="M68.9954071,108.4753952h0.3604584l0.0371399,0.6100006h0.0156937
		c0.2699509-0.4132919,0.6727829-0.6727829,1.1493835-0.6727829c0.1909485,0,0.3442383,0.0261612,0.5032806,0.1056824
		l-0.0899887,0.3756256c-0.1799622-0.0627823-0.2809372-0.0899811-0.4818268-0.0899811
		c-0.3871384,0-0.7523041,0.2019348-1.0599213,0.7366028v1.5098343h-0.4342194V108.4753952z"/>
	<path class="st19" d="M17.8608513,114.6036758h1.313652v2.9401474c0,0.3766708,0.1961842,0.5357132,0.5032787,0.5357132
		c0.1480541,0,0.2966309-0.0376663,0.4870605-0.1224213l0.111433,0.3285446
		c-0.2328072,0.0847549-0.4132957,0.1538086-0.6937084,0.1538086c-0.5456543,0-0.8422852-0.3180771-0.8422852-0.9270325v-2.5530167
		h-0.8794308C17.8608513,114.9594193,17.8608513,114.6036758,17.8608513,114.6036758z"/>
	<path class="st19" d="M21.0829849,115.8017044h1.631731v2.5739441h-0.4342213v-2.2192383h-1.1975098V115.8017044z
		 M22.1000042,114.9374466c0-0.2061234,0.1485786-0.3390045,0.3499947-0.3390045
		c0.1956596,0,0.3494682,0.1328812,0.3494682,0.3390045c0,0.2019424-0.1538086,0.3337784-0.3494682,0.3337784
		C22.2485828,115.271225,22.1000042,115.139389,22.1000042,114.9374466z"/>
	<path class="st19" d="M24.3741741,117.7509918c0.2861691,0.2113571,0.6037254,0.349472,1.0646286,0.349472
		s0.6884766-0.1799698,0.6884766-0.402832c0-0.2008896-0.2066479-0.3442383-0.8365307-0.4980469
		c-0.5299587-0.1318359-0.9803982-0.3651657-0.9803982-0.7313766c0-0.4122467,0.3709183-0.7303314,1.0808449-0.7303314
		c0.3866138,0,0.7784595,0.1538086,1.0327148,0.3285446l-0.2118797,0.2804184
		c-0.2275734-0.1590424-0.5027542-0.2699509-0.8208351-0.2699509c-0.4818287,0-0.6356373,0.1695023-0.6356373,0.3703918
		c0,0.2124023,0.3175564,0.3390121,0.784214,0.4561996c0.6937084,0.1747284,1.027483,0.3756256,1.027483,0.7679901
		c0,0.4185333-0.4080639,0.7679977-1.1441479,0.7679977c-0.5032787,0-0.9484863-0.1851959-1.2608109-0.402832
		L24.3741741,117.7509918z"/>
	<path class="st19" d="M28.0462246,116.1564102h-0.7256222v-0.3285446l0.7413177-0.0261612l0.0580692-0.7209091h0.3604565v0.7209091
		h1.2608128v0.3547058h-1.2608128v1.2231445c0,0.4614258,0.1538086,0.7052155,0.6513329,0.7052155
		c0.2437916,0,0.4399757-0.0481339,0.6199417-0.1171875l0.0899849,0.3180771
		c-0.2275753,0.0847549-0.5242062,0.1538086-0.8051414,0.1538086c-0.7470703,0-0.9903393-0.4289856-0.9903393-1.0651474V116.1564102
		z"/>
	<path class="st19" d="M31.8030262,115.7378769c0.7366047,0,1.1708279,0.4823532,1.1708279,1.2074509
		c0,0.0899887-0.0052299,0.174736-0.0156937,0.2385635h-2.0131149c0.0319138,0.5566406,0.4237595,0.9061127,0.98563,0.9061127
		c0.3018646,0,0.5451317-0.0899887,0.7836914-0.2385635l0.1538086,0.2856445
		c-0.2542534,0.1642685-0.5775681,0.3023834-0.9908619,0.3023834c-0.762764,0-1.382185-0.503273-1.382185-1.3455582
		S31.1359978,115.7378769,31.8030262,115.7378769z M32.5715446,116.8982468c0-0.5252533-0.2861671-0.8161316-0.762764-0.8161316
		c-0.4185276,0-0.8051414,0.2961121-0.8689671,0.8161316H32.5715446z"/>
	<path class="st19" d="M33.7967834,115.8017044h0.3599319l0.0371437,0.4394531h0.0209274
		c0.2704735-0.2866898,0.5671043-0.5032806,0.9694138-0.5032806c0.609478,0,0.8898926,0.3599396,0.8898926,1.0379486v1.599823
		h-0.4342232v-1.5412292c0-0.4875793-0.1695023-0.7209091-0.5932617-0.7209091
		c-0.3070946,0-0.5137405,0.1538086-0.8156052,0.4666519v1.7954865h-0.4342194V115.8017044z"/>
	<path class="st19" d="M36.9550896,115.8017044h1.6317329v2.5739441h-0.4347458v-2.2192383h-1.1969872V115.8017044z
		 M37.9721107,114.9374466c0-0.2061234,0.1485748-0.3390045,0.3494682-0.3390045
		c0.1961861,0,0.3499947,0.1328812,0.3499947,0.3390045c0,0.2019424-0.1538086,0.3337784-0.3499947,0.3337784
		C38.1206856,115.271225,37.9721107,115.139389,37.9721107,114.9374466z"/>
	<path class="st19" d="M40.1453094,115.8017044h0.3599358l0.0371437,0.4394531h0.02145
		c0.2699471-0.2866898,0.5665779-0.5032806,0.9688873-0.5032806c0.6094818,0,0.8898926,0.3599396,0.8898926,1.0379486v1.599823
		h-0.4342194v-1.5412292c0-0.4875793-0.1695061-0.7209091-0.5932617-0.7209091
		c-0.3070946,0-0.5137444,0.1538086-0.8156052,0.4666519v1.7954865h-0.4342232V115.8017044z"/>
	<path class="st19" d="M43.6321602,118.2751999v-0.0209274c-0.1375885-0.0742874-0.2647171-0.2071686-0.2647171-0.4237595
		c0-0.1642685,0.1109085-0.3505173,0.3070946-0.4823532v-0.0209274c-0.174736-0.1328812-0.3180809-0.3609772-0.3180809-0.6675491
		c0-0.5618668,0.4666595-0.9218063,1.0117874-0.9218063c0.1485786,0,0.2704735,0.0209274,0.3813858,0.0638275h1.0646248v0.3337784
		h-0.6884766c0.1218987,0.1266022,0.2385597,0.3117981,0.2385597,0.5398941c0,0.5503693-0.4394531,0.88414-0.9960938,0.88414
		c-0.1323586,0-0.2908745-0.0313873-0.4342194-0.0952148c-0.1271286,0.0795212-0.201416,0.174736-0.201416,0.2971573
		c0,0.2061234,0.1961823,0.2961044,0.5351906,0.2961044h0.5775681c0.6617928,0,0.9798737,0.1695023,0.9798737,0.6037292
		c0,0.4823456-0.556118,0.9008789-1.4303131,0.9008789c-0.7523041,0-1.1865234-0.259491-1.1865234-0.7146378
		C43.2084045,118.6403656,43.3564568,118.4342422,43.6321602,118.2751999z M44.4268379,119.2597809
		c0.5984955,0,0.9694138-0.2647171,0.9694138-0.5294342c0-0.2437897-0.1961823-0.3118057-0.588028-0.3118057h-0.5032806
		c-0.1485748,0-0.2809372-0.0115051-0.3918457-0.0428925c-0.2437897,0.1328812-0.3285446,0.2804108-0.3285446,0.4289856
		C43.5845528,119.074585,43.8759537,119.2597809,44.4268379,119.2597809z M44.9615059,116.6596832
		c0-0.3609772-0.2647171-0.6037216-0.5932617-0.6037216c-0.3227882,0-0.5932617,0.2427444-0.5932617,0.6037216
		c0,0.3703995,0.2704735,0.6089554,0.5932617,0.6089554C44.6967888,117.2686386,44.9615059,117.0300827,44.9615059,116.6596832z"/>
	<path class="st19" d="M50.7654266,115.7378769c0.6780128,0,1.2712746,0.4928207,1.2712746,1.3560333
		c0,0.8527451-0.5932617,1.3455582-1.2712746,1.3455582s-1.2712746-0.4928131-1.2712746-1.3455582
		C49.4941521,116.2306976,50.0874138,115.7378769,50.7654266,115.7378769z M50.7654266,118.0795364
		c0.4922943,0,0.8208351-0.3975983,0.8208351-0.9856262c0-0.5932617-0.3285408-0.9960938-0.8208351-0.9960938
		c-0.4928131,0-0.8213577,0.402832-0.8213577,0.9960938C49.9440689,117.6819382,50.2726135,118.0795364,50.7654266,118.0795364z"/>
	<path class="st19" d="M52.8434143,115.8017044h0.3599319l0.0371437,0.4394531h0.02145
		c0.2699509-0.2866898,0.5665817-0.5032806,0.9688873-0.5032806c0.6094818,0,0.8898926,0.3599396,0.8898926,1.0379486v1.599823
		h-0.4342194v-1.5412292c0-0.4875793-0.1695023-0.7209091-0.5932617-0.7209091
		c-0.3070946,0-0.5137405,0.1538086-0.8156052,0.4666519v1.7954865h-0.4342194V115.8017044z"/>
	<path class="st19" d="M61.4959297,118.0157089v0.3599396h-2.277832v-0.3599396h0.95895v-2.4902344h-0.7203903v-0.2804108
		c0.3599358-0.05336,0.6199455-0.1381149,0.8312988-0.2490234h0.3233147v3.0196686H61.4959297z"/>
	<path class="st19" d="M62.2602654,118.1161575c1.144146-1.0117874,1.7745552-1.6050491,1.7745552-2.1669235
		c0-0.3860855-0.2385635-0.6612701-0.736084-0.6612701c-0.3180809,0-0.5932617,0.1799698-0.8103752,0.4070206l-0.2490234-0.2490234
		c0.3018646-0.306572,0.6356392-0.5137482,1.112236-0.5137482c0.6780128,0,1.1017723,0.3976059,1.1017723,0.9960938
		c0,0.6361618-0.6356392,1.2660446-1.5574417,2.1031036c0.206646-0.0157013,0.4289894-0.031395,0.6304054-0.031395h1.1122322
		v0.3756332h-2.3782768V118.1161575z"/>
	<path class="st19" d="M67.3683853,115.3727188h-1.9492874v-0.3766785h2.4473343v0.2699509
		c-0.8956451,1.0222549-1.1179886,1.7850189-1.165596,3.1096573H66.245163
		C66.3037567,117.0939102,66.5951538,116.3206787,67.3683853,115.3727188z"/>
	<path class="st19" d="M69.8115311,117.5438232c0.2380371,0,0.4289932,0.1799698,0.4289932,0.449913
		c0,0.26577-0.1909561,0.4457321-0.4289932,0.4457321c-0.2385559,0-0.429512-0.1799622-0.429512-0.4457321
		C69.382019,117.723793,69.5729752,117.5438232,69.8115311,117.5438232z"/>
	<path class="st19" d="M71.7728577,116.6753769c0-1.1331558,0.4608994-1.7431641,1.2132034-1.7431641
		c0.7517776,0,1.212677,0.6100082,1.212677,1.7431641c0,1.1227036-0.4608994,1.7640915-1.212677,1.7640915
		C72.233757,118.4394684,71.7728577,117.7980804,71.7728577,116.6753769z M72.180397,116.6753769
		c0,0.968895,0.3337708,1.4146271,0.8056641,1.4146271c0.4713669,0,0.8046188-0.4457321,0.8046188-1.4146271
		c0-0.9751663-0.333252-1.393692-0.8046188-1.393692C72.5141678,115.2816849,72.180397,115.7002106,72.180397,116.6753769z
		 M72.6575165,116.6377106c0-0.2165833,0.1532822-0.3494644,0.3285446-0.3494644
		c0.174736,0,0.3280182,0.1328812,0.3280182,0.3494644c0,0.2228699-0.1532822,0.355751-0.3280182,0.355751
		C72.8107986,116.9934616,72.6575165,116.8605804,72.6575165,116.6377106z"/>
	<path class="st19" d="M76.1605835,117.5438232c0.2380371,0,0.4289932,0.1799698,0.4289932,0.449913
		c0,0.26577-0.1909561,0.4457321-0.4289932,0.4457321c-0.2385559,0-0.429512-0.1799622-0.429512-0.4457321
		C75.7310715,117.723793,75.9220276,117.5438232,76.1605835,117.5438232z"/>
	<path class="st19" d="M78.1219101,116.6753769c0-1.1331558,0.4608994-1.7431641,1.2132034-1.7431641
		c0.7517776,0,1.212677,0.6100082,1.212677,1.7431641c0,1.1227036-0.4608994,1.7640915-1.212677,1.7640915
		C78.5828094,118.4394684,78.1219101,117.7980804,78.1219101,116.6753769z M78.5294495,116.6753769
		c0,0.968895,0.3337708,1.4146271,0.8056641,1.4146271c0.4713669,0,0.8046188-0.4457321,0.8046188-1.4146271
		c0-0.9751663-0.333252-1.393692-0.8046188-1.393692C78.8632202,115.2816849,78.5294495,115.7002106,78.5294495,116.6753769z
		 M79.0065689,116.6377106c0-0.2165833,0.1532822-0.3494644,0.3285446-0.3494644
		c0.174736,0,0.3280182,0.1328812,0.3280182,0.3494644c0,0.2228699-0.1532822,0.355751-0.3280182,0.355751
		C79.1598511,116.9934616,79.0065689,116.8605804,79.0065689,116.6377106z"/>
	<path class="st19" d="M82.5096359,117.5438232c0.2380371,0,0.4289932,0.1799698,0.4289932,0.449913
		c0,0.26577-0.1909561,0.4457321-0.4289932,0.4457321c-0.2385559,0-0.429512-0.1799622-0.429512-0.4457321
		C82.0801239,117.723793,82.27108,117.5438232,82.5096359,117.5438232z"/>
	<path class="st19" d="M86.8910904,118.0157089v0.3599396h-2.277832v-0.3599396h0.9589462v-2.4902344h-0.7203903v-0.2804108
		c0.3599396-0.05336,0.6199493-0.1381149,0.8312988-0.2490234h0.3233185v3.0196686H86.8910904z"/>
	<path class="st19" d="M88.8576431,115.6478958c0.2385559,0,0.429512,0.1799698,0.429512,0.4446869
		c0,0.2699509-0.1909561,0.449913-0.429512,0.449913c-0.2380371,0-0.4289932-0.1799622-0.4289932-0.449913
		C88.4286499,115.8278656,88.619606,115.6478958,88.8576431,115.6478958z M88.8576431,117.5438232
		c0.2385559,0,0.429512,0.1799698,0.429512,0.449913c0,0.26577-0.1909561,0.4457321-0.429512,0.4457321
		c-0.2380371,0-0.4289932-0.1799622-0.4289932-0.4457321C88.4286499,117.723793,88.619606,117.5438232,88.8576431,117.5438232z"/>
	<path class="st19" d="M90.9675369,117.6767044c0.2228699,0.2113571,0.5351944,0.402832,0.9694138,0.402832
		c0.460907,0,0.8103714-0.2437897,0.8103714-0.6204681c0-0.402832-0.3390045-0.6727753-1.2288971-0.6727753v-0.3337784
		c0.7999115,0,1.1070023-0.2751846,1.1070023-0.6298828c0-0.3285446-0.275177-0.534668-0.6884766-0.534668
		c-0.3175583,0-0.6089554,0.1422958-0.8312988,0.3442383l-0.2333298-0.2762299
		c0.2809372-0.2437897,0.6461029-0.4237595,1.0808487-0.4237595c0.6356354,0,1.1174622,0.312851,1.1174622,0.8579865
		c0,0.4080582-0.301857,0.6675491-0.7203827,0.8056641v0.0209198c0.4504395,0.0952148,0.8370514,0.3923721,0.8370514,0.8579865
		c0,0.5984879-0.5508881,0.9646988-1.223671,0.9646988c-0.5827942,0-0.9694138-0.228096-1.2184372-0.4771194L90.9675369,117.6767044
		z"/>
	<path class="st19" d="M93.9940109,116.6753769c0-1.1331558,0.4608994-1.7431641,1.2126846-1.7431641
		c0.7522964,0,1.2132034,0.6100082,1.2132034,1.7431641c0,1.1227036-0.460907,1.7640915-1.2132034,1.7640915
		C94.4549103,118.4394684,93.9940109,117.7980804,93.9940109,116.6753769z M94.4020767,116.6753769
		c0,0.968895,0.333252,1.4146271,0.8046188,1.4146271c0.4718857,0,0.8056641-0.4457321,0.8056641-1.4146271
		c0-0.9751663-0.3337784-1.393692-0.8056641-1.393692C94.7353287,115.2816849,94.4020767,115.7002106,94.4020767,116.6753769z
		 M94.8786697,116.6377106c0-0.2165833,0.1532898-0.3494644,0.3280258-0.3494644c0.1752548,0,0.328537,0.1328812,0.328537,0.3494644
		c0,0.2228699-0.1532822,0.355751-0.328537,0.355751C95.0319595,116.9934616,94.8786697,116.8605804,94.8786697,116.6377106z"/>
	<path class="st19" d="M97.1685333,116.6753769c0-1.1331558,0.460907-1.7431641,1.2126846-1.7431641
		c0.7523041,0,1.2142487,0.6100082,1.2142487,1.7431641c0,1.1227036-0.4619446,1.7640915-1.2142487,1.7640915
		C97.6294403,118.4394684,97.1685333,117.7980804,97.1685333,116.6753769z M97.5765991,116.6753769
		c0,0.968895,0.333252,1.4146271,0.8046188,1.4146271c0.4718857,0,0.8056641-0.4457321,0.8056641-1.4146271
		c0-0.9751663-0.3337784-1.393692-0.8056641-1.393692C97.9098511,115.2816849,97.5765991,115.7002106,97.5765991,116.6753769z
		 M98.0531998,116.6377106c0-0.2165833,0.1532822-0.3494644,0.3280182-0.3494644
		c0.1752548,0,0.3285446,0.1328812,0.3285446,0.3494644c0,0.2228699-0.1532898,0.355751-0.3285446,0.355751
		C98.2064819,116.9934616,98.0531998,116.8605804,98.0531998,116.6377106z"/>
	<path class="st19" d="M100.3425369,116.6753769c0-1.1331558,0.4614258-1.7431641,1.2137299-1.7431641
		s1.2126846,0.6100082,1.2126846,1.7431641c0,1.1227036-0.4603806,1.7640915-1.2126846,1.7640915
		S100.3425369,117.7980804,100.3425369,116.6753769z M100.7506027,116.6753769c0,0.968895,0.3337784,1.4146271,0.8056641,1.4146271
		c0.4708405,0,0.8046188-0.4457321,0.8046188-1.4146271c0-0.9751663-0.3337784-1.393692-0.8046188-1.393692
		C101.0843811,115.2816849,100.7506027,115.7002106,100.7506027,116.6753769z M101.2277222,116.6377106
		c0-0.2165833,0.1538086-0.3494644,0.3285446-0.3494644s0.3285446,0.1328812,0.3285446,0.3494644
		c0,0.2228699-0.1538086,0.355751-0.3285446,0.355751S101.2277222,116.8605804,101.2277222,116.6377106z"/>
</g>
<g id="term">
	<g>
		<rect x="14.9020996" y="79.903389" class="st20" width="90.2996979" height="7.9300442"/>
	</g>
</g>
<g id="Expanded">
	<g>
		<g>
			<path class="st21" d="M114.112854,116.7278061c-0.5290756,0-1.0264587-0.2062607-1.4004974-0.5802917l-0.4003448-0.3997803
				c-0.77211-0.77211-0.77211-2.0288773,0-2.800705l2.6006851-2.6006775
				c0.3740311-0.3740387,0.8714218-0.5802917,1.4004974-0.5802917s1.0264587,0.2062531,1.4002075,0.5802917l0.4000626,0.4000549
				c0.1106262,0.1106262,0.1106262,0.2894363,0,0.4000626s-0.2894363,0.1106262-0.4000626,0l-0.4000626-0.4000626
				c-0.2670746-0.2670898-0.6224442-0.4144974-1.000145-0.4144974c-0.3779984,0-0.7333527,0.1474075-1.0004349,0.4144974
				l-2.6006851,2.6003952c-0.5514297,0.5514297-0.5514297,1.4488754,0,2.0005875l0.4000626,0.4000626
				c0.2670898,0.2670822,0.6224442,0.4144897,1.0004425,0.4144897c0.3777008,0,0.7330627-0.1474075,1.000145-0.4144897
				l1.8008423-1.8005524c0.1106262-0.1106262,0.2894363-0.1106262,0.4000626,0c0.1106262,0.1106186,0.1106262,0.2894363,0,0.4000549
				l-1.80056,1.80056C115.139328,116.5218277,114.6419296,116.7278061,114.112854,116.7278061z"/>
		</g>
		<g>
			<path class="st21" d="M117.5136566,113.3267136c-0.5287933,0-1.0264664-0.2062531-1.4002075-0.5802841
				c-0.1106262-0.1106262-0.1106262-0.2894363,0-0.4000626c0.1106186-0.1106262,0.2894363-0.1106262,0.4000549,0
				c0.2670822,0.2670898,0.6224442,0.4144897,1.0001526,0.4144897c0.3779984,0,0.7333527-0.1473999,1.0004349-0.4144897
				l2.6006851-2.6006775c0.5514221-0.5514297,0.5514221-1.4488831,0-2.0003052l-0.3997879-0.4006271
				c-0.5514221-0.5514297-1.4491501-0.5514297-2.0005798,0l-1.8008423,1.8008423
				c-0.1106262,0.1106262-0.2894363,0.1106262-0.4000626,0c-0.1106186-0.1106262-0.1106186-0.2894363,0-0.4000626l1.80056-1.80056
				c0.77211-0.77211,2.028595-0.77211,2.8007126,0l0.4000626,0.4003448c0.7721024,0.77211,0.7721024,2.028595,0,2.8004303
				l-2.6006927,2.6006775C118.5404053,113.1204605,118.0427322,113.3267136,117.5136566,113.3267136z"/>
		</g>
	</g>
</g>
<path class="st18" d="M141.9086456,113.0750046c0,0.9431534-0.7645721,1.7077332-1.7077332,1.7077332h-8.9964447
	c-0.9431458,0-1.7077179-0.7645798-1.7077179-1.7077332l0,0c0-0.943161,0.7645721-1.7077408,1.7077179-1.7077408h8.9964447
	C141.1440735,111.3672638,141.9086456,112.1318436,141.9086456,113.0750046L141.9086456,113.0750046z"/>
<g>
	<path class="st15" d="M132.9928589,113.7174454c-0.0983582,0.0376663-0.1872864,0.0554504-0.2647247,0.0554504
		c-0.1025391,0-0.1977539-0.0272064-0.2845917-0.0826569c-0.0858002-0.0554581-0.1538086-0.1370697-0.2008972-0.2458878
		c-0.0481262-0.1088181-0.0721893-0.2322769-0.0721893-0.3693466c0-0.1360245,0.0230103-0.2584381,0.0711517-0.3672562
		c0.0470734-0.1088181,0.1140442-0.1904297,0.200882-0.246933c0.0858002-0.0554581,0.181015-0.0837021,0.2856445-0.0837021
		c0.0774384,0,0.1663666,0.0188293,0.2647247,0.0544052v0.1569443c-0.0910339-0.05336-0.1820526-0.0795135-0.272049-0.0795135
		c-0.0669556,0-0.1297302,0.0230179-0.1851959,0.0690536c-0.0565033,0.047081-0.1025391,0.115097-0.1370697,0.2040329
		c-0.0345154,0.0899811-0.0512695,0.1872864-0.0512695,0.2929688c0,0.10672,0.0177917,0.2050781,0.0533752,0.2961044
		c0.0355682,0.0899887,0.081604,0.1579971,0.1370544,0.2029877c0.0544128,0.0449905,0.1161499,0.0669632,0.1831055,0.0669632
		c0.0899963,0,0.1799774-0.0261536,0.272049-0.078476V113.7174454z"/>
	<path class="st15" d="M133.6332092,113.7592926c-0.1360321,0-0.2437897-0.047081-0.3254089-0.1422958
		c-0.0816193-0.0941696-0.1213684-0.2134476-0.1213684-0.3578415s0.0397491-0.2636719,0.1213684-0.3578415
		s0.1893768-0.1412506,0.3254089-0.1412506c0.134964,0,0.2427368,0.047081,0.3243561,0.1412506
		c0.081604,0.0941696,0.1224213,0.2134476,0.1224213,0.3578415s-0.0408173,0.2636719-0.1224213,0.3578415
		C133.875946,113.7122116,133.7681732,113.7592926,133.6332092,113.7592926z M133.6332092,113.6285019
		c0.0836945,0,0.1506653-0.0334778,0.200882-0.0993958c0.0491791-0.0648727,0.074295-0.1548538,0.074295-0.2699509
		c0-0.1140518-0.025116-0.2040329-0.074295-0.2699509c-0.0502167-0.0648727-0.1171875-0.0983505-0.200882-0.0983505
		c-0.0847626,0-0.1517181,0.0334778-0.2019501,0.0983505c-0.0491638,0.065918-0.0742798,0.155899-0.0742798,0.2699509
		c0,0.115097,0.025116,0.2050781,0.0742798,0.2699509C133.4814911,113.5950241,133.5484467,113.6285019,133.6332092,113.6285019z"/>
	<path class="st15" d="M134.2861023,113.733139v-0.9469223h0.1569519v0.206131
		c0.0460358-0.072197,0.1004486-0.1297455,0.1642761-0.1705551c0.0638275-0.0418472,0.1276398-0.0617294,0.1914673-0.0617294
		c0.0554657,0,0.1067352,0.0146484,0.152771,0.0439453c0.0460358,0.0303421,0.0774231,0.0690536,0.0962524,0.1171875
		c0.0177917,0.0481262,0.0272064,0.1422958,0.0272064,0.2825012v0.5294418h-0.1579895v-0.5482712
		c0-0.0910339-0.0041809-0.1517181-0.012558-0.181015c-0.0094147-0.0282516-0.025116-0.0523148-0.0481262-0.0711517
		c-0.0240631-0.0188293-0.0491791-0.028244-0.0774384-0.028244c-0.0554504,0-0.1150818,0.0261536-0.1778717,0.0795135
		c-0.0638275,0.0523224-0.1161346,0.1182404-0.1579895,0.1967087v0.5524597H134.2861023z"/>
	<path class="st15" d="M135.3282318,113.733139v-0.9469223h0.1569519v0.206131
		c0.0460358-0.072197,0.1004486-0.1297455,0.1642761-0.1705551c0.0638275-0.0418472,0.127655-0.0617294,0.1914673-0.0617294
		c0.0554657,0,0.1067352,0.0146484,0.152771,0.0439453c0.0460358,0.0303421,0.0774231,0.0690536,0.0962524,0.1171875
		c0.0177917,0.0481262,0.0272064,0.1422958,0.0272064,0.2825012v0.5294418h-0.1579895v-0.5482712
		c0-0.0910339-0.0041809-0.1517181-0.012558-0.181015c-0.0094147-0.0282516-0.025116-0.0523148-0.0481262-0.0711517
		c-0.0240631-0.0188293-0.0491791-0.028244-0.0774231-0.028244c-0.0554657,0-0.115097,0.0261536-0.177887,0.0795135
		c-0.0638123,0.0523224-0.1161346,0.1182404-0.1579895,0.1967087v0.5524597H135.3282318z"/>
	<path class="st15" d="M137.157196,113.6703568c-0.1255493,0.059639-0.2448273,0.0889359-0.3567963,0.0889359
		c-0.0857849,0-0.1621704-0.0209274-0.2291412-0.0638199c-0.0680084-0.0418549-0.1213684-0.1025391-0.1621704-0.181015
		c-0.0397644-0.0795212-0.0606842-0.1632233-0.0606842-0.253212c0-0.0868454,0.0198669-0.1695023,0.0575409-0.2490234
		c0.0387115-0.0795212,0.0931244-0.1412506,0.1611328-0.1862411c0.0690613-0.0439453,0.1464844-0.065918,0.2312317-0.065918
		c0.1119537,0,0.2029877,0.0397568,0.2709961,0.1203232c0.0680084,0.0795212,0.1015015,0.2029877,0.1015015,0.3703995v0.0334778
		h-0.6529083c0,0.065918,0.0146484,0.1266098,0.0418549,0.181015c0.0272064,0.0544128,0.0627747,0.0952148,0.1077728,0.1224213
		c0.0449829,0.0272064,0.0952148,0.040802,0.1527557,0.040802c0.1015015,0,0.2144928-0.034523,0.3369141-0.1025391V113.6703568z
		 M136.5273132,113.1670761h0.4729462v-0.0230179c0-0.0774231-0.0188446-0.1391602-0.0575562-0.1841507
		c-0.0376587-0.0460358-0.0878906-0.0690536-0.1517181-0.0690536s-0.1182251,0.0230179-0.1653137,0.0700989
		C136.5785828,113.0069962,136.5461578,113.0760498,136.5273132,113.1670761z"/>
	<path class="st15" d="M138.2087555,113.7059326c-0.1056824,0.0355759-0.206131,0.05336-0.3013458,0.05336
		s-0.1799622-0.0219727-0.2532043-0.065918c-0.074295-0.0439453-0.1307983-0.1025391-0.1726532-0.1778717
		c-0.040802-0.0742874-0.0617218-0.1600876-0.0617218-0.2553024c0-0.1433411,0.0470734-0.2626266,0.1401978-0.3578415
		s0.206131-0.1422958,0.3390045-0.1422958c0.0973206,0,0.2008972,0.0177841,0.3097229,0.0544052v0.1517181
		c-0.1098633-0.0502243-0.2082214-0.0753326-0.2950745-0.0753326c-0.0585938,0-0.1119537,0.0146484-0.1632233,0.0429001
		c-0.0512695,0.028244-0.0899811,0.0732422-0.1182251,0.1339264c-0.0272064,0.0606842-0.0408173,0.1224213-0.0408173,0.1862411
		c0,0.0858002,0.0261688,0.1663666,0.0795288,0.2448425c0.05336,0.0774231,0.1370697,0.1161423,0.2511139,0.1161423
		c0.0345306,0,0.0690613-0.0031433,0.1025391-0.0073242c0.0334778-0.0052338,0.0952148-0.0230255,0.1841583-0.0533676V113.7059326z"
		/>
	<path class="st15" d="M139.2466888,113.6954727c-0.0742798,0.0303421-0.1286926,0.0491714-0.1611328,0.0554504
		c-0.0334778,0.0052338-0.065918,0.0083694-0.0973053,0.0083694c-0.065918,0-0.1266022-0.0125504-0.181015-0.0376663
		c-0.0554504-0.0261536-0.0962524-0.0638275-0.1245117-0.112999c-0.028244-0.0502243-0.0418396-0.1266098-0.0418396-0.2312393
		v-0.3808594h-0.2364807v-0.1318359h0.2364807v-0.3819046h0.1579895v0.3819046h0.4206238v0.1318359h-0.4206238v0.3787689
		c0,0.0763779,0.0083618,0.1297455,0.0272064,0.1611328c0.0177765,0.0313873,0.0418549,0.0544052,0.0721893,0.0690536
		c0.0303497,0.0146484,0.065918,0.0230179,0.10672,0.0230179c0.0763855,0,0.1569519-0.0240631,0.2416992-0.0721893V113.6954727z"/>
</g>
</svg>
