<?xml version="1.0" encoding="utf-8"?>
<!-- Generator: Adobe Illustrator 17.1.0, SVG Export Plug-In . SVG Version: 6.00 Build 0)  -->
<!DOCTYPE svg PUBLIC "-//W3C//DTD SVG 1.1//EN" "http://www.w3.org/Graphics/SVG/1.1/DTD/svg11.dtd">
<svg version="1.1" id="Layer_1" xmlns="http://www.w3.org/2000/svg" xmlns:xlink="http://www.w3.org/1999/xlink" x="0px" y="0px"
	 viewBox="5.423 34.945 491.243 228.388" enable-background="new 5.423 34.945 491.243 228.388" xml:space="preserve">
<g>
	<g>
		<g>
			<path fill="#222222" d="M354.811,34.948H59.247c-7.406,0-13.488,6.083-13.488,13.487v188.182H368.3V48.438
				C368.3,41.032,362.214,34.948,354.811,34.948z"/>
		</g>
		<g display="none">
			<g display="inline">
				<g>
					<rect x="56.524" y="45.13" fill="#3B4250" width="300.936" height="180.515"/>
				</g>
			</g>
			<g display="inline">
				<g>
					<rect x="56.524" y="45.13" fill="#242C3C" width="300.803" height="25.83"/>
				</g>
			</g>
			<g display="inline">
				<g>
					<rect x="81.591" y="92.131" fill="#E36A5C" width="37.6" height="6.267"/>
				</g>
			</g>
			<g display="inline">
				<g>
					<rect x="81.591" y="79.597" fill="#6DBEC4" width="25.067" height="6.267"/>
				</g>
			</g>
			<g display="inline">
				<g opacity="0.5">
					<g>
						<rect x="94.32" y="117.197" fill="#95989F" width="75.201" height="6.267"/>
					</g>
				</g>
				<g>
					<g>
						<rect x="181.858" y="117.197" fill="#95989F" width="75.201" height="6.267"/>
					</g>
				</g>
				<g opacity="0.5">
					<g>
						<rect x="119.289" y="142.264" fill="#95989F" width="62.569" height="6.267"/>
					</g>
				</g>
				<g>
					<g>
						<rect x="106.657" y="130.308" fill="#E36A5C" width="25.263" height="6.267"/>
					</g>
				</g>
				<g>
					<g>
						<rect x="144.16" y="130.308" fill="#95989F" width="50.232" height="6.267"/>
					</g>
				</g>
				<g opacity="0.5">
					<g>
						<rect x="131.92" y="155.375" fill="#95989F" width="75.005" height="6.267"/>
					</g>
				</g>
				<g>
					<g>
						<rect x="219.459" y="155.375" fill="#95989F" width="112.801" height="6.267"/>
					</g>
				</g>
				<g>
					<g>
						<rect x="81.591" y="217.219" fill="#6DBEC4" width="37.6" height="6.267"/>
					</g>
				</g>
				<g opacity="0.5">
					<g>
						<rect x="131.773" y="217.219" fill="#95989F" width="87.685" height="6.267"/>
					</g>
				</g>
				<g opacity="0.5">
					<g>
						<rect x="194.392" y="142.511" fill="#95989F" width="25.067" height="6.267"/>
					</g>
				</g>
				<g opacity="0.5">
					<g>
						<rect x="81.591" y="180.441" fill="#95989F" width="50.134" height="6.267"/>
					</g>
				</g>
				<g>
					<g>
						<rect x="94.32" y="192.398" fill="#95989F" width="49.84" height="6.267"/>
					</g>
				</g>
				<g>
					<g>
						<rect x="232.188" y="142.264" fill="#6DBEC4" width="50.134" height="6.267"/>
					</g>
				</g>
			</g>
		</g>
		<g>
			<path fill="#EEEEEE" d="M5.423,236.487c0,14.812,12.035,26.847,26.845,26.847l0,0l0,0h348.99
				c14.81,0,26.847-12.035,26.847-26.847H5.423z"/>
		</g>
		<g>
			<g id="XMLID_1_">
				<g>
					<path fill="#606060" d="M368.305,48.44v188.18H45.761V48.44c0-7.413,6.081-13.494,13.48-13.494h295.57
						C362.209,34.945,368.305,41.026,368.305,48.44z M357.46,225.645V48.309c0-1.462-1.187-2.65-2.65-2.65v0.13h-295.7
						c-1.448,0-2.65,1.187-2.65,2.65v177.206H357.46z"/>
				</g>
			</g>
		</g>
		<path fill="#A0A0A0" d="M233.94,236.487h-13.488h-21.953h-5.026h-13.488h-13.488c0,7.404,6.084,13.488,13.488,13.488h53.823
			c7.406,0,13.488-5.949,13.488-13.488H233.94z"/>
	</g>
</g>
<g>
	<path fill="#606060" d="M496.667,211.696c0,4.163-3.406,7.569-7.568,7.569h-60.554c-4.163,0-7.57-3.406-7.57-7.569V90.589
		c0-4.163,3.407-7.569,7.57-7.569h60.554c4.163,0,7.568,3.406,7.568,7.569V211.696z"/>
</g>
<g>
	<circle cx="458.82" cy="211.696" r="4.73"/>
</g>
<g>
	<rect x="428.544" y="98.395" fill="#D6D6D6" width="60.554" height="105.732"/>
</g>
<g>
	<g>
		<path d="M462.605,93.022h-7.57c-1.344,0-2.433-1.089-2.433-2.433c0-1.344,1.089-2.433,2.433-2.433h7.57
			c1.344,0,2.433,1.089,2.433,2.433C465.038,91.932,463.949,93.022,462.605,93.022z"/>
	</g>
</g>
<polygon fill="#B5B5B5" points="489.098,172.807 489.098,172.807 428.544,172.807 428.544,172.807 428.544,118.255 428.544,118.255 
	489.098,118.255 489.098,118.255 "/>
<g>
	<path fill="#6D6D6D" d="M487.597,145.494c0-10.505-1.951-19.209-4.502-21.16c-0.6-2.701-11.255-4.802-24.162-4.802
		c-13.056,0-23.561,2.101-24.162,4.802c-2.551,1.951-4.502,10.655-4.502,21.16c0,10.505,1.951,19.209,4.502,21.16
		c0.6,2.701,11.255,4.802,24.162,4.802c13.056,0,23.561-2.101,24.162-4.802C485.647,164.703,487.597,155.999,487.597,145.494z"/>
	<path fill="#0B2F47" d="M486.847,146.994c0-9.905-1.951-18.159-4.352-19.96c-0.6-2.551-10.955-4.502-23.561-4.502
		c-12.606,0-22.961,1.951-23.561,4.502c-2.551,1.801-4.352,10.055-4.352,19.96c0,9.905,1.951,18.159,4.352,19.96
		c0.6,2.551,10.955,4.502,23.561,4.502c12.606,0,22.961-1.951,23.561-4.502C484.896,165.153,486.847,156.899,486.847,146.994z"/>
</g>
<rect x="428.544" y="172.206" fill="#868687" width="60.554" height="9.154"/>
<g id="term">
	<g>
		<rect x="56.265" y="45.79" fill="#7A7E82" width="300.999" height="26.433"/>
	</g>
</g>
<path fill="#00CAF9" d="M479.62,156.362c0,3.144-2.549,5.692-5.692,5.692H443.94c-3.144,0-5.692-2.549-5.692-5.692l0,0
	c0-3.144,2.549-5.692,5.692-5.692h29.988C477.072,150.67,479.62,153.218,479.62,156.362L479.62,156.362z"/>
<g>
	<path fill="#0B2F47" d="M449.901,158.503c-0.328,0.126-0.624,0.185-0.882,0.185c-0.342,0-0.659-0.091-0.949-0.276
		c-0.286-0.185-0.513-0.457-0.67-0.82c-0.16-0.363-0.241-0.774-0.241-1.231c0-0.453,0.077-0.861,0.237-1.224
		c0.157-0.363,0.38-0.635,0.67-0.823c0.286-0.185,0.603-0.279,0.952-0.279c0.258,0,0.555,0.063,0.882,0.181v0.523
		c-0.303-0.178-0.607-0.265-0.907-0.265c-0.223,0-0.432,0.077-0.617,0.23c-0.188,0.157-0.342,0.384-0.457,0.68
		c-0.115,0.3-0.171,0.624-0.171,0.977c0,0.356,0.059,0.684,0.178,0.987c0.119,0.3,0.272,0.527,0.457,0.677
		c0.181,0.15,0.387,0.223,0.61,0.223c0.3,0,0.6-0.087,0.907-0.262V158.503z"/>
	<path fill="#0B2F47" d="M452.035,158.643c-0.453,0-0.813-0.157-1.085-0.474c-0.272-0.314-0.405-0.711-0.405-1.193
		c0-0.481,0.133-0.879,0.405-1.193c0.272-0.314,0.631-0.471,1.085-0.471c0.45,0,0.809,0.157,1.081,0.471
		c0.272,0.314,0.408,0.711,0.408,1.193c0,0.481-0.136,0.879-0.408,1.193C452.844,158.486,452.485,158.643,452.035,158.643z
		 M452.035,158.207c0.279,0,0.502-0.112,0.67-0.331c0.164-0.216,0.248-0.516,0.248-0.9c0-0.38-0.084-0.68-0.248-0.9
		c-0.167-0.216-0.391-0.328-0.67-0.328c-0.283,0-0.506,0.112-0.673,0.328c-0.164,0.22-0.248,0.52-0.248,0.9
		c0,0.384,0.084,0.684,0.248,0.9C451.53,158.095,451.753,158.207,452.035,158.207z"/>
	<path fill="#0B2F47" d="M454.212,158.556v-3.156h0.523v0.687c0.153-0.241,0.335-0.432,0.548-0.569
		c0.213-0.139,0.425-0.206,0.638-0.206c0.185,0,0.356,0.049,0.509,0.146c0.153,0.101,0.258,0.23,0.321,0.391
		c0.059,0.16,0.091,0.474,0.091,0.942v1.765h-0.527v-1.828c0-0.303-0.014-0.506-0.042-0.603c-0.031-0.094-0.084-0.174-0.16-0.237
		c-0.08-0.063-0.164-0.094-0.258-0.094c-0.185,0-0.384,0.087-0.593,0.265c-0.213,0.174-0.387,0.394-0.527,0.656v1.842H454.212z"/>
	<path fill="#0B2F47" d="M457.685,158.556v-3.156h0.523v0.687c0.153-0.241,0.335-0.432,0.548-0.569
		c0.213-0.139,0.426-0.206,0.638-0.206c0.185,0,0.356,0.049,0.509,0.146c0.153,0.101,0.258,0.23,0.321,0.391
		c0.059,0.16,0.091,0.474,0.091,0.942v1.765h-0.527v-1.828c0-0.303-0.014-0.506-0.042-0.603c-0.031-0.094-0.084-0.174-0.16-0.237
		c-0.08-0.063-0.164-0.094-0.258-0.094c-0.185,0-0.384,0.087-0.593,0.265c-0.213,0.174-0.387,0.394-0.527,0.656v1.842H457.685z"/>
	<path fill="#0B2F47" d="M463.782,158.346c-0.418,0.199-0.816,0.296-1.189,0.296c-0.286,0-0.541-0.07-0.764-0.213
		c-0.227-0.14-0.405-0.342-0.541-0.603c-0.133-0.265-0.202-0.544-0.202-0.844c0-0.289,0.066-0.565,0.192-0.83
		c0.129-0.265,0.31-0.471,0.537-0.621c0.23-0.146,0.488-0.22,0.771-0.22c0.373,0,0.677,0.133,0.903,0.401
		c0.227,0.265,0.338,0.677,0.338,1.235v0.112h-2.176c0,0.22,0.049,0.422,0.14,0.603c0.091,0.181,0.209,0.317,0.359,0.408
		c0.15,0.091,0.317,0.136,0.509,0.136c0.338,0,0.715-0.115,1.123-0.342V158.346z M461.682,156.669h1.577v-0.077
		c0-0.258-0.063-0.464-0.192-0.614c-0.126-0.153-0.293-0.23-0.506-0.23c-0.213,0-0.394,0.077-0.551,0.234
		C461.853,156.135,461.745,156.365,461.682,156.669z"/>
	<path fill="#0B2F47" d="M467.287,158.465c-0.352,0.119-0.687,0.178-1.004,0.178s-0.6-0.073-0.844-0.22
		c-0.248-0.146-0.436-0.342-0.576-0.593c-0.136-0.248-0.206-0.534-0.206-0.851c0-0.478,0.157-0.875,0.467-1.193
		c0.31-0.317,0.687-0.474,1.13-0.474c0.324,0,0.67,0.059,1.032,0.181v0.506c-0.366-0.167-0.694-0.251-0.984-0.251
		c-0.195,0-0.373,0.049-0.544,0.143c-0.171,0.094-0.3,0.244-0.394,0.446c-0.091,0.202-0.136,0.408-0.136,0.621
		c0,0.286,0.087,0.555,0.265,0.816c0.178,0.258,0.457,0.387,0.837,0.387c0.115,0,0.23-0.01,0.342-0.024
		c0.112-0.017,0.317-0.077,0.614-0.178V158.465z"/>
	<path fill="#0B2F47" d="M470.747,158.43c-0.248,0.101-0.429,0.164-0.537,0.185c-0.112,0.017-0.22,0.028-0.324,0.028
		c-0.22,0-0.422-0.042-0.603-0.126c-0.185-0.087-0.321-0.213-0.415-0.377c-0.094-0.167-0.139-0.422-0.139-0.771v-1.27h-0.788v-0.439
		h0.788v-1.273h0.527v1.273h1.402v0.439h-1.402v1.263c0,0.255,0.028,0.432,0.091,0.537c0.059,0.105,0.14,0.181,0.241,0.23
		c0.101,0.049,0.22,0.077,0.356,0.077c0.255,0,0.523-0.08,0.806-0.241V158.43z"/>
</g>
<g>
	<path fill="#FFFFFF" d="M388.082,101.454c-1.235-1.225-2.672-2.245-4.288-3.03c-0.636-0.303-1.617,0.1-2.2,0.904
		c-0.586,0.8-0.551,1.697,0.084,2.003l-0.006,0.005c1.442,0.692,2.726,1.607,3.819,2.708c1.111,1.102,2.024,2.408,2.734,3.866
		c0.303,0.635,1.207,0.661,2.015,0.075c0.114-0.083,0.218-0.174,0.316-0.271c0.585-0.586,0.844-1.39,0.585-1.932
		C390.345,104.152,389.317,102.701,388.082,101.454z"/>
	<path fill="#FFFFFF" d="M410.22,102.796c-1.115-6.31-3.815-11.626-7.827-15.637c-4.007-4.008-9.321-6.706-15.634-7.824
		c-0.743-0.132-1.701,0.458-2.137,1.303c-0.443,0.848-0.199,1.642,0.539,1.773l-0.007,0.006c5.923,1.043,10.885,3.579,14.643,7.336
		c3.761,3.76,6.299,8.726,7.34,14.646c0.129,0.741,0.925,0.982,1.783,0.536c0.232-0.124,0.443-0.282,0.623-0.462
		C410.032,103.986,410.312,103.334,410.22,102.796z"/>
	<path fill="#FFFFFF" d="M395.157,94.366c-2.366-2.366-5.304-4.163-8.716-5.242c-0.69-0.219-1.666,0.28-2.178,1.109
		c-0.517,0.825-0.379,1.679,0.309,1.898c3.12,0.995,5.821,2.641,8,4.82c2.189,2.19,3.84,4.921,4.853,8.066
		c0.219,0.687,1.074,0.825,1.904,0.304c0.174-0.107,0.33-0.233,0.468-0.371c0.539-0.539,0.817-1.269,0.643-1.817
		C399.329,99.72,397.539,96.749,395.157,94.366z"/>
</g>
<g>
	<rect x="64.887" y="87.924" fill="none" width="301" height="99"/>
	<path fill="#FFFFFF" d="M73.186,91.953c-0.828-0.644-1.472-1.049-2.705-1.049s-2.024,0.589-2.024,1.527
		c0,2.024,5.852,1.638,5.852,5.005c0,1.583-1.307,2.724-3.239,2.926v2.687h-1.104v-2.668c-1.362-0.11-2.668-0.718-3.515-1.436
		l0.718-1.049c0.92,0.663,2.043,1.251,3.423,1.251c1.454,0,2.227-0.663,2.227-1.601c0-2.282-5.833-1.877-5.833-5.079
		c0-1.545,1.196-2.595,2.981-2.779V87.26h1.104v2.411c1.343,0.11,2.19,0.681,2.926,1.398L73.186,91.953z"/>
	<path fill="#FFFFFF" d="M90.187,101.779v3.018h-1.509V92.082h1.251l0.129,1.141h0.055c0.828-0.791,1.987-1.361,3.091-1.361
		c2.411,0,3.699,1.785,3.699,4.563c0,3.037-1.914,4.821-4.067,4.821c-0.828,0-1.877-0.423-2.687-1.159L90.187,101.779z
		 M92.58,99.976c1.601,0,2.76-1.343,2.76-3.552c0-1.969-0.736-3.294-2.521-3.294c-0.792,0-1.711,0.423-2.632,1.343v4.454
		C91.034,99.682,91.972,99.976,92.58,99.976z"/>
	<path fill="#FFFFFF" d="M99.718,87.922h1.509v3.57l-0.073,2.116c0.957-0.994,1.987-1.748,3.386-1.748
		c2.116,0,3.092,1.251,3.092,3.606v5.558h-1.509V95.67c0-1.693-0.589-2.503-2.061-2.503c-1.067,0-1.785,0.534-2.834,1.62v6.238
		h-1.509V87.922z"/>
	<path fill="#FFFFFF" d="M114.567,91.861c2.355,0,4.417,1.711,4.417,4.711c0,2.962-2.061,4.674-4.417,4.674
		s-4.417-1.711-4.417-4.674C110.151,93.572,112.212,91.861,114.567,91.861z M114.567,99.995c1.711,0,2.853-1.38,2.853-3.423
		c0-2.061-1.141-3.46-2.853-3.46s-2.852,1.399-2.852,3.46C111.715,98.614,112.856,99.995,114.567,99.995z"/>
	<path fill="#FFFFFF" d="M121.798,92.082h1.251l0.129,1.527h0.073c0.938-0.994,1.969-1.748,3.368-1.748
		c2.116,0,3.092,1.251,3.092,3.606v5.558h-1.509V95.67c0-1.693-0.589-2.503-2.061-2.503c-1.067,0-1.785,0.534-2.834,1.62v6.238
		h-1.509V92.082z"/>
	<path fill="#FFFFFF" d="M136.942,91.861c2.558,0,4.067,1.674,4.067,4.195c0,0.313-0.019,0.607-0.055,0.828h-6.993
		c0.11,1.933,1.472,3.147,3.423,3.147c1.049,0,1.896-0.313,2.724-0.828l0.533,0.994c-0.883,0.57-2.006,1.049-3.441,1.049
		c-2.65,0-4.803-1.748-4.803-4.674C132.396,93.646,134.624,91.861,136.942,91.861z M139.61,95.891c0-1.822-0.994-2.834-2.65-2.834
		c-1.454,0-2.797,1.031-3.018,2.834H139.61z"/>
	<path fill="#FFFFFF" d="M144.964,100.675v-0.074c-0.478-0.257-0.92-0.718-0.92-1.472c0-0.57,0.387-1.214,1.067-1.674v-0.074
		c-0.607-0.46-1.104-1.251-1.104-2.319c0-1.951,1.619-3.202,3.515-3.202c0.515,0,0.938,0.073,1.325,0.221h3.699v1.159h-2.393
		c0.423,0.442,0.828,1.086,0.828,1.877c0,1.914-1.527,3.073-3.459,3.073c-0.46,0-1.012-0.11-1.509-0.331
		c-0.442,0.276-0.699,0.607-0.699,1.03c0,0.718,0.681,1.031,1.858,1.031h2.006c2.3,0,3.404,0.589,3.404,2.098
		c0,1.675-1.932,3.128-4.968,3.128c-2.613,0-4.122-0.902-4.122-2.484C143.492,101.945,144.007,101.228,144.964,100.675z
		 M147.725,104.098c2.079,0,3.367-0.92,3.367-1.84c0-0.847-0.681-1.085-2.042-1.085h-1.748c-0.515,0-0.976-0.037-1.362-0.147
		c-0.847,0.46-1.141,0.975-1.141,1.491C144.798,103.454,145.811,104.098,147.725,104.098z M149.583,95.062
		c0-1.251-0.92-2.098-2.061-2.098c-1.123,0-2.061,0.846-2.061,2.098c0,1.288,0.938,2.116,2.061,2.116
		C148.663,97.179,149.583,96.351,149.583,95.062z"/>
	<path fill="#FFFFFF" d="M161.175,95.357c-0.037-1.214-0.644-2.245-2.374-2.245c-1.159,0-2.3,0.552-3.128,1.067l-0.589-1.03
		c0.902-0.589,2.411-1.288,3.975-1.288c2.447,0,3.625,1.454,3.625,3.68v5.484h-1.233l-0.129-1.214h-0.055
		c-0.994,0.773-2.263,1.435-3.533,1.435c-1.674,0-3.036-0.938-3.036-2.54C154.698,96.7,156.556,95.725,161.175,95.357z
		 M158.139,100.031c1.012,0,2.024-0.479,3.037-1.325v-2.355c-3.828,0.313-5.005,1.067-5.005,2.245
		C156.17,99.608,157.108,100.031,158.139,100.031z"/>
	<path fill="#FFFFFF" d="M167.467,101.779v3.018h-1.509V92.082h1.251l0.129,1.141h0.055c0.828-0.791,1.987-1.361,3.091-1.361
		c2.411,0,3.699,1.785,3.699,4.563c0,3.037-1.914,4.821-4.067,4.821c-0.828,0-1.877-0.423-2.687-1.159L167.467,101.779z
		 M169.86,99.976c1.601,0,2.76-1.343,2.76-3.552c0-1.969-0.736-3.294-2.521-3.294c-0.792,0-1.711,0.423-2.632,1.343v4.454
		C168.314,99.682,169.252,99.976,169.86,99.976z"/>
	<path fill="#FFFFFF" d="M192.786,91.861c1.454,0,2.521,0.589,3.257,1.306l-0.754,0.976c-0.736-0.644-1.509-1.031-2.448-1.031
		c-2.061,0-3.478,1.399-3.478,3.46c0,2.042,1.38,3.423,3.441,3.423c1.104,0,2.024-0.497,2.779-1.123l0.663,0.975
		c-0.976,0.883-2.227,1.398-3.552,1.398c-2.797,0-4.895-1.711-4.895-4.674C187.799,93.572,190.081,91.861,192.786,91.861z"/>
	<path fill="#FFFFFF" d="M200.054,92.082h1.251l0.129,2.116h0.055c0.938-1.436,2.337-2.337,3.993-2.337
		c0.663,0,1.196,0.092,1.748,0.368l-0.312,1.307c-0.626-0.221-0.976-0.313-1.675-0.313c-1.343,0-2.613,0.7-3.68,2.558v5.245h-1.509
		V92.082z"/>
	<path fill="#FFFFFF" d="M214.222,91.861c2.558,0,4.067,1.674,4.067,4.195c0,0.313-0.019,0.607-0.055,0.828h-6.993
		c0.11,1.933,1.472,3.147,3.423,3.147c1.049,0,1.896-0.313,2.724-0.828l0.533,0.994c-0.883,0.57-2.006,1.049-3.441,1.049
		c-2.65,0-4.803-1.748-4.803-4.674C209.677,93.646,211.904,91.861,214.222,91.861z M216.891,95.891c0-1.822-0.994-2.834-2.65-2.834
		c-1.454,0-2.797,1.031-3.018,2.834H216.891z"/>
	<path fill="#FFFFFF" d="M227.416,95.357c-0.037-1.214-0.644-2.245-2.374-2.245c-1.159,0-2.3,0.552-3.128,1.067l-0.589-1.03
		c0.902-0.589,2.411-1.288,3.975-1.288c2.447,0,3.625,1.454,3.625,3.68v5.484h-1.233l-0.129-1.214h-0.055
		c-0.994,0.773-2.263,1.435-3.533,1.435c-1.674,0-3.036-0.938-3.036-2.54C220.938,96.7,222.796,95.725,227.416,95.357z
		 M224.379,100.031c1.012,0,2.024-0.479,3.037-1.325v-2.355c-3.828,0.313-5.005,1.067-5.005,2.245
		C222.41,99.608,223.349,100.031,224.379,100.031z"/>
	<path fill="#FFFFFF" d="M234.278,93.314h-2.521v-1.141l2.577-0.092l0.202-2.503h1.251v2.503h4.38v1.233h-4.38v4.251
		c0,1.601,0.534,2.447,2.264,2.447c0.846,0,1.527-0.166,2.153-0.405l0.313,1.104c-0.792,0.294-1.822,0.534-2.797,0.534
		c-2.595,0-3.441-1.49-3.441-3.699V93.314z"/>
	<path fill="#FFFFFF" d="M247.342,91.861c2.558,0,4.067,1.674,4.067,4.195c0,0.313-0.019,0.607-0.056,0.828h-6.992
		c0.11,1.933,1.472,3.147,3.423,3.147c1.049,0,1.896-0.313,2.724-0.828l0.533,0.994c-0.884,0.57-2.006,1.049-3.441,1.049
		c-2.65,0-4.803-1.748-4.803-4.674C242.797,93.646,245.024,91.861,247.342,91.861z M250.011,95.891c0-1.822-0.994-2.834-2.65-2.834
		c-1.454,0-2.797,1.031-3.018,2.834H250.011z"/>
	<path fill="#FFFFFF" d="M264.711,92.082h1.178l0.129,1.178h0.056c0.441-0.828,0.993-1.398,2.006-1.398
		c0.901,0,1.472,0.515,1.692,1.545c0.534-0.938,1.123-1.545,2.116-1.545c1.233,0,1.951,0.975,1.951,2.76v6.404h-1.454V94.75
		c0-1.049-0.312-1.583-0.975-1.583c-0.645,0-1.067,0.46-1.528,1.38v6.478h-1.214V94.75c0-1.049-0.35-1.583-1.013-1.583
		c-0.625,0-1.03,0.46-1.49,1.38v6.478h-1.454V92.082z"/>
	<path fill="#FFFFFF" d="M277.003,103.62c1.251,0,2.006-0.81,2.447-1.914l0.276-0.662l-4.178-8.962h1.527l2.19,4.95
		c0.35,0.791,0.735,1.729,1.104,2.595h0.074c0.312-0.847,0.662-1.785,0.956-2.595l1.951-4.95h1.436l-3.938,9.68
		c-0.662,1.767-1.767,3.11-3.791,3.11c-0.423,0-0.864-0.074-1.178-0.184l0.313-1.196C276.433,103.564,276.727,103.62,277.003,103.62
		z"/>
	<path fill="#FFFFFF" d="M293.379,97.344H289l-1.16,3.681h-1.563l4.066-12.072h1.73l4.066,12.072h-1.619L293.379,97.344z
		 M292.993,96.111l-0.57-1.84c-0.424-1.343-0.811-2.668-1.196-4.067h-0.074c-0.386,1.398-0.772,2.724-1.195,4.067l-0.571,1.84
		H292.993z"/>
	<path fill="#FFFFFF" d="M299.947,101.779v3.018h-1.509V92.082h1.252l0.129,1.141h0.055c0.828-0.791,1.987-1.361,3.092-1.361
		c2.41,0,3.698,1.785,3.698,4.563c0,3.037-1.913,4.821-4.066,4.821c-0.828,0-1.877-0.423-2.687-1.159L299.947,101.779z
		 M302.34,99.976c1.602,0,2.761-1.343,2.761-3.552c0-1.969-0.736-3.294-2.521-3.294c-0.791,0-1.711,0.423-2.632,1.343v4.454
		C300.794,99.682,301.732,99.976,302.34,99.976z"/>
	<path fill="#FFFFFF" d="M310.987,101.779v3.018h-1.509V92.082h1.252l0.129,1.141h0.055c0.828-0.791,1.987-1.361,3.092-1.361
		c2.41,0,3.698,1.785,3.698,4.563c0,3.037-1.913,4.821-4.066,4.821c-0.828,0-1.877-0.423-2.687-1.159L310.987,101.779z
		 M313.38,99.976c1.602,0,2.761-1.343,2.761-3.552c0-1.969-0.736-3.294-2.521-3.294c-0.791,0-1.711,0.423-2.632,1.343v4.454
		C311.834,99.682,312.772,99.976,313.38,99.976z"/>
	<path fill="#FFFFFF" d="M73.186,118.953c-0.828-0.644-1.472-1.049-2.705-1.049s-2.024,0.589-2.024,1.527
		c0,2.024,5.852,1.638,5.852,5.005c0,1.583-1.307,2.724-3.239,2.926v2.687h-1.104v-2.668c-1.362-0.11-2.668-0.718-3.515-1.436
		l0.718-1.049c0.92,0.663,2.043,1.251,3.423,1.251c1.454,0,2.227-0.663,2.227-1.601c0-2.282-5.833-1.877-5.833-5.079
		c0-1.545,1.196-2.595,2.981-2.779v-2.429h1.104v2.411c1.343,0.11,2.19,0.681,2.926,1.398L73.186,118.953z"/>
	<path fill="#FFFFFF" d="M93.426,118.861c1.454,0,2.521,0.589,3.257,1.306l-0.754,0.976c-0.736-0.644-1.509-1.031-2.448-1.031
		c-2.061,0-3.478,1.399-3.478,3.46c0,2.042,1.38,3.423,3.441,3.423c1.104,0,2.024-0.497,2.779-1.123l0.663,0.975
		c-0.976,0.883-2.227,1.398-3.552,1.398c-2.797,0-4.895-1.711-4.895-4.674C88.439,120.572,90.721,118.861,93.426,118.861z"/>
	<path fill="#FFFFFF" d="M103.178,118.861c1.086,0,1.877,0.441,2.705,1.159l-0.055-1.656v-3.441h1.509v13.103h-1.251l-0.129-1.178
		h-0.055c-0.736,0.754-1.803,1.398-2.908,1.398c-2.337,0-3.883-1.693-3.883-4.674C99.111,120.664,101.062,118.861,103.178,118.861z
		 M103.307,126.976c0.883,0,1.73-0.46,2.521-1.343v-4.454c-0.81-0.754-1.583-1.049-2.355-1.049c-1.546,0-2.797,1.38-2.797,3.423
		C100.675,125.688,101.65,126.976,103.307,126.976z"/>
	<path fill="#FFFFFF" d="M121.191,119.082h1.178l0.129,1.178h0.055c0.442-0.828,0.994-1.398,2.006-1.398
		c0.902,0,1.472,0.515,1.693,1.545c0.534-0.938,1.123-1.545,2.116-1.545c1.233,0,1.951,0.975,1.951,2.76v6.404h-1.454v-6.275
		c0-1.049-0.313-1.583-0.975-1.583c-0.645,0-1.067,0.46-1.528,1.38v6.478h-1.214v-6.275c0-1.049-0.35-1.583-1.012-1.583
		c-0.625,0-1.03,0.46-1.49,1.38v6.478h-1.454V119.082z"/>
	<path fill="#FFFFFF" d="M133.482,130.62c1.251,0,2.006-0.81,2.447-1.914l0.276-0.662l-4.177-8.962h1.527l2.19,4.95
		c0.35,0.791,0.736,1.729,1.104,2.595h0.074c0.312-0.847,0.662-1.785,0.957-2.595l1.951-4.95h1.436l-3.938,9.68
		c-0.663,1.767-1.767,3.11-3.791,3.11c-0.423,0-0.865-0.074-1.178-0.184l0.313-1.196C132.912,130.564,133.207,130.62,133.482,130.62
		z"/>
	<path fill="#FFFFFF" d="M149.859,124.344h-4.379l-1.16,3.681h-1.564l4.067-12.072h1.73l4.066,12.072H151L149.859,124.344z
		 M149.473,123.111l-0.57-1.84c-0.423-1.343-0.81-2.668-1.196-4.067h-0.074c-0.386,1.398-0.773,2.724-1.196,4.067l-0.571,1.84
		H149.473z"/>
	<path fill="#FFFFFF" d="M156.427,128.779v3.018h-1.509v-12.716h1.251l0.129,1.141h0.055c0.828-0.791,1.987-1.361,3.091-1.361
		c2.411,0,3.699,1.785,3.699,4.563c0,3.037-1.914,4.821-4.067,4.821c-0.828,0-1.877-0.423-2.687-1.159L156.427,128.779z
		 M158.82,126.976c1.601,0,2.76-1.343,2.76-3.552c0-1.969-0.736-3.294-2.521-3.294c-0.792,0-1.711,0.423-2.632,1.343v4.454
		C157.274,126.682,158.212,126.976,158.82,126.976z"/>
	<path fill="#FFFFFF" d="M167.467,128.779v3.018h-1.509v-12.716h1.251l0.129,1.141h0.055c0.828-0.791,1.987-1.361,3.091-1.361
		c2.411,0,3.699,1.785,3.699,4.563c0,3.037-1.914,4.821-4.067,4.821c-0.828,0-1.877-0.423-2.687-1.159L167.467,128.779z
		 M169.86,126.976c1.601,0,2.76-1.343,2.76-3.552c0-1.969-0.736-3.294-2.521-3.294c-0.792,0-1.711,0.423-2.632,1.343v4.454
		C168.314,126.682,169.252,126.976,169.86,126.976z"/>
	<path fill="#FFFFFF" d="M178.471,130.969h-1.362l6.036-16.01h1.361L178.471,130.969z"/>
	<path fill="#FFFFFF" d="M73.186,145.953c-0.828-0.644-1.472-1.049-2.705-1.049s-2.024,0.589-2.024,1.527
		c0,2.024,5.852,1.638,5.852,5.005c0,1.582-1.307,2.724-3.239,2.926v2.687h-1.104v-2.668c-1.362-0.11-2.668-0.718-3.515-1.436
		l0.718-1.049c0.92,0.662,2.043,1.251,3.423,1.251c1.454,0,2.227-0.662,2.227-1.601c0-2.282-5.833-1.877-5.833-5.079
		c0-1.545,1.196-2.595,2.981-2.779v-2.429h1.104v2.411c1.343,0.11,2.19,0.681,2.926,1.398L73.186,145.953z"/>
	<path fill="#FFFFFF" d="M90.187,155.779v3.018h-1.509v-12.715h1.251l0.129,1.141h0.055c0.828-0.791,1.987-1.361,3.091-1.361
		c2.411,0,3.699,1.785,3.699,4.563c0,3.037-1.914,4.821-4.067,4.821c-0.828,0-1.877-0.423-2.687-1.159L90.187,155.779z
		 M92.58,153.976c1.601,0,2.76-1.343,2.76-3.552c0-1.968-0.736-3.293-2.521-3.293c-0.792,0-1.711,0.423-2.632,1.343v4.453
		C91.034,153.682,91.972,153.976,92.58,153.976z"/>
	<path fill="#FFFFFF" d="M99.718,141.922h1.509v3.57l-0.073,2.116c0.957-0.994,1.987-1.748,3.386-1.748
		c2.116,0,3.092,1.251,3.092,3.606v5.557h-1.509v-5.354c0-1.693-0.589-2.503-2.061-2.503c-1.067,0-1.785,0.534-2.834,1.62v6.238
		h-1.509V141.922z"/>
	<path fill="#FFFFFF" d="M114.567,145.861c2.355,0,4.417,1.711,4.417,4.71c0,2.963-2.061,4.674-4.417,4.674
		s-4.417-1.711-4.417-4.674C110.151,147.572,112.212,145.861,114.567,145.861z M114.567,153.994c1.711,0,2.853-1.38,2.853-3.423
		c0-2.061-1.141-3.459-2.853-3.459s-2.852,1.399-2.852,3.459C111.715,152.614,112.856,153.994,114.567,153.994z"/>
	<path fill="#FFFFFF" d="M121.798,146.082h1.251l0.129,1.527h0.073c0.938-0.994,1.969-1.748,3.368-1.748
		c2.116,0,3.092,1.251,3.092,3.606v5.557h-1.509v-5.354c0-1.693-0.589-2.503-2.061-2.503c-1.067,0-1.785,0.534-2.834,1.62v6.238
		h-1.509V146.082z"/>
	<path fill="#FFFFFF" d="M136.942,145.861c2.558,0,4.067,1.674,4.067,4.195c0,0.313-0.019,0.607-0.055,0.828h-6.993
		c0.11,1.933,1.472,3.147,3.423,3.147c1.049,0,1.896-0.313,2.724-0.828l0.533,0.993c-0.883,0.57-2.006,1.049-3.441,1.049
		c-2.65,0-4.803-1.748-4.803-4.674S134.624,145.861,136.942,145.861z M139.61,149.891c0-1.822-0.994-2.834-2.65-2.834
		c-1.454,0-2.797,1.031-3.018,2.834H139.61z"/>
	<path fill="#FFFFFF" d="M144.964,154.675v-0.073c-0.478-0.258-0.92-0.718-0.92-1.473c0-0.57,0.387-1.214,1.067-1.674v-0.074
		c-0.607-0.46-1.104-1.251-1.104-2.318c0-1.951,1.619-3.202,3.515-3.202c0.515,0,0.938,0.073,1.325,0.221h3.699v1.159h-2.393
		c0.423,0.442,0.828,1.086,0.828,1.877c0,1.914-1.527,3.073-3.459,3.073c-0.46,0-1.012-0.11-1.509-0.331
		c-0.442,0.276-0.699,0.607-0.699,1.03c0,0.718,0.681,1.031,1.858,1.031h2.006c2.3,0,3.404,0.589,3.404,2.098
		c0,1.675-1.932,3.128-4.968,3.128c-2.613,0-4.122-0.901-4.122-2.484C143.492,155.944,144.007,155.228,144.964,154.675z
		 M147.725,158.098c2.079,0,3.367-0.92,3.367-1.84c0-0.847-0.681-1.086-2.042-1.086h-1.748c-0.515,0-0.976-0.037-1.362-0.147
		c-0.847,0.46-1.141,0.976-1.141,1.491C144.798,157.454,145.811,158.098,147.725,158.098z M149.583,149.062
		c0-1.251-0.92-2.098-2.061-2.098c-1.123,0-2.061,0.846-2.061,2.098c0,1.288,0.938,2.116,2.061,2.116
		C148.663,151.179,149.583,150.351,149.583,149.062z"/>
	<path fill="#FFFFFF" d="M161.175,149.357c-0.037-1.214-0.644-2.245-2.374-2.245c-1.159,0-2.3,0.552-3.128,1.067l-0.589-1.03
		c0.902-0.589,2.411-1.288,3.975-1.288c2.447,0,3.625,1.454,3.625,3.68v5.483h-1.233l-0.129-1.214h-0.055
		c-0.994,0.772-2.263,1.435-3.533,1.435c-1.674,0-3.036-0.938-3.036-2.539C154.698,150.7,156.556,149.725,161.175,149.357z
		 M158.139,154.031c1.012,0,2.024-0.479,3.037-1.325v-2.355c-3.828,0.312-5.005,1.067-5.005,2.245
		C156.17,153.607,157.108,154.031,158.139,154.031z"/>
	<path fill="#FFFFFF" d="M167.467,155.779v3.018h-1.509v-12.715h1.251l0.129,1.141h0.055c0.828-0.791,1.987-1.361,3.091-1.361
		c2.411,0,3.699,1.785,3.699,4.563c0,3.037-1.914,4.821-4.067,4.821c-0.828,0-1.877-0.423-2.687-1.159L167.467,155.779z
		 M169.86,153.976c1.601,0,2.76-1.343,2.76-3.552c0-1.968-0.736-3.293-2.521-3.293c-0.792,0-1.711,0.423-2.632,1.343v4.453
		C168.314,153.682,169.252,153.976,169.86,153.976z"/>
	<path fill="#FFFFFF" d="M188.388,152.854c0.994,0.735,2.098,1.214,3.699,1.214s2.393-0.625,2.393-1.398
		c0-0.699-0.718-1.196-2.908-1.729c-1.84-0.46-3.404-1.27-3.404-2.54c0-1.435,1.288-2.539,3.754-2.539
		c1.343,0,2.705,0.534,3.588,1.141l-0.736,0.976c-0.792-0.552-1.749-0.938-2.853-0.938c-1.675,0-2.208,0.589-2.208,1.288
		c0,0.736,1.104,1.178,2.724,1.583c2.411,0.607,3.57,1.307,3.57,2.668c0,1.454-1.417,2.668-3.975,2.668
		c-1.748,0-3.294-0.644-4.379-1.398L188.388,152.854z"/>
	<path fill="#FFFFFF" d="M203.182,145.861c2.558,0,4.067,1.674,4.067,4.195c0,0.313-0.019,0.607-0.055,0.828h-6.993
		c0.11,1.933,1.472,3.147,3.423,3.147c1.049,0,1.896-0.313,2.724-0.828l0.533,0.993c-0.883,0.57-2.006,1.049-3.441,1.049
		c-2.65,0-4.803-1.748-4.803-4.674S200.864,145.861,203.182,145.861z M205.851,149.891c0-1.822-0.994-2.834-2.65-2.834
		c-1.454,0-2.797,1.031-3.018,2.834H205.851z"/>
	<path fill="#FFFFFF" d="M211.094,146.082h1.251l0.129,2.116h0.055c0.938-1.436,2.337-2.337,3.993-2.337
		c0.663,0,1.196,0.092,1.748,0.368l-0.312,1.307c-0.626-0.221-0.976-0.313-1.675-0.313c-1.343,0-2.613,0.7-3.68,2.558v5.244h-1.509
		V146.082z"/>
	<path fill="#FFFFFF" d="M220.386,146.082h1.527l2.061,5.079c0.368,0.901,0.699,1.785,1.012,2.632h0.074
		c0.312-0.847,0.607-1.73,0.975-2.632l2.061-5.079h1.454l-3.699,8.943h-1.693L220.386,146.082z"/>
	<path fill="#FFFFFF" d="M236.302,145.861c2.558,0,4.067,1.674,4.067,4.195c0,0.313-0.019,0.607-0.055,0.828h-6.993
		c0.11,1.933,1.472,3.147,3.423,3.147c1.049,0,1.896-0.313,2.724-0.828l0.533,0.993c-0.883,0.57-2.006,1.049-3.441,1.049
		c-2.65,0-4.803-1.748-4.803-4.674S233.984,145.861,236.302,145.861z M238.971,149.891c0-1.822-0.994-2.834-2.65-2.834
		c-1.454,0-2.797,1.031-3.018,2.834H238.971z"/>
	<path fill="#FFFFFF" d="M244.214,146.082h1.251l0.129,2.116h0.055c0.938-1.436,2.337-2.337,3.993-2.337
		c0.662,0,1.196,0.092,1.748,0.368l-0.312,1.307c-0.626-0.221-0.976-0.313-1.675-0.313c-1.343,0-2.613,0.7-3.68,2.558v5.244h-1.509
		V146.082z"/>
	<path fill="#FFFFFF" d="M66.377,168.922h4.563v10.214c0,1.307,0.681,1.858,1.749,1.858c0.515,0,1.03-0.129,1.693-0.423l0.386,1.141
		c-0.81,0.294-1.435,0.533-2.411,0.533c-1.896,0-2.926-1.104-2.926-3.22v-8.87h-3.055V168.922z"/>
	<path fill="#FFFFFF" d="M77.583,173.081h5.668v8.943h-1.509v-7.71h-4.159V173.081z M81.116,170.082
		c0-0.718,0.515-1.178,1.214-1.178c0.681,0,1.215,0.46,1.215,1.178c0,0.699-0.534,1.159-1.215,1.159
		C81.631,171.241,81.116,170.781,81.116,170.082z"/>
	<path fill="#FFFFFF" d="M89.028,179.854c0.994,0.735,2.098,1.214,3.699,1.214s2.393-0.625,2.393-1.398
		c0-0.699-0.718-1.196-2.908-1.729c-1.84-0.46-3.404-1.27-3.404-2.54c0-1.435,1.288-2.539,3.754-2.539
		c1.343,0,2.705,0.534,3.588,1.141l-0.736,0.976c-0.792-0.552-1.749-0.938-2.853-0.938c-1.675,0-2.208,0.589-2.208,1.288
		c0,0.736,1.104,1.178,2.724,1.583c2.411,0.607,3.57,1.307,3.57,2.668c0,1.454-1.417,2.668-3.975,2.668
		c-1.748,0-3.294-0.644-4.379-1.398L89.028,179.854z"/>
	<path fill="#FFFFFF" d="M101.798,174.314h-2.521v-1.142l2.577-0.092l0.202-2.503h1.251v2.503h4.38v1.233h-4.38v4.251
		c0,1.601,0.534,2.447,2.264,2.447c0.846,0,1.527-0.166,2.153-0.405l0.313,1.104c-0.792,0.294-1.822,0.533-2.797,0.533
		c-2.595,0-3.441-1.49-3.441-3.698V174.314z"/>
	<path fill="#FFFFFF" d="M114.862,172.86c2.558,0,4.067,1.675,4.067,4.195c0,0.313-0.019,0.607-0.055,0.828h-6.993
		c0.11,1.933,1.472,3.147,3.423,3.147c1.049,0,1.896-0.313,2.724-0.828l0.533,0.993c-0.883,0.57-2.006,1.049-3.441,1.049
		c-2.65,0-4.803-1.748-4.803-4.674S112.543,172.86,114.862,172.86z M117.53,176.891c0-1.822-0.994-2.834-2.65-2.834
		c-1.454,0-2.797,1.03-3.018,2.834H117.53z"/>
	<path fill="#FFFFFF" d="M121.798,173.081h1.251l0.129,1.527h0.073c0.938-0.993,1.969-1.748,3.368-1.748
		c2.116,0,3.092,1.251,3.092,3.606v5.558h-1.509v-5.354c0-1.693-0.589-2.503-2.061-2.503c-1.067,0-1.785,0.533-2.834,1.619v6.238
		h-1.509V173.081z"/>
	<path fill="#FFFFFF" d="M132.783,173.081h5.668v8.943h-1.509v-7.71h-4.159V173.081z M136.316,170.082
		c0-0.718,0.515-1.178,1.214-1.178c0.681,0,1.215,0.46,1.215,1.178c0,0.699-0.534,1.159-1.215,1.159
		C136.832,171.241,136.316,170.781,136.316,170.082z"/>
	<path fill="#FFFFFF" d="M143.878,173.081h1.251l0.129,1.527h0.073c0.938-0.993,1.969-1.748,3.368-1.748
		c2.116,0,3.092,1.251,3.092,3.606v5.558h-1.509v-5.354c0-1.693-0.589-2.503-2.061-2.503c-1.067,0-1.785,0.533-2.834,1.619v6.238
		h-1.509V173.081z"/>
	<path fill="#FFFFFF" d="M156.004,181.675v-0.073c-0.478-0.258-0.92-0.718-0.92-1.473c0-0.57,0.387-1.214,1.067-1.674v-0.074
		c-0.607-0.46-1.104-1.251-1.104-2.318c0-1.951,1.619-3.202,3.515-3.202c0.515,0,0.938,0.073,1.325,0.221h3.699v1.159h-2.393
		c0.423,0.442,0.828,1.086,0.828,1.877c0,1.914-1.527,3.073-3.459,3.073c-0.46,0-1.012-0.11-1.509-0.331
		c-0.442,0.276-0.699,0.607-0.699,1.03c0,0.718,0.681,1.031,1.858,1.031h2.006c2.3,0,3.404,0.589,3.404,2.098
		c0,1.675-1.932,3.128-4.968,3.128c-2.613,0-4.122-0.901-4.122-2.484C154.532,182.944,155.047,182.228,156.004,181.675z
		 M158.765,185.098c2.079,0,3.367-0.92,3.367-1.84c0-0.847-0.681-1.086-2.042-1.086h-1.748c-0.515,0-0.976-0.037-1.362-0.147
		c-0.847,0.46-1.141,0.976-1.141,1.491C155.838,184.454,156.851,185.098,158.765,185.098z M160.623,176.062
		c0-1.252-0.92-2.098-2.061-2.098c-1.123,0-2.061,0.846-2.061,2.098c0,1.288,0.938,2.116,2.061,2.116
		C159.703,178.179,160.623,177.351,160.623,176.062z"/>
	<path fill="#FFFFFF" d="M180.808,172.86c2.355,0,4.417,1.712,4.417,4.711c0,2.963-2.061,4.674-4.417,4.674
		s-4.417-1.711-4.417-4.674C176.391,174.572,178.452,172.86,180.808,172.86z M180.808,180.994c1.711,0,2.853-1.38,2.853-3.423
		c0-2.061-1.141-3.46-2.853-3.46s-2.852,1.399-2.852,3.46C177.956,179.614,179.096,180.994,180.808,180.994z"/>
	<path fill="#FFFFFF" d="M188.039,173.081h1.251l0.129,1.527h0.073c0.938-0.993,1.969-1.748,3.368-1.748
		c2.116,0,3.092,1.251,3.092,3.606v5.558h-1.509v-5.354c0-1.693-0.589-2.503-2.061-2.503c-1.067,0-1.785,0.533-2.834,1.619v6.238
		h-1.509V173.081z"/>
	<path fill="#FFFFFF" d="M218.124,180.773v1.251h-7.913v-1.251h3.331v-8.649h-2.503v-0.975c1.251-0.185,2.153-0.479,2.889-0.865
		h1.123v10.489H218.124z"/>
	<path fill="#FFFFFF" d="M220.754,176.117c0-3.938,1.601-6.054,4.214-6.054c2.613,0,4.214,2.116,4.214,6.054
		c0,3.901-1.601,6.128-4.214,6.128C222.355,182.245,220.754,180.019,220.754,176.117z M222.171,176.117
		c0,3.368,1.159,4.914,2.797,4.914s2.797-1.546,2.797-4.914c0-3.386-1.16-4.84-2.797-4.84S222.171,172.731,222.171,176.117z
		 M223.827,175.988c0-0.754,0.534-1.214,1.141-1.214c0.607,0,1.141,0.46,1.141,1.214c0,0.773-0.534,1.233-1.141,1.233
		C224.361,177.222,223.827,176.762,223.827,175.988z"/>
	<path fill="#FFFFFF" d="M236.008,179.136c0.828,0,1.491,0.625,1.491,1.563c0,0.921-0.663,1.546-1.491,1.546s-1.49-0.625-1.49-1.546
		C234.518,179.761,235.18,179.136,236.008,179.136z"/>
	<path fill="#FFFFFF" d="M242.834,176.117c0-3.938,1.601-6.054,4.214-6.054c2.613,0,4.214,2.116,4.214,6.054
		c0,3.901-1.601,6.128-4.214,6.128C244.435,182.245,242.834,180.019,242.834,176.117z M244.251,176.117
		c0,3.368,1.159,4.914,2.797,4.914s2.797-1.546,2.797-4.914c0-3.386-1.16-4.84-2.797-4.84S244.251,172.731,244.251,176.117z
		 M245.907,175.988c0-0.754,0.534-1.214,1.141-1.214c0.607,0,1.141,0.46,1.141,1.214c0,0.773-0.534,1.233-1.141,1.233
		C246.441,177.222,245.907,176.762,245.907,175.988z"/>
	<path fill="#FFFFFF" d="M258.088,179.136c0.828,0,1.49,0.625,1.49,1.563c0,0.921-0.662,1.546-1.49,1.546s-1.49-0.625-1.49-1.546
		C256.598,179.761,257.26,179.136,258.088,179.136z"/>
	<path fill="#FFFFFF" d="M273.323,180.773v1.251h-7.913v-1.251h3.331v-8.649h-2.503v-0.975c1.252-0.185,2.153-0.479,2.89-0.865
		h1.122v10.489H273.323z"/>
	<path fill="#FFFFFF" d="M280.168,179.136c0.828,0,1.49,0.625,1.49,1.563c0,0.921-0.662,1.546-1.49,1.546s-1.49-0.625-1.49-1.546
		C278.678,179.761,279.34,179.136,280.168,179.136z"/>
	<path fill="#FFFFFF" d="M295.717,178.786h-1.822v3.238h-1.436v-3.238h-6.054v-1.013l5.87-7.489h1.619v7.287h1.822V178.786z
		 M292.459,177.571v-3.644c0.019-0.645,0.056-1.436,0.092-2.079h-0.092c-0.368,0.57-0.81,1.141-1.196,1.711l-3.184,4.012H292.459z"
		/>
	<path fill="#FFFFFF" d="M302.248,172.548c0.828,0,1.49,0.625,1.49,1.546c0,0.938-0.662,1.563-1.49,1.563s-1.49-0.625-1.49-1.563
		C300.758,173.173,301.42,172.548,302.248,172.548z M302.248,179.136c0.828,0,1.49,0.625,1.49,1.563c0,0.921-0.662,1.546-1.49,1.546
		s-1.49-0.625-1.49-1.546C300.758,179.761,301.42,179.136,302.248,179.136z"/>
	<path fill="#FFFFFF" d="M309.589,179.596c0.773,0.736,1.859,1.398,3.368,1.398c1.601,0,2.815-0.847,2.815-2.153
		c0-1.398-1.178-2.337-4.27-2.337v-1.159c2.778,0,3.846-0.957,3.846-2.189c0-1.142-0.956-1.859-2.392-1.859
		c-1.104,0-2.116,0.497-2.89,1.196l-0.81-0.957c0.976-0.847,2.245-1.472,3.754-1.472c2.208,0,3.883,1.086,3.883,2.98
		c0,1.417-1.049,2.319-2.502,2.798v0.073c1.563,0.331,2.907,1.362,2.907,2.981c0,2.079-1.914,3.349-4.251,3.349
		c-2.024,0-3.367-0.791-4.232-1.656L309.589,179.596z"/>
	<path fill="#FFFFFF" d="M320.114,176.117c0-3.938,1.601-6.054,4.214-6.054s4.214,2.116,4.214,6.054
		c0,3.901-1.601,6.128-4.214,6.128S320.114,180.019,320.114,176.117z M321.531,176.117c0,3.368,1.159,4.914,2.797,4.914
		s2.797-1.546,2.797-4.914c0-3.386-1.159-4.84-2.797-4.84S321.531,172.731,321.531,176.117z M323.188,175.988
		c0-0.754,0.533-1.214,1.141-1.214s1.141,0.46,1.141,1.214c0,0.773-0.533,1.233-1.141,1.233S323.188,176.762,323.188,175.988z"/>
	<path fill="#FFFFFF" d="M331.154,176.117c0-3.938,1.601-6.054,4.214-6.054s4.214,2.116,4.214,6.054
		c0,3.901-1.601,6.128-4.214,6.128S331.154,180.019,331.154,176.117z M332.571,176.117c0,3.368,1.159,4.914,2.797,4.914
		s2.797-1.546,2.797-4.914c0-3.386-1.159-4.84-2.797-4.84S332.571,172.731,332.571,176.117z M334.228,175.988
		c0-0.754,0.533-1.214,1.141-1.214s1.141,0.46,1.141,1.214c0,0.773-0.533,1.233-1.141,1.233S334.228,176.762,334.228,175.988z"/>
	<path fill="#FFFFFF" d="M342.194,176.117c0-3.938,1.601-6.054,4.214-6.054s4.214,2.116,4.214,6.054
		c0,3.901-1.601,6.128-4.214,6.128S342.194,180.019,342.194,176.117z M343.611,176.117c0,3.368,1.159,4.914,2.797,4.914
		s2.797-1.546,2.797-4.914c0-3.386-1.159-4.84-2.797-4.84S343.611,172.731,343.611,176.117z M345.268,175.988
		c0-0.754,0.533-1.214,1.141-1.214s1.141,0.46,1.141,1.214c0,0.773-0.533,1.233-1.141,1.233S345.268,176.762,345.268,175.988z"/>
</g>
<g>
	<rect x="431.996" y="135.623" fill="none" width="53.953" height="17.376"/>
	<path fill="#00CAF9" d="M437.056,139.809v0.442h-2.796v-0.442h1.177v-3.055h-0.884v-0.345c0.441-0.065,0.761-0.169,1.021-0.305
		h0.396v3.705H437.056z"/>
	<path fill="#00CAF9" d="M437.985,138.165c0-1.391,0.565-2.139,1.488-2.139s1.488,0.748,1.488,2.139
		c0,1.378-0.565,2.165-1.488,2.165S437.985,139.542,437.985,138.165z M438.485,138.165c0,1.189,0.409,1.735,0.988,1.735
		c0.578,0,0.988-0.546,0.988-1.735c0-1.196-0.41-1.709-0.988-1.709C438.895,136.455,438.485,136.968,438.485,138.165z
		 M439.07,138.119c0-0.267,0.188-0.429,0.403-0.429s0.403,0.163,0.403,0.429c0,0.273-0.188,0.435-0.403,0.435
		S439.07,138.392,439.07,138.119z"/>
	<path fill="#00CAF9" d="M443.374,139.23c0.292,0,0.526,0.221,0.526,0.553c0,0.325-0.234,0.546-0.526,0.546
		c-0.293,0-0.526-0.221-0.526-0.546C442.848,139.452,443.081,139.23,443.374,139.23z"/>
	<path fill="#00CAF9" d="M445.786,138.165c0-1.391,0.565-2.139,1.488-2.139s1.488,0.748,1.488,2.139
		c0,1.378-0.565,2.165-1.488,2.165S445.786,139.542,445.786,138.165z M446.286,138.165c0,1.189,0.409,1.735,0.988,1.735
		c0.578,0,0.988-0.546,0.988-1.735c0-1.196-0.41-1.709-0.988-1.709C446.695,136.455,446.286,136.968,446.286,138.165z
		 M446.871,138.119c0-0.267,0.188-0.429,0.403-0.429s0.403,0.163,0.403,0.429c0,0.273-0.188,0.435-0.403,0.435
		S446.871,138.392,446.871,138.119z"/>
	<path fill="#00CAF9" d="M451.175,139.23c0.292,0,0.526,0.221,0.526,0.553c0,0.325-0.234,0.546-0.526,0.546
		c-0.293,0-0.526-0.221-0.526-0.546C450.648,139.452,450.882,139.23,451.175,139.23z"/>
	<path fill="#00CAF9" d="M456.558,139.809v0.442h-2.796v-0.442h1.177v-3.055h-0.884v-0.345c0.441-0.065,0.761-0.169,1.021-0.305
		h0.396v3.705H456.558z"/>
	<path fill="#00CAF9" d="M458.976,139.23c0.292,0,0.526,0.221,0.526,0.553c0,0.325-0.234,0.546-0.526,0.546
		c-0.293,0-0.526-0.221-0.526-0.546C458.449,139.452,458.683,139.23,458.976,139.23z"/>
	<path fill="#00CAF9" d="M464.469,139.107h-0.644v1.144h-0.508v-1.144h-2.138v-0.357l2.073-2.646h0.572v2.574h0.644V139.107z
		 M463.317,138.678v-1.287c0.007-0.227,0.02-0.507,0.033-0.734h-0.033c-0.13,0.202-0.285,0.403-0.422,0.604l-1.125,1.417H463.317z"
		/>
	<path fill="#00CAF9" d="M466.776,136.903c0.292,0,0.526,0.221,0.526,0.546c0,0.332-0.234,0.553-0.526,0.553
		c-0.293,0-0.526-0.221-0.526-0.553C466.25,137.125,466.483,136.903,466.776,136.903z M466.776,139.23
		c0.292,0,0.526,0.221,0.526,0.553c0,0.325-0.234,0.546-0.526,0.546c-0.293,0-0.526-0.221-0.526-0.546
		C466.25,139.452,466.483,139.23,466.776,139.23z"/>
	<path fill="#00CAF9" d="M469.37,139.393c0.273,0.26,0.656,0.494,1.189,0.494c0.565,0,0.994-0.299,0.994-0.76
		c0-0.494-0.416-0.826-1.508-0.826v-0.409c0.981,0,1.358-0.338,1.358-0.774c0-0.403-0.338-0.656-0.845-0.656
		c-0.39,0-0.747,0.175-1.021,0.422l-0.286-0.338c0.345-0.299,0.793-0.52,1.326-0.52c0.78,0,1.371,0.383,1.371,1.053
		c0,0.5-0.37,0.819-0.884,0.988v0.026c0.553,0.117,1.027,0.481,1.027,1.053c0,0.734-0.676,1.183-1.502,1.183
		c-0.715,0-1.189-0.28-1.495-0.585L469.37,139.393z"/>
	<path fill="#00CAF9" d="M473.089,138.165c0-1.391,0.565-2.139,1.488-2.139s1.488,0.748,1.488,2.139
		c0,1.378-0.565,2.165-1.488,2.165S473.089,139.542,473.089,138.165z M473.589,138.165c0,1.189,0.409,1.735,0.988,1.735
		c0.578,0,0.988-0.546,0.988-1.735c0-1.196-0.41-1.709-0.988-1.709C473.998,136.455,473.589,136.968,473.589,138.165z
		 M474.174,138.119c0-0.267,0.188-0.429,0.403-0.429s0.403,0.163,0.403,0.429c0,0.273-0.188,0.435-0.403,0.435
		S474.174,138.392,474.174,138.119z"/>
	<path fill="#00CAF9" d="M476.989,138.165c0-1.391,0.565-2.139,1.488-2.139s1.488,0.748,1.488,2.139
		c0,1.378-0.565,2.165-1.488,2.165S476.989,139.542,476.989,138.165z M477.489,138.165c0,1.189,0.409,1.735,0.988,1.735
		c0.578,0,0.988-0.546,0.988-1.735c0-1.196-0.41-1.709-0.988-1.709C477.898,136.455,477.489,136.968,477.489,138.165z
		 M478.074,138.119c0-0.267,0.188-0.429,0.403-0.429s0.403,0.163,0.403,0.429c0,0.273-0.188,0.435-0.403,0.435
		S478.074,138.392,478.074,138.119z"/>
	<path fill="#00CAF9" d="M480.89,138.165c0-1.391,0.565-2.139,1.488-2.139s1.488,0.748,1.488,2.139c0,1.378-0.565,2.165-1.488,2.165
		S480.89,139.542,480.89,138.165z M481.39,138.165c0,1.189,0.409,1.735,0.988,1.735c0.578,0,0.988-0.546,0.988-1.735
		c0-1.196-0.41-1.709-0.988-1.709C481.799,136.455,481.39,136.968,481.39,138.165z M481.975,138.119
		c0-0.267,0.188-0.429,0.403-0.429s0.403,0.163,0.403,0.429c0,0.273-0.188,0.435-0.403,0.435S481.975,138.392,481.975,138.119z"/>
</g>
</svg>
