<?xml version="1.0" encoding="utf-8"?>
<!-- Generator: Adobe Illustrator 17.1.0, SVG Export Plug-In . SVG Version: 6.00 Build 0)  -->
<!DOCTYPE svg PUBLIC "-//W3C//DTD SVG 1.1//EN" "http://www.w3.org/Graphics/SVG/1.1/DTD/svg11.dtd">
<svg version="1.1" id="Layer_1" xmlns="http://www.w3.org/2000/svg" xmlns:xlink="http://www.w3.org/1999/xlink" x="0px" y="0px"
	 viewBox="-19.0540543 49.7508125 140 70" style="enable-background:new -19.0540543 49.7508125 140 70;" xml:space="preserve">
<style type="text/css">
	.st0{fill:#222222;}
	.st1{display:none;}
	.st2{display:inline;}
	.st3{fill:#3B4250;}
	.st4{fill:#242C3C;}
	.st5{fill:#E36A5C;}
	.st6{fill:#6DBEC4;}
	.st7{opacity:0.5;}
	.st8{fill:#95989F;}
	.st9{fill:#EEEEEE;}
	.st10{fill:#606060;}
	.st11{fill:#A0A0A0;}
	.st12{fill:#D6D6D6;}
	.st13{fill:#B5B5B5;}
	.st14{fill:#6D6D6D;}
	.st15{fill:#0B2F47;}
	.st16{fill:#868687;}
	.st17{enable-background:new    ;}
	.st18{fill:#00CAF9;}
	.st19{fill:#FFFFFF;}
	.st20{fill:#7A7E82;}
	.st21{fill:#146D82;}
</style>
<g id="Layer_1_1_">
	<g>
		<g>
			<g>
				<path class="st0" d="M79.6647644,55.8029785h-82.757843c-2.0736492,0-3.776756,1.7031059-3.776756,3.7763519v52.6909409
					h90.3117523V59.5801392C83.4419174,57.5064926,81.7376022,55.8029785,79.6647644,55.8029785z"/>
			</g>
			<g class="st1">
				<g class="st2">
					<g>
						<rect x="-3.8555646" y="58.6538925" class="st3" width="84.2622147" height="50.5442162"/>
					</g>
				</g>
				<g class="st2">
					<g>
						<rect x="-3.8555722" y="58.6538925" class="st4" width="84.2247849" height="7.2324963"/>
					</g>
				</g>
				<g class="st2">
					<g>
						<rect x="3.1631637" y="71.8140182" class="st5" width="10.5280972" height="1.7546824"/>
					</g>
				</g>
				<g class="st2">
					<g>
						<rect x="3.1631618" y="68.3046494" class="st6" width="7.0187311" height="1.7546831"/>
					</g>
				</g>
				<g class="st2">
					<g class="st7">
						<g>
							<rect x="6.7273622" y="78.8327484" class="st8" width="21.0561962" height="1.7546824"/>
						</g>
					</g>
					<g>
						<g>
							<rect x="31.2380905" y="78.8327484" class="st8" width="21.0561981" height="1.7546824"/>
						</g>
					</g>
					<g class="st7">
						<g>
							<rect x="13.7186775" y="85.8514786" class="st8" width="17.519413" height="1.7546824"/>
						</g>
					</g>
					<g>
						<g>
							<rect x="10.1818962" y="82.5036163" class="st5" width="7.0735655" height="1.7546824"/>
						</g>
					</g>
					<g>
						<g>
							<rect x="20.682579" y="82.5036163" class="st8" width="14.0648813" height="1.7546824"/>
						</g>
					</g>
					<g class="st7">
						<g>
							<rect x="17.2554626" y="89.5223465" class="st8" width="21.0013618" height="1.7546824"/>
						</g>
					</g>
					<g>
						<g>
							<rect x="41.7661858" y="89.5223465" class="st8" width="31.5842953" height="1.7546824"/>
						</g>
					</g>
					<g>
						<g>
							<rect x="3.1631637" y="106.8386917" class="st6" width="10.5280972" height="1.7546824"/>
						</g>
					</g>
					<g class="st7">
						<g>
							<rect x="17.2143364" y="106.8386917" class="st8" width="24.5518513" height="1.7546824"/>
						</g>
					</g>
					<g class="st7">
						<g>
							<rect x="34.7474594" y="85.9204636" class="st8" width="7.0187297" height="1.7546824"/>
						</g>
					</g>
					<g class="st7">
						<g>
							<rect x="3.1631632" y="96.5410767" class="st8" width="14.0374651" height="1.7546824"/>
						</g>
					</g>
					<g>
						<g>
							<rect x="6.7273626" y="99.8889465" class="st8" width="13.9552145" height="1.7546824"/>
						</g>
					</g>
					<g>
						<g>
							<rect x="45.3303909" y="85.8514786" class="st6" width="14.0374651" height="1.7546824"/>
						</g>
					</g>
				</g>
			</g>
			<g>
				<path class="st9" d="M-18.1636162,112.2337875c0,4.1472931,3.36973,7.5170212,7.5166197,7.5170212l0,0l0,0h97.7173004
					c4.1468887,0,7.5170212-3.3697281,7.5170212-7.5170212H-18.1636162z"/>
			</g>
			<g>
				<g id="XMLID_1_">
					<g>
						<path class="st10" d="M83.4431458,59.5805435v52.6905441H-6.8690224V59.5805435
							c0-2.075676,1.702703-3.7783775,3.7743247-3.7783775h82.7594604
							C81.7363815,55.802166,83.4431458,57.5048676,83.4431458,59.5805435z M80.4066467,109.1981125V59.5440598
							c0-0.409462-0.332428-0.7418938-0.7418823-0.7418938v0.0364876H-3.1311841
							c-0.4054055,0-0.7418928,0.3324318-0.7418928,0.74189v49.617569H80.4066467z"/>
					</g>
				</g>
			</g>
			<path class="st11" d="M45.8211136,112.2337875h-3.7767525h-6.146759h-1.4071579h-3.7767563h-3.7767563
				c0,2.0732422,1.7035141,3.7767563,3.7767563,3.7767563h15.0705414c2.0736504,0,3.7767525-1.6658096,3.7767525-3.7767563
				H45.8211136z"/>
		</g>
	</g>
	<g>
		<g>
			<path class="st10" d="M119.3844757,105.2924042c0,1.1655502-0.9536362,2.119194-2.1191711,2.119194h-16.9551849
				c-1.165535,0-2.1195145-0.9536438-2.1195145-2.119194V71.382309c0-1.1656113,0.9539795-2.1193466,2.1195145-2.1193466h16.9551849
				c1.165535,0,2.1191711,0.9537354,2.1191711,2.1193466V105.2924042z"/>
		</g>
		<g>
			<circle cx="108.7875443" cy="105.2924042" r="1.3245374"/>
		</g>
		<g>
			<rect x="100.3101196" y="73.5679398" class="st12" width="16.9551849" height="29.604948"/>
		</g>
		<g>
			<g>
				<path d="M109.8472977,72.0635376h-2.1195145c-0.3761902,0-0.6812286-0.3050232-0.6812286-0.6812286
					s0.3050385-0.6812286,0.6812286-0.6812286h2.1195145c0.3762131,0,0.6812363,0.3050232,0.6812363,0.6812286
					S110.2235107,72.0635376,109.8472977,72.0635376z"/>
			</g>
		</g>
		<polygon class="st13" points="117.2652969,94.4033432 117.2652969,94.4033432 100.3101196,94.4033432 100.3101196,94.4033432 
			100.3101196,79.1289825 100.3101196,79.1289825 117.2652969,79.1289825 117.2652969,79.1289825 		"/>
		<g>
			<path class="st14" d="M116.8450928,86.755661c0-2.9414215-0.5462646-5.3785934-1.2606049-5.9248581
				c-0.1680832-0.7563629-3.1515198-1.3446503-6.7652664-1.3446503c-3.6557617,0-6.5971832,0.5882874-6.7652664,1.3446503
				c-0.7143402,0.5462646-1.2606049,2.9834366-1.2606049,5.9248581c0,2.9414139,0.5462646,5.3785934,1.2606049,5.9248581
				c0.1680832,0.7563629,3.1515198,1.3446426,6.7652664,1.3446426c3.6557617,0,6.5971832-0.5882797,6.7652664-1.3446426
				C116.2988281,92.1342545,116.8450928,89.6970749,116.8450928,86.755661z"/>
			<path class="st15" d="M116.6349945,87.1758575c0-2.7733307-0.5462646-5.0844498-1.2185898-5.5886917
				c-0.1680756-0.7143402-3.0674744-1.2606049-6.5971756-1.2606049s-6.4291,0.5462646-6.5971832,1.2606049
				c-0.7143402,0.5042419-1.2185822,2.815361-1.2185822,5.5886917c0,2.7733383,0.546257,5.0844574,1.2185822,5.5886993
				c0.1680832,0.7143402,3.067482,1.2606049,6.5971832,1.2606049s6.4291-0.5462646,6.5971756-1.2606049
				C116.0887299,92.2603149,116.6349945,89.9491959,116.6349945,87.1758575z"/>
		</g>
		<rect x="100.3101196" y="94.2352676" class="st16" width="16.955183" height="2.5632353"/>
		<g class="st17">
			<path class="st18" d="M102.2138672,85.0615234v0.1220703h-0.7734375v-0.1220703h0.3251953v-0.8466797h-0.2441406v-0.0947266
				c0.1220703-0.0185547,0.2099609-0.046875,0.2822266-0.0849609h0.1103516v1.0263672H102.2138672z"/>
			<path class="st18" d="M102.4746094,85.0957031c0.3886719-0.34375,0.6025391-0.5458984,0.6025391-0.7363281
				c0-0.1318359-0.0810547-0.2255859-0.25-0.2255859c-0.1083984,0-0.2021484,0.0615234-0.2753906,0.1386719l-0.0849609-0.0839844
				c0.1025391-0.1044922,0.2158203-0.1748047,0.3779297-0.1748047c0.2304688,0,0.375,0.1347656,0.375,0.3378906
				c0,0.2167969-0.2158203,0.4306641-0.5292969,0.7148438c0.0703125-0.0048828,0.1455078-0.0107422,0.2138672-0.0107422h0.3779297
				v0.1279297h-0.8076172V85.0957031z"/>
			<path class="st18" d="M104.2119141,84.1630859h-0.6630859v-0.1279297h0.8320312v0.0917969
				c-0.3046875,0.3476562-0.3798828,0.6064453-0.3964844,1.0566406h-0.1542969
				C103.8496094,84.7480469,103.9482422,84.4853516,104.2119141,84.1630859z"/>
			<path class="st18" d="M105.0419922,84.9013672c0.0810547,0,0.1455078,0.0605469,0.1455078,0.1523438
				c0,0.0908203-0.0644531,0.1513672-0.1455078,0.1513672s-0.1455078-0.0605469-0.1455078-0.1513672
				C104.8964844,84.9619141,104.9609375,84.9013672,105.0419922,84.9013672z"/>
			<path class="st18" d="M105.7089844,84.6054688c0-0.3847656,0.15625-0.5917969,0.4121094-0.5917969
				s0.4121094,0.2070312,0.4121094,0.5917969c0,0.3818359-0.15625,0.5996094-0.4121094,0.5996094
				S105.7089844,84.9873047,105.7089844,84.6054688z M105.8476562,84.6054688c0,0.3300781,0.1132812,0.4814453,0.2734375,0.4814453
				s0.2734375-0.1513672,0.2734375-0.4814453c0-0.3310547-0.1132812-0.4736328-0.2734375-0.4736328
				S105.8476562,84.2744141,105.8476562,84.6054688z M106.0097656,84.5927734c0-0.0732422,0.0517578-0.1181641,0.1113281-0.1181641
				s0.1113281,0.0449219,0.1113281,0.1181641c0,0.0761719-0.0517578,0.1210938-0.1113281,0.1210938
				S106.0097656,84.6689453,106.0097656,84.5927734z"/>
			<path class="st18" d="M107.2011719,84.9013672c0.0810547,0,0.1455078,0.0605469,0.1455078,0.1523438
				c0,0.0908203-0.0644531,0.1513672-0.1455078,0.1513672s-0.1455078-0.0605469-0.1455078-0.1513672
				C107.0556641,84.9619141,107.1201172,84.9013672,107.2011719,84.9013672z"/>
			<path class="st18" d="M107.8681641,84.6054688c0-0.3847656,0.15625-0.5917969,0.4121094-0.5917969
				s0.4121094,0.2070312,0.4121094,0.5917969c0,0.3818359-0.15625,0.5996094-0.4121094,0.5996094
				S107.8681641,84.9873047,107.8681641,84.6054688z M108.0068359,84.6054688c0,0.3300781,0.1132812,0.4814453,0.2734375,0.4814453
				s0.2734375-0.1513672,0.2734375-0.4814453c0-0.3310547-0.1132812-0.4736328-0.2734375-0.4736328
				S108.0068359,84.2744141,108.0068359,84.6054688z M108.1689453,84.5927734c0-0.0732422,0.0517578-0.1181641,0.1113281-0.1181641
				s0.1113281,0.0449219,0.1113281,0.1181641c0,0.0761719-0.0517578,0.1210938-0.1113281,0.1210938
				S108.1689453,84.6689453,108.1689453,84.5927734z"/>
			<path class="st18" d="M109.3603516,84.9013672c0.0810547,0,0.1455078,0.0605469,0.1455078,0.1523438
				c0,0.0908203-0.0644531,0.1513672-0.1455078,0.1513672s-0.1455078-0.0605469-0.1455078-0.1513672
				C109.2148438,84.9619141,109.2792969,84.9013672,109.3603516,84.9013672z"/>
			<path class="st18" d="M110.8505859,85.0615234v0.1220703h-0.7744141v-0.1220703h0.3251953v-0.8466797h-0.2441406v-0.0947266
				c0.1220703-0.0185547,0.2099609-0.046875,0.2822266-0.0849609h0.1103516v1.0263672H110.8505859z"/>
			<path class="st18" d="M111.5185547,84.2568359c0.0810547,0,0.1455078,0.0605469,0.1455078,0.1513672
				c0,0.0917969-0.0644531,0.1523438-0.1455078,0.1523438S111.3730469,84.5,111.3730469,84.4082031
				C111.3730469,84.3173828,111.4375,84.2568359,111.5185547,84.2568359z M111.5185547,84.9013672
				c0.0810547,0,0.1455078,0.0605469,0.1455078,0.1523438c0,0.0908203-0.0644531,0.1513672-0.1455078,0.1513672
				s-0.1455078-0.0605469-0.1455078-0.1513672C111.3730469,84.9619141,111.4375,84.9013672,111.5185547,84.9013672z"/>
			<path class="st18" d="M112.2373047,84.9462891c0.0751953,0.0722656,0.1816406,0.1367188,0.3291016,0.1367188
				c0.15625,0,0.2753906-0.0830078,0.2753906-0.2109375c0-0.1367188-0.1152344-0.2285156-0.4179688-0.2285156v-0.1132812
				c0.2724609,0,0.3769531-0.09375,0.3769531-0.2138672c0-0.1123047-0.09375-0.1826172-0.234375-0.1826172
				c-0.1083984,0-0.2070312,0.0488281-0.2832031,0.1171875l-0.0791016-0.09375
				c0.0957031-0.0830078,0.2197266-0.1435547,0.3671875-0.1435547c0.2167969,0,0.3808594,0.1064453,0.3808594,0.2910156
				c0,0.1386719-0.1035156,0.2275391-0.2451172,0.2744141v0.0068359c0.1523438,0.0322266,0.2841797,0.1337891,0.2841797,0.2919922
				c0,0.203125-0.1875,0.3271484-0.4160156,0.3271484c-0.1982422,0-0.3291016-0.0771484-0.4140625-0.1621094L112.2373047,84.9462891
				z"/>
			<path class="st18" d="M113.265625,84.6054688c0-0.3847656,0.15625-0.5917969,0.4121094-0.5917969
				s0.4121094,0.2070312,0.4121094,0.5917969c0,0.3818359-0.15625,0.5996094-0.4121094,0.5996094
				S113.265625,84.9873047,113.265625,84.6054688z M113.4042969,84.6054688c0,0.3300781,0.1132812,0.4814453,0.2734375,0.4814453
				s0.2734375-0.1513672,0.2734375-0.4814453c0-0.3310547-0.1132812-0.4736328-0.2734375-0.4736328
				S113.4042969,84.2744141,113.4042969,84.6054688z M113.5664062,84.5927734c0-0.0732422,0.0517578-0.1181641,0.1113281-0.1181641
				s0.1113281,0.0449219,0.1113281,0.1181641c0,0.0761719-0.0517578,0.1210938-0.1113281,0.1210938
				S113.5664062,84.6689453,113.5664062,84.5927734z"/>
			<path class="st18" d="M114.3457031,84.6054688c0-0.3847656,0.15625-0.5917969,0.4121094-0.5917969
				s0.4121094,0.2070312,0.4121094,0.5917969c0,0.3818359-0.15625,0.5996094-0.4121094,0.5996094
				S114.3457031,84.9873047,114.3457031,84.6054688z M114.484375,84.6054688c0,0.3300781,0.1132812,0.4814453,0.2734375,0.4814453
				s0.2734375-0.1513672,0.2734375-0.4814453c0-0.3310547-0.1132812-0.4736328-0.2734375-0.4736328
				S114.484375,84.2744141,114.484375,84.6054688z M114.6464844,84.5927734c0-0.0732422,0.0517578-0.1181641,0.1113281-0.1181641
				s0.1113281,0.0449219,0.1113281,0.1181641c0,0.0761719-0.0517578,0.1210938-0.1113281,0.1210938
				S114.6464844,84.6689453,114.6464844,84.5927734z"/>
			<path class="st18" d="M115.4248047,84.6054688c0-0.3847656,0.15625-0.5917969,0.4121094-0.5917969
				s0.4121094,0.2070312,0.4121094,0.5917969c0,0.3818359-0.15625,0.5996094-0.4121094,0.5996094
				S115.4248047,84.9873047,115.4248047,84.6054688z M115.5634766,84.6054688c0,0.3300781,0.1132812,0.4814453,0.2734375,0.4814453
				s0.2734375-0.1513672,0.2734375-0.4814453c0-0.3310547-0.1132812-0.4736328-0.2734375-0.4736328
				S115.5634766,84.2744141,115.5634766,84.6054688z M115.7255859,84.5927734c0-0.0732422,0.0517578-0.1181641,0.1113281-0.1181641
				s0.1113281,0.0449219,0.1113281,0.1181641c0,0.0761719-0.0517578,0.1210938-0.1113281,0.1210938
				S115.7255859,84.6689453,115.7255859,84.5927734z"/>
		</g>
		<g class="st17">
			<path class="st18" d="M106.2900391,90.3984375c-0.0917969,0.0351562-0.1748047,0.0517578-0.2470703,0.0517578
				c-0.0957031,0-0.1845703-0.0253906-0.265625-0.0771484c-0.0800781-0.0517578-0.1435547-0.1279297-0.1875-0.2294922
				c-0.0449219-0.1015625-0.0673828-0.2167969-0.0673828-0.3447266c0-0.1269531,0.0214844-0.2412109,0.0664062-0.3427734
				c0.0439453-0.1015625,0.1064453-0.1777344,0.1875-0.2304688c0.0800781-0.0517578,0.1689453-0.078125,0.2666016-0.078125
				c0.0722656,0,0.1552734,0.0175781,0.2470703,0.0507812v0.1464844c-0.0849609-0.0498047-0.1699219-0.0742188-0.2539062-0.0742188
				c-0.0625,0-0.1210938,0.0214844-0.1728516,0.0644531c-0.0527344,0.0439453-0.0957031,0.1074219-0.1279297,0.1904297
				c-0.0322266,0.0839844-0.0478516,0.1748047-0.0478516,0.2734375c0,0.0996094,0.0166016,0.1914062,0.0498047,0.2763672
				c0.0332031,0.0839844,0.0761719,0.1474609,0.1279297,0.1894531c0.0507812,0.0419922,0.1083984,0.0625,0.1708984,0.0625
				c0.0839844,0,0.1679688-0.0244141,0.2539062-0.0732422V90.3984375z"/>
			<path class="st18" d="M106.8876953,90.4375c-0.1269531,0-0.2275391-0.0439453-0.3037109-0.1328125
				c-0.0761719-0.0878906-0.1132812-0.1992188-0.1132812-0.3339844s0.0371094-0.2460938,0.1132812-0.3339844
				s0.1767578-0.1318359,0.3037109-0.1318359c0.1259766,0,0.2265625,0.0439453,0.3027344,0.1318359
				s0.1142578,0.1992188,0.1142578,0.3339844s-0.0380859,0.2460938-0.1142578,0.3339844
				C107.1142578,90.3935547,107.0136719,90.4375,106.8876953,90.4375z M106.8876953,90.3154297
				c0.078125,0,0.140625-0.03125,0.1875-0.0927734c0.0458984-0.0605469,0.0693359-0.1445312,0.0693359-0.2519531
				c0-0.1064453-0.0234375-0.1904297-0.0693359-0.2519531c-0.046875-0.0605469-0.109375-0.0917969-0.1875-0.0917969
				c-0.0791016,0-0.1416016,0.03125-0.1884766,0.0917969c-0.0458984,0.0615234-0.0693359,0.1455078-0.0693359,0.2519531
				c0,0.1074219,0.0234375,0.1914062,0.0693359,0.2519531C106.7460938,90.2841797,106.8085938,90.3154297,106.8876953,90.3154297z"
				/>
			<path class="st18" d="M107.4970703,90.4130859v-0.8837891h0.1464844v0.1923828
				c0.0429688-0.0673828,0.09375-0.1210938,0.1533203-0.1591797c0.0595703-0.0390625,0.1191406-0.0576172,0.1787109-0.0576172
				c0.0517578,0,0.0996094,0.0136719,0.1425781,0.0410156c0.0429688,0.0283203,0.0722656,0.0644531,0.0898438,0.109375
				c0.0166016,0.0449219,0.0253906,0.1328125,0.0253906,0.2636719v0.4941406h-0.1474609v-0.5117188
				c0-0.0849609-0.0039062-0.1416016-0.0117188-0.1689453c-0.0087891-0.0263672-0.0234375-0.0488281-0.0449219-0.0664062
				c-0.0224609-0.0175781-0.0458984-0.0263672-0.0722656-0.0263672c-0.0517578,0-0.1074219,0.0244141-0.1660156,0.0742188
				c-0.0595703,0.0488281-0.1083984,0.1103516-0.1474609,0.1835938v0.515625H107.4970703z"/>
			<path class="st18" d="M108.4697266,90.4130859v-0.8837891h0.1464844v0.1923828
				c0.0429688-0.0673828,0.09375-0.1210938,0.1533203-0.1591797c0.0595703-0.0390625,0.1191406-0.0576172,0.1787109-0.0576172
				c0.0517578,0,0.0996094,0.0136719,0.1425781,0.0410156c0.0429688,0.0283203,0.0722656,0.0644531,0.0898438,0.109375
				c0.0166016,0.0449219,0.0253906,0.1328125,0.0253906,0.2636719v0.4941406h-0.1474609v-0.5117188
				c0-0.0849609-0.0039062-0.1416016-0.0117188-0.1689453c-0.0087891-0.0263672-0.0234375-0.0488281-0.0449219-0.0664062
				c-0.0224609-0.0175781-0.0458984-0.0263672-0.0722656-0.0263672c-0.0517578,0-0.1074219,0.0244141-0.1660156,0.0742188
				c-0.0595703,0.0488281-0.1083984,0.1103516-0.1474609,0.1835938v0.515625H108.4697266z"/>
			<path class="st18" d="M110.1767578,90.3544922c-0.1171875,0.0556641-0.2285156,0.0830078-0.3330078,0.0830078
				c-0.0800781,0-0.1513672-0.0195312-0.2138672-0.0595703c-0.0634766-0.0390625-0.1132812-0.0957031-0.1513672-0.1689453
				c-0.0371094-0.0742188-0.0566406-0.1523438-0.0566406-0.2363281c0-0.0810547,0.0185547-0.1582031,0.0537109-0.2324219
				c0.0361328-0.0742188,0.0869141-0.1318359,0.1503906-0.1738281c0.0644531-0.0410156,0.1367188-0.0615234,0.2158203-0.0615234
				c0.1044922,0,0.1894531,0.0371094,0.2529297,0.1123047c0.0634766,0.0742188,0.0947266,0.1894531,0.0947266,0.3457031v0.03125
				h-0.609375c0,0.0615234,0.0136719,0.1181641,0.0390625,0.1689453s0.0585938,0.0888672,0.1005859,0.1142578
				s0.0888672,0.0380859,0.1425781,0.0380859c0.0947266,0,0.2001953-0.0322266,0.3144531-0.0957031V90.3544922z
				 M109.5888672,89.8847656h0.4414062v-0.0214844c0-0.0722656-0.0175781-0.1298828-0.0537109-0.171875
				c-0.0351562-0.0429688-0.0820312-0.0644531-0.1416016-0.0644531s-0.1103516,0.0214844-0.1542969,0.0654297
				C109.6367188,89.7353516,109.6064453,89.7998047,109.5888672,89.8847656z"/>
			<path class="st18" d="M111.1582031,90.3876953c-0.0986328,0.0332031-0.1923828,0.0498047-0.28125,0.0498047
				s-0.1679688-0.0205078-0.2363281-0.0615234c-0.0693359-0.0410156-0.1220703-0.0957031-0.1611328-0.1660156
				c-0.0380859-0.0693359-0.0576172-0.1494141-0.0576172-0.2382812c0-0.1337891,0.0439453-0.2451172,0.1308594-0.3339844
				s0.1923828-0.1328125,0.3164062-0.1328125c0.0908203,0,0.1875,0.0166016,0.2890625,0.0507812v0.1416016
				c-0.1025391-0.046875-0.1943359-0.0703125-0.2753906-0.0703125c-0.0546875,0-0.1044922,0.0136719-0.1523438,0.0400391
				s-0.0839844,0.0683594-0.1103516,0.125c-0.0253906,0.0566406-0.0380859,0.1142578-0.0380859,0.1738281
				c0,0.0800781,0.0244141,0.1552734,0.0742188,0.2285156c0.0498047,0.0722656,0.1279297,0.1083984,0.234375,0.1083984
				c0.0322266,0,0.0644531-0.0029297,0.0957031-0.0068359c0.03125-0.0048828,0.0888672-0.0214844,0.171875-0.0498047V90.3876953z"/>
			<path class="st18" d="M112.1269531,90.3779297c-0.0693359,0.0283203-0.1201172,0.0458984-0.1503906,0.0517578
				c-0.03125,0.0048828-0.0615234,0.0078125-0.0908203,0.0078125c-0.0615234,0-0.1181641-0.0117188-0.1689453-0.0351562
				c-0.0517578-0.0244141-0.0898438-0.0595703-0.1162109-0.1054688c-0.0263672-0.046875-0.0390625-0.1181641-0.0390625-0.2158203
				v-0.3554688h-0.2207031v-0.1230469h0.2207031v-0.3564453h0.1474609v0.3564453h0.3925781v0.1230469h-0.3925781v0.3535156
				c0,0.0712891,0.0078125,0.1210938,0.0253906,0.1503906c0.0166016,0.0292969,0.0390625,0.0507812,0.0673828,0.0644531
				s0.0615234,0.0214844,0.0996094,0.0214844c0.0712891,0,0.1464844-0.0224609,0.2255859-0.0673828V90.3779297z"/>
		</g>
	</g>
</g>
<g class="st17">
	<path class="st19" d="M0.6625973,71.7963867c-0.222168-0.1728516-0.3955078-0.2817383-0.7265625-0.2817383
		s-0.5439453,0.1582031-0.5439453,0.4106445c0,0.543457,1.5722656,0.4399414,1.5722656,1.3447266
		c0,0.4248047-0.3510742,0.7314453-0.8701172,0.7856445v0.722168h-0.296875v-0.7167969
		C-0.5683597,74.03125-0.919434,73.8681641-1.1464847,73.675293l0.1928711-0.2817383
		c0.2470703,0.1777344,0.5483398,0.3359375,0.9194336,0.3359375c0.390625,0,0.5981445-0.1777344,0.5981445-0.4301758
		c0-0.612793-1.5673828-0.5039062-1.5673828-1.3642578c0-0.4155273,0.3212891-0.6972656,0.8007812-0.746582v-0.6523438h0.296875
		v0.6474609c0.3608398,0.0297852,0.5883789,0.1826172,0.7861328,0.3754883L0.6625973,71.7963867z"/>
	<path class="st19" d="M5.2241206,74.4365234v0.8115234H4.8188472v-3.4169922h0.3359375l0.034668,0.3066406h0.0146484
		c0.2226562-0.2124023,0.5341797-0.3657227,0.8305664-0.3657227c0.6479492,0,0.9941406,0.4794922,0.9941406,1.2260742
		c0,0.8154297-0.5146484,1.2949219-1.0927734,1.2949219c-0.2226562,0-0.5043945-0.1132812-0.7216797-0.3110352L5.2241206,74.4365234
		z M5.8666987,73.9521484c0.4301758,0,0.7416992-0.3608398,0.7416992-0.9541016
		c0-0.5292969-0.1977539-0.8852539-0.6772461-0.8852539c-0.2128906,0-0.4599609,0.1137695-0.7070312,0.3608398v1.1967773
		C5.4516597,73.8730469,5.7036128,73.9521484,5.8666987,73.9521484z"/>
	<path class="st19" d="M7.7812495,70.7138672h0.4052739v0.9589844l-0.0200195,0.5688477
		c0.2573242-0.2670898,0.5341797-0.4697266,0.909668-0.4697266c0.5688477,0,0.8305664,0.3359375,0.8305664,0.96875v1.4931641
		H9.5014648v-1.4384766c0-0.4550781-0.1582031-0.6723633-0.5537109-0.6723633c-0.2866211,0-0.4794922,0.1430664-0.7612305,0.4350586
		v1.6757812H7.7812495V70.7138672z"/>
	<path class="st19" d="M11.7670898,71.7719727c0.6328125,0,1.1865234,0.4594727,1.1865234,1.265625
		c0,0.7958984-0.5537109,1.2553711-1.1865234,1.2553711s-1.1865234-0.4594727-1.1865234-1.2553711
		C10.5805664,72.2314453,11.1342773,71.7719727,11.7670898,71.7719727z M11.7670898,73.9570312
		c0.4599609,0,0.7666016-0.3706055,0.7666016-0.9194336c0-0.5537109-0.3066406-0.9296875-0.7666016-0.9296875
		c-0.4594727,0-0.7661133,0.3759766-0.7661133,0.9296875C11.0009766,73.5864258,11.3076172,73.9570312,11.7670898,73.9570312z"/>
	<path class="st19" d="M13.7070312,71.8310547h0.3359375l0.034668,0.4106445h0.0195312
		c0.2524414-0.2670898,0.5292969-0.4697266,0.9047852-0.4697266c0.5688477,0,0.8305664,0.3359375,0.8305664,0.96875v1.4931641
		h-0.4052734v-1.4384766c0-0.4550781-0.1582031-0.6723633-0.5537109-0.6723633
		c-0.2866211,0-0.4794922,0.1430664-0.7612305,0.4350586v1.6757812h-0.4052734V71.8310547z"/>
	<path class="st19" d="M17.7719727,71.7719727c0.6875,0,1.0927734,0.449707,1.0927734,1.1269531
		c0,0.0839844-0.0048828,0.1630859-0.0146484,0.2226562h-1.8789062c0.0297852,0.519043,0.3955078,0.8452148,0.9199219,0.8452148
		c0.2817383,0,0.5087891-0.0839844,0.7314453-0.222168l0.1435547,0.2666016
		c-0.2373047,0.1533203-0.5390625,0.2817383-0.9248047,0.2817383c-0.7119141,0-1.2900391-0.4692383-1.2900391-1.2553711
		S17.1494141,71.7719727,17.7719727,71.7719727z M18.4892578,72.8544922c0-0.4892578-0.2670898-0.7612305-0.7119141-0.7612305
		c-0.390625,0-0.7514648,0.2768555-0.8110352,0.7612305H18.4892578z"/>
	<path class="st19" d="M19.9238281,74.1401367v-0.0200195c-0.128418-0.0693359-0.2470703-0.1928711-0.2470703-0.3955078
		c0-0.1533203,0.1035156-0.3261719,0.2866211-0.449707v-0.0200195c-0.1630859-0.1235352-0.296875-0.3359375-0.296875-0.6230469
		c0-0.5239258,0.4355469-0.8598633,0.9443359-0.8598633c0.1386719,0,0.2524414,0.0195312,0.355957,0.059082h0.9936523v0.3115234
		h-0.6425781c0.1137695,0.1186523,0.2226562,0.2919922,0.2226562,0.5043945c0,0.5141602-0.4101562,0.8256836-0.9296875,0.8256836
		c-0.1235352,0-0.2714844-0.0297852-0.4052734-0.0888672c-0.1186523,0.0737305-0.1879883,0.1630859-0.1879883,0.2763672
		c0,0.1928711,0.1831055,0.2773438,0.4995117,0.2773438h0.5390625c0.6176758,0,0.9145508,0.1582031,0.9145508,0.5634766
		c0,0.449707-0.519043,0.8408203-1.3349609,0.8408203c-0.7021484,0-1.1074219-0.2421875-1.1074219-0.6679688
		C19.5283203,74.480957,19.6665039,74.2880859,19.9238281,74.1401367z M20.6655273,75.0595703
		c0.5585938,0,0.9047852-0.2470703,0.9047852-0.4946289c0-0.2270508-0.1831055-0.2915039-0.5488281-0.2915039h-0.4697266
		c-0.1386719,0-0.262207-0.0097656-0.3657227-0.0395508c-0.2275391,0.1235352-0.3066406,0.262207-0.3066406,0.4003906
		C19.8793945,74.8867188,20.1513672,75.0595703,20.6655273,75.0595703z M21.1645508,72.6318359
		c0-0.3359375-0.2470703-0.5634766-0.5537109-0.5634766c-0.3012695,0-0.5537109,0.2275391-0.5537109,0.5634766
		c0,0.3461914,0.2524414,0.5688477,0.5537109,0.5688477C20.9174805,73.2006836,21.1645508,72.9780273,21.1645508,72.6318359z"/>
	<path class="st19" d="M24.2758789,72.7109375c-0.0097656-0.3261719-0.1728516-0.6030273-0.6376953-0.6030273
		c-0.3115234,0-0.6181641,0.1484375-0.840332,0.2866211l-0.1582031-0.2763672
		c0.2421875-0.1582031,0.6474609-0.3461914,1.0678711-0.3461914c0.6572266,0,0.9736328,0.390625,0.9736328,0.9887695v1.4731445
		h-0.3310547l-0.034668-0.3261719h-0.0146484c-0.2670898,0.2075195-0.6083984,0.3852539-0.9492188,0.3852539
		c-0.4501953,0-0.815918-0.2519531-0.815918-0.6821289C22.5356445,73.0722656,23.0351562,72.8100586,24.2758789,72.7109375z
		 M23.4604492,73.9667969c0.2714844,0,0.543457-0.128418,0.8154297-0.355957v-0.6328125
		c-1.0283203,0.0839844-1.3447266,0.2866211-1.3447266,0.6030273
		C22.9311523,73.8530273,23.1831055,73.9667969,23.4604492,73.9667969z"/>
	<path class="st19" d="M25.9633789,74.4365234v0.8115234h-0.4052734v-3.4169922h0.3359375l0.034668,0.3066406h0.0146484
		c0.2226562-0.2124023,0.5341797-0.3657227,0.8305664-0.3657227c0.6479492,0,0.9941406,0.4794922,0.9941406,1.2260742
		c0,0.8154297-0.5146484,1.2949219-1.0927734,1.2949219c-0.2226562,0-0.5043945-0.1132812-0.7216797-0.3110352
		L25.9633789,74.4365234z M26.605957,73.9521484c0.4301758,0,0.7416992-0.3608398,0.7416992-0.9541016
		c0-0.5292969-0.1977539-0.8852539-0.6772461-0.8852539c-0.2128906,0-0.4599609,0.1137695-0.7070312,0.3608398v1.1967773
		C26.190918,73.8730469,26.4428711,73.9521484,26.605957,73.9521484z"/>
	<path class="st19" d="M32.7592773,71.7719727c0.390625,0,0.6772461,0.1582031,0.875,0.3510742l-0.2026367,0.2617188
		c-0.1977539-0.1728516-0.4052734-0.2768555-0.6577148-0.2768555c-0.5537109,0-0.934082,0.3759766-0.934082,0.9296875
		c0,0.5488281,0.3706055,0.9194336,0.9243164,0.9194336c0.296875,0,0.5439453-0.1333008,0.746582-0.3017578l0.1777344,0.262207
		c-0.2617188,0.2373047-0.5981445,0.3754883-0.9541016,0.3754883c-0.7514648,0-1.3149414-0.4594727-1.3149414-1.2553711
		C31.4194336,72.2314453,32.0327148,71.7719727,32.7592773,71.7719727z"/>
	<path class="st19" d="M34.7080078,71.8310547h0.3364258l0.034668,0.5688477H35.09375
		c0.2519531-0.3857422,0.6279297-0.6279297,1.0727539-0.6279297c0.1782227,0,0.3212891,0.0244141,0.4697266,0.0986328
		l-0.0839844,0.3510742c-0.1679688-0.059082-0.262207-0.0839844-0.4501953-0.0839844
		c-0.3608398,0-0.7016602,0.1879883-0.9882812,0.6870117v1.4091797h-0.4057617V71.8310547z"/>
	<path class="st19" d="M38.5112305,71.7719727c0.6875,0,1.0927734,0.449707,1.0927734,1.1269531
		c0,0.0839844-0.0048828,0.1630859-0.0146484,0.2226562h-1.8789062c0.0297852,0.519043,0.3955078,0.8452148,0.9199219,0.8452148
		c0.2817383,0,0.5087891-0.0839844,0.7314453-0.222168l0.1435547,0.2666016
		c-0.2373047,0.1533203-0.5390625,0.2817383-0.9248047,0.2817383c-0.7119141,0-1.2900391-0.4692383-1.2900391-1.2553711
		S37.8886719,71.7719727,38.5112305,71.7719727z M39.2285156,72.8544922c0-0.4892578-0.2670898-0.7612305-0.7119141-0.7612305
		c-0.390625,0-0.7514648,0.2768555-0.8110352,0.7612305H39.2285156z"/>
	<path class="st19" d="M42.0527344,72.7109375c-0.0097656-0.3261719-0.1728516-0.6030273-0.6376953-0.6030273
		c-0.3115234,0-0.6181641,0.1484375-0.840332,0.2866211l-0.1582031-0.2763672
		c0.2421875-0.1582031,0.6474609-0.3461914,1.0678711-0.3461914c0.6572266,0,0.9736328,0.390625,0.9736328,0.9887695v1.4731445
		h-0.3310547l-0.034668-0.3261719h-0.0146484c-0.2670898,0.2075195-0.6083984,0.3852539-0.9492188,0.3852539
		c-0.4501953,0-0.815918-0.2519531-0.815918-0.6821289C40.3125,73.0722656,40.8120117,72.8100586,42.0527344,72.7109375z
		 M41.2368164,73.9667969c0.2719727,0,0.5439453-0.128418,0.815918-0.355957v-0.6328125
		c-1.0283203,0.0839844-1.3447266,0.2866211-1.3447266,0.6030273
		C40.7080078,73.8530273,40.9604492,73.9667969,41.2368164,73.9667969z"/>
	<path class="st19" d="M43.8935547,72.1625977h-0.6772461V71.855957l0.6918945-0.0249023l0.0541992-0.6723633h0.3364258v0.6723633
		h1.1767578v0.331543h-1.1767578v1.1420898c0,0.4296875,0.1435547,0.6572266,0.6079102,0.6572266
		c0.2275391,0,0.4106445-0.0444336,0.5786133-0.1088867l0.0839844,0.296875
		c-0.2124023,0.0791016-0.4892578,0.1430664-0.7514648,0.1430664c-0.6972656,0-0.9243164-0.4003906-0.9243164-0.9936523V72.1625977z
		"/>
	<path class="st19" d="M47.3999023,71.7719727c0.6870117,0,1.0922852,0.449707,1.0922852,1.1269531
		c0,0.0839844-0.0048828,0.1630859-0.0146484,0.2226562h-1.8789062c0.0297852,0.519043,0.3955078,0.8452148,0.9194336,0.8452148
		c0.2822266,0,0.5092773-0.0839844,0.7319336-0.222168l0.1435547,0.2666016
		c-0.2373047,0.1533203-0.5390625,0.2817383-0.9248047,0.2817383c-0.7119141,0-1.2900391-0.4692383-1.2900391-1.2553711
		S46.7768555,71.7719727,47.3999023,71.7719727z M48.1166992,72.8544922c0-0.4892578-0.2670898-0.7612305-0.7119141-0.7612305
		c-0.390625,0-0.7514648,0.2768555-0.8110352,0.7612305H48.1166992z"/>
	<path class="st19" d="M52.0600586,71.8310547h0.3164062l0.0341797,0.3164062h0.0151367
		c0.1186523-0.222168,0.2670898-0.3754883,0.5385742-0.3754883c0.2421875,0,0.3955078,0.1381836,0.4550781,0.4150391
		c0.1435547-0.2519531,0.3017578-0.4150391,0.5683594-0.4150391c0.331543,0,0.5244141,0.2617188,0.5244141,0.7416992v1.7202148
		h-0.390625v-1.6860352c0-0.2817383-0.0839844-0.4248047-0.262207-0.4248047c-0.1728516,0-0.2866211,0.1235352-0.4101562,0.3706055
		v1.7402344h-0.3266602v-1.6860352c0-0.2817383-0.09375-0.4248047-0.2714844-0.4248047
		c-0.168457,0-0.2773438,0.1235352-0.4008789,0.3706055v1.7402344h-0.3901367V71.8310547z"/>
	<path class="st19" d="M55.3588867,74.9311523c0.3359375,0,0.5390625-0.2177734,0.6577148-0.5141602l0.0737305-0.1782227
		l-1.1220703-2.4077148h0.4101562l0.5883789,1.3300781c0.0942383,0.2124023,0.1977539,0.4648438,0.296875,0.6972656h0.0195312
		c0.0844727-0.2275391,0.1782227-0.4799805,0.2573242-0.6972656l0.5239258-1.3300781h0.3857422l-1.0581055,2.6005859
		c-0.1777344,0.4746094-0.4746094,0.8359375-1.0185547,0.8359375c-0.1132812,0-0.2324219-0.0195312-0.3164062-0.0498047
		l0.0839844-0.3212891C55.2055664,74.9160156,55.284668,74.9311523,55.3588867,74.9311523z"/>
	<path class="st19" d="M59.7553711,73.2451172h-1.1767578l-0.3110352,0.9887695H57.847168l1.0927734-3.2431641h0.4643555
		l1.0927734,3.2431641h-0.4350586L59.7553711,73.2451172z M59.6518555,72.9140625l-0.1533203-0.4946289
		c-0.1137695-0.3608398-0.2177734-0.7167969-0.3212891-1.0922852h-0.0200195
		c-0.1040039,0.3754883-0.2075195,0.7314453-0.3212891,1.0922852l-0.1533203,0.4946289H59.6518555z"/>
	<path class="st19" d="M61.5166016,74.4365234v0.8115234h-0.4052734v-3.4169922h0.3359375l0.034668,0.3066406h0.0146484
		c0.2226562-0.2124023,0.5341797-0.3657227,0.8305664-0.3657227c0.6479492,0,0.9936523,0.4794922,0.9936523,1.2260742
		c0,0.8154297-0.5136719,1.2949219-1.0922852,1.2949219c-0.2226562,0-0.5043945-0.1132812-0.7216797-0.3110352
		L61.5166016,74.4365234z M62.1591797,73.9521484c0.4301758,0,0.7416992-0.3608398,0.7416992-0.9541016
		c0-0.5292969-0.1977539-0.8852539-0.6772461-0.8852539c-0.2128906,0-0.4599609,0.1137695-0.7070312,0.3608398v1.1967773
		C61.7441406,73.8730469,61.9960938,73.9521484,62.1591797,73.9521484z"/>
	<path class="st19" d="M64.4794922,74.4365234v0.8115234h-0.4052734v-3.4169922h0.3359375l0.034668,0.3066406h0.0146484
		c0.2226562-0.2124023,0.5341797-0.3657227,0.8305664-0.3657227c0.6479492,0,0.9936523,0.4794922,0.9936523,1.2260742
		c0,0.8154297-0.5136719,1.2949219-1.0922852,1.2949219c-0.2226562,0-0.5043945-0.1132812-0.7216797-0.3110352
		L64.4794922,74.4365234z M65.1220703,73.9521484c0.4301758,0,0.7416992-0.3608398,0.7416992-0.9541016
		c0-0.5292969-0.1977539-0.8852539-0.6772461-0.8852539c-0.2128906,0-0.4599609,0.1137695-0.7070312,0.3608398v1.1967773
		C64.7070312,73.8730469,64.9589844,73.9521484,65.1220703,73.9521484z"/>
	<path class="st19" d="M0.6625973,78.6337891c-0.222168-0.1728516-0.3955078-0.28125-0.7265625-0.28125
		s-0.5439453,0.1582031-0.5439453,0.4101562c0,0.5439453,1.5722656,0.4404297,1.5722656,1.3447266
		c0,0.4248047-0.3510742,0.7314453-0.8701172,0.7861328v0.7216797h-0.296875v-0.7167969
		c-0.3657227-0.0292969-0.7167969-0.1923828-0.9438477-0.3857422l0.1928711-0.28125
		c0.2470703,0.1777344,0.5483398,0.3359375,0.9194336,0.3359375c0.390625,0,0.5981445-0.1777344,0.5981445-0.4306641
		c0-0.6123047-1.5673828-0.5039062-1.5673828-1.3642578c0-0.4150391,0.3212891-0.6972656,0.8007812-0.7460938v-0.6533203h0.296875
		v0.6484375c0.3608398,0.0292969,0.5883789,0.1826172,0.7861328,0.375L0.6625973,78.6337891z"/>
	<path class="st19" d="M6.0942378,78.609375c0.390625,0,0.6772461,0.1582031,0.875,0.3515625l-0.2026367,0.2617188
		c-0.1977539-0.1728516-0.4052734-0.2773438-0.6577148-0.2773438c-0.5537109,0-0.934082,0.3759766-0.934082,0.9296875
		c0,0.5488281,0.3706055,0.9199219,0.9243164,0.9199219c0.296875,0,0.5439453-0.1337891,0.746582-0.3017578l0.1777344,0.2617188
		c-0.2617188,0.2373047-0.5981445,0.3759766-0.9541016,0.3759766c-0.7514648,0-1.3149414-0.4599609-1.3149414-1.2558594
		C4.7543941,79.0693359,5.3676753,78.609375,6.0942378,78.609375z"/>
	<path class="st19" d="M8.7104492,78.609375c0.2919922,0,0.5043945,0.1191406,0.7265625,0.3115234l-0.0146484-0.4453125v-0.9238281
		h0.4052734v3.5195312H9.4916992l-0.034668-0.3164062H9.4423828c-0.1977539,0.203125-0.4848633,0.3759766-0.78125,0.3759766
		c-0.6279297,0-1.0434575-0.4550781-1.0434575-1.2558594C7.6176753,79.09375,8.1420898,78.609375,8.7104492,78.609375z
		 M8.7451172,80.7900391c0.2373047,0,0.4648438-0.1240234,0.6772461-0.3613281v-1.1962891
		c-0.2172852-0.203125-0.425293-0.2822266-0.6328125-0.2822266c-0.4150391,0-0.7514648,0.3710938-0.7514648,0.9199219
		C8.0380859,80.4433594,8.300293,80.7900391,8.7451172,80.7900391z"/>
	<path class="st19" d="M13.543457,78.6689453h0.3164062l0.034668,0.3164062h0.0151367
		c0.1186523-0.2226562,0.2666016-0.3759766,0.5385742-0.3759766c0.2426758,0,0.3955078,0.1386719,0.4550781,0.4150391
		c0.1430664-0.2519531,0.3012695-0.4150391,0.5683594-0.4150391c0.331543,0,0.5239258,0.2617188,0.5239258,0.7412109v1.7207031
		h-0.3901367v-1.6855469c0-0.2822266-0.0844727-0.4248047-0.262207-0.4248047c-0.1728516,0-0.2866211,0.1230469-0.4101562,0.3701172
		v1.7402344h-0.3266602v-1.6855469c0-0.2822266-0.09375-0.4248047-0.2719727-0.4248047
		c-0.1679688,0-0.2763672,0.1230469-0.4003906,0.3701172v1.7402344h-0.390625V78.6689453z"/>
	<path class="st19" d="M16.8427734,81.7685547c0.3364258,0,0.5390625-0.2177734,0.6577148-0.5136719l0.0742188-0.1787109
		l-1.1225586-2.4072266h0.4106445l0.5878906,1.3300781c0.0942383,0.2119141,0.1977539,0.4648438,0.296875,0.6962891h0.0195312
		c0.0839844-0.2265625,0.1782227-0.4794922,0.2573242-0.6962891l0.5239258-1.3300781h0.3857422l-1.0581055,2.6005859
		c-0.1777344,0.4746094-0.4746094,0.8349609-1.0185547,0.8349609c-0.1137695,0-0.2319336-0.0195312-0.3164062-0.0488281
		l0.0844727-0.3212891C16.6894531,81.7539062,16.7685547,81.7685547,16.8427734,81.7685547z"/>
	<path class="st19" d="M21.2387695,80.0830078h-1.1767578l-0.3110352,0.9882812h-0.4204102l1.0927734-3.2431641h0.4643555
		l1.0927734,3.2431641h-0.4350586L21.2387695,80.0830078z M21.1352539,79.7519531l-0.1533203-0.4951172
		c-0.1137695-0.3603516-0.2177734-0.7167969-0.3212891-1.0927734H20.640625
		c-0.1040039,0.3759766-0.2075195,0.7324219-0.3212891,1.0927734l-0.1533203,0.4951172H21.1352539z"/>
	<path class="st19" d="M23.0004883,81.2744141v0.8105469h-0.4052734v-3.4160156h0.3359375l0.034668,0.3066406h0.0146484
		c0.2226562-0.2128906,0.5341797-0.3662109,0.8305664-0.3662109c0.6479492,0,0.9941406,0.4794922,0.9941406,1.2265625
		c0,0.8154297-0.5146484,1.2949219-1.0927734,1.2949219c-0.2226562,0-0.5043945-0.1132812-0.7216797-0.3115234
		L23.0004883,81.2744141z M23.6430664,80.7900391c0.4301758,0,0.7416992-0.3613281,0.7416992-0.9541016
		c0-0.5292969-0.1977539-0.8857422-0.6772461-0.8857422c-0.2128906,0-0.4599609,0.1142578-0.7070312,0.3613281v1.1962891
		C23.2280273,80.7109375,23.4799805,80.7900391,23.6430664,80.7900391z"/>
	<path class="st19" d="M25.9633789,81.2744141v0.8105469h-0.4052734v-3.4160156h0.3359375l0.034668,0.3066406h0.0146484
		c0.2226562-0.2128906,0.5341797-0.3662109,0.8305664-0.3662109c0.6479492,0,0.9941406,0.4794922,0.9941406,1.2265625
		c0,0.8154297-0.5146484,1.2949219-1.0927734,1.2949219c-0.2226562,0-0.5043945-0.1132812-0.7216797-0.3115234
		L25.9633789,81.2744141z M26.605957,80.7900391c0.4301758,0,0.7416992-0.3613281,0.7416992-0.9541016
		c0-0.5292969-0.1977539-0.8857422-0.6772461-0.8857422c-0.2128906,0-0.4599609,0.1142578-0.7070312,0.3613281v1.1962891
		C26.190918,80.7109375,26.4428711,80.7900391,26.605957,80.7900391z"/>
	<path class="st19" d="M28.9165039,81.8623047H28.550293l1.621582-4.3007812h0.3662109L28.9165039,81.8623047z"/>
	<path class="st19" d="M0.6625973,85.4716797c-0.222168-0.1728516-0.3955078-0.2822266-0.7265625-0.2822266
		s-0.5439453,0.1582031-0.5439453,0.4111328c0,0.5429688,1.5722656,0.4394531,1.5722656,1.3447266
		c0,0.4248047-0.3510742,0.7314453-0.8701172,0.7851562v0.7216797h-0.296875v-0.7158203
		c-0.3657227-0.0302734-0.7167969-0.1933594-0.9438477-0.3857422l0.1928711-0.2822266
		c0.2470703,0.1777344,0.5483398,0.3359375,0.9194336,0.3359375c0.390625,0,0.5981445-0.1777344,0.5981445-0.4296875
		c0-0.6132812-1.5673828-0.5039062-1.5673828-1.3642578c0-0.4160156,0.3212891-0.6972656,0.8007812-0.7470703v-0.6523438h0.296875
		v0.6474609c0.3608398,0.0302734,0.5883789,0.1826172,0.7861328,0.3759766L0.6625973,85.4716797z"/>
	<path class="st19" d="M5.2241206,88.1113281v0.8105469H4.8188472v-3.4160156h0.3359375L5.1894526,85.8125h0.0146484
		c0.2226562-0.2119141,0.5341797-0.3652344,0.8305664-0.3652344c0.6479492,0,0.9941406,0.4794922,0.9941406,1.2255859
		c0,0.8154297-0.5146484,1.2949219-1.0927734,1.2949219c-0.2226562,0-0.5043945-0.1132812-0.7216797-0.3105469L5.2241206,88.1113281
		z M5.8666987,87.6269531c0.4301758,0,0.7416992-0.3603516,0.7416992-0.9541016
		c0-0.5292969-0.1977539-0.8847656-0.6772461-0.8847656c-0.2128906,0-0.4599609,0.1132812-0.7070312,0.3603516v1.1972656
		C5.4516597,87.5478516,5.7036128,87.6269531,5.8666987,87.6269531z"/>
	<path class="st19" d="M7.7812495,84.3886719h0.4052739v0.9589844l-0.0200195,0.5693359
		c0.2573242-0.2675781,0.5341797-0.4697266,0.909668-0.4697266c0.5688477,0,0.8305664,0.3359375,0.8305664,0.96875v1.4931641
		H9.5014648v-1.4384766c0-0.4550781-0.1582031-0.6728516-0.5537109-0.6728516c-0.2866211,0-0.4794922,0.1435547-0.7612305,0.4355469
		v1.6757812H7.7812495V84.3886719z"/>
	<path class="st19" d="M11.7670898,85.4472656c0.6328125,0,1.1865234,0.4589844,1.1865234,1.265625
		c0,0.7958984-0.5537109,1.2548828-1.1865234,1.2548828s-1.1865234-0.4589844-1.1865234-1.2548828
		C10.5805664,85.90625,11.1342773,85.4472656,11.7670898,85.4472656z M11.7670898,87.6318359
		c0.4599609,0,0.7666016-0.3701172,0.7666016-0.9189453c0-0.5537109-0.3066406-0.9296875-0.7666016-0.9296875
		c-0.4594727,0-0.7661133,0.3759766-0.7661133,0.9296875C11.0009766,87.2617188,11.3076172,87.6318359,11.7670898,87.6318359z"/>
	<path class="st19" d="M13.7070312,85.5058594h0.3359375l0.034668,0.4111328h0.0195312
		c0.2524414-0.2675781,0.5292969-0.4697266,0.9047852-0.4697266c0.5688477,0,0.8305664,0.3359375,0.8305664,0.96875v1.4931641
		h-0.4052734v-1.4384766c0-0.4550781-0.1582031-0.6728516-0.5537109-0.6728516
		c-0.2866211,0-0.4794922,0.1435547-0.7612305,0.4355469v1.6757812h-0.4052734V85.5058594z"/>
	<path class="st19" d="M17.7719727,85.4472656c0.6875,0,1.0927734,0.4492188,1.0927734,1.1269531
		c0,0.0839844-0.0048828,0.1630859-0.0146484,0.2226562h-1.8789062c0.0297852,0.5185547,0.3955078,0.8447266,0.9199219,0.8447266
		c0.2817383,0,0.5087891-0.0839844,0.7314453-0.2216797l0.1435547,0.2666016
		c-0.2373047,0.1533203-0.5390625,0.28125-0.9248047,0.28125c-0.7119141,0-1.2900391-0.46875-1.2900391-1.2548828
		S17.1494141,85.4472656,17.7719727,85.4472656z M18.4892578,86.5292969c0-0.4892578-0.2670898-0.7607422-0.7119141-0.7607422
		c-0.390625,0-0.7514648,0.2763672-0.8110352,0.7607422H18.4892578z"/>
	<path class="st19" d="M19.9238281,87.8154297v-0.0205078c-0.128418-0.0693359-0.2470703-0.1923828-0.2470703-0.3955078
		c0-0.1533203,0.1035156-0.3261719,0.2866211-0.4492188v-0.0205078c-0.1630859-0.1230469-0.296875-0.3359375-0.296875-0.6230469
		c0-0.5234375,0.4355469-0.859375,0.9443359-0.859375c0.1386719,0,0.2524414,0.0195312,0.355957,0.0585938h0.9936523v0.3115234
		h-0.6425781c0.1137695,0.1191406,0.2226562,0.2919922,0.2226562,0.5048828c0,0.5136719-0.4101562,0.8251953-0.9296875,0.8251953
		c-0.1235352,0-0.2714844-0.0292969-0.4052734-0.0888672c-0.1186523,0.0742188-0.1879883,0.1630859-0.1879883,0.2763672
		c0,0.1933594,0.1831055,0.2773438,0.4995117,0.2773438h0.5390625c0.6176758,0,0.9145508,0.1582031,0.9145508,0.5634766
		c0,0.4501953-0.519043,0.8408203-1.3349609,0.8408203c-0.7021484,0-1.1074219-0.2431641-1.1074219-0.6679688
		C19.5283203,88.15625,19.6665039,87.9628906,19.9238281,87.8154297z M20.6655273,88.734375
		c0.5585938,0,0.9047852-0.2470703,0.9047852-0.4941406c0-0.2275391-0.1831055-0.2919922-0.5488281-0.2919922h-0.4697266
		c-0.1386719,0-0.262207-0.0097656-0.3657227-0.0390625c-0.2275391,0.1230469-0.3066406,0.2617188-0.3066406,0.4003906
		C19.8793945,88.5615234,20.1513672,88.734375,20.6655273,88.734375z M21.1645508,86.3066406
		c0-0.3359375-0.2470703-0.5634766-0.5537109-0.5634766c-0.3012695,0-0.5537109,0.2275391-0.5537109,0.5634766
		c0,0.3466797,0.2524414,0.5693359,0.5537109,0.5693359C20.9174805,86.8759766,21.1645508,86.6533203,21.1645508,86.3066406z"/>
	<path class="st19" d="M24.2758789,86.3857422c-0.0097656-0.3261719-0.1728516-0.6025391-0.6376953-0.6025391
		c-0.3115234,0-0.6181641,0.1484375-0.840332,0.2861328l-0.1582031-0.2763672
		c0.2421875-0.1582031,0.6474609-0.3457031,1.0678711-0.3457031c0.6572266,0,0.9736328,0.390625,0.9736328,0.9882812v1.4736328
		h-0.3310547l-0.034668-0.3261719h-0.0146484c-0.2670898,0.2070312-0.6083984,0.3847656-0.9492188,0.3847656
		c-0.4501953,0-0.815918-0.2519531-0.815918-0.6816406C22.5356445,86.7470703,23.0351562,86.4853516,24.2758789,86.3857422z
		 M23.4604492,87.6416016c0.2714844,0,0.543457-0.1279297,0.8154297-0.3554688v-0.6328125
		c-1.0283203,0.0839844-1.3447266,0.2861328-1.3447266,0.6025391
		C22.9311523,87.5283203,23.1831055,87.6416016,23.4604492,87.6416016z"/>
	<path class="st19" d="M25.9633789,88.1113281v0.8105469h-0.4052734v-3.4160156h0.3359375l0.034668,0.3066406h0.0146484
		c0.2226562-0.2119141,0.5341797-0.3652344,0.8305664-0.3652344c0.6479492,0,0.9941406,0.4794922,0.9941406,1.2255859
		c0,0.8154297-0.5146484,1.2949219-1.0927734,1.2949219c-0.2226562,0-0.5043945-0.1132812-0.7216797-0.3105469
		L25.9633789,88.1113281z M26.605957,87.6269531c0.4301758,0,0.7416992-0.3603516,0.7416992-0.9541016
		c0-0.5292969-0.1977539-0.8847656-0.6772461-0.8847656c-0.2128906,0-0.4599609,0.1132812-0.7070312,0.3603516v1.1972656
		C26.190918,87.5478516,26.4428711,87.6269531,26.605957,87.6269531z"/>
	<path class="st19" d="M31.5776367,87.3251953c0.2670898,0.1982422,0.5634766,0.3261719,0.9936523,0.3261719
		s0.6425781-0.1679688,0.6425781-0.375c0-0.1884766-0.1928711-0.3212891-0.7807617-0.4648438
		c-0.4946289-0.1240234-0.9150391-0.3408203-0.9150391-0.6826172c0-0.3857422,0.3461914-0.6816406,1.0087891-0.6816406
		c0.3608398,0,0.7265625,0.1425781,0.9638672,0.3056641l-0.1977539,0.2626953
		c-0.2124023-0.1484375-0.4692383-0.2519531-0.7661133-0.2519531c-0.449707,0-0.5932617,0.1582031-0.5932617,0.3457031
		c0,0.1972656,0.2963867,0.3164062,0.7319336,0.4248047c0.6474609,0.1630859,0.9589844,0.3515625,0.9589844,0.7167969
		c0,0.390625-0.3808594,0.7167969-1.0678711,0.7167969c-0.4697266,0-0.8852539-0.1728516-1.1767578-0.375L31.5776367,87.3251953z"/>
	<path class="st19" d="M35.5483398,85.4472656c0.6875,0,1.0927734,0.4492188,1.0927734,1.1269531
		c0,0.0839844-0.0048828,0.1630859-0.0146484,0.2226562h-1.8789062c0.0297852,0.5185547,0.3955078,0.8447266,0.9199219,0.8447266
		c0.2817383,0,0.5087891-0.0839844,0.7314453-0.2216797l0.1435547,0.2666016
		c-0.2373047,0.1533203-0.5390625,0.28125-0.9248047,0.28125c-0.7119141,0-1.2900391-0.46875-1.2900391-1.2548828
		S34.9257812,85.4472656,35.5483398,85.4472656z M36.265625,86.5292969c0-0.4892578-0.2670898-0.7607422-0.7119141-0.7607422
		c-0.390625,0-0.7514648,0.2763672-0.8110352,0.7607422H36.265625z"/>
	<path class="st19" d="M37.6708984,85.5058594h0.3364258l0.034668,0.5693359h0.0146484
		c0.2519531-0.3857422,0.6279297-0.6279297,1.0727539-0.6279297c0.1782227,0,0.3212891,0.0244141,0.4697266,0.0986328
		l-0.0839844,0.3505859C39.347168,85.8378906,39.2529297,85.8125,39.0649414,85.8125
		c-0.3608398,0-0.7016602,0.1884766-0.9882812,0.6875v1.4091797h-0.4057617V85.5058594z"/>
	<path class="st19" d="M40.1640625,85.5058594h0.4106445l0.5537109,1.3652344
		c0.0986328,0.2421875,0.1875,0.4794922,0.2719727,0.7070312h0.0195312c0.0839844-0.2275391,0.1630859-0.4648438,0.262207-0.7070312
		l0.5537109-1.3652344h0.390625l-0.9941406,2.4033203h-0.4545898L40.1640625,85.5058594z"/>
	<path class="st19" d="M44.4370117,85.4472656c0.6875,0,1.0927734,0.4492188,1.0927734,1.1269531
		c0,0.0839844-0.0048828,0.1630859-0.0146484,0.2226562h-1.8789062c0.0297852,0.5185547,0.3955078,0.8447266,0.9199219,0.8447266
		c0.2817383,0,0.5087891-0.0839844,0.7314453-0.2216797l0.1435547,0.2666016
		c-0.2373047,0.1533203-0.5390625,0.28125-0.9248047,0.28125c-0.7119141,0-1.2900391-0.46875-1.2900391-1.2548828
		S43.8144531,85.4472656,44.4370117,85.4472656z M45.1542969,86.5292969c0-0.4892578-0.2670898-0.7607422-0.7119141-0.7607422
		c-0.390625,0-0.7514648,0.2763672-0.8110352,0.7607422H45.1542969z"/>
	<path class="st19" d="M46.559082,85.5058594h0.3364258l0.034668,0.5693359h0.0146484
		c0.2519531-0.3857422,0.6279297-0.6279297,1.0727539-0.6279297c0.1782227,0,0.3212891,0.0244141,0.4697266,0.0986328
		l-0.0839844,0.3505859c-0.1679688-0.0585938-0.262207-0.0839844-0.449707-0.0839844
		c-0.3613281,0-0.7021484,0.1884766-0.9892578,0.6875v1.4091797H46.559082V85.5058594z"/>
	<path class="st19" d="M-1.1665043,91.2255859H0.05957v2.7441406c0,0.3515625,0.1831055,0.5,0.4697266,0.5
		c0.1381836,0,0.2768555-0.0351562,0.4545898-0.1142578l0.1040039,0.3066406
		c-0.2172852,0.0791016-0.3857422,0.1435547-0.6474609,0.1435547c-0.5092773,0-0.7861328-0.296875-0.7861328-0.8652344v-2.3828125
		h-0.8208008V91.2255859z"/>
	<path class="st19" d="M1.84082,92.34375h1.5229491v2.4023438H2.9584956v-2.0712891H1.84082V92.34375z M2.7900386,91.5371094
		c0-0.1923828,0.1386719-0.3164062,0.3266602-0.3164062c0.1826172,0,0.3261719,0.1240234,0.3261719,0.3164062
		c0,0.1884766-0.1435547,0.3115234-0.3261719,0.3115234C2.9287105,91.8486328,2.7900386,91.7255859,2.7900386,91.5371094z"/>
	<path class="st19" d="M4.9125972,94.1630859c0.2670898,0.1972656,0.5634766,0.3261719,0.9936523,0.3261719
		s0.6425781-0.1679688,0.6425781-0.3759766c0-0.1875-0.1928711-0.3212891-0.7807617-0.4648438
		c-0.4946289-0.1230469-0.9150391-0.3408203-0.9150391-0.6826172c0-0.3847656,0.3461914-0.6816406,1.0087891-0.6816406
		c0.3608398,0,0.7265625,0.1435547,0.9638672,0.3066406l-0.1977539,0.2617188
		c-0.2124023-0.1484375-0.4692383-0.2519531-0.7661133-0.2519531c-0.449707,0-0.5932617,0.1582031-0.5932617,0.3457031
		c0,0.1982422,0.2963867,0.3164062,0.7319336,0.4257812c0.6474609,0.1630859,0.9589844,0.3505859,0.9589844,0.7167969
		c0,0.390625-0.3808594,0.7167969-1.0678711,0.7167969c-0.4697266,0-0.8852539-0.1728516-1.1767578-0.3759766L4.9125972,94.1630859z
		"/>
	<path class="st19" d="M8.3398438,92.6748047H7.6625972v-0.3066406l0.691895-0.0244141l0.0541992-0.6728516h0.3364258V92.34375
		H9.921875v0.3310547H8.7451172v1.1416016c0,0.4306641,0.1435547,0.6582031,0.6079102,0.6582031
		c0.2275391,0,0.4106445-0.0449219,0.5786133-0.109375l0.0839844,0.296875
		c-0.2124023,0.0791016-0.4892578,0.1435547-0.7514648,0.1435547c-0.6972656,0-0.9243164-0.4003906-0.9243164-0.9941406V92.6748047z
		"/>
	<path class="st19" d="M11.8461914,92.2841797c0.6875,0,1.0927734,0.4501953,1.0927734,1.1269531
		c0,0.0839844-0.0048828,0.1630859-0.0146484,0.2226562h-1.8789062c0.0297852,0.5195312,0.3955078,0.8457031,0.9199219,0.8457031
		c0.2817383,0,0.5087891-0.0839844,0.7314453-0.2226562l0.1435547,0.2666016
		c-0.2373047,0.1533203-0.5390625,0.2822266-0.9248047,0.2822266c-0.7119141,0-1.2900391-0.4697266-1.2900391-1.2558594
		S11.2236328,92.2841797,11.8461914,92.2841797z M12.5634766,93.3671875c0-0.4902344-0.2670898-0.7617188-0.7119141-0.7617188
		c-0.390625,0-0.7514648,0.2763672-0.8110352,0.7617188H12.5634766z"/>
	<path class="st19" d="M13.7070312,92.34375h0.3359375l0.034668,0.4101562h0.0195312
		c0.2524414-0.2675781,0.5292969-0.4697266,0.9047852-0.4697266c0.5688477,0,0.8305664,0.3359375,0.8305664,0.96875v1.4931641
		h-0.4052734v-1.4384766c0-0.4550781-0.1582031-0.6728516-0.5537109-0.6728516
		c-0.2866211,0-0.4794922,0.1435547-0.7612305,0.4355469v1.6757812h-0.4052734V92.34375z"/>
	<path class="st19" d="M16.6547852,92.34375h1.5229492v2.4023438h-0.4057617v-2.0712891h-1.1171875V92.34375z
		 M17.6040039,91.5371094c0-0.1923828,0.1386719-0.3164062,0.3261719-0.3164062
		c0.1831055,0,0.3266602,0.1240234,0.3266602,0.3164062c0,0.1884766-0.1435547,0.3115234-0.3266602,0.3115234
		C17.7426758,91.8486328,17.6040039,91.7255859,17.6040039,91.5371094z"/>
	<path class="st19" d="M19.6323242,92.34375h0.3359375l0.034668,0.4101562h0.0200195
		c0.2519531-0.2675781,0.5288086-0.4697266,0.9042969-0.4697266c0.5688477,0,0.8305664,0.3359375,0.8305664,0.96875v1.4931641
		h-0.4052734v-1.4384766c0-0.4550781-0.1582031-0.6728516-0.5537109-0.6728516
		c-0.2866211,0-0.4794922,0.1435547-0.7612305,0.4355469v1.6757812h-0.4052734V92.34375z"/>
	<path class="st19" d="M22.8867188,94.6523438v-0.0195312c-0.128418-0.0693359-0.2470703-0.1933594-0.2470703-0.3955078
		c0-0.1533203,0.1035156-0.3271484,0.2866211-0.4501953v-0.0195312c-0.1630859-0.1240234-0.296875-0.3369141-0.296875-0.6230469
		c0-0.5244141,0.4355469-0.8603516,0.9443359-0.8603516c0.1386719,0,0.2524414,0.0195312,0.355957,0.0595703h0.9936523v0.3115234
		h-0.6425781c0.1137695,0.1181641,0.2226562,0.2910156,0.2226562,0.5039062c0,0.5136719-0.4101562,0.8251953-0.9296875,0.8251953
		c-0.1235352,0-0.2714844-0.0292969-0.4052734-0.0888672c-0.1186523,0.0742188-0.1879883,0.1630859-0.1879883,0.2773438
		c0,0.1923828,0.1831055,0.2763672,0.4995117,0.2763672h0.5390625c0.6176758,0,0.9145508,0.1582031,0.9145508,0.5634766
		c0,0.4501953-0.519043,0.8408203-1.3349609,0.8408203c-0.7021484,0-1.1074219-0.2421875-1.1074219-0.6669922
		C22.4912109,94.9931641,22.6293945,94.8007812,22.8867188,94.6523438z M23.628418,95.5712891
		c0.5585938,0,0.9047852-0.2470703,0.9047852-0.4941406c0-0.2275391-0.1831055-0.2910156-0.5488281-0.2910156h-0.4697266
		c-0.1386719,0-0.262207-0.0107422-0.3657227-0.0400391c-0.2275391,0.1240234-0.3066406,0.2617188-0.3066406,0.4003906
		C22.8422852,95.3984375,23.1142578,95.5712891,23.628418,95.5712891z M24.1274414,93.1445312
		c0-0.3369141-0.2470703-0.5634766-0.5537109-0.5634766c-0.3012695,0-0.5537109,0.2265625-0.5537109,0.5634766
		c0,0.3457031,0.2524414,0.5683594,0.5537109,0.5683594C23.8803711,93.7128906,24.1274414,93.4902344,24.1274414,93.1445312z"/>
	<path class="st19" d="M29.5444336,92.2841797c0.6328125,0,1.1865234,0.4599609,1.1865234,1.265625
		c0,0.7958984-0.5537109,1.2558594-1.1865234,1.2558594s-1.1865234-0.4599609-1.1865234-1.2558594
		C28.3579102,92.7441406,28.9116211,92.2841797,29.5444336,92.2841797z M29.5444336,94.4697266
		c0.4594727,0,0.7661133-0.3710938,0.7661133-0.9199219c0-0.5537109-0.3066406-0.9296875-0.7661133-0.9296875
		c-0.4599609,0-0.7666016,0.3759766-0.7666016,0.9296875C28.777832,94.0986328,29.0844727,94.4697266,29.5444336,94.4697266z"/>
	<path class="st19" d="M31.4838867,92.34375h0.3359375l0.034668,0.4101562h0.0200195
		c0.2519531-0.2675781,0.5288086-0.4697266,0.9042969-0.4697266c0.5688477,0,0.8305664,0.3359375,0.8305664,0.96875v1.4931641
		h-0.4052734v-1.4384766c0-0.4550781-0.1582031-0.6728516-0.5537109-0.6728516
		c-0.2866211,0-0.4794922,0.1435547-0.7612305,0.4355469v1.6757812h-0.4052734V92.34375z"/>
	<path class="st19" d="M39.5595703,94.4101562v0.3359375h-2.1259766v-0.3359375h0.8950195v-2.3242188H37.65625v-0.2617188
		c0.3359375-0.0498047,0.5786133-0.1289062,0.7758789-0.2324219h0.3017578v2.8183594H39.5595703z"/>
	<path class="st19" d="M40.2729492,94.5039062c1.0678711-0.9443359,1.65625-1.4980469,1.65625-2.0224609
		c0-0.3603516-0.2226562-0.6171875-0.6870117-0.6171875c-0.296875,0-0.5537109,0.1679688-0.7563477,0.3798828l-0.2324219-0.2324219
		c0.2817383-0.2861328,0.5932617-0.4794922,1.0380859-0.4794922c0.6328125,0,1.0283203,0.3710938,1.0283203,0.9296875
		c0,0.59375-0.5932617,1.1816406-1.4536133,1.9628906c0.1928711-0.0146484,0.4003906-0.0292969,0.5883789-0.0292969h1.0380859
		v0.3505859h-2.2197266V94.5039062z"/>
	<path class="st19" d="M45.0405273,91.9433594h-1.8193359v-0.3515625h2.2841797V91.84375
		c-0.8359375,0.9541016-1.043457,1.6660156-1.0878906,2.9023438h-0.425293
		C44.046875,93.5498047,44.3188477,92.828125,45.0405273,91.9433594z"/>
	<path class="st19" d="M47.3208008,93.9697266c0.222168,0,0.4003906,0.1679688,0.4003906,0.4199219
		c0,0.2480469-0.1782227,0.4160156-0.4003906,0.4160156c-0.2226562,0-0.4008789-0.1679688-0.4008789-0.4160156
		C46.9199219,94.1376953,47.0981445,93.9697266,47.3208008,93.9697266z"/>
	<path class="st19" d="M49.1513672,93.1591797c0-1.0576172,0.4301758-1.6269531,1.1323242-1.6269531
		c0.7016602,0,1.1318359,0.5693359,1.1318359,1.6269531c0,1.0478516-0.4301758,1.6464844-1.1318359,1.6464844
		C49.581543,94.8056641,49.1513672,94.2070312,49.1513672,93.1591797z M49.5317383,93.1591797
		c0,0.9042969,0.3115234,1.3203125,0.7519531,1.3203125c0.4399414,0,0.7509766-0.4160156,0.7509766-1.3203125
		c0-0.9101562-0.3110352-1.3007812-0.7509766-1.3007812C49.8432617,91.8583984,49.5317383,92.2490234,49.5317383,93.1591797z
		 M49.9770508,93.1240234c0-0.2021484,0.1430664-0.3261719,0.3066406-0.3261719
		c0.1630859,0,0.3061523,0.1240234,0.3061523,0.3261719c0,0.2080078-0.1430664,0.3320312-0.3061523,0.3320312
		C50.1201172,93.4560547,49.9770508,93.3320312,49.9770508,93.1240234z"/>
	<path class="st19" d="M53.246582,93.9697266c0.222168,0,0.4003906,0.1679688,0.4003906,0.4199219
		c0,0.2480469-0.1782227,0.4160156-0.4003906,0.4160156c-0.2226562,0-0.4008789-0.1679688-0.4008789-0.4160156
		C52.8457031,94.1376953,53.0239258,93.9697266,53.246582,93.9697266z"/>
	<path class="st19" d="M55.0771484,93.1591797c0-1.0576172,0.4301758-1.6269531,1.1323242-1.6269531
		c0.7016602,0,1.1318359,0.5693359,1.1318359,1.6269531c0,1.0478516-0.4301758,1.6464844-1.1318359,1.6464844
		C55.5073242,94.8056641,55.0771484,94.2070312,55.0771484,93.1591797z M55.4575195,93.1591797
		c0,0.9042969,0.3115234,1.3203125,0.7519531,1.3203125c0.4399414,0,0.7509766-0.4160156,0.7509766-1.3203125
		c0-0.9101562-0.3110352-1.3007812-0.7509766-1.3007812C55.769043,91.8583984,55.4575195,92.2490234,55.4575195,93.1591797z
		 M55.902832,93.1240234c0-0.2021484,0.1430664-0.3261719,0.3066406-0.3261719c0.1630859,0,0.3061523,0.1240234,0.3061523,0.3261719
		c0,0.2080078-0.1430664,0.3320312-0.3061523,0.3320312C56.0458984,93.4560547,55.902832,93.3320312,55.902832,93.1240234z"/>
	<path class="st19" d="M59.1723633,93.9697266c0.222168,0,0.4003906,0.1679688,0.4003906,0.4199219
		c0,0.2480469-0.1782227,0.4160156-0.4003906,0.4160156c-0.2226562,0-0.4008789-0.1679688-0.4008789-0.4160156
		C58.7714844,94.1376953,58.949707,93.9697266,59.1723633,93.9697266z"/>
	<path class="st19" d="M63.2617188,94.4101562v0.3359375h-2.1259766v-0.3359375h0.8950195v-2.3242188h-0.6723633v-0.2617188
		c0.3359375-0.0498047,0.5786133-0.1289062,0.7758789-0.2324219h0.3017578v2.8183594H63.2617188z"/>
	<path class="st19" d="M65.097168,92.2001953c0.2226562,0,0.4008789,0.1679688,0.4008789,0.4150391
		c0,0.2519531-0.1782227,0.4199219-0.4008789,0.4199219c-0.222168,0-0.4003906-0.1679688-0.4003906-0.4199219
		C64.6967773,92.3681641,64.875,92.2001953,65.097168,92.2001953z M65.097168,93.9697266
		c0.2226562,0,0.4008789,0.1679688,0.4008789,0.4199219c0,0.2480469-0.1782227,0.4160156-0.4008789,0.4160156
		c-0.222168,0-0.4003906-0.1679688-0.4003906-0.4160156C64.6967773,94.1376953,64.875,93.9697266,65.097168,93.9697266z"/>
	<path class="st19" d="M67.0664062,94.09375c0.2080078,0.1972656,0.4995117,0.3759766,0.9047852,0.3759766
		c0.4301758,0,0.7563477-0.2275391,0.7563477-0.5791016c0-0.3759766-0.3164062-0.6279297-1.1469727-0.6279297v-0.3115234
		c0.746582,0,1.0332031-0.2568359,1.0332031-0.5878906c0-0.3066406-0.2568359-0.4990234-0.6425781-0.4990234
		c-0.2963867,0-0.5683594,0.1328125-0.7758789,0.3212891l-0.2177734-0.2578125
		c0.262207-0.2275391,0.6030273-0.3955078,1.0087891-0.3955078c0.5932617,0,1.0429688,0.2919922,1.0429688,0.8007812
		c0,0.3808594-0.2817383,0.6230469-0.6723633,0.7519531v0.0195312c0.4204102,0.0888672,0.78125,0.3662109,0.78125,0.8007812
		c0,0.5585938-0.5141602,0.9003906-1.1420898,0.9003906c-0.5439453,0-0.9047852-0.2128906-1.137207-0.4453125L67.0664062,94.09375z"
		/>
	<path class="st19" d="M69.8911133,93.1591797c0-1.0576172,0.4301758-1.6269531,1.1318359-1.6269531
		c0.7021484,0,1.1323242,0.5693359,1.1323242,1.6269531c0,1.0478516-0.4301758,1.6464844-1.1323242,1.6464844
		C70.3212891,94.8056641,69.8911133,94.2070312,69.8911133,93.1591797z M70.2719727,93.1591797
		c0,0.9042969,0.3110352,1.3203125,0.7509766,1.3203125c0.4404297,0,0.7519531-0.4160156,0.7519531-1.3203125
		c0-0.9101562-0.3115234-1.3007812-0.7519531-1.3007812C70.5830078,91.8583984,70.2719727,92.2490234,70.2719727,93.1591797z
		 M70.7167969,93.1240234c0-0.2021484,0.1430664-0.3261719,0.3061523-0.3261719
		c0.1635742,0,0.3066406,0.1240234,0.3066406,0.3261719c0,0.2080078-0.1430664,0.3320312-0.3066406,0.3320312
		C70.8598633,93.4560547,70.7167969,93.3320312,70.7167969,93.1240234z"/>
	<path class="st19" d="M72.8540039,93.1591797c0-1.0576172,0.4301758-1.6269531,1.1318359-1.6269531
		c0.7021484,0,1.1333008,0.5693359,1.1333008,1.6269531c0,1.0478516-0.4311523,1.6464844-1.1333008,1.6464844
		C73.2841797,94.8056641,72.8540039,94.2070312,72.8540039,93.1591797z M73.2348633,93.1591797
		c0,0.9042969,0.3110352,1.3203125,0.7509766,1.3203125c0.4404297,0,0.7519531-0.4160156,0.7519531-1.3203125
		c0-0.9101562-0.3115234-1.3007812-0.7519531-1.3007812C73.5458984,91.8583984,73.2348633,92.2490234,73.2348633,93.1591797z
		 M73.6796875,93.1240234c0-0.2021484,0.1430664-0.3261719,0.3061523-0.3261719
		c0.1635742,0,0.3066406,0.1240234,0.3066406,0.3261719c0,0.2080078-0.1430664,0.3320312-0.3066406,0.3320312
		C73.8227539,93.4560547,73.6796875,93.3320312,73.6796875,93.1240234z"/>
	<path class="st19" d="M75.8164062,93.1591797c0-1.0576172,0.4306641-1.6269531,1.1328125-1.6269531
		s1.1318359,0.5693359,1.1318359,1.6269531c0,1.0478516-0.4296875,1.6464844-1.1318359,1.6464844
		S75.8164062,94.2070312,75.8164062,93.1591797z M76.1972656,93.1591797c0,0.9042969,0.3115234,1.3203125,0.7519531,1.3203125
		c0.4394531,0,0.7509766-0.4160156,0.7509766-1.3203125c0-0.9101562-0.3115234-1.3007812-0.7509766-1.3007812
		C76.5087891,91.8583984,76.1972656,92.2490234,76.1972656,93.1591797z M76.6425781,93.1240234
		c0-0.2021484,0.1435547-0.3261719,0.3066406-0.3261719s0.3066406,0.1240234,0.3066406,0.3261719
		c0,0.2080078-0.1435547,0.3320312-0.3066406,0.3320312S76.6425781,93.3320312,76.6425781,93.1240234z"/>
</g>
<g id="term">
	<g>
		<rect x="-3.9280057" y="58.8386536" class="st20" width="84.2797241" height="7.4013762"/>
	</g>
</g>
<g id="Expanded">
	<g>
		<g>
			<path class="st21" d="M88.6687012,93.208107c-0.4938049,0-0.9580307-0.1925049-1.3071289-0.5416031l-0.3736572-0.3731308
				c-0.7206345-0.7206345-0.7206345-1.8936157,0-2.6139908l2.4273071-2.4272995
				c0.3490906-0.3490982,0.813324-0.5416031,1.3071289-0.5416031s0.9580307,0.1925049,1.3068619,0.5416031l0.3733902,0.3733902
				c0.1032486,0.1032486,0.1032486,0.2701416,0,0.3733902s-0.2701416,0.1032486-0.3733902,0l-0.3733902-0.3733902
				c-0.2492752-0.2492828-0.5809479-0.3868637-0.9334717-0.3868637c-0.3527985,0-0.6844635,0.1375809-0.9337387,0.3868637
				l-2.4273071,2.4270325c-0.5146637,0.5146713-0.5146637,1.3522873,0,1.867218l0.3733902,0.3733902
				c0.2492828,0.2492752,0.5809479,0.3868561,0.9337463,0.3868561c0.3525238,0,0.6841965-0.1375809,0.9334717-0.3868561
				l1.6807861-1.6805191c0.1032486-0.1032486,0.2701416-0.1032486,0.3733902,0s0.1032486,0.2701416,0,0.3733902
				l-1.6805191,1.6805191C89.6267395,93.0158615,89.1625061,93.208107,88.6687012,93.208107z"/>
		</g>
		<g>
			<path class="st21" d="M91.8427811,90.0337601c-0.4935379,0-0.9580307-0.1925049-1.3068619-0.5416031
				c-0.1032486-0.1032486-0.1032486-0.2701416,0-0.3733902s0.2701416-0.1032486,0.3733902,0
				c0.2492752,0.2492828,0.5809479,0.3868561,0.9334717,0.3868561c0.3527985,0,0.6844635-0.1375732,0.9337387-0.3868561
				l2.4273071-2.4272995c0.5146637-0.5146637,0.5146637-1.3522873,0-1.866951l-0.3731308-0.3739166
				c-0.5146637-0.5146713-1.3525467-0.5146713-1.8672104,0l-1.6807861,1.6807861
				c-0.1032486,0.1032486-0.2701416,0.1032486-0.3733902,0c-0.1032486-0.1032562-0.1032486-0.2701416,0-0.3733902
				l1.6805191-1.6805267c0.7206345-0.7206345,1.8933563-0.7206345,2.6139984,0l0.3733902,0.3736572
				c0.7206345,0.7206345,0.7206345,1.8933563,0,2.6137314L93.14991,89.492157
				C92.8010788,89.8412552,92.336586,90.0337601,91.8427811,90.0337601z"/>
		</g>
	</g>
</g>
</svg>
