<?xml version="1.0" encoding="utf-8"?>
<!-- Generator: Adobe Illustrator 17.1.0, SVG Export Plug-In . SVG Version: 6.00 Build 0)  -->
<!DOCTYPE svg PUBLIC "-//W3C//DTD SVG 1.1//EN" "http://www.w3.org/Graphics/SVG/1.1/DTD/svg11.dtd">
<svg version="1.1" id="Layer_1" xmlns="http://www.w3.org/2000/svg" xmlns:xlink="http://www.w3.org/1999/xlink" x="0px" y="0px"
	 viewBox="0.503841 -9.0688839 219.2240906 109.1839066"
	 style="enable-background:new 0.503841 -9.0688839 219.2240906 109.1839066;" xml:space="preserve">
<style type="text/css">
	.st0{fill:#222222;}
	.st1{fill:#EEEEEE;}
	.st2{fill:#606060;}
	.st3{fill:#A0A0A0;}
	.st4{enable-background:new    ;}
	.st5{fill:#FFFFFF;}
	.st6{fill:#7A7E82;}
	.st7{fill:#D6D6D6;}
	.st8{fill:#B5B5B5;}
	.st9{fill:#6D6D6D;}
	.st10{fill:#0B2F47;}
	.st11{fill:#868687;}
	.st12{fill:#00CAF9;}
	.st13{fill:#15497C;}
</style>
<g id="computer">
	<g>
		<g>
			<g>
				<path class="st0" d="M167.5329285-9.0675001H26.2348061c-3.5404835,0-6.4483128,2.9078336-6.4483128,6.4476237v89.9628601
					h154.1954346V-2.6184916C173.9819336-6.1589746,171.0720367-9.0675001,167.5329285-9.0675001z"/>
			</g>
			<g>
				<path class="st1" d="M0.503841,87.2806931c0,7.0809555,5.7533708,12.8343277,12.833642,12.8343277l0,0l0,0h166.839447
					c7.0802765,0,12.8343353-5.7533722,12.8343353-12.8343277H0.503841z"/>
			</g>
			<g>
				<g id="XMLID_1_">
					<g>
						<path class="st2" d="M173.984024-2.6177998V87.344368H19.7878761V-2.6177998
							c0-3.5439434,2.9071407-6.4510841,6.4441643-6.4510841h141.3008881
							C171.0699463-9.0688839,173.984024-6.1617427,173.984024-2.6177998z M168.7996063,82.0976715v-84.777771
							c0-0.6990983-0.5675812-1.2666829-1.2666779-1.2666829v0.0622962H26.1697445
							c-0.6921768,0-1.2666855,0.5675843-1.2666855,1.2666826v84.7154694H168.7996063z"/>
					</g>
				</g>
			</g>
			<path class="st3" d="M109.7493515,87.2806931h-6.4483109H92.8062592h-2.4025345h-6.4483185h-6.4483109
				c0,3.5397873,2.9085236,6.4483109,6.4483109,6.4483109h25.7309647c3.5404892,0,6.4483109-2.8441544,6.4483109-6.4483109
				H109.7493515z"/>
		</g>
	</g>
</g>
<g class="st4">
	<path class="st5" d="M32.418457,17.6069336c-0.3779297-0.2939453-0.6713867-0.4785156-1.2338867-0.4785156
		s-0.9233398,0.2685547-0.9233398,0.6962891c0,0.9233398,2.6689453,0.7470703,2.6689453,2.2827148
		c0,0.722168-0.5957031,1.2421875-1.4770508,1.3344727v1.2255859h-0.503418v-1.2172852
		c-0.6210938-0.050293-1.2167969-0.3271484-1.6030273-0.6542969l0.3271484-0.4785156
		c0.4199219,0.3022461,0.9316406,0.5708008,1.5610352,0.5708008c0.6630859,0,1.015625-0.3022461,1.015625-0.7299805
		c0-1.0410156-2.6606445-0.8564453-2.6606445-2.3164062c0-0.7050781,0.5458984-1.1835938,1.3598633-1.2675781v-1.1074219h0.503418
		v1.0991211c0.612793,0.050293,0.9985352,0.3105469,1.3344727,0.6381836L32.418457,17.6069336z"/>
	<path class="st5" d="M40.1801758,22.0883789v1.3759766h-0.6884766v-5.7988281H40.0625l0.0585938,0.5200195h0.0253906
		c0.3779297-0.3608398,0.90625-0.6206055,1.4101562-0.6206055c1.0991211,0,1.6865234,0.8139648,1.6865234,2.0810547
		c0,1.3847656-0.8725586,2.1987305-1.8544922,2.1987305c-0.3779297,0-0.855957-0.1928711-1.2255859-0.5288086L40.1801758,22.0883789
		z M41.2709961,21.265625c0.7299805,0,1.2587891-0.6123047,1.2587891-1.6196289
		c0-0.8979492-0.3354492-1.5019531-1.1494141-1.5019531c-0.3608398,0-0.7807617,0.1928711-1.2001953,0.6123047v2.03125
		C40.565918,21.1313477,40.9941406,21.265625,41.2709961,21.265625z"/>
	<path class="st5" d="M44.5302734,15.7685547H45.21875v1.628418l-0.0336914,0.9648438
		c0.4365234-0.453125,0.90625-0.796875,1.5444336-0.796875c0.9648438,0,1.409668,0.5703125,1.409668,1.6445312v2.534668h-0.6879883
		v-2.4423828c0-0.7719727-0.2685547-1.1411133-0.9399414-1.1411133c-0.4868164,0-0.8139648,0.2431641-1.2924805,0.7382812v2.8452148
		h-0.6884766V15.7685547z"/>
	<path class="st5" d="M51.3066406,17.5649414c1.0742188,0,2.0141602,0.7802734,2.0141602,2.1484375
		c0,1.3510742-0.9399414,2.1313477-2.0141602,2.1313477s-2.0141602-0.7802734-2.0141602-2.1313477
		C49.2924805,18.3452148,50.2324219,17.5649414,51.3066406,17.5649414z M51.3066406,21.2744141
		c0.7807617,0,1.3007812-0.6298828,1.3007812-1.5610352c0-0.9399414-0.5200195-1.578125-1.3007812-1.578125
		c-0.7802734,0-1.3007812,0.6381836-1.3007812,1.578125C50.0058594,20.6445312,50.5263672,21.2744141,51.3066406,21.2744141z"/>
	<path class="st5" d="M54.6083984,17.6655273h0.5708008l0.059082,0.6962891h0.0332031
		c0.4282227-0.453125,0.8979492-0.796875,1.5361328-0.796875c0.9648438,0,1.409668,0.5703125,1.409668,1.6445312v2.534668
		h-0.6879883v-2.4423828c0-0.7719727-0.2685547-1.1411133-0.9399414-1.1411133
		c-0.4868164,0-0.8139648,0.2431641-1.2924805,0.7382812v2.8452148h-0.6884766V17.6655273z"/>
	<path class="st5" d="M61.519043,17.5649414c1.1665039,0,1.8549805,0.7636719,1.8549805,1.9130859
		c0,0.1430664-0.0087891,0.2773438-0.0253906,0.3779297H60.159668c0.050293,0.8813477,0.6713867,1.4350586,1.5610352,1.4350586
		c0.4780273,0,0.8642578-0.1425781,1.2421875-0.3779297l0.2431641,0.4536133
		c-0.402832,0.2597656-0.9150391,0.4780273-1.5693359,0.4780273c-1.2084961,0-2.1904297-0.7973633-2.1904297-2.1313477
		C59.4462891,18.3789062,60.4619141,17.5649414,61.519043,17.5649414z M62.7358398,19.402832
		c0-0.8310547-0.453125-1.2924805-1.2084961-1.2924805c-0.6625977,0-1.2753906,0.4697266-1.3759766,1.2924805H62.7358398z"/>
	<path class="st5" d="M65.1816406,21.5844727v-0.0332031c-0.2182617-0.1176758-0.4199219-0.3276367-0.4199219-0.6713867
		c0-0.2602539,0.1762695-0.5541992,0.4868164-0.7636719v-0.0336914c-0.2768555-0.2099609-0.503418-0.5708008-0.503418-1.0576172
		c0-0.8896484,0.7382812-1.4599609,1.6030273-1.4599609c0.2348633,0,0.4277344,0.0332031,0.6040039,0.1005859h1.6870117v0.5288086
		h-1.0913086c0.1933594,0.2011719,0.3779297,0.4951172,0.3779297,0.855957c0,0.8725586-0.6967773,1.4013672-1.5776367,1.4013672
		c-0.2099609,0-0.4619141-0.050293-0.6884766-0.1508789c-0.2011719,0.1259766-0.3188477,0.2768555-0.3188477,0.4697266
		c0,0.3276367,0.3105469,0.4702148,0.8476562,0.4702148h0.9145508c1.0493164,0,1.5527344,0.2685547,1.5527344,0.956543
		c0,0.7636719-0.8813477,1.4267578-2.2661133,1.4267578c-1.1914062,0-1.8798828-0.4111328-1.8798828-1.1328125
		C64.5097656,22.1635742,64.7451172,21.8364258,65.1816406,21.5844727z M66.4404297,23.1455078
		c0.9482422,0,1.5356445-0.4194336,1.5356445-0.8388672c0-0.3862305-0.3105469-0.4951172-0.9316406-0.4951172h-0.7973633
		c-0.2348633,0-0.4448242-0.0170898-0.6210938-0.0673828c-0.3857422,0.2099609-0.5200195,0.4448242-0.5200195,0.6796875
		C65.105957,22.8520508,65.5673828,23.1455078,66.4404297,23.1455078z M67.2880859,19.0249023
		c0-0.5708008-0.4199219-0.956543-0.9399414-0.956543c-0.512207,0-0.9399414,0.3857422-0.9399414,0.956543
		c0,0.5874023,0.4277344,0.965332,0.9399414,0.965332C66.8681641,19.9902344,67.2880859,19.6123047,67.2880859,19.0249023z"/>
	<path class="st5" d="M72.5786133,19.1591797c-0.0166016-0.5537109-0.293457-1.0239258-1.0825195-1.0239258
		c-0.5288086,0-1.0488281,0.2519531-1.4267578,0.4868164l-0.2685547-0.4697266
		c0.4111328-0.2685547,1.0996094-0.5874023,1.8129883-0.5874023c1.1162109,0,1.6533203,0.6625977,1.6533203,1.6782227v2.5009766
		h-0.5625l-0.0585938-0.5537109h-0.0253906c-0.453125,0.3525391-1.0322266,0.6542969-1.6113281,0.6542969
		c-0.7636719,0-1.3847656-0.4277344-1.3847656-1.1582031C69.6245117,19.7719727,70.472168,19.3271484,72.5786133,19.1591797z
		 M71.1938477,21.2910156c0.4619141,0,0.9233398-0.2182617,1.3847656-0.6044922v-1.0742188
		c-1.7456055,0.1430664-2.2827148,0.4868164-2.2827148,1.0239258
		C70.2958984,21.0981445,70.7241211,21.2910156,71.1938477,21.2910156z"/>
	<path class="st5" d="M75.4521484,22.0883789v1.3759766h-0.6879883v-5.7988281h0.5708008l0.0585938,0.5200195h0.0253906
		c0.3779297-0.3608398,0.90625-0.6206055,1.4101562-0.6206055c1.0996094,0,1.6865234,0.8139648,1.6865234,2.0810547
		c0,1.3847656-0.8730469,2.1987305-1.8544922,2.1987305c-0.3779297,0-0.8564453-0.1928711-1.2255859-0.5288086
		L75.4521484,22.0883789z M76.5439453,21.265625c0.7294922,0,1.2587891-0.6123047,1.2587891-1.6196289
		c0-0.8979492-0.3359375-1.5019531-1.1503906-1.5019531c-0.3603516,0-0.7802734,0.1928711-1.2001953,0.6123047v2.03125
		C75.8388672,21.1313477,76.2666016,21.265625,76.5439453,21.265625z"/>
	<path class="st5" d="M87.0068359,17.5649414c0.6630859,0,1.1503906,0.2685547,1.4853516,0.5957031l-0.34375,0.4448242
		c-0.3359375-0.2939453-0.6884766-0.4702148-1.1162109-0.4702148c-0.9394531,0-1.5859375,0.6381836-1.5859375,1.578125
		c0,0.9311523,0.6298828,1.5610352,1.5693359,1.5610352c0.5039062,0,0.9228516-0.2270508,1.2675781-0.512207l0.3017578,0.4448242
		c-0.4443359,0.402832-1.015625,0.6376953-1.6201172,0.6376953c-1.2753906,0-2.2324219-0.7802734-2.2324219-2.1313477
		C84.7324219,18.3452148,85.7734375,17.5649414,87.0068359,17.5649414z"/>
	<path class="st5" d="M90.3261719,17.6655273h0.5703125l0.0585938,0.9648438h0.0253906
		c0.4277344-0.6542969,1.0654297-1.0654297,1.8212891-1.0654297c0.3017578,0,0.5449219,0.0419922,0.796875,0.1674805
		l-0.1425781,0.5961914c-0.2851562-0.1010742-0.4443359-0.1430664-0.7636719-0.1430664
		c-0.6123047,0-1.1914062,0.3193359-1.6787109,1.1669922v2.3916016h-0.6875V17.6655273z"/>
	<path class="st5" d="M96.7919922,17.5649414c1.1660156,0,1.8544922,0.7636719,1.8544922,1.9130859
		c0,0.1430664-0.0087891,0.2773438-0.0253906,0.3779297h-3.1894531c0.0507812,0.8813477,0.671875,1.4350586,1.5615234,1.4350586
		c0.4785156,0,0.8642578-0.1425781,1.2421875-0.3779297l0.2431641,0.4536133
		c-0.4033203,0.2597656-0.9150391,0.4780273-1.5693359,0.4780273c-1.2089844,0-2.1904297-0.7973633-2.1904297-2.1313477
		C94.71875,18.3789062,95.734375,17.5649414,96.7919922,17.5649414z M98.0087891,19.402832
		c0-0.8310547-0.453125-1.2924805-1.2089844-1.2924805c-0.6630859,0-1.2753906,0.4697266-1.3759766,1.2924805H98.0087891z"/>
	<path class="st5" d="M102.8125,19.1591797c-0.0166016-0.5537109-0.2939453-1.0239258-1.0820312-1.0239258
		c-0.5292969,0-1.0498047,0.2519531-1.4267578,0.4868164l-0.2685547-0.4697266
		c0.4111328-0.2685547,1.0986328-0.5874023,1.8125-0.5874023c1.1162109,0,1.6533203,0.6625977,1.6533203,1.6782227v2.5009766
		h-0.5625l-0.0585938-0.5537109h-0.0253906c-0.453125,0.3525391-1.0322266,0.6542969-1.6113281,0.6542969
		c-0.7636719,0-1.3847656-0.4277344-1.3847656-1.1582031C99.8583984,19.7719727,100.7060547,19.3271484,102.8125,19.1591797z
		 M101.4277344,21.2910156c0.4619141,0,0.9228516-0.2182617,1.3847656-0.6044922v-1.0742188
		c-1.7451172,0.1430664-2.2822266,0.4868164-2.2822266,1.0239258
		C100.5302734,21.0981445,100.9580078,21.2910156,101.4277344,21.2910156z"/>
	<path class="st5" d="M105.9462891,18.2275391h-1.1494141v-0.5200195l1.1748047-0.0419922l0.0927734-1.1416016h0.5703125v1.1416016
		h1.9970703v0.5620117h-1.9970703v1.9389648c0,0.7299805,0.2431641,1.1162109,1.0322266,1.1162109
		c0.3857422,0,0.6962891-0.0756836,0.9814453-0.1845703l0.1435547,0.503418
		c-0.3613281,0.1342773-0.8310547,0.2431641-1.2763672,0.2431641c-1.1826172,0-1.5693359-0.6796875-1.5693359-1.6865234V18.2275391z
		"/>
	<path class="st5" d="M111.9091797,17.5649414c1.1660156,0,1.8544922,0.7636719,1.8544922,1.9130859
		c0,0.1430664-0.0087891,0.2773438-0.0253906,0.3779297h-3.1894531c0.0507812,0.8813477,0.671875,1.4350586,1.5615234,1.4350586
		c0.4785156,0,0.8642578-0.1425781,1.2421875-0.3779297l0.2431641,0.4536133
		c-0.4033203,0.2597656-0.9150391,0.4780273-1.5693359,0.4780273c-1.2089844,0-2.1904297-0.7973633-2.1904297-2.1313477
		C109.8359375,18.3789062,110.8515625,17.5649414,111.9091797,17.5649414z M113.1259766,19.402832
		c0-0.8310547-0.453125-1.2924805-1.2089844-1.2924805c-0.6630859,0-1.2753906,0.4697266-1.3759766,1.2924805H113.1259766z"/>
	<path class="st5" d="M119.8388672,17.6655273h0.5371094l0.0585938,0.5371094h0.0253906
		c0.2011719-0.3779297,0.453125-0.6376953,0.9140625-0.6376953c0.4111328,0,0.671875,0.2348633,0.7724609,0.7045898
		c0.2431641-0.4277344,0.5117188-0.7045898,0.9648438-0.7045898c0.5625,0,0.8896484,0.4448242,0.8896484,1.2587891v2.9204102
		h-0.6630859v-2.8618164c0-0.4785156-0.1425781-0.7216797-0.4443359-0.7216797
		c-0.2939453,0-0.4873047,0.2099609-0.6972656,0.6293945v2.9541016h-0.5537109v-2.8618164
		c0-0.4785156-0.1591797-0.7216797-0.4609375-0.7216797c-0.2861328,0-0.4707031,0.2099609-0.6796875,0.6293945v2.9541016h-0.6630859
		V17.6655273z"/>
	<path class="st5" d="M125.4472656,22.9272461c0.5703125,0,0.9150391-0.3691406,1.1162109-0.8725586l0.1259766-0.3022461
		l-1.9052734-4.0869141h0.6962891l0.9990234,2.2573242c0.1591797,0.3608398,0.3359375,0.7890625,0.5039062,1.1835938h0.0332031
		c0.1425781-0.3862305,0.3017578-0.8139648,0.4365234-1.1835938l0.8896484-2.2573242h0.6542969l-1.7958984,4.4145508
		c-0.3017578,0.8056641-0.8056641,1.4179688-1.7285156,1.4179688c-0.1933594,0-0.3945312-0.0336914-0.5371094-0.0839844
		l0.1425781-0.5454102C125.1875,22.9023438,125.3212891,22.9272461,125.4472656,22.9272461z"/>
	<path class="st5" d="M132.9199219,20.0654297h-1.9970703l-0.5292969,1.6787109h-0.7128906l1.8544922-5.5053711h0.7890625
		l1.8544922,5.5053711h-0.7382812L132.9199219,20.0654297z M132.7441406,19.503418l-0.2607422-0.8393555
		c-0.1923828-0.6123047-0.3691406-1.2167969-0.5449219-1.8544922h-0.0341797
		c-0.1757812,0.6376953-0.3525391,1.2421875-0.5449219,1.8544922l-0.2607422,0.8393555H132.7441406z"/>
	<path class="st5" d="M135.9199219,22.0883789v1.3759766h-0.6884766v-5.7988281h0.5712891l0.0585938,0.5200195h0.0253906
		c0.3769531-0.3608398,0.90625-0.6206055,1.4091797-0.6206055c1.0996094,0,1.6875,0.8139648,1.6875,2.0810547
		c0,1.3847656-0.8730469,2.1987305-1.8554688,2.1987305c-0.3769531,0-0.8554688-0.1928711-1.2246094-0.5288086
		L135.9199219,22.0883789z M137.0107422,21.265625c0.7304688,0,1.2587891-0.6123047,1.2587891-1.6196289
		c0-0.8979492-0.3359375-1.5019531-1.1494141-1.5019531c-0.3613281,0-0.7802734,0.1928711-1.2001953,0.6123047v2.03125
		C136.3056641,21.1313477,136.734375,21.265625,137.0107422,21.265625z"/>
	<path class="st5" d="M140.9589844,22.0883789v1.3759766h-0.6884766v-5.7988281h0.5712891l0.0585938,0.5200195h0.0253906
		c0.3769531-0.3608398,0.90625-0.6206055,1.4091797-0.6206055c1.0996094,0,1.6875,0.8139648,1.6875,2.0810547
		c0,1.3847656-0.8730469,2.1987305-1.8554688,2.1987305c-0.3769531,0-0.8554688-0.1928711-1.2246094-0.5288086
		L140.9589844,22.0883789z M142.0498047,21.265625c0.7304688,0,1.2587891-0.6123047,1.2587891-1.6196289
		c0-0.8979492-0.3359375-1.5019531-1.1494141-1.5019531c-0.3613281,0-0.7802734,0.1928711-1.2001953,0.6123047v2.03125
		C141.3447266,21.1313477,141.7734375,21.265625,142.0498047,21.265625z"/>
	<path class="st5" d="M32.418457,29.2353516c-0.3779297-0.2939453-0.6713867-0.4785156-1.2338867-0.4785156
		s-0.9233398,0.2685547-0.9233398,0.6962891c0,0.9233398,2.6689453,0.7470703,2.6689453,2.2827148
		c0,0.722168-0.5957031,1.2421875-1.4770508,1.3344727v1.2255859h-0.503418v-1.2172852
		c-0.6210938-0.050293-1.2167969-0.3271484-1.6030273-0.6542969l0.3271484-0.4785156
		c0.4199219,0.3022461,0.9316406,0.5708008,1.5610352,0.5708008c0.6630859,0,1.015625-0.3022461,1.015625-0.7299805
		c0-1.0410156-2.6606445-0.8564453-2.6606445-2.3164062c0-0.7050781,0.5458984-1.1835938,1.3598633-1.2670898v-1.1079102h0.503418
		v1.0991211c0.612793,0.050293,0.9985352,0.3105469,1.3344727,0.6381836L32.418457,29.2353516z"/>
	<path class="st5" d="M41.6572266,29.1933594c0.6630859,0,1.1494141,0.2685547,1.4853516,0.5957031l-0.3442383,0.4448242
		c-0.3354492-0.2939453-0.6879883-0.4702148-1.1162109-0.4702148c-0.9399414,0-1.5859375,0.6381836-1.5859375,1.578125
		c0,0.9311523,0.6293945,1.5605469,1.5693359,1.5605469c0.503418,0,0.9233398-0.2265625,1.2670898-0.5117188l0.3022461,0.4448242
		c-0.4448242,0.402832-1.015625,0.6376953-1.6196289,0.6376953c-1.2758789,0-2.2324219-0.7802734-2.2324219-2.1313477
		C39.3828125,29.9736328,40.4233398,29.1933594,41.6572266,29.1933594z"/>
	<path class="st5" d="M46.1083984,29.1933594c0.4951172,0,0.855957,0.2011719,1.2333984,0.5283203l-0.0249023-0.7548828v-1.5693359
		h0.6879883v5.9750977H47.434082l-0.0585938-0.5371094h-0.0253906c-0.3354492,0.3442383-0.8222656,0.6376953-1.3256836,0.6376953
		c-1.065918,0-1.7709961-0.7719727-1.7709961-2.1313477C44.253418,30.015625,45.1430664,29.1933594,46.1083984,29.1933594z
		 M46.1669922,32.894043c0.402832,0,0.7890625-0.2094727,1.1499023-0.6123047v-2.03125
		c-0.3696289-0.34375-0.7216797-0.4780273-1.0742188-0.4780273c-0.7050781,0-1.2758789,0.6293945-1.2758789,1.5605469
		C44.9667969,32.3066406,45.4116211,32.894043,46.1669922,32.894043z"/>
	<path class="st5" d="M54.331543,29.2939453h0.5371094l0.059082,0.5371094h0.0249023
		c0.2016602-0.3779297,0.453125-0.6376953,0.9150391-0.6376953c0.4111328,0,0.6713867,0.2348633,0.7719727,0.7045898
		c0.2431641-0.4277344,0.5117188-0.7045898,0.9648438-0.7045898c0.5625,0,0.8896484,0.4448242,0.8896484,1.2587891v2.9204102
		h-0.6630859v-2.8618164c0-0.4785156-0.1425781-0.7216797-0.4443359-0.7216797
		c-0.2939453,0-0.4868164,0.2099609-0.6967773,0.6293945v2.9541016h-0.5537109v-2.8618164
		c0-0.4785156-0.159668-0.7216797-0.4619141-0.7216797c-0.2851562,0-0.4697266,0.2099609-0.6796875,0.6293945v2.9541016H54.331543
		V29.2939453z"/>
	<path class="st5" d="M59.9414062,34.5556641c0.5708008,0,0.9145508-0.3691406,1.1162109-0.8725586l0.1259766-0.3022461
		l-1.9052734-4.0869141h0.6967773l0.9985352,2.2573242c0.159668,0.3608398,0.3359375,0.7890625,0.503418,1.1835938h0.0336914
		c0.1425781-0.3862305,0.3022461-0.8139648,0.4365234-1.1835938l0.8896484-2.2573242h0.6542969l-1.7958984,4.4140625
		c-0.3022461,0.8056641-0.8056641,1.418457-1.7285156,1.418457c-0.1933594,0-0.3945312-0.0336914-0.5371094-0.0839844
		l0.1425781-0.5454102C59.6811523,34.5307617,59.8154297,34.5556641,59.9414062,34.5556641z"/>
	<path class="st5" d="M67.4135742,31.6943359h-1.9970703l-0.5288086,1.6782227h-0.7133789l1.8544922-5.5053711h0.7890625
		l1.8549805,5.5053711H67.934082L67.4135742,31.6943359z M67.2373047,31.1318359l-0.2597656-0.8393555
		c-0.1933594-0.612793-0.3696289-1.2167969-0.5458984-1.8544922h-0.0332031
		c-0.1762695,0.6376953-0.3525391,1.2416992-0.5458984,1.8544922l-0.2597656,0.8393555H67.2373047z"/>
	<path class="st5" d="M70.4135742,33.7167969v1.3759766h-0.6884766v-5.7988281h0.5708008l0.0585938,0.5205078h0.0253906
		c0.3779297-0.3613281,0.90625-0.6210938,1.4101562-0.6210938c1.0991211,0,1.6865234,0.8139648,1.6865234,2.0810547
		c0,1.3847656-0.8725586,2.1987305-1.8544922,2.1987305c-0.3779297,0-0.855957-0.1928711-1.2255859-0.5288086L70.4135742,33.7167969
		z M71.5043945,32.894043c0.7299805,0,1.2587891-0.6123047,1.2587891-1.6196289
		c0-0.8979492-0.3354492-1.5019531-1.1494141-1.5019531c-0.3608398,0-0.7807617,0.1928711-1.2001953,0.6123047v2.03125
		C70.7993164,32.7597656,71.2275391,32.894043,71.5043945,32.894043z"/>
	<path class="st5" d="M75.4521484,33.7167969v1.3759766h-0.6879883v-5.7988281h0.5708008l0.0585938,0.5205078h0.0253906
		c0.3779297-0.3613281,0.90625-0.6210938,1.4101562-0.6210938c1.0996094,0,1.6865234,0.8139648,1.6865234,2.0810547
		c0,1.3847656-0.8730469,2.1987305-1.8544922,2.1987305c-0.3779297,0-0.8564453-0.1928711-1.2255859-0.5288086
		L75.4521484,33.7167969z M76.5439453,32.894043c0.7294922,0,1.2587891-0.6123047,1.2587891-1.6196289
		c0-0.8979492-0.3359375-1.5019531-1.1503906-1.5019531c-0.3603516,0-0.7802734,0.1928711-1.2001953,0.6123047v2.03125
		C75.8388672,32.7597656,76.2666016,32.894043,76.5439453,32.894043z"/>
	<path class="st5" d="M80.4746094,34.715332h-0.6210938l2.7529297-7.3012695h0.6201172L80.4746094,34.715332z"/>
	<path class="st5" d="M32.418457,40.8642578c-0.3779297-0.2939453-0.6713867-0.4785156-1.2338867-0.4785156
		s-0.9233398,0.2685547-0.9233398,0.6962891c0,0.9233398,2.6689453,0.7470703,2.6689453,2.2827148
		c0,0.722168-0.5957031,1.2421875-1.4770508,1.3344727v1.2255859h-0.503418v-1.2172852
		c-0.6210938-0.050293-1.2167969-0.3271484-1.6030273-0.6542969l0.3271484-0.4785156
		c0.4199219,0.3022461,0.9316406,0.5708008,1.5610352,0.5708008c0.6630859,0,1.015625-0.3022461,1.015625-0.7299805
		c0-1.0410156-2.6606445-0.8564453-2.6606445-2.3164062c0-0.7050781,0.5458984-1.1835938,1.3598633-1.2670898v-1.1079102h0.503418
		v1.0991211c0.612793,0.050293,0.9985352,0.3105469,1.3344727,0.6381836L32.418457,40.8642578z"/>
	<path class="st5" d="M40.1801758,45.3457031v1.3759766h-0.6884766v-5.7988281H40.0625l0.0585938,0.5205078h0.0253906
		c0.3779297-0.3613281,0.90625-0.6210938,1.4101562-0.6210938c1.0991211,0,1.6865234,0.8139648,1.6865234,2.0810547
		c0,1.3847656-0.8725586,2.1987305-1.8544922,2.1987305c-0.3779297,0-0.855957-0.1928711-1.2255859-0.5288086L40.1801758,45.3457031
		z M41.2709961,44.5229492c0.7299805,0,1.2587891-0.6123047,1.2587891-1.6196289
		c0-0.8979492-0.3354492-1.5019531-1.1494141-1.5019531c-0.3608398,0-0.7807617,0.1928711-1.2001953,0.6123047v2.03125
		C40.565918,44.3886719,40.9941406,44.5229492,41.2709961,44.5229492z"/>
	<path class="st5" d="M44.5302734,39.0263672H45.21875v1.6279297l-0.0336914,0.9648438
		c0.4365234-0.453125,0.90625-0.796875,1.5444336-0.796875c0.9648438,0,1.409668,0.5703125,1.409668,1.6445312v2.534668h-0.6879883
		V42.559082c0-0.7719727-0.2685547-1.1411133-0.9399414-1.1411133c-0.4868164,0-0.8139648,0.2431641-1.2924805,0.7382812v2.8452148
		h-0.6884766V39.0263672z"/>
	<path class="st5" d="M51.3066406,40.8222656c1.0742188,0,2.0141602,0.7802734,2.0141602,2.1484375
		c0,1.3510742-0.9399414,2.1313477-2.0141602,2.1313477s-2.0141602-0.7802734-2.0141602-2.1313477
		C49.2924805,41.6025391,50.2324219,40.8222656,51.3066406,40.8222656z M51.3066406,44.53125
		c0.7807617,0,1.3007812-0.6293945,1.3007812-1.5605469c0-0.9399414-0.5200195-1.578125-1.3007812-1.578125
		c-0.7802734,0-1.3007812,0.6381836-1.3007812,1.578125C50.0058594,43.9018555,50.5263672,44.53125,51.3066406,44.53125z"/>
	<path class="st5" d="M54.6083984,40.9228516h0.5708008l0.059082,0.6962891h0.0332031
		c0.4282227-0.453125,0.8979492-0.796875,1.5361328-0.796875c0.9648438,0,1.409668,0.5703125,1.409668,1.6445312v2.534668
		h-0.6879883V42.559082c0-0.7719727-0.2685547-1.1411133-0.9399414-1.1411133c-0.4868164,0-0.8139648,0.2431641-1.2924805,0.7382812
		v2.8452148h-0.6884766V40.9228516z"/>
	<path class="st5" d="M61.519043,40.8222656c1.1665039,0,1.8549805,0.7636719,1.8549805,1.9130859
		c0,0.1430664-0.0087891,0.2773438-0.0253906,0.3779297H60.159668c0.050293,0.8808594,0.6713867,1.4350586,1.5610352,1.4350586
		c0.4780273,0,0.8642578-0.1425781,1.2421875-0.3779297l0.2431641,0.4536133
		c-0.402832,0.2597656-0.9150391,0.4780273-1.5693359,0.4780273c-1.2084961,0-2.1904297-0.7973633-2.1904297-2.1313477
		C59.4462891,41.6362305,60.4619141,40.8222656,61.519043,40.8222656z M62.7358398,42.6601562
		c0-0.8310547-0.453125-1.2924805-1.2084961-1.2924805c-0.6625977,0-1.2753906,0.4697266-1.3759766,1.2924805H62.7358398z"/>
	<path class="st5" d="M65.1816406,44.8417969v-0.0332031c-0.2182617-0.1176758-0.4199219-0.3276367-0.4199219-0.6713867
		c0-0.2602539,0.1762695-0.5541992,0.4868164-0.7636719v-0.0336914c-0.2768555-0.2099609-0.503418-0.5708008-0.503418-1.0576172
		c0-0.8896484,0.7382812-1.4599609,1.6030273-1.4599609c0.2348633,0,0.4277344,0.0332031,0.6040039,0.1005859h1.6870117v0.5288086
		h-1.0913086c0.1933594,0.2011719,0.3779297,0.4951172,0.3779297,0.855957c0,0.8725586-0.6967773,1.4013672-1.5776367,1.4013672
		c-0.2099609,0-0.4619141-0.050293-0.6884766-0.1508789c-0.2011719,0.1259766-0.3188477,0.2768555-0.3188477,0.4697266
		c0,0.3276367,0.3105469,0.4702148,0.8476562,0.4702148h0.9145508c1.0493164,0,1.5527344,0.2685547,1.5527344,0.956543
		c0,0.7636719-0.8813477,1.4267578-2.2661133,1.4267578c-1.1914062,0-1.8798828-0.4111328-1.8798828-1.1328125
		C64.5097656,45.4208984,64.7451172,45.09375,65.1816406,44.8417969z M66.4404297,46.402832
		c0.9482422,0,1.5356445-0.4194336,1.5356445-0.8388672c0-0.3862305-0.3105469-0.4956055-0.9316406-0.4956055h-0.7973633
		c-0.2348633,0-0.4448242-0.0166016-0.6210938-0.0668945c-0.3857422,0.2099609-0.5200195,0.4448242-0.5200195,0.6796875
		C65.105957,46.109375,65.5673828,46.402832,66.4404297,46.402832z M67.2880859,42.2822266
		c0-0.5703125-0.4199219-0.956543-0.9399414-0.956543c-0.512207,0-0.9399414,0.3862305-0.9399414,0.956543
		c0,0.5874023,0.4277344,0.965332,0.9399414,0.965332C66.8681641,43.2475586,67.2880859,42.8696289,67.2880859,42.2822266z"/>
	<path class="st5" d="M72.5786133,42.4165039c-0.0166016-0.5537109-0.293457-1.0239258-1.0825195-1.0239258
		c-0.5288086,0-1.0488281,0.2519531-1.4267578,0.4868164l-0.2685547-0.4697266
		c0.4111328-0.2685547,1.0996094-0.5874023,1.8129883-0.5874023c1.1162109,0,1.6533203,0.6625977,1.6533203,1.6782227v2.5009766
		h-0.5625l-0.0585938-0.5537109h-0.0253906c-0.453125,0.3520508-1.0322266,0.6542969-1.6113281,0.6542969
		c-0.7636719,0-1.3847656-0.4277344-1.3847656-1.1582031C69.6245117,43.0292969,70.472168,42.5844727,72.5786133,42.4165039z
		 M71.1938477,44.5483398c0.4619141,0,0.9233398-0.2182617,1.3847656-0.6044922v-1.0742188
		c-1.7456055,0.1430664-2.2827148,0.4868164-2.2827148,1.0239258
		C70.2958984,44.3554688,70.7241211,44.5483398,71.1938477,44.5483398z"/>
	<path class="st5" d="M75.4521484,45.3457031v1.3759766h-0.6879883v-5.7988281h0.5708008l0.0585938,0.5205078h0.0253906
		c0.3779297-0.3613281,0.90625-0.6210938,1.4101562-0.6210938c1.0996094,0,1.6865234,0.8139648,1.6865234,2.0810547
		c0,1.3847656-0.8730469,2.1987305-1.8544922,2.1987305c-0.3779297,0-0.8564453-0.1928711-1.2255859-0.5288086
		L75.4521484,45.3457031z M76.5439453,44.5229492c0.7294922,0,1.2587891-0.6123047,1.2587891-1.6196289
		c0-0.8979492-0.3359375-1.5019531-1.1503906-1.5019531c-0.3603516,0-0.7802734,0.1928711-1.2001953,0.6123047v2.03125
		C75.8388672,44.3886719,76.2666016,44.5229492,76.5439453,44.5229492z"/>
	<path class="st5" d="M85.0019531,44.0112305c0.453125,0.3354492,0.9560547,0.5537109,1.6865234,0.5537109
		c0.7294922,0,1.0908203-0.2851562,1.0908203-0.6376953c0-0.3188477-0.3271484-0.5454102-1.3261719-0.7890625
		c-0.8388672-0.2094727-1.5527344-0.5791016-1.5527344-1.1577148c0-0.6547852,0.5878906-1.1582031,1.7128906-1.1582031
		c0.6123047,0,1.2333984,0.2431641,1.6357422,0.5200195l-0.3349609,0.4448242
		c-0.3613281-0.2514648-0.7978516-0.4277344-1.3007812-0.4277344c-0.7646484,0-1.0078125,0.2685547-1.0078125,0.5874023
		c0,0.3354492,0.5039062,0.5371094,1.2421875,0.7216797c1.0996094,0.2768555,1.6279297,0.5957031,1.6279297,1.2167969
		c0,0.6630859-0.6455078,1.2167969-1.8125,1.2167969c-0.796875,0-1.5019531-0.293457-1.9970703-0.6376953L85.0019531,44.0112305z"/>
	<path class="st5" d="M91.7529297,40.8222656c1.1660156,0,1.8544922,0.7636719,1.8544922,1.9130859
		c0,0.1430664-0.0087891,0.2773438-0.0253906,0.3779297h-3.1894531c0.0507812,0.8808594,0.671875,1.4350586,1.5615234,1.4350586
		c0.4785156,0,0.8642578-0.1425781,1.2421875-0.3779297l0.2431641,0.4536133
		c-0.4033203,0.2597656-0.9150391,0.4780273-1.5693359,0.4780273c-1.2089844,0-2.1904297-0.7973633-2.1904297-2.1313477
		C89.6796875,41.6362305,90.6953125,40.8222656,91.7529297,40.8222656z M92.9697266,42.6601562
		c0-0.8310547-0.453125-1.2924805-1.2089844-1.2924805c-0.6630859,0-1.2753906,0.4697266-1.3759766,1.2924805H92.9697266z"/>
	<path class="st5" d="M95.3652344,40.9228516h0.5703125l0.0585938,0.9648438h0.0253906
		c0.4277344-0.6542969,1.0654297-1.0654297,1.8212891-1.0654297c0.3017578,0,0.5449219,0.0419922,0.796875,0.1674805
		l-0.1425781,0.5961914c-0.2851562-0.1010742-0.4443359-0.1425781-0.7636719-0.1425781
		c-0.6123047,0-1.1914062,0.3188477-1.6787109,1.1665039v2.3916016h-0.6875V40.9228516z"/>
	<path class="st5" d="M99.6064453,40.9228516h0.6972656l0.9394531,2.3164062
		c0.1679688,0.4111328,0.3193359,0.8139648,0.4619141,1.199707h0.0332031
		c0.1425781-0.3857422,0.2773438-0.7885742,0.4453125-1.199707l0.9394531-2.3164062h0.6630859l-1.6865234,4.0786133h-0.7724609
		L99.6064453,40.9228516z"/>
	<path class="st5" d="M106.8701172,40.8222656c1.1660156,0,1.8544922,0.7636719,1.8544922,1.9130859
		c0,0.1430664-0.0087891,0.2773438-0.0253906,0.3779297h-3.1894531c0.0507812,0.8808594,0.671875,1.4350586,1.5615234,1.4350586
		c0.4785156,0,0.8642578-0.1425781,1.2421875-0.3779297l0.2431641,0.4536133
		c-0.4033203,0.2597656-0.9150391,0.4780273-1.5693359,0.4780273c-1.2089844,0-2.1904297-0.7973633-2.1904297-2.1313477
		C104.796875,41.6362305,105.8125,40.8222656,106.8701172,40.8222656z M108.0869141,42.6601562
		c0-0.8310547-0.453125-1.2924805-1.2089844-1.2924805c-0.6630859,0-1.2753906,0.4697266-1.3759766,1.2924805H108.0869141z"/>
	<path class="st5" d="M110.4824219,40.9228516h0.5703125l0.0585938,0.9648438h0.0253906
		c0.4277344-0.6542969,1.0654297-1.0654297,1.8212891-1.0654297c0.3017578,0,0.5449219,0.0419922,0.796875,0.1674805
		l-0.1425781,0.5961914c-0.2851562-0.1010742-0.4443359-0.1425781-0.7636719-0.1425781
		c-0.6123047,0-1.1914062,0.3188477-1.6787109,1.1665039v2.3916016h-0.6875V40.9228516z"/>
	<path class="st5" d="M29.3129883,50.6542969h2.081543V55.3125c0,0.5957031,0.3105469,0.8476562,0.796875,0.8476562
		c0.2353516,0,0.4702148-0.059082,0.7724609-0.1933594l0.1762695,0.5205078
		c-0.3696289,0.1342773-0.6547852,0.2431641-1.0996094,0.2431641c-0.8642578,0-1.3344727-0.503418-1.3344727-1.46875v-4.0449219
		h-1.3930664V50.6542969z"/>
	<path class="st5" d="M34.4277344,52.5512695h2.5849609v4.0786133h-0.6884766v-3.5166016h-1.8964844V52.5512695z
		 M36.0390625,51.1831055c0-0.3271484,0.2348633-0.5371094,0.5537109-0.5371094
		c0.3105469,0,0.5541992,0.2099609,0.5541992,0.5371094c0,0.3188477-0.2436523,0.5288086-0.5541992,0.5288086
		C36.2739258,51.7119141,36.0390625,51.5019531,36.0390625,51.1831055z"/>
	<path class="st5" d="M39.6513672,55.6396484c0.453125,0.3354492,0.956543,0.5537109,1.6870117,0.5537109
		c0.7299805,0,1.0908203-0.2851562,1.0908203-0.6376953c0-0.3188477-0.3271484-0.5454102-1.3261719-0.7890625
		c-0.8388672-0.2094727-1.5522461-0.5791016-1.5522461-1.1582031c0-0.6542969,0.5874023-1.1577148,1.7119141-1.1577148
		c0.612793,0,1.2338867,0.2431641,1.6367188,0.5200195l-0.3359375,0.4448242
		c-0.3608398-0.2514648-0.7973633-0.4277344-1.3007812-0.4277344c-0.7636719,0-1.0068359,0.2685547-1.0068359,0.5874023
		c0,0.3354492,0.503418,0.5371094,1.2416992,0.7216797c1.0996094,0.2768555,1.628418,0.5957031,1.628418,1.2167969
		c0,0.6630859-0.6464844,1.2167969-1.8129883,1.2167969c-0.7973633,0-1.5019531-0.293457-1.9975586-0.6376953L39.6513672,55.6396484
		z"/>
	<path class="st5" d="M45.4790039,53.1132812h-1.1499023v-0.5200195l1.1748047-0.0419922l0.0922852-1.1416016h0.5708008v1.1416016
		h1.9975586v0.5620117h-1.9975586v1.9389648c0,0.7299805,0.2431641,1.1162109,1.0322266,1.1162109
		c0.3862305,0,0.6967773-0.0756836,0.9819336-0.1845703l0.1425781,0.503418
		c-0.3608398,0.1342773-0.8305664,0.2431641-1.2753906,0.2431641c-1.1835938,0-1.5693359-0.6796875-1.5693359-1.6865234V53.1132812z
		"/>
	<path class="st5" d="M51.440918,52.4506836c1.1665039,0,1.8549805,0.7636719,1.8549805,1.9130859
		c0,0.1430664-0.0087891,0.2773438-0.0253906,0.3779297H50.081543c0.050293,0.8813477,0.6713867,1.4350586,1.5610352,1.4350586
		c0.4780273,0,0.8642578-0.1425781,1.2421875-0.3779297l0.2431641,0.4536133
		c-0.402832,0.2597656-0.9150391,0.4780273-1.5693359,0.4780273c-1.2084961,0-2.1904297-0.7973633-2.1904297-2.1313477
		C49.3681641,53.2646484,50.3837891,52.4506836,51.440918,52.4506836z M52.6577148,54.2885742
		c0-0.8310547-0.453125-1.2924805-1.2084961-1.2924805c-0.6625977,0-1.2753906,0.4697266-1.3759766,1.2924805H52.6577148z"/>
	<path class="st5" d="M54.6083984,52.5512695h0.5708008l0.059082,0.6962891h0.0332031
		c0.4282227-0.453125,0.8979492-0.796875,1.5361328-0.796875c0.9648438,0,1.409668,0.5703125,1.409668,1.6445312v2.534668
		h-0.6879883V54.1875c0-0.7719727-0.2685547-1.1411133-0.9399414-1.1411133c-0.4868164,0-0.8139648,0.2431641-1.2924805,0.7382812
		v2.8452148h-0.6884766V52.5512695z"/>
	<path class="st5" d="M59.6225586,52.5512695h2.5849609v4.0786133H61.519043v-3.5166016h-1.8964844V52.5512695z
		 M61.2338867,51.1831055c0-0.3271484,0.2348633-0.5371094,0.5537109-0.5371094
		c0.3105469,0,0.5541992,0.2099609,0.5541992,0.5371094c0,0.3188477-0.2436523,0.5288086-0.5541992,0.5288086
		C61.46875,51.7119141,61.2338867,51.5019531,61.2338867,51.1831055z"/>
	<path class="st5" d="M64.6860352,52.5512695h0.5708008l0.0585938,0.6962891h0.0336914
		c0.4282227-0.453125,0.8979492-0.796875,1.5361328-0.796875c0.9648438,0,1.409668,0.5703125,1.409668,1.6445312v2.534668
		h-0.6879883V54.1875c0-0.7719727-0.2685547-1.1411133-0.9399414-1.1411133c-0.4868164,0-0.8144531,0.2431641-1.2924805,0.7382812
		v2.8452148h-0.6884766V52.5512695z"/>
	<path class="st5" d="M70.2207031,56.4702148v-0.0332031c-0.2182617-0.1176758-0.4199219-0.3276367-0.4199219-0.6713867
		c0-0.2602539,0.1762695-0.5541992,0.4868164-0.7636719v-0.0336914c-0.2768555-0.2099609-0.503418-0.5708008-0.503418-1.0576172
		c0-0.8896484,0.7382812-1.4599609,1.6030273-1.4599609c0.2348633,0,0.4277344,0.0332031,0.6040039,0.1005859h1.6870117v0.5288086
		h-1.0913086c0.1933594,0.2011719,0.3779297,0.4951172,0.3779297,0.855957c0,0.8725586-0.6967773,1.4013672-1.5776367,1.4013672
		c-0.2099609,0-0.4619141-0.050293-0.6884766-0.1508789c-0.2011719,0.1259766-0.3188477,0.2768555-0.3188477,0.4697266
		c0,0.3276367,0.3105469,0.4702148,0.8476562,0.4702148h0.9145508c1.0493164,0,1.5527344,0.2685547,1.5527344,0.956543
		c0,0.7636719-0.8813477,1.4267578-2.2661133,1.4267578c-1.1914062,0-1.8798828-0.4111328-1.8798828-1.1328125
		C69.5488281,57.0493164,69.7841797,56.722168,70.2207031,56.4702148z M71.4794922,58.03125
		c0.9482422,0,1.5356445-0.4194336,1.5356445-0.8388672c0-0.3862305-0.3105469-0.4951172-0.9316406-0.4951172h-0.7973633
		c-0.2348633,0-0.4448242-0.0170898-0.6210938-0.0673828c-0.3857422,0.2099609-0.5200195,0.4448242-0.5200195,0.6796875
		C70.1450195,57.737793,70.6064453,58.03125,71.4794922,58.03125z M72.3271484,53.9106445
		c0-0.5708008-0.4199219-0.956543-0.9399414-0.956543c-0.512207,0-0.9399414,0.3857422-0.9399414,0.956543
		c0,0.5874023,0.4277344,0.965332,0.9399414,0.965332C71.9072266,54.8759766,72.3271484,54.4980469,72.3271484,53.9106445z"/>
	<path class="st5" d="M81.5400391,52.4506836c1.0742188,0,2.0146484,0.7802734,2.0146484,2.1484375
		c0,1.3510742-0.9404297,2.1313477-2.0146484,2.1313477s-2.0136719-0.7802734-2.0136719-2.1313477
		C79.5263672,53.230957,80.4658203,52.4506836,81.5400391,52.4506836z M81.5400391,56.1601562
		c0.7802734,0,1.3007812-0.6298828,1.3007812-1.5610352c0-0.9399414-0.5205078-1.578125-1.3007812-1.578125
		s-1.3007812,0.6381836-1.3007812,1.578125C80.2392578,55.5302734,80.7597656,56.1601562,81.5400391,56.1601562z"/>
	<path class="st5" d="M84.8417969,52.5512695h0.5712891l0.0585938,0.6962891h0.0332031
		c0.4277344-0.453125,0.8984375-0.796875,1.5361328-0.796875c0.9648438,0,1.4101562,0.5703125,1.4101562,1.6445312v2.534668
		h-0.6884766V54.1875c0-0.7719727-0.2685547-1.1411133-0.9404297-1.1411133c-0.4863281,0-0.8134766,0.2431641-1.2919922,0.7382812
		v2.8452148h-0.6884766V52.5512695z"/>
	<path class="st5" d="M98.5703125,56.059082v0.5708008h-3.6083984V56.059082h1.5195312v-3.9443359h-1.1416016v-0.4448242
		c0.5703125-0.0839844,0.9814453-0.2182617,1.3173828-0.3945312h0.5117188v4.7836914H98.5703125z"/>
	<path class="st5" d="M99.7910156,56.21875c1.8134766-1.6030273,2.8115234-2.5429688,2.8115234-3.4326172
		c0-0.612793-0.3769531-1.0488281-1.1660156-1.0488281c-0.5039062,0-0.9404297,0.2851562-1.2841797,0.6459961l-0.3945312-0.3945312
		c0.4785156-0.4868164,1.0068359-0.8139648,1.7626953-0.8139648c1.0742188,0,1.7451172,0.6293945,1.7451172,1.5776367
		c0,1.0073242-1.0068359,2.0058594-2.4667969,3.3320312c0.3271484-0.0253906,0.6796875-0.050293,0.9980469-0.050293h1.7626953
		v0.5957031h-3.7685547V56.21875z"/>
	<path class="st5" d="M107.8935547,51.871582h-3.0878906v-0.5961914h3.8769531v0.4282227
		c-1.4179688,1.6196289-1.7705078,2.828125-1.8466797,4.9262695h-0.7216797
		C106.2070312,54.5991211,106.6679688,53.3735352,107.8935547,51.871582z"/>
	<path class="st5" d="M111.7744141,55.3125c0.3779297,0,0.6796875,0.2851562,0.6796875,0.7128906
		c0,0.4199219-0.3017578,0.7050781-0.6796875,0.7050781s-0.6796875-0.2851562-0.6796875-0.7050781
		C111.0947266,55.5976562,111.3964844,55.3125,111.7744141,55.3125z"/>
	<path class="st5" d="M114.8916016,53.9360352c0-1.7958984,0.7304688-2.7612305,1.921875-2.7612305
		s1.921875,0.965332,1.921875,2.7612305c0,1.7792969-0.7304688,2.7944336-1.921875,2.7944336
		S114.8916016,55.715332,114.8916016,53.9360352z M115.5380859,53.9360352c0,1.5356445,0.5283203,2.2407227,1.2753906,2.2407227
		s1.2753906-0.7050781,1.2753906-2.2407227c0-1.5444336-0.5283203-2.2075195-1.2753906-2.2075195
		S115.5380859,52.3916016,115.5380859,53.9360352z M116.2929688,53.8769531c0-0.34375,0.2441406-0.5537109,0.5205078-0.5537109
		c0.2773438,0,0.5205078,0.2099609,0.5205078,0.5537109c0,0.3525391-0.2431641,0.5625-0.5205078,0.5625
		C116.5371094,54.4394531,116.2929688,54.2294922,116.2929688,53.8769531z"/>
	<path class="st5" d="M121.8525391,55.3125c0.3779297,0,0.6796875,0.2851562,0.6796875,0.7128906
		c0,0.4199219-0.3017578,0.7050781-0.6796875,0.7050781s-0.6796875-0.2851562-0.6796875-0.7050781
		C121.1728516,55.5976562,121.4746094,55.3125,121.8525391,55.3125z"/>
	<path class="st5" d="M124.96875,53.9360352c0-1.7958984,0.7304688-2.7612305,1.921875-2.7612305
		s1.921875,0.965332,1.921875,2.7612305c0,1.7792969-0.7304688,2.7944336-1.921875,2.7944336
		S124.96875,55.715332,124.96875,53.9360352z M125.6152344,53.9360352c0,1.5356445,0.5283203,2.2407227,1.2753906,2.2407227
		s1.2753906-0.7050781,1.2753906-2.2407227c0-1.5444336-0.5283203-2.2075195-1.2753906-2.2075195
		S125.6152344,52.3916016,125.6152344,53.9360352z M126.3701172,53.8769531c0-0.34375,0.2441406-0.5537109,0.5205078-0.5537109
		c0.2773438,0,0.5205078,0.2099609,0.5205078,0.5537109c0,0.3525391-0.2431641,0.5625-0.5205078,0.5625
		C126.6142578,54.4394531,126.3701172,54.2294922,126.3701172,53.8769531z"/>
	<path class="st5" d="M131.9296875,55.3125c0.3779297,0,0.6796875,0.2851562,0.6796875,0.7128906
		c0,0.4199219-0.3017578,0.7050781-0.6796875,0.7050781S131.25,56.4453125,131.25,56.0253906
		C131.25,55.5976562,131.5517578,55.3125,131.9296875,55.3125z"/>
	<path class="st5" d="M138.8828125,56.059082v0.5708008h-3.609375V56.059082h1.5195312v-3.9443359h-1.1416016v-0.4448242
		c0.5703125-0.0839844,0.9814453-0.2182617,1.3173828-0.3945312h0.5117188v4.7836914H138.8828125z"/>
	<path class="st5" d="M142.0078125,52.3076172c0.3779297,0,0.6796875,0.2856445,0.6796875,0.7050781
		c0,0.4282227-0.3017578,0.7133789-0.6796875,0.7133789s-0.6796875-0.2851562-0.6796875-0.7133789
		C141.328125,52.5932617,141.6298828,52.3076172,142.0078125,52.3076172z M142.0078125,55.3125
		c0.3779297,0,0.6796875,0.2851562,0.6796875,0.7128906c0,0.4199219-0.3017578,0.7050781-0.6796875,0.7050781
		s-0.6796875-0.2851562-0.6796875-0.7050781C141.328125,55.5976562,141.6298828,55.3125,142.0078125,55.3125z"/>
	<path class="st5" d="M145.3603516,55.5219727c0.3525391,0.3359375,0.8476562,0.6381836,1.5351562,0.6381836
		c0.7304688,0,1.2841797-0.3862305,1.2841797-0.9819336c0-0.6381836-0.5371094-1.065918-1.9462891-1.065918v-0.5288086
		c1.2666016,0,1.7539062-0.4365234,1.7539062-0.9985352c0-0.5205078-0.4365234-0.8476562-1.0917969-0.8476562
		c-0.5029297,0-0.9648438,0.2265625-1.3173828,0.5454102l-0.3691406-0.4365234
		c0.4453125-0.3862305,1.0244141-0.6713867,1.7119141-0.6713867c1.0068359,0,1.7705078,0.4951172,1.7705078,1.359375
		c0,0.6464844-0.4775391,1.0576172-1.140625,1.2758789V53.84375c0.7128906,0.1508789,1.3261719,0.6210938,1.3261719,1.359375
		c0,0.9482422-0.8730469,1.5273438-1.9394531,1.5273438c-0.9228516,0-1.5351562-0.3608398-1.9296875-0.7553711
		L145.3603516,55.5219727z"/>
	<path class="st5" d="M150.1640625,53.9360352c0-1.7958984,0.7304688-2.7612305,1.921875-2.7612305
		s1.921875,0.965332,1.921875,2.7612305c0,1.7792969-0.7304688,2.7944336-1.921875,2.7944336
		S150.1640625,55.715332,150.1640625,53.9360352z M150.8105469,53.9360352c0,1.5356445,0.5283203,2.2407227,1.2753906,2.2407227
		s1.2753906-0.7050781,1.2753906-2.2407227c0-1.5444336-0.5283203-2.2075195-1.2753906-2.2075195
		S150.8105469,52.3916016,150.8105469,53.9360352z M151.5654297,53.8769531c0-0.34375,0.2441406-0.5537109,0.5205078-0.5537109
		c0.2773438,0,0.5205078,0.2099609,0.5205078,0.5537109c0,0.3525391-0.2431641,0.5625-0.5205078,0.5625
		C151.8095703,54.4394531,151.5654297,54.2294922,151.5654297,53.8769531z"/>
	<path class="st5" d="M155.203125,53.9360352c0-1.7958984,0.7304688-2.7612305,1.921875-2.7612305
		s1.921875,0.965332,1.921875,2.7612305c0,1.7792969-0.7304688,2.7944336-1.921875,2.7944336
		S155.203125,55.715332,155.203125,53.9360352z M155.8496094,53.9360352c0,1.5356445,0.5283203,2.2407227,1.2753906,2.2407227
		s1.2753906-0.7050781,1.2753906-2.2407227c0-1.5444336-0.5283203-2.2075195-1.2753906-2.2075195
		S155.8496094,52.3916016,155.8496094,53.9360352z M156.6044922,53.8769531c0-0.34375,0.2441406-0.5537109,0.5205078-0.5537109
		c0.2773438,0,0.5205078,0.2099609,0.5205078,0.5537109c0,0.3525391-0.2431641,0.5625-0.5205078,0.5625
		C156.8486328,54.4394531,156.6044922,54.2294922,156.6044922,53.8769531z"/>
	<path class="st5" d="M160.2421875,53.9360352c0-1.7958984,0.7304688-2.7612305,1.921875-2.7612305
		s1.921875,0.965332,1.921875,2.7612305c0,1.7792969-0.7304688,2.7944336-1.921875,2.7944336
		S160.2421875,55.715332,160.2421875,53.9360352z M160.8886719,53.9360352c0,1.5356445,0.5283203,2.2407227,1.2753906,2.2407227
		s1.2753906-0.7050781,1.2753906-2.2407227c0-1.5444336-0.5283203-2.2075195-1.2753906-2.2075195
		S160.8886719,52.3916016,160.8886719,53.9360352z M161.6435547,53.8769531c0-0.34375,0.2441406-0.5537109,0.5205078-0.5537109
		c0.2773438,0,0.5205078,0.2099609,0.5205078,0.5537109c0,0.3525391-0.2431641,0.5625-0.5205078,0.5625
		C161.8876953,54.4394531,161.6435547,54.2294922,161.6435547,53.8769531z"/>
</g>
<g id="term">
	<g>
		<rect x="24.9329529" y="-4.199934" class="st6" width="143.8027496" height="12.3485365"/>
	</g>
</g>
<g>
	<g>
		<path class="st2" d="M219.7279205,61.5287323c0,1.255558-1.0272827,2.2828484-2.2828217,2.2828484h-18.2645416
			c-1.2555389,0-2.2831879-1.0272903-2.2831879-2.2828484V24.9999561c0-1.2556286,1.0276489-2.2830143,2.2831879-2.2830143
			h18.2645416c1.2555389,0,2.2828217,1.0273857,2.2828217,2.2830143V61.5287323z"/>
	</g>
	<g>
		<circle cx="208.3126526" cy="61.5287323" r="1.4268237"/>
	</g>
	<g>
		<rect x="199.1805725" y="27.3543739" class="st7" width="18.2645378" height="31.8911667"/>
	</g>
	<g>
		<g>
			<path d="M209.4542389,25.7337894h-2.2831879c-0.4052429,0-0.7338409-0.3285732-0.7338409-0.7338333
				s0.328598-0.7338352,0.7338409-0.7338352h2.2831879c0.4052734,0,0.7338409,0.3285751,0.7338409,0.7338352
				S209.8595123,25.7337894,209.4542389,25.7337894z"/>
		</g>
	</g>
</g>
<polygon class="st8" points="217.4450989,50.28862 217.4450989,50.28862 199.1805725,50.28862 199.1805725,50.28862 
	199.1805725,33.8347015 199.1805725,33.8347015 217.4450989,33.8347015 217.4450989,33.8347015 "/>
<g>
	<path class="st9" d="M216.9924469,42.0503464c0-3.1685677-0.5884552-5.7939529-1.3579559-6.3824005
		c-0.1810608-0.8147736-3.3948975-1.4484901-7.2877045-1.4484901c-3.9380798,0-7.1066437,0.6337128-7.2877197,1.4484901
		c-0.7695007,0.5884476-1.3579559,3.2138329-1.3579559,6.3824005s0.5884552,5.7939491,1.3579559,6.3824005
		c0.1810608,0.8147736,3.3948975,1.4484863,7.2877197,1.4484863c3.9380646,0,7.1066437-0.6337128,7.2877045-1.4484863
		C216.4039917,47.8442955,216.9924469,45.218914,216.9924469,42.0503464z"/>
	<path class="st10" d="M216.7661133,42.5029984c0-2.9875069-0.5884399-5.4770966-1.3126831-6.0202789
		c-0.1810608-0.7695084-3.3043671-1.3579559-7.1066437-1.3579559s-6.9255829,0.5884476-7.1066437,1.3579559
		c-0.7695007,0.5431824-1.3126984,3.0327721-1.3126984,6.0202789s0.5884552,5.4770966,1.3126984,6.0202789
		c0.1810608,0.7695084,3.3043671,1.3579559,7.1066437,1.3579559s6.9255829-0.5884476,7.1066437-1.3579559
		C216.1776733,47.9800911,216.7661133,45.4905052,216.7661133,42.5029984z"/>
</g>
<rect x="199.1805725" y="50.107563" class="st11" width="18.2645378" height="2.7611794"/>
<g class="st4">
	<path class="st12" d="M201.1464844,40.2197266v-1.0581055c-0.0488281,0.0395508-0.0976562,0.0727539-0.1435547,0.1000977
		c-0.046875,0.027832-0.1113281,0.0561523-0.1923828,0.0844727v-0.1484375
		c0.1289062-0.0546875,0.2412109-0.1254883,0.3359375-0.2128906h0.1650391v1.2348633h0.3291016v0.137207h-0.8300781v-0.137207
		H201.1464844z"/>
	<path class="st12" d="M202.6933594,40.3569336h-0.8300781v-0.1513672c0-0.0385742,0.0078125-0.0805664,0.0234375-0.125
		c0.0166016-0.0444336,0.046875-0.0942383,0.0917969-0.1499023c0.0439453-0.0551758,0.0917969-0.1083984,0.1416016-0.159668
		l0.09375-0.0957031c0.0185547-0.0195312,0.0595703-0.0644531,0.1230469-0.1352539s0.1054688-0.125,0.1259766-0.1625977
		s0.0302734-0.074707,0.0302734-0.1113281c0-0.059082-0.0234375-0.1044922-0.0703125-0.1367188
		s-0.0996094-0.0483398-0.1591797-0.0483398c-0.0332031,0-0.0703125,0.0039062-0.1123047,0.0117188
		c-0.0410156,0.0078125-0.078125,0.0166016-0.109375,0.0268555c-0.0302734,0.0102539-0.0810547,0.03125-0.1513672,0.0634766
		v-0.1459961c0.0742188-0.0356445,0.1484375-0.0595703,0.2236328-0.0732422
		c0.0742188-0.0131836,0.1357422-0.0195312,0.1835938-0.0195312c0.0712891,0,0.1367188,0.0112305,0.1972656,0.034668
		c0.0595703,0.0234375,0.1044922,0.0595703,0.1328125,0.1083984c0.0292969,0.0488281,0.0439453,0.1010742,0.0439453,0.15625
		c0,0.0620117-0.0185547,0.1254883-0.0566406,0.1904297c-0.0371094,0.0649414-0.1074219,0.1479492-0.2109375,0.25
		l-0.1015625,0.1000977l-0.0839844,0.0830078c-0.0537109,0.0541992-0.0976562,0.1064453-0.1298828,0.1572266
		c-0.0332031,0.0507812-0.0517578,0.1113281-0.0546875,0.1811523h0.6591797V40.3569336z"/>
	<path class="st12" d="M203.0996094,40.3569336v-0.1230469c0-0.0957031,0.0107422-0.1767578,0.0322266-0.2421875
		c0.0224609-0.0654297,0.0605469-0.1381836,0.1152344-0.2182617s0.0986328-0.1420898,0.1318359-0.1855469l0.1425781-0.1894531
		l0.0517578-0.0664062c0.0390625-0.0522461,0.0722656-0.112793,0.1005859-0.1816406h-0.7119141v-0.1655273h0.8710938v0.109375
		c0,0.0439453-0.0087891,0.0839844-0.0263672,0.121582c-0.0166016,0.0371094-0.0693359,0.1162109-0.1572266,0.237793
		c-0.0214844,0.0288086-0.0419922,0.0576172-0.0625,0.0864258l-0.0927734,0.1289062
		c-0.0585938,0.0830078-0.1025391,0.1494141-0.1308594,0.1987305c-0.0283203,0.0498047-0.0488281,0.1015625-0.0634766,0.1547852
		c-0.0146484,0.0537109-0.0214844,0.1245117-0.0214844,0.2114258v0.1230469H203.0996094z"/>
	<path class="st12" d="M204.4472656,40.3984375c-0.0400391,0-0.0732422-0.0141602-0.1015625-0.0424805
		s-0.0429688-0.0620117-0.0429688-0.1015625c0-0.0400391,0.0146484-0.0742188,0.0429688-0.1020508
		s0.0625-0.0419922,0.1015625-0.0419922s0.0722656,0.0141602,0.1015625,0.0419922
		c0.0283203,0.027832,0.0419922,0.0620117,0.0419922,0.1020508c0,0.0395508-0.0136719,0.0732422-0.0419922,0.1015625
		S204.4863281,40.3984375,204.4472656,40.3984375z"/>
	<path class="st12" d="M205.5332031,38.9443359c0.15625,0,0.2753906,0.0654297,0.3574219,0.1967773
		c0.0810547,0.1308594,0.1220703,0.3076172,0.1220703,0.5297852c0,0.2226562-0.0410156,0.3999023-0.1220703,0.5307617
		c-0.0820312,0.1313477-0.2011719,0.1967773-0.3574219,0.1967773c-0.1552734,0-0.2744141-0.0654297-0.3564453-0.1967773
		c-0.0830078-0.1308594-0.1240234-0.3081055-0.1240234-0.5307617c0-0.222168,0.0410156-0.3989258,0.1240234-0.5297852
		C205.2587891,39.0097656,205.3779297,38.9443359,205.5332031,38.9443359z M205.2646484,39.9643555l0.4746094-0.7436523
		c-0.0302734-0.0546875-0.0625-0.0917969-0.0976562-0.1108398s-0.0712891-0.0288086-0.109375-0.0288086
		c-0.0976562,0-0.1728516,0.0546875-0.2236328,0.1640625c-0.0517578,0.109375-0.0771484,0.2480469-0.0771484,0.4160156
		c0,0.0380859,0.0009766,0.0795898,0.0039062,0.1235352C205.2373047,39.8291016,205.2470703,39.8886719,205.2646484,39.9643555z
		 M205.7988281,39.3842773l-0.4707031,0.7480469c0.0253906,0.0429688,0.0537109,0.0751953,0.0869141,0.0966797
		s0.0703125,0.0322266,0.1103516,0.0322266c0.1123047,0,0.1914062-0.0625,0.2382812-0.1875
		c0.046875-0.1254883,0.0712891-0.2641602,0.0712891-0.4169922C205.8349609,39.5625,205.8222656,39.4716797,205.7988281,39.3842773z
		"/>
	<path class="st12" d="M206.6201172,40.3984375c-0.0400391,0-0.0732422-0.0141602-0.1015625-0.0424805
		s-0.0429688-0.0620117-0.0429688-0.1015625c0-0.0400391,0.0146484-0.0742188,0.0429688-0.1020508
		s0.0625-0.0419922,0.1015625-0.0419922s0.0722656,0.0141602,0.1015625,0.0419922
		c0.0283203,0.027832,0.0419922,0.0620117,0.0419922,0.1020508c0,0.0395508-0.0136719,0.0732422-0.0419922,0.1015625
		S206.6591797,40.3984375,206.6201172,40.3984375z"/>
	<path class="st12" d="M207.7070312,38.9443359c0.15625,0,0.2753906,0.0654297,0.3574219,0.1967773
		c0.0810547,0.1308594,0.1220703,0.3076172,0.1220703,0.5297852c0,0.2226562-0.0410156,0.3999023-0.1220703,0.5307617
		c-0.0820312,0.1313477-0.2011719,0.1967773-0.3574219,0.1967773c-0.1552734,0-0.2744141-0.0654297-0.3564453-0.1967773
		c-0.0830078-0.1308594-0.1240234-0.3081055-0.1240234-0.5307617c0-0.222168,0.0410156-0.3989258,0.1240234-0.5297852
		C207.4326172,39.0097656,207.5517578,38.9443359,207.7070312,38.9443359z M207.4384766,39.9643555l0.4746094-0.7436523
		c-0.0302734-0.0546875-0.0625-0.0917969-0.0976562-0.1108398s-0.0712891-0.0288086-0.109375-0.0288086
		c-0.0976562,0-0.1728516,0.0546875-0.2236328,0.1640625c-0.0517578,0.109375-0.0771484,0.2480469-0.0771484,0.4160156
		c0,0.0380859,0.0009766,0.0795898,0.0039062,0.1235352C207.4111328,39.8291016,207.4208984,39.8886719,207.4384766,39.9643555z
		 M207.9726562,39.3842773l-0.4707031,0.7480469c0.0253906,0.0429688,0.0537109,0.0751953,0.0869141,0.0966797
		s0.0703125,0.0322266,0.1103516,0.0322266c0.1123047,0,0.1914062-0.0625,0.2382812-0.1875
		c0.046875-0.1254883,0.0712891-0.2641602,0.0712891-0.4169922C208.0087891,39.5625,207.9960938,39.4716797,207.9726562,39.3842773z
		"/>
	<path class="st12" d="M208.7929688,40.3984375c-0.0400391,0-0.0732422-0.0141602-0.1015625-0.0424805
		s-0.0429688-0.0620117-0.0429688-0.1015625c0-0.0400391,0.0146484-0.0742188,0.0429688-0.1020508
		s0.0625-0.0419922,0.1015625-0.0419922s0.0722656,0.0141602,0.1015625,0.0419922
		c0.0283203,0.027832,0.0419922,0.0620117,0.0419922,0.1020508c0,0.0395508-0.0136719,0.0732422-0.0419922,0.1015625
		S208.8320312,40.3984375,208.7929688,40.3984375z"/>
	<path class="st12" d="M209.8388672,40.2197266v-1.0581055c-0.0488281,0.0395508-0.0976562,0.0727539-0.1435547,0.1000977
		c-0.046875,0.027832-0.1113281,0.0561523-0.1923828,0.0844727v-0.1484375
		c0.1289062-0.0546875,0.2412109-0.1254883,0.3359375-0.2128906h0.1650391v1.2348633h0.3291016v0.137207h-0.8300781v-0.137207
		H209.8388672z"/>
	<path class="st12" d="M210.9658203,39.6303711c-0.0400391,0-0.0732422-0.0141602-0.1015625-0.0424805
		s-0.0429688-0.0625-0.0429688-0.1015625c0-0.0405273,0.0146484-0.0742188,0.0429688-0.1025391
		c0.0283203-0.027832,0.0625-0.0419922,0.1015625-0.0419922s0.0722656,0.0141602,0.1015625,0.0419922
		c0.0283203,0.0283203,0.0419922,0.0620117,0.0419922,0.1025391c0,0.0390625-0.0136719,0.0732422-0.0419922,0.1015625
		S211.0048828,39.6303711,210.9658203,39.6303711z M210.9658203,40.3984375c-0.0400391,0-0.0732422-0.0141602-0.1015625-0.0424805
		s-0.0429688-0.0620117-0.0429688-0.1015625c0-0.0400391,0.0146484-0.0742188,0.0429688-0.1020508
		s0.0625-0.0419922,0.1015625-0.0419922s0.0722656,0.0141602,0.1015625,0.0419922
		c0.0283203,0.027832,0.0419922,0.0620117,0.0419922,0.1020508c0,0.0395508-0.0136719,0.0732422-0.0419922,0.1015625
		S211.0048828,40.3984375,210.9658203,40.3984375z"/>
	<path class="st12" d="M211.6376953,40.3320312v-0.1733398c0.1347656,0.0683594,0.2519531,0.1025391,0.3515625,0.1025391
		c0.0908203,0,0.1650391-0.0273438,0.2246094-0.0825195s0.0888672-0.1259766,0.0888672-0.2124023
		c0-0.0874023-0.0322266-0.1582031-0.0976562-0.2133789c-0.0654297-0.0546875-0.1757812-0.0820312-0.3320312-0.0820312h-0.0908203
		v-0.137207h0.1259766c0.1152344,0,0.1982422-0.0253906,0.25-0.0771484c0.0507812-0.0517578,0.0761719-0.1088867,0.0761719-0.171875
		c0-0.0571289-0.0205078-0.1054688-0.0625-0.1445312c-0.0419922-0.0395508-0.1064453-0.059082-0.1923828-0.059082
		c-0.0976562,0-0.2021484,0.0273438-0.3144531,0.0825195v-0.1567383c0.1123047-0.0415039,0.2148438-0.0625,0.3076172-0.0625
		c0.1669922,0,0.2822266,0.0327148,0.3457031,0.0986328c0.0634766,0.0654297,0.0947266,0.140625,0.0947266,0.2246094
		c0,0.0625-0.0166016,0.1210938-0.0498047,0.1762695c-0.0341797,0.0546875-0.0957031,0.1035156-0.1855469,0.1464844
		c0.0791016,0.0234375,0.1396484,0.0527344,0.1796875,0.0869141c0.0410156,0.0341797,0.0712891,0.0742188,0.0927734,0.1210938
		c0.0205078,0.0463867,0.03125,0.0986328,0.03125,0.15625c0,0.128418-0.0478516,0.2348633-0.1425781,0.3183594
		c-0.0957031,0.0834961-0.21875,0.1254883-0.3691406,0.1254883c-0.0439453,0-0.0917969-0.003418-0.1425781-0.0097656
		C211.7753906,40.3823242,211.7119141,40.3632812,211.6376953,40.3320312z"/>
	<path class="st12" d="M213.1396484,38.9443359c0.15625,0,0.2753906,0.0654297,0.3574219,0.1967773
		c0.0810547,0.1308594,0.1220703,0.3076172,0.1220703,0.5297852c0,0.2226562-0.0410156,0.3999023-0.1220703,0.5307617
		c-0.0820312,0.1313477-0.2011719,0.1967773-0.3574219,0.1967773c-0.1552734,0-0.2744141-0.0654297-0.3564453-0.1967773
		c-0.0830078-0.1308594-0.1240234-0.3081055-0.1240234-0.5307617c0-0.222168,0.0410156-0.3989258,0.1240234-0.5297852
		C212.8652344,39.0097656,212.984375,38.9443359,213.1396484,38.9443359z M212.8710938,39.9643555l0.4746094-0.7436523
		c-0.0302734-0.0546875-0.0625-0.0917969-0.0976562-0.1108398s-0.0712891-0.0288086-0.109375-0.0288086
		c-0.0976562,0-0.1728516,0.0546875-0.2236328,0.1640625c-0.0517578,0.109375-0.0771484,0.2480469-0.0771484,0.4160156
		c0,0.0380859,0.0009766,0.0795898,0.0039062,0.1235352C212.84375,39.8291016,212.8535156,39.8886719,212.8710938,39.9643555z
		 M213.4052734,39.3842773l-0.4707031,0.7480469c0.0253906,0.0429688,0.0537109,0.0751953,0.0869141,0.0966797
		s0.0703125,0.0322266,0.1103516,0.0322266c0.1123047,0,0.1914062-0.0625,0.2382812-0.1875
		c0.046875-0.1254883,0.0712891-0.2641602,0.0712891-0.4169922C213.4414062,39.5625,213.4287109,39.4716797,213.4052734,39.3842773z
		"/>
	<path class="st12" d="M214.2255859,38.9443359c0.15625,0,0.2753906,0.0654297,0.3574219,0.1967773
		c0.0810547,0.1308594,0.1220703,0.3076172,0.1220703,0.5297852c0,0.2226562-0.0410156,0.3999023-0.1220703,0.5307617
		c-0.0820312,0.1313477-0.2011719,0.1967773-0.3574219,0.1967773c-0.1552734,0-0.2744141-0.0654297-0.3564453-0.1967773
		c-0.0830078-0.1308594-0.1240234-0.3081055-0.1240234-0.5307617c0-0.222168,0.0410156-0.3989258,0.1240234-0.5297852
		C213.9511719,39.0097656,214.0703125,38.9443359,214.2255859,38.9443359z M213.9570312,39.9643555l0.4746094-0.7436523
		c-0.0302734-0.0546875-0.0625-0.0917969-0.0976562-0.1108398s-0.0712891-0.0288086-0.109375-0.0288086
		c-0.0976562,0-0.1728516,0.0546875-0.2236328,0.1640625c-0.0517578,0.109375-0.0771484,0.2480469-0.0771484,0.4160156
		c0,0.0380859,0.0009766,0.0795898,0.0039062,0.1235352C213.9296875,39.8291016,213.9394531,39.8886719,213.9570312,39.9643555z
		 M214.4912109,39.3842773l-0.4707031,0.7480469c0.0253906,0.0429688,0.0537109,0.0751953,0.0869141,0.0966797
		s0.0703125,0.0322266,0.1103516,0.0322266c0.1123047,0,0.1914062-0.0625,0.2382812-0.1875
		c0.046875-0.1254883,0.0712891-0.2641602,0.0712891-0.4169922C214.5273438,39.5625,214.5146484,39.4716797,214.4912109,39.3842773z
		"/>
	<path class="st12" d="M215.3125,38.9443359c0.15625,0,0.2753906,0.0654297,0.3574219,0.1967773
		c0.0810547,0.1308594,0.1220703,0.3076172,0.1220703,0.5297852c0,0.2226562-0.0410156,0.3999023-0.1220703,0.5307617
		c-0.0820312,0.1313477-0.2011719,0.1967773-0.3574219,0.1967773c-0.1552734,0-0.2744141-0.0654297-0.3564453-0.1967773
		c-0.0830078-0.1308594-0.1240234-0.3081055-0.1240234-0.5307617c0-0.222168,0.0410156-0.3989258,0.1240234-0.5297852
		C215.0380859,39.0097656,215.1572266,38.9443359,215.3125,38.9443359z M215.0439453,39.9643555l0.4746094-0.7436523
		c-0.0302734-0.0546875-0.0625-0.0917969-0.0976562-0.1108398s-0.0712891-0.0288086-0.109375-0.0288086
		c-0.0976562,0-0.1728516,0.0546875-0.2236328,0.1640625c-0.0517578,0.109375-0.0771484,0.2480469-0.0771484,0.4160156
		c0,0.0380859,0.0009766,0.0795898,0.0039062,0.1235352C215.0166016,39.8291016,215.0263672,39.8886719,215.0439453,39.9643555z
		 M215.578125,39.3842773l-0.4707031,0.7480469c0.0253906,0.0429688,0.0537109,0.0751953,0.0869141,0.0966797
		s0.0703125,0.0322266,0.1103516,0.0322266c0.1123047,0,0.1914062-0.0625,0.2382812-0.1875
		c0.046875-0.1254883,0.0712891-0.2641602,0.0712891-0.4169922C215.6142578,39.5625,215.6015625,39.4716797,215.578125,39.3842773z"
		/>
</g>
<g class="st4">
	<path class="st13" d="M205.6230469,45.9746094c-0.0986328,0.0366211-0.1875,0.0551758-0.2666016,0.0551758
		c-0.1025391,0-0.1982422-0.027832-0.2851562-0.0830078c-0.0869141-0.0556641-0.1542969-0.1376953-0.203125-0.2475586
		c-0.0478516-0.109375-0.0722656-0.2329102-0.0722656-0.3710938c0-0.1367188,0.0234375-0.2597656,0.0712891-0.3691406
		c0.0478516-0.1088867,0.1152344-0.1918945,0.2021484-0.2480469s0.1826172-0.0844727,0.2871094-0.0844727
		c0.0791016,0,0.1679688,0.0185547,0.2666016,0.0551758v0.1567383c-0.0917969-0.0532227-0.1826172-0.0795898-0.2734375-0.0795898
		c-0.0673828,0-0.1298828,0.0234375-0.1865234,0.0698242c-0.0566406,0.046875-0.1025391,0.1152344-0.1367188,0.2050781
		c-0.0351562,0.090332-0.0527344,0.1884766-0.0527344,0.2939453c0,0.1074219,0.0185547,0.2070312,0.0537109,0.2978516
		c0.0361328,0.0908203,0.0820312,0.1591797,0.1376953,0.2045898c0.0556641,0.0449219,0.1171875,0.0673828,0.1845703,0.0673828
		c0.0898438,0,0.1816406-0.0263672,0.2734375-0.0791016V45.9746094z"/>
	<path class="st13" d="M206.2666016,46.0161133c-0.1357422,0-0.2451172-0.0473633-0.3261719-0.1425781
		c-0.0820312-0.0952148-0.1230469-0.215332-0.1230469-0.3603516s0.0410156-0.2646484,0.1230469-0.3598633
		c0.0810547-0.0947266,0.1904297-0.1420898,0.3261719-0.1420898s0.2451172,0.0473633,0.3261719,0.1420898
		c0.0820312,0.0952148,0.1230469,0.2148438,0.1230469,0.3598633s-0.0410156,0.2651367-0.1230469,0.3603516
		C206.5117188,45.96875,206.4023438,46.0161133,206.2666016,46.0161133z M206.2666016,45.8837891
		c0.0849609,0,0.1523438-0.0327148,0.2021484-0.0986328s0.0751953-0.1567383,0.0751953-0.2719727
		c0-0.1147461-0.0253906-0.2050781-0.0751953-0.2709961s-0.1171875-0.0991211-0.2021484-0.0991211
		s-0.1523438,0.0332031-0.2021484,0.0991211s-0.0751953,0.15625-0.0751953,0.2709961
		c0,0.1152344,0.0253906,0.2060547,0.0751953,0.2719727S206.1816406,45.8837891,206.2666016,45.8837891z"/>
	<path class="st13" d="M206.9228516,45.9897461v-0.9521484h0.1591797v0.2080078
		c0.0449219-0.0732422,0.0996094-0.1308594,0.1640625-0.1723633s0.1289062-0.0620117,0.1923828-0.0620117
		c0.0566406,0,0.1074219,0.0146484,0.1542969,0.0444336c0.0458984,0.0297852,0.078125,0.0688477,0.0966797,0.1171875
		s0.0273438,0.1435547,0.0273438,0.284668v0.5322266h-0.1582031v-0.5517578c0-0.0913086-0.0048828-0.1518555-0.0136719-0.1811523
		s-0.0244141-0.0532227-0.0488281-0.0717773c-0.0234375-0.019043-0.0488281-0.0283203-0.0771484-0.0283203
		c-0.0556641,0-0.1152344,0.0263672-0.1787109,0.0795898c-0.0644531,0.0527344-0.1171875,0.1186523-0.1582031,0.1982422v0.5551758
		H206.9228516z"/>
	<path class="st13" d="M207.9707031,45.9897461v-0.9521484h0.1591797v0.2080078
		c0.0449219-0.0732422,0.0996094-0.1308594,0.1640625-0.1723633s0.1289062-0.0620117,0.1923828-0.0620117
		c0.0566406,0,0.1074219,0.0146484,0.1542969,0.0444336c0.0458984,0.0297852,0.078125,0.0688477,0.0966797,0.1171875
		s0.0273438,0.1435547,0.0273438,0.284668v0.5322266h-0.1582031v-0.5517578c0-0.0913086-0.0048828-0.1518555-0.0136719-0.1811523
		s-0.0244141-0.0532227-0.0488281-0.0717773c-0.0234375-0.019043-0.0488281-0.0283203-0.0771484-0.0283203
		c-0.0556641,0-0.1152344,0.0263672-0.1787109,0.0795898c-0.0644531,0.0527344-0.1171875,0.1186523-0.1582031,0.1982422v0.5551758
		H207.9707031z"/>
	<path class="st13" d="M209.8105469,45.9262695c-0.1259766,0.0600586-0.2460938,0.0898438-0.359375,0.0898438
		c-0.0859375,0-0.1630859-0.0209961-0.2304688-0.0639648c-0.0673828-0.0424805-0.1210938-0.1035156-0.1621094-0.1826172
		s-0.0615234-0.1640625-0.0615234-0.2543945c0-0.0869141,0.0195312-0.1704102,0.0585938-0.2504883
		c0.0380859-0.0800781,0.0927734-0.1420898,0.1621094-0.1865234c0.0693359-0.0449219,0.1464844-0.0668945,0.2314453-0.0668945
		c0.1132812,0,0.2041016,0.0400391,0.2724609,0.1206055s0.1025391,0.2050781,0.1025391,0.3730469v0.0336914h-0.65625
		c0,0.0664062,0.0136719,0.1264648,0.0410156,0.1811523c0.0283203,0.0546875,0.0644531,0.0957031,0.109375,0.1230469
		c0.0449219,0.027832,0.0957031,0.0410156,0.1533203,0.0410156c0.1025391,0,0.2148438-0.0341797,0.3388672-0.1025391V45.9262695z
		 M209.1777344,45.4204102h0.4746094v-0.0229492c0-0.0776367-0.0195312-0.1396484-0.0576172-0.1855469
		s-0.0888672-0.0688477-0.1523438-0.0688477c-0.0644531,0-0.1191406,0.0234375-0.1660156,0.0703125
		S209.1962891,45.3291016,209.1777344,45.4204102z"/>
	<path class="st13" d="M210.8681641,45.9624023c-0.1064453,0.0356445-0.2070312,0.0537109-0.3037109,0.0537109
		c-0.0957031,0-0.1796875-0.0219727-0.2539062-0.065918s-0.1328125-0.1040039-0.1738281-0.1791992
		c-0.0419922-0.0751953-0.0625-0.1611328-0.0625-0.2568359c0-0.1445312,0.046875-0.2646484,0.1416016-0.3598633
		c0.09375-0.0957031,0.2070312-0.1430664,0.3398438-0.1430664c0.0986328,0,0.203125,0.0180664,0.3125,0.0551758v0.152832
		c-0.1113281-0.0507812-0.2099609-0.0761719-0.2978516-0.0761719c-0.0576172,0-0.1123047,0.0146484-0.1630859,0.0429688
		c-0.0517578,0.0288086-0.0908203,0.0737305-0.1191406,0.1342773c-0.0273438,0.0610352-0.0410156,0.1235352-0.0410156,0.1879883
		c0,0.0854492,0.0263672,0.1674805,0.0800781,0.2451172c0.0537109,0.078125,0.1376953,0.1171875,0.2529297,0.1171875
		c0.0341797,0,0.0683594-0.0024414,0.1025391-0.0073242c0.0332031-0.0048828,0.0947266-0.0229492,0.1855469-0.0532227V45.9624023z"
		/>
	<path class="st13" d="M211.9111328,45.9511719c-0.0751953,0.03125-0.1289062,0.050293-0.1621094,0.0561523
		c-0.0341797,0.0058594-0.0664062,0.0087891-0.0976562,0.0087891c-0.0664062,0-0.1269531-0.0126953-0.1826172-0.0380859
		c-0.0546875-0.0258789-0.0966797-0.0634766-0.1240234-0.1137695c-0.0283203-0.0498047-0.0429688-0.1269531-0.0429688-0.2319336
		v-0.3833008h-0.2373047v-0.1323242h0.2373047v-0.3837891h0.1591797v0.3837891h0.4238281v0.1323242h-0.4238281v0.3808594
		c0,0.0766602,0.0087891,0.1308594,0.0273438,0.1625977c0.0175781,0.03125,0.0419922,0.0546875,0.0722656,0.0693359
		s0.0664062,0.0219727,0.1083984,0.0219727c0.0761719,0,0.1572266-0.0239258,0.2421875-0.0722656V45.9511719z"/>
</g>
</svg>
