<?xml version="1.0" encoding="utf-8"?>
<!-- Generator: Adobe Illustrator 17.1.0, SVG Export Plug-In . SVG Version: 6.00 Build 0)  -->
<!DOCTYPE svg PUBLIC "-//W3C//DTD SVG 1.1//EN" "http://www.w3.org/Graphics/SVG/1.1/DTD/svg11.dtd">
<svg version="1.1" id="Layer_1" xmlns="http://www.w3.org/2000/svg" xmlns:xlink="http://www.w3.org/1999/xlink" x="0px" y="0px"
	 width="183.8px" height="85.4px" viewBox="0.1 -60.7 183.8 85.4" enable-background="new 0.1 -60.7 183.8 85.4"
	 xml:space="preserve">
<g>
	<g>
		<g>
			<path fill="#222222" d="M130.7-60.7H20.2c-2.8,0-5,2.3-5,5v70.4h120.6v-70.4C135.8-58.4,133.5-60.7,130.7-60.7z"/>
		</g>
		<g display="none">
			<g display="inline">
				<g>
					<rect x="19.2" y="-56.9" fill="#3B4250" width="112.6" height="67.5"/>
				</g>
			</g>
			<g display="inline">
				<g>
					<rect x="19.2" y="-56.9" fill="#242C3C" width="112.5" height="9.7"/>
				</g>
			</g>
			<g display="inline">
				<g>
					<rect x="28.5" y="-39.3" fill="#E36A5C" width="14.1" height="2.3"/>
				</g>
			</g>
			<g display="inline">
				<g>
					<rect x="28.5" y="-44" fill="#6DBEC4" width="9.4" height="2.3"/>
				</g>
			</g>
			<g display="inline">
				<g opacity="0.5">
					<g>
						<rect x="33.3" y="-29.9" fill="#95989F" width="28.1" height="2.3"/>
					</g>
				</g>
				<g>
					<g>
						<rect x="66.1" y="-29.9" fill="#95989F" width="28.1" height="2.3"/>
					</g>
				</g>
				<g opacity="0.5">
					<g>
						<rect x="42.6" y="-20.5" fill="#95989F" width="23.4" height="2.3"/>
					</g>
				</g>
				<g>
					<g>
						<rect x="37.9" y="-25" fill="#E36A5C" width="9.4" height="2.3"/>
					</g>
				</g>
				<g>
					<g>
						<rect x="51.9" y="-25" fill="#95989F" width="18.8" height="2.3"/>
					</g>
				</g>
				<g opacity="0.5">
					<g>
						<rect x="47.4" y="-15.6" fill="#95989F" width="28.1" height="2.3"/>
					</g>
				</g>
				<g>
					<g>
						<rect x="80.1" y="-15.6" fill="#95989F" width="42.2" height="2.3"/>
					</g>
				</g>
				<g>
					<g>
						<rect x="28.5" y="7.5" fill="#6DBEC4" width="14.1" height="2.3"/>
					</g>
				</g>
				<g opacity="0.5">
					<g>
						<rect x="47.3" y="7.5" fill="#95989F" width="32.8" height="2.3"/>
					</g>
				</g>
				<g opacity="0.5">
					<g>
						<rect x="70.7" y="-20.5" fill="#95989F" width="9.4" height="2.3"/>
					</g>
				</g>
				<g opacity="0.5">
					<g>
						<rect x="28.5" y="-6.3" fill="#95989F" width="18.8" height="2.3"/>
					</g>
				</g>
				<g>
					<g>
						<rect x="33.3" y="-1.8" fill="#95989F" width="18.6" height="2.3"/>
					</g>
				</g>
				<g>
					<g>
						<rect x="84.9" y="-20.5" fill="#6DBEC4" width="18.8" height="2.3"/>
					</g>
				</g>
			</g>
		</g>
		<g>
			<path fill="#EEEEEE" d="M0.1,14.7c0,5.5,4.5,10,10,10l0,0l0,0h130.5c5.5,0,10-4.5,10-10C150.7,14.7,0.1,14.7,0.1,14.7z"/>
		</g>
		<g>
			<g id="XMLID_1_">
				<g>
					<path fill="#606060" d="M135.8-55.6v70.4H15.1v-70.4c0-2.8,2.3-5,5-5h110.6C133.5-60.7,135.8-58.4,135.8-55.6z M131.7,10.6
						v-66.3c0-0.5-0.4-1-1-1v0H20.1c-0.5,0-1,0.4-1,1v66.3C19.1,10.6,131.7,10.6,131.7,10.6z"/>
				</g>
			</g>
		</g>
		<path fill="#A0A0A0" d="M85.5,14.7h-5h-8.2h-1.9h-5h-5c0,2.8,2.3,5,5,5h20.1c2.8,0,5-2.2,5-5H85.5z"/>
	</g>
</g>
<g>
	<path fill="#606060" d="M183.8,5.4c0,1.6-1.3,2.8-2.8,2.8h-22.7c-1.6,0-2.8-1.3-2.8-2.8v-45.3c0-1.6,1.3-2.8,2.8-2.8H181
		c1.6,0,2.8,1.3,2.8,2.8V5.4z"/>
</g>
<g>
	<circle cx="169.6" cy="5.4" r="1.8"/>
</g>
<g>
	<rect x="158.3" y="-37" fill="#D6D6D6" width="22.7" height="39.5"/>
</g>
<g>
	<g>
		<path d="M171.1-39h-2.8c-0.5,0-0.9-0.4-0.9-0.9c0-0.5,0.4-0.9,0.9-0.9h2.8c0.5,0,0.9,0.4,0.9,0.9C172-39.4,171.6-39,171.1-39z"/>
	</g>
</g>
<polygon fill="#B5B5B5" points="181,-9.1 181,-9.1 158.3,-9.1 158.3,-9.1 158.3,-29.5 158.3,-29.5 181,-29.5 181,-29.5 "/>
<g>
	<path fill="#6D6D6D" d="M180.4-19.3c0-3.9-0.7-7.2-1.7-7.9c-0.2-1-4.2-1.8-9-1.8c-4.9,0-8.8,0.8-9,1.8c-1,0.7-1.7,4-1.7,7.9
		s0.7,7.2,1.7,7.9c0.2,1,4.2,1.8,9,1.8c4.9,0,8.8-0.8,9-1.8C179.7-12.2,180.4-15.4,180.4-19.3z"/>
	<path fill="#0B2F47" d="M180.1-18.8c0-3.7-0.7-6.8-1.6-7.5c-0.2-1-4.1-1.7-8.8-1.7s-8.6,0.7-8.8,1.7c-1,0.7-1.6,3.8-1.6,7.5
		s0.7,6.8,1.6,7.5c0.2,1,4.1,1.7,8.8,1.7c4.7,0,8.6-0.7,8.8-1.7C179.4-12,180.1-15.1,180.1-18.8z"/>
</g>
<rect x="158.3" y="-9.3" fill="#868687" width="22.7" height="3.4"/>
<g id="term">
	<g>
		<rect x="19.1" y="-56.6" fill="#7A7E82" width="112.6" height="9.9"/>
	</g>
</g>
<path fill="#00CAF9" d="M177.4-15.3c0,1.2-1,2.1-2.1,2.1h-11.2c-1.2,0-2.1-1-2.1-2.1l0,0c0-1.2,1-2.1,2.1-2.1h11.2
	C176.5-17.4,177.4-16.4,177.4-15.3L177.4-15.3z"/>
<g>
	<path fill="#0B2F47" d="M166.3-14.5c-0.1,0-0.2,0.1-0.3,0.1c-0.1,0-0.2,0-0.4-0.1c-0.1-0.1-0.2-0.2-0.3-0.3
		c-0.1-0.1-0.1-0.3-0.1-0.5c0-0.2,0-0.3,0.1-0.5c0.1-0.1,0.1-0.2,0.3-0.3c0.1-0.1,0.2-0.1,0.4-0.1c0.1,0,0.2,0,0.3,0.1v0.2
		c-0.1-0.1-0.2-0.1-0.3-0.1c-0.1,0-0.2,0-0.2,0.1c-0.1,0.1-0.1,0.1-0.2,0.3c0,0.1-0.1,0.2-0.1,0.4c0,0.1,0,0.3,0.1,0.4
		c0,0.1,0.1,0.2,0.2,0.3c0.1,0.1,0.1,0.1,0.2,0.1c0.1,0,0.2,0,0.3-0.1L166.3-14.5L166.3-14.5z"/>
	<path fill="#0B2F47" d="M167.1-14.4c-0.2,0-0.3-0.1-0.4-0.2c-0.1-0.1-0.2-0.3-0.2-0.4c0-0.2,0-0.3,0.2-0.4c0.1-0.1,0.2-0.2,0.4-0.2
		c0.2,0,0.3,0.1,0.4,0.2c0.1,0.1,0.2,0.3,0.2,0.4c0,0.2-0.1,0.3-0.2,0.4C167.4-14.5,167.3-14.4,167.1-14.4z M167.1-14.6
		c0.1,0,0.2,0,0.3-0.1c0.1-0.1,0.1-0.2,0.1-0.3c0-0.1,0-0.3-0.1-0.3c-0.1-0.1-0.1-0.1-0.3-0.1c-0.1,0-0.2,0-0.3,0.1
		c-0.1,0.1-0.1,0.2-0.1,0.3c0,0.1,0,0.3,0.1,0.3C166.9-14.6,167-14.6,167.1-14.6z"/>
	<path fill="#0B2F47" d="M167.9-14.5v-1.2h0.2v0.3c0.1-0.1,0.1-0.2,0.2-0.2c0.1-0.1,0.2-0.1,0.2-0.1c0.1,0,0.1,0,0.2,0.1
		c0.1,0,0.1,0.1,0.1,0.1c0,0.1,0,0.2,0,0.4v0.7h-0.2v-0.7c0-0.1,0-0.2,0-0.2c0,0,0-0.1-0.1-0.1c0,0-0.1,0-0.1,0
		c-0.1,0-0.1,0-0.2,0.1c-0.1,0.1-0.1,0.1-0.2,0.2v0.7L167.9-14.5L167.9-14.5z"/>
	<path fill="#0B2F47" d="M169.2-14.5v-1.2h0.2v0.3c0.1-0.1,0.1-0.2,0.2-0.2c0.1-0.1,0.2-0.1,0.2-0.1c0.1,0,0.1,0,0.2,0.1
		c0.1,0,0.1,0.1,0.1,0.1c0,0.1,0,0.2,0,0.4v0.7H170v-0.7c0-0.1,0-0.2,0-0.2c0,0,0-0.1-0.1-0.1c0,0-0.1,0-0.1,0c-0.1,0-0.1,0-0.2,0.1
		c-0.1,0.1-0.1,0.1-0.2,0.2v0.7L169.2-14.5L169.2-14.5z"/>
	<path fill="#0B2F47" d="M171.5-14.5c-0.2,0.1-0.3,0.1-0.4,0.1c-0.1,0-0.2,0-0.3-0.1c-0.1-0.1-0.2-0.1-0.2-0.2
		c0-0.1-0.1-0.2-0.1-0.3c0-0.1,0-0.2,0.1-0.3c0-0.1,0.1-0.2,0.2-0.2c0.1-0.1,0.2-0.1,0.3-0.1c0.1,0,0.3,0,0.3,0.1
		c0.1,0.1,0.1,0.3,0.1,0.5v0h-0.8c0,0.1,0,0.2,0.1,0.2s0.1,0.1,0.1,0.2c0.1,0,0.1,0.1,0.2,0.1c0.1,0,0.3,0,0.4-0.1
		C171.5-14.7,171.5-14.5,171.5-14.5z M170.7-15.2h0.6v0c0-0.1,0-0.2-0.1-0.2c0-0.1-0.1-0.1-0.2-0.1c-0.1,0-0.1,0-0.2,0.1
		C170.8-15.4,170.7-15.3,170.7-15.2z"/>
	<path fill="#0B2F47" d="M172.8-14.5c-0.1,0-0.3,0.1-0.4,0.1c-0.1,0-0.2,0-0.3-0.1c-0.1-0.1-0.2-0.1-0.2-0.2
		c-0.1-0.1-0.1-0.2-0.1-0.3c0-0.2,0.1-0.3,0.2-0.4c0.1-0.1,0.3-0.2,0.4-0.2c0.1,0,0.3,0,0.4,0.1v0.2c-0.1-0.1-0.3-0.1-0.4-0.1
		c-0.1,0-0.1,0-0.2,0.1c-0.1,0-0.1,0.1-0.1,0.2c0,0.1-0.1,0.2-0.1,0.2c0,0.1,0,0.2,0.1,0.3c0.1,0.1,0.2,0.1,0.3,0.1c0,0,0.1,0,0.1,0
		c0,0,0.1,0,0.2-0.1L172.8-14.5L172.8-14.5z"/>
	<path fill="#0B2F47" d="M174.1-14.5c-0.1,0-0.2,0.1-0.2,0.1c0,0-0.1,0-0.1,0c-0.1,0-0.2,0-0.2,0c-0.1,0-0.1-0.1-0.2-0.1
		c0-0.1-0.1-0.2-0.1-0.3v-0.5h-0.3v-0.2h0.3V-16h0.2v0.5h0.5v0.2h-0.5v0.5c0,0.1,0,0.2,0,0.2c0,0,0.1,0.1,0.1,0.1c0,0,0.1,0,0.1,0
		c0.1,0,0.2,0,0.3-0.1L174.1-14.5L174.1-14.5z"/>
</g>
<g>
	<path fill="#FFFFFF" d="M143.2-35.8c-0.5-0.5-1-0.8-1.6-1.1c-0.2-0.1-0.6,0-0.8,0.3c-0.2,0.3-0.2,0.6,0,0.7l0,0
		c0.5,0.3,1,0.6,1.4,1c0.4,0.4,0.8,0.9,1,1.4c0.1,0.2,0.5,0.2,0.8,0c0,0,0.1-0.1,0.1-0.1c0.2-0.2,0.3-0.5,0.2-0.7
		C144-34.8,143.7-35.3,143.2-35.8z"/>
	<path fill="#FFFFFF" d="M151.5-35.3c-0.4-2.4-1.4-4.3-2.9-5.8c-1.5-1.5-3.5-2.5-5.8-2.9c-0.3,0-0.6,0.2-0.8,0.5
		c-0.2,0.3-0.1,0.6,0.2,0.7l0,0c2.2,0.4,4.1,1.3,5.5,2.7c1.4,1.4,2.4,3.3,2.7,5.5c0,0.3,0.3,0.4,0.7,0.2c0.1,0,0.2-0.1,0.2-0.2
		C151.4-34.9,151.5-35.1,151.5-35.3z"/>
	<path fill="#FFFFFF" d="M145.8-38.5c-0.9-0.9-2-1.6-3.3-2c-0.3-0.1-0.6,0.1-0.8,0.4c-0.2,0.3-0.1,0.6,0.1,0.7c1.2,0.4,2.2,1,3,1.8
		c0.8,0.8,1.4,1.8,1.8,3c0.1,0.3,0.4,0.3,0.7,0.1c0.1,0,0.1-0.1,0.2-0.1c0.2-0.2,0.3-0.5,0.2-0.7C147.4-36.5,146.7-37.6,145.8-38.5z
		"/>
</g>
<g>
	<rect x="22.3" y="-40.9" fill="none" width="112.6" height="37"/>
	<path fill="#FFFFFF" d="M25.4-39.4c-0.3-0.2-0.6-0.4-1-0.4c-0.5,0-0.8,0.2-0.8,0.6c0,0.8,2.2,0.6,2.2,1.9c0,0.6-0.5,1-1.2,1.1v1
		h-0.4v-1c-0.5,0-1-0.3-1.3-0.5l0.3-0.4c0.3,0.2,0.8,0.5,1.3,0.5c0.5,0,0.8-0.2,0.8-0.6c0-0.9-2.2-0.7-2.2-1.9c0-0.6,0.4-1,1.1-1
		v-0.9h0.4v0.9c0.5,0,0.8,0.3,1.1,0.5L25.4-39.4z"/>
	<path fill="#FFFFFF" d="M31.8-35.7v1.1h-0.6v-4.8h0.5l0,0.4h0c0.3-0.3,0.7-0.5,1.2-0.5c0.9,0,1.4,0.7,1.4,1.7
		c0,1.1-0.7,1.8-1.5,1.8c-0.3,0-0.7-0.2-1-0.4L31.8-35.7z M32.7-36.4c0.6,0,1-0.5,1-1.3c0-0.7-0.3-1.2-0.9-1.2c-0.3,0-0.6,0.2-1,0.5
		v1.7C32.1-36.5,32.4-36.4,32.7-36.4z"/>
	<path fill="#FFFFFF" d="M35.3-40.9h0.6v1.3l0,0.8c0.4-0.4,0.7-0.7,1.3-0.7c0.8,0,1.2,0.5,1.2,1.3v2.1h-0.6v-2
		c0-0.6-0.2-0.9-0.8-0.9c-0.4,0-0.7,0.2-1.1,0.6v2.3h-0.6L35.3-40.9L35.3-40.9z"/>
	<path fill="#FFFFFF" d="M40.9-39.4c0.9,0,1.7,0.6,1.7,1.8c0,1.1-0.8,1.7-1.7,1.7s-1.7-0.6-1.7-1.7C39.2-38.8,40-39.4,40.9-39.4z
		 M40.9-36.4c0.6,0,1.1-0.5,1.1-1.3c0-0.8-0.4-1.3-1.1-1.3s-1.1,0.5-1.1,1.3C39.8-36.9,40.2-36.4,40.9-36.4z"/>
	<path fill="#FFFFFF" d="M43.6-39.3h0.5l0,0.6h0c0.4-0.4,0.7-0.7,1.3-0.7c0.8,0,1.2,0.5,1.2,1.3v2.1H46v-2c0-0.6-0.2-0.9-0.8-0.9
		c-0.4,0-0.7,0.2-1.1,0.6v2.3h-0.6C43.6-36,43.6-39.3,43.6-39.3z"/>
	<path fill="#FFFFFF" d="M49.2-39.4c1,0,1.5,0.6,1.5,1.6c0,0.1,0,0.2,0,0.3h-2.6c0,0.7,0.6,1.2,1.3,1.2c0.4,0,0.7-0.1,1-0.3l0.2,0.4
		c-0.3,0.2-0.8,0.4-1.3,0.4c-1,0-1.8-0.7-1.8-1.7C47.5-38.7,48.4-39.4,49.2-39.4z M50.2-37.9c0-0.7-0.4-1.1-1-1.1
		c-0.5,0-1,0.4-1.1,1.1H50.2z"/>
	<path fill="#FFFFFF" d="M52.3-36.1L52.3-36.1c-0.2-0.1-0.3-0.3-0.3-0.6c0-0.2,0.1-0.5,0.4-0.6v0c-0.2-0.2-0.4-0.5-0.4-0.9
		c0-0.7,0.6-1.2,1.3-1.2c0.2,0,0.4,0,0.5,0.1h1.4v0.4h-0.9c0.2,0.2,0.3,0.4,0.3,0.7c0,0.7-0.6,1.1-1.3,1.1c-0.2,0-0.4,0-0.6-0.1
		c-0.2,0.1-0.3,0.2-0.3,0.4c0,0.3,0.3,0.4,0.7,0.4h0.8c0.9,0,1.3,0.2,1.3,0.8c0,0.6-0.7,1.2-1.9,1.2c-1,0-1.5-0.3-1.5-0.9
		C51.7-35.6,51.9-35.9,52.3-36.1z M53.3-34.8c0.8,0,1.3-0.3,1.3-0.7c0-0.3-0.3-0.4-0.8-0.4h-0.7c-0.2,0-0.4,0-0.5-0.1
		c-0.3,0.2-0.4,0.4-0.4,0.6C52.2-35.1,52.6-34.8,53.3-34.8z M54-38.2c0-0.5-0.3-0.8-0.8-0.8c-0.4,0-0.8,0.3-0.8,0.8
		c0,0.5,0.4,0.8,0.8,0.8C53.6-37.4,54-37.7,54-38.2z"/>
	<path fill="#FFFFFF" d="M58.3-38.1c0-0.5-0.2-0.8-0.9-0.8c-0.4,0-0.9,0.2-1.2,0.4L56-38.9c0.3-0.2,0.9-0.5,1.5-0.5
		c0.9,0,1.4,0.5,1.4,1.4v2.1h-0.5l0-0.5h0c-0.4,0.3-0.8,0.5-1.3,0.5c-0.6,0-1.1-0.4-1.1-1C55.9-37.6,56.6-38,58.3-38.1z M57.2-36.3
		c0.4,0,0.8-0.2,1.1-0.5v-0.9c-1.4,0.1-1.9,0.4-1.9,0.8C56.4-36.5,56.8-36.3,57.2-36.3z"/>
	<path fill="#FFFFFF" d="M60.7-35.7v1.1h-0.6v-4.8h0.5l0,0.4h0c0.3-0.3,0.7-0.5,1.2-0.5c0.9,0,1.4,0.7,1.4,1.7
		c0,1.1-0.7,1.8-1.5,1.8c-0.3,0-0.7-0.2-1-0.4L60.7-35.7z M61.6-36.4c0.6,0,1-0.5,1-1.3c0-0.7-0.3-1.2-0.9-1.2c-0.3,0-0.6,0.2-1,0.5
		v1.7C61-36.5,61.3-36.4,61.6-36.4z"/>
	<path fill="#FFFFFF" d="M70.1-39.4c0.5,0,0.9,0.2,1.2,0.5l-0.3,0.4c-0.3-0.2-0.6-0.4-0.9-0.4c-0.8,0-1.3,0.5-1.3,1.3
		c0,0.8,0.5,1.3,1.3,1.3c0.4,0,0.8-0.2,1-0.4l0.2,0.4c-0.4,0.3-0.8,0.5-1.3,0.5c-1,0-1.8-0.6-1.8-1.7C68.3-38.8,69.1-39.4,70.1-39.4
		z"/>
	<path fill="#FFFFFF" d="M72.9-39.3h0.5l0,0.8h0c0.4-0.5,0.9-0.9,1.5-0.9c0.2,0,0.4,0,0.7,0.1l-0.1,0.5c-0.2-0.1-0.4-0.1-0.6-0.1
		c-0.5,0-1,0.3-1.4,1v2h-0.6V-39.3z"/>
	<path fill="#FFFFFF" d="M78.2-39.4c1,0,1.5,0.6,1.5,1.6c0,0.1,0,0.2,0,0.3H77c0,0.7,0.6,1.2,1.3,1.2c0.4,0,0.7-0.1,1-0.3l0.2,0.4
		c-0.3,0.2-0.8,0.4-1.3,0.4c-1,0-1.8-0.7-1.8-1.7C76.5-38.7,77.3-39.4,78.2-39.4z M79.2-37.9c0-0.7-0.4-1.1-1-1.1
		c-0.5,0-1,0.4-1.1,1.1H79.2z"/>
	<path fill="#FFFFFF" d="M83.1-38.1c0-0.5-0.2-0.8-0.9-0.8c-0.4,0-0.9,0.2-1.2,0.4l-0.2-0.4c0.3-0.2,0.9-0.5,1.5-0.5
		c0.9,0,1.4,0.5,1.4,1.4v2.1h-0.5l0-0.5h0c-0.4,0.3-0.8,0.5-1.3,0.5c-0.6,0-1.1-0.4-1.1-1C80.7-37.6,81.4-38,83.1-38.1z M82-36.3
		c0.4,0,0.8-0.2,1.1-0.5v-0.9c-1.4,0.1-1.9,0.4-1.9,0.8C81.2-36.5,81.6-36.3,82-36.3z"/>
	<path fill="#FFFFFF" d="M85.7-38.9h-0.9v-0.4l1,0l0.1-0.9h0.5v0.9h1.6v0.5h-1.6v1.6c0,0.6,0.2,0.9,0.8,0.9c0.3,0,0.6-0.1,0.8-0.2
		l0.1,0.4c-0.3,0.1-0.7,0.2-1,0.2c-1,0-1.3-0.6-1.3-1.4L85.7-38.9L85.7-38.9z"/>
	<path fill="#FFFFFF" d="M90.5-39.4c1,0,1.5,0.6,1.5,1.6c0,0.1,0,0.2,0,0.3h-2.6c0,0.7,0.6,1.2,1.3,1.2c0.4,0,0.7-0.1,1-0.3l0.2,0.4
		c-0.3,0.2-0.8,0.4-1.3,0.4c-1,0-1.8-0.7-1.8-1.7C88.8-38.7,89.7-39.4,90.5-39.4z M91.5-37.9c0-0.7-0.4-1.1-1-1.1
		c-0.5,0-1,0.4-1.1,1.1H91.5z"/>
	<path fill="#FFFFFF" d="M97-39.3h0.4l0,0.4h0c0.2-0.3,0.4-0.5,0.8-0.5c0.3,0,0.6,0.2,0.6,0.6c0.2-0.4,0.4-0.6,0.8-0.6
		c0.5,0,0.7,0.4,0.7,1v2.4h-0.5v-2.3c0-0.4-0.1-0.6-0.4-0.6c-0.2,0-0.4,0.2-0.6,0.5v2.4h-0.5v-2.3c0-0.4-0.1-0.6-0.4-0.6
		c-0.2,0-0.4,0.2-0.6,0.5v2.4H97C97-36,97-39.3,97-39.3z"/>
	<path fill="#FFFFFF" d="M101.6-35c0.5,0,0.8-0.3,0.9-0.7l0.1-0.2l-1.6-3.4h0.6l0.8,1.9c0.1,0.3,0.3,0.6,0.4,1h0
		c0.1-0.3,0.2-0.7,0.4-1l0.7-1.9h0.5l-1.5,3.6c-0.2,0.7-0.7,1.2-1.4,1.2c-0.2,0-0.3,0-0.4-0.1l0.1-0.4C101.4-35,101.5-35,101.6-35z"
		/>
	<path fill="#FFFFFF" d="M107.8-37.3h-1.6l-0.4,1.4h-0.6l1.5-4.5h0.6l1.5,4.5h-0.6L107.8-37.3z M107.6-37.8l-0.2-0.7
		c-0.2-0.5-0.3-1-0.4-1.5h0c-0.1,0.5-0.3,1-0.4,1.5l-0.2,0.7H107.6z"/>
	<path fill="#FFFFFF" d="M110.2-35.7v1.1h-0.6v-4.8h0.5l0,0.4h0c0.3-0.3,0.7-0.5,1.2-0.5c0.9,0,1.4,0.7,1.4,1.7
		c0,1.1-0.7,1.8-1.5,1.8c-0.3,0-0.7-0.2-1-0.4L110.2-35.7z M111.1-36.4c0.6,0,1-0.5,1-1.3c0-0.7-0.3-1.2-0.9-1.2
		c-0.3,0-0.6,0.2-1,0.5v1.7C110.5-36.5,110.9-36.4,111.1-36.4z"/>
	<path fill="#FFFFFF" d="M114.4-35.7v1.1h-0.6v-4.8h0.5l0,0.4h0c0.3-0.3,0.7-0.5,1.2-0.5c0.9,0,1.4,0.7,1.4,1.7
		c0,1.1-0.7,1.8-1.5,1.8c-0.3,0-0.7-0.2-1-0.4L114.4-35.7z M115.2-36.4c0.6,0,1-0.5,1-1.3c0-0.7-0.3-1.2-0.9-1.2
		c-0.3,0-0.6,0.2-1,0.5v1.7C114.7-36.5,115-36.4,115.2-36.4z"/>
	<path fill="#FFFFFF" d="M25.4-29.3c-0.3-0.2-0.6-0.4-1-0.4c-0.5,0-0.8,0.2-0.8,0.6c0,0.8,2.2,0.6,2.2,1.9c0,0.6-0.5,1-1.2,1.1v1
		h-0.4v-1c-0.5,0-1-0.3-1.3-0.5l0.3-0.4c0.3,0.2,0.8,0.5,1.3,0.5c0.5,0,0.8-0.2,0.8-0.6c0-0.9-2.2-0.7-2.2-1.9c0-0.6,0.4-1,1.1-1
		V-31h0.4v0.9c0.5,0,0.8,0.3,1.1,0.5L25.4-29.3z"/>
	<path fill="#FFFFFF" d="M33-29.3c0.5,0,0.9,0.2,1.2,0.5l-0.3,0.4c-0.3-0.2-0.6-0.4-0.9-0.4c-0.8,0-1.3,0.5-1.3,1.3
		c0,0.8,0.5,1.3,1.3,1.3c0.4,0,0.8-0.2,1-0.4l0.2,0.4c-0.4,0.3-0.8,0.5-1.3,0.5c-1,0-1.8-0.6-1.8-1.7C31.1-28.7,32-29.3,33-29.3z"/>
	<path fill="#FFFFFF" d="M36.6-29.3c0.4,0,0.7,0.2,1,0.4l0-0.6v-1.3h0.6v4.9h-0.5l0-0.4h0c-0.3,0.3-0.7,0.5-1.1,0.5
		c-0.9,0-1.5-0.6-1.5-1.7C35.1-28.6,35.8-29.3,36.6-29.3z M36.7-26.3c0.3,0,0.6-0.2,0.9-0.5v-1.7c-0.3-0.3-0.6-0.4-0.9-0.4
		c-0.6,0-1,0.5-1,1.3C35.7-26.7,36-26.3,36.7-26.3z"/>
	<path fill="#FFFFFF" d="M43.4-29.2h0.4l0,0.4h0c0.2-0.3,0.4-0.5,0.8-0.5c0.3,0,0.6,0.2,0.6,0.6c0.2-0.4,0.4-0.6,0.8-0.6
		c0.5,0,0.7,0.4,0.7,1v2.4h-0.5v-2.3c0-0.4-0.1-0.6-0.4-0.6c-0.2,0-0.4,0.2-0.6,0.5v2.4h-0.5v-2.3c0-0.4-0.1-0.6-0.4-0.6
		c-0.2,0-0.4,0.2-0.6,0.5v2.4h-0.5L43.4-29.2L43.4-29.2z"/>
	<path fill="#FFFFFF" d="M48-24.9c0.5,0,0.8-0.3,0.9-0.7l0.1-0.2l-1.6-3.4H48l0.8,1.9c0.1,0.3,0.3,0.6,0.4,1h0
		c0.1-0.3,0.2-0.7,0.4-1l0.7-1.9h0.5l-1.5,3.6c-0.2,0.7-0.7,1.2-1.4,1.2c-0.2,0-0.3,0-0.4-0.1l0.1-0.4C47.7-24.9,47.9-24.9,48-24.9z
		"/>
	<path fill="#FFFFFF" d="M54.1-27.2h-1.6L52-25.9h-0.6l1.5-4.5h0.6l1.5,4.5h-0.6L54.1-27.2z M53.9-27.7l-0.2-0.7
		c-0.2-0.5-0.3-1-0.4-1.5h0c-0.1,0.5-0.3,1-0.4,1.5l-0.2,0.7H53.9z"/>
	<path fill="#FFFFFF" d="M56.5-25.6v1.1H56v-4.8h0.5l0,0.4h0c0.3-0.3,0.7-0.5,1.2-0.5c0.9,0,1.4,0.7,1.4,1.7c0,1.1-0.7,1.8-1.5,1.8
		c-0.3,0-0.7-0.2-1-0.4L56.5-25.6z M57.4-26.3c0.6,0,1-0.5,1-1.3c0-0.7-0.3-1.2-0.9-1.2c-0.3,0-0.6,0.2-1,0.5v1.7
		C56.9-26.4,57.2-26.3,57.4-26.3z"/>
	<path fill="#FFFFFF" d="M60.7-25.6v1.1h-0.6v-4.8h0.5l0,0.4h0c0.3-0.3,0.7-0.5,1.2-0.5c0.9,0,1.4,0.7,1.4,1.7
		c0,1.1-0.7,1.8-1.5,1.8c-0.3,0-0.7-0.2-1-0.4L60.7-25.6z M61.6-26.3c0.6,0,1-0.5,1-1.3c0-0.7-0.3-1.2-0.9-1.2c-0.3,0-0.6,0.2-1,0.5
		v1.7C61-26.4,61.3-26.3,61.6-26.3z"/>
	<path fill="#FFFFFF" d="M64.8-24.8h-0.5l2.3-6H67L64.8-24.8z"/>
	<path fill="#FFFFFF" d="M25.4-19.2c-0.3-0.2-0.6-0.4-1-0.4c-0.5,0-0.8,0.2-0.8,0.6c0,0.8,2.2,0.6,2.2,1.9c0,0.6-0.5,1-1.2,1.1v1
		h-0.4v-1c-0.5,0-1-0.3-1.3-0.5l0.3-0.4c0.3,0.2,0.8,0.5,1.3,0.5c0.5,0,0.8-0.2,0.8-0.6c0-0.9-2.2-0.7-2.2-1.9c0-0.6,0.4-1,1.1-1
		v-0.9h0.4v0.9c0.5,0,0.8,0.3,1.1,0.5L25.4-19.2z"/>
	<path fill="#FFFFFF" d="M31.8-15.5v1.1h-0.6v-4.8h0.5l0,0.4h0c0.3-0.3,0.7-0.5,1.2-0.5c0.9,0,1.4,0.7,1.4,1.7
		c0,1.1-0.7,1.8-1.5,1.8c-0.3,0-0.7-0.2-1-0.4L31.8-15.5z M32.7-16.2c0.6,0,1-0.5,1-1.3c0-0.7-0.3-1.2-0.9-1.2c-0.3,0-0.6,0.2-1,0.5
		v1.7C32.1-16.3,32.4-16.2,32.7-16.2z"/>
	<path fill="#FFFFFF" d="M35.3-20.7h0.6v1.3l0,0.8c0.4-0.4,0.7-0.7,1.3-0.7c0.8,0,1.2,0.5,1.2,1.3v2.1h-0.6v-2
		c0-0.6-0.2-0.9-0.8-0.9c-0.4,0-0.7,0.2-1.1,0.6v2.3h-0.6L35.3-20.7L35.3-20.7z"/>
	<path fill="#FFFFFF" d="M40.9-19.2c0.9,0,1.7,0.6,1.7,1.8c0,1.1-0.8,1.7-1.7,1.7s-1.7-0.6-1.7-1.7C39.2-18.6,40-19.2,40.9-19.2z
		 M40.9-16.2c0.6,0,1.1-0.5,1.1-1.3c0-0.8-0.4-1.3-1.1-1.3s-1.1,0.5-1.1,1.3C39.8-16.7,40.2-16.2,40.9-16.2z"/>
	<path fill="#FFFFFF" d="M43.6-19.1h0.5l0,0.6h0c0.4-0.4,0.7-0.7,1.3-0.7c0.8,0,1.2,0.5,1.2,1.3v2.1H46v-2c0-0.6-0.2-0.9-0.8-0.9
		c-0.4,0-0.7,0.2-1.1,0.6v2.3h-0.6C43.6-15.8,43.6-19.1,43.6-19.1z"/>
	<path fill="#FFFFFF" d="M49.2-19.2c1,0,1.5,0.6,1.5,1.6c0,0.1,0,0.2,0,0.3h-2.6c0,0.7,0.6,1.2,1.3,1.2c0.4,0,0.7-0.1,1-0.3l0.2,0.4
		c-0.3,0.2-0.8,0.4-1.3,0.4c-1,0-1.8-0.7-1.8-1.7S48.4-19.2,49.2-19.2z M50.2-17.7c0-0.7-0.4-1.1-1-1.1c-0.5,0-1,0.4-1.1,1.1H50.2z"
		/>
	<path fill="#FFFFFF" d="M52.3-15.9L52.3-15.9c-0.2-0.1-0.3-0.3-0.3-0.6c0-0.2,0.1-0.5,0.4-0.6v0c-0.2-0.2-0.4-0.5-0.4-0.9
		c0-0.7,0.6-1.2,1.3-1.2c0.2,0,0.4,0,0.5,0.1h1.4v0.4h-0.9c0.2,0.2,0.3,0.4,0.3,0.7c0,0.7-0.6,1.1-1.3,1.1c-0.2,0-0.4,0-0.6-0.1
		c-0.2,0.1-0.3,0.2-0.3,0.4c0,0.3,0.3,0.4,0.7,0.4h0.8c0.9,0,1.3,0.2,1.3,0.8c0,0.6-0.7,1.2-1.9,1.2c-1,0-1.5-0.3-1.5-0.9
		C51.7-15.4,51.9-15.7,52.3-15.9z M53.3-14.6c0.8,0,1.3-0.3,1.3-0.7c0-0.3-0.3-0.4-0.8-0.4h-0.7c-0.2,0-0.4,0-0.5-0.1
		c-0.3,0.2-0.4,0.4-0.4,0.6C52.2-14.9,52.6-14.6,53.3-14.6z M54-18c0-0.5-0.3-0.8-0.8-0.8c-0.4,0-0.8,0.3-0.8,0.8
		c0,0.5,0.4,0.8,0.8,0.8C53.6-17.2,54-17.5,54-18z"/>
	<path fill="#FFFFFF" d="M58.3-17.9c0-0.5-0.2-0.8-0.9-0.8c-0.4,0-0.9,0.2-1.2,0.4L56-18.7c0.3-0.2,0.9-0.5,1.5-0.5
		c0.9,0,1.4,0.5,1.4,1.4v2.1h-0.5l0-0.5h0c-0.4,0.3-0.8,0.5-1.3,0.5c-0.6,0-1.1-0.4-1.1-0.9C55.9-17.4,56.6-17.8,58.3-17.9z
		 M57.2-16.1c0.4,0,0.8-0.2,1.1-0.5v-0.9c-1.4,0.1-1.9,0.4-1.9,0.8C56.4-16.3,56.8-16.1,57.2-16.1z"/>
	<path fill="#FFFFFF" d="M60.7-15.5v1.1h-0.6v-4.8h0.5l0,0.4h0c0.3-0.3,0.7-0.5,1.2-0.5c0.9,0,1.4,0.7,1.4,1.7
		c0,1.1-0.7,1.8-1.5,1.8c-0.3,0-0.7-0.2-1-0.4L60.7-15.5z M61.6-16.2c0.6,0,1-0.5,1-1.3c0-0.7-0.3-1.2-0.9-1.2c-0.3,0-0.6,0.2-1,0.5
		v1.7C61-16.3,61.3-16.2,61.6-16.2z"/>
	<path fill="#FFFFFF" d="M68.5-16.6c0.4,0.3,0.8,0.5,1.4,0.5c0.6,0,0.9-0.2,0.9-0.5c0-0.3-0.3-0.4-1.1-0.6c-0.7-0.2-1.3-0.5-1.3-1
		c0-0.5,0.5-0.9,1.4-0.9c0.5,0,1,0.2,1.3,0.4l-0.3,0.4c-0.3-0.2-0.7-0.4-1.1-0.4c-0.6,0-0.8,0.2-0.8,0.5c0,0.3,0.4,0.4,1,0.6
		c0.9,0.2,1.3,0.5,1.3,1c0,0.5-0.5,1-1.5,1c-0.7,0-1.2-0.2-1.6-0.5L68.5-16.6z"/>
	<path fill="#FFFFFF" d="M74-19.2c1,0,1.5,0.6,1.5,1.6c0,0.1,0,0.2,0,0.3h-2.6c0,0.7,0.6,1.2,1.3,1.2c0.4,0,0.7-0.1,1-0.3l0.2,0.4
		c-0.3,0.2-0.8,0.4-1.3,0.4c-1,0-1.8-0.7-1.8-1.7S73.2-19.2,74-19.2z M75-17.7c0-0.7-0.4-1.1-1-1.1c-0.5,0-1,0.4-1.1,1.1H75z"/>
	<path fill="#FFFFFF" d="M77-19.1h0.5l0,0.8h0c0.4-0.5,0.9-0.9,1.5-0.9c0.2,0,0.4,0,0.7,0.1l-0.1,0.5c-0.2-0.1-0.4-0.1-0.6-0.1
		c-0.5,0-1,0.3-1.4,1v2H77V-19.1z"/>
	<path fill="#FFFFFF" d="M80.5-19.1H81l0.8,1.9c0.1,0.3,0.3,0.7,0.4,1h0c0.1-0.3,0.2-0.6,0.4-1l0.8-1.9h0.5l-1.4,3.3h-0.6L80.5-19.1
		z"/>
	<path fill="#FFFFFF" d="M86.4-19.2c1,0,1.5,0.6,1.5,1.6c0,0.1,0,0.2,0,0.3h-2.6c0,0.7,0.6,1.2,1.3,1.2c0.4,0,0.7-0.1,1-0.3l0.2,0.4
		c-0.3,0.2-0.8,0.4-1.3,0.4c-1,0-1.8-0.7-1.8-1.7S85.5-19.2,86.4-19.2z M87.4-17.7c0-0.7-0.4-1.1-1-1.1c-0.5,0-1,0.4-1.1,1.1H87.4z"
		/>
	<path fill="#FFFFFF" d="M22.9-10.6h1.7v3.8c0,0.5,0.3,0.7,0.7,0.7c0.2,0,0.4,0,0.6-0.2L26-5.8c-0.3,0.1-0.5,0.2-0.9,0.2
		C24.4-5.6,24-6,24-6.8v-3.3h-1.1L22.9-10.6L22.9-10.6z"/>
	<path fill="#FFFFFF" d="M27-9h2.1v3.3h-0.6v-2.9H27V-9z M28.4-10.1c0-0.3,0.2-0.4,0.5-0.4c0.3,0,0.5,0.2,0.5,0.4
		c0,0.3-0.2,0.4-0.5,0.4C28.6-9.7,28.4-9.9,28.4-10.1z"/>
	<path fill="#FFFFFF" d="M31.3-6.5C31.7-6.2,32.1-6,32.7-6s0.9-0.2,0.9-0.5c0-0.3-0.3-0.4-1.1-0.6c-0.7-0.2-1.3-0.5-1.3-1
		c0-0.5,0.5-0.9,1.4-0.9c0.5,0,1,0.2,1.3,0.4l-0.3,0.4c-0.3-0.2-0.7-0.4-1.1-0.4c-0.6,0-0.8,0.2-0.8,0.5c0,0.3,0.4,0.4,1,0.6
		c0.9,0.2,1.3,0.5,1.3,1c0,0.5-0.5,1-1.5,1c-0.7,0-1.2-0.2-1.6-0.5L31.3-6.5z"/>
	<path fill="#FFFFFF" d="M36.1-8.6h-0.9V-9l1,0l0.1-0.9h0.5V-9h1.6v0.5h-1.6V-7c0,0.6,0.2,0.9,0.8,0.9c0.3,0,0.6-0.1,0.8-0.2
		l0.1,0.4c-0.3,0.1-0.7,0.2-1,0.2c-1,0-1.3-0.6-1.3-1.4L36.1-8.6L36.1-8.6z"/>
	<path fill="#FFFFFF" d="M41-9.1c1,0,1.5,0.6,1.5,1.6c0,0.1,0,0.2,0,0.3h-2.6c0,0.7,0.6,1.2,1.3,1.2c0.4,0,0.7-0.1,1-0.3L42.4-6
		c-0.3,0.2-0.8,0.4-1.3,0.4c-1,0-1.8-0.7-1.8-1.7S40.1-9.1,41-9.1z M42-7.6c0-0.7-0.4-1.1-1-1.1c-0.5,0-1,0.4-1.1,1.1H42z"/>
	<path fill="#FFFFFF" d="M43.6-9h0.5l0,0.6h0c0.4-0.4,0.7-0.7,1.3-0.7c0.8,0,1.2,0.5,1.2,1.3v2.1H46v-2c0-0.6-0.2-0.9-0.8-0.9
		c-0.4,0-0.7,0.2-1.1,0.6v2.3h-0.6C43.6-5.7,43.6-9,43.6-9z"/>
	<path fill="#FFFFFF" d="M47.7-9h2.1v3.3h-0.6v-2.9h-1.6V-9z M49-10.1c0-0.3,0.2-0.4,0.5-0.4c0.3,0,0.5,0.2,0.5,0.4
		c0,0.3-0.2,0.4-0.5,0.4C49.2-9.7,49-9.9,49-10.1z"/>
	<path fill="#FFFFFF" d="M51.8-9h0.5l0,0.6h0c0.4-0.4,0.7-0.7,1.3-0.7c0.8,0,1.2,0.5,1.2,1.3v2.1h-0.6v-2c0-0.6-0.2-0.9-0.8-0.9
		c-0.4,0-0.7,0.2-1.1,0.6v2.3h-0.6C51.8-5.7,51.8-9,51.8-9z"/>
	<path fill="#FFFFFF" d="M56.4-5.8L56.4-5.8C56.2-5.9,56-6.1,56-6.4c0-0.2,0.1-0.5,0.4-0.6v0C56.2-7.2,56-7.5,56-7.9
		c0-0.7,0.6-1.2,1.3-1.2c0.2,0,0.4,0,0.5,0.1h1.4v0.4h-0.9c0.2,0.2,0.3,0.4,0.3,0.7c0,0.7-0.6,1.1-1.3,1.1c-0.2,0-0.4,0-0.6-0.1
		c-0.2,0.1-0.3,0.2-0.3,0.4c0,0.3,0.3,0.4,0.7,0.4H58c0.9,0,1.3,0.2,1.3,0.8c0,0.6-0.7,1.2-1.9,1.2c-1,0-1.5-0.3-1.5-0.9
		C55.8-5.3,56-5.6,56.4-5.8z M57.4-4.5c0.8,0,1.3-0.3,1.3-0.7c0-0.3-0.3-0.4-0.8-0.4h-0.7c-0.2,0-0.4,0-0.5-0.1
		c-0.3,0.2-0.4,0.4-0.4,0.6C56.3-4.8,56.7-4.5,57.4-4.5z M58.1-7.9c0-0.5-0.3-0.8-0.8-0.8c-0.4,0-0.8,0.3-0.8,0.8
		c0,0.5,0.4,0.8,0.8,0.8C57.8-7.1,58.1-7.4,58.1-7.9z"/>
	<path fill="#FFFFFF" d="M65.7-9.1c0.9,0,1.7,0.6,1.7,1.8c0,1.1-0.8,1.7-1.7,1.7c-0.9,0-1.7-0.6-1.7-1.7C64-8.5,64.8-9.1,65.7-9.1z
		 M65.7-6.1c0.6,0,1.1-0.5,1.1-1.3c0-0.8-0.4-1.3-1.1-1.3c-0.6,0-1.1,0.5-1.1,1.3C64.6-6.6,65-6.1,65.7-6.1z"/>
	<path fill="#FFFFFF" d="M68.4-9h0.5l0,0.6h0c0.4-0.4,0.7-0.7,1.3-0.7c0.8,0,1.2,0.5,1.2,1.3v2.1h-0.6v-2c0-0.6-0.2-0.9-0.8-0.9
		c-0.4,0-0.7,0.2-1.1,0.6v2.3h-0.6C68.4-5.7,68.4-9,68.4-9z"/>
	<path fill="#FFFFFF" d="M79.6-6.1v0.5h-3v-0.5h1.2v-3.2H77v-0.4c0.5-0.1,0.8-0.2,1.1-0.3h0.4v3.9C78.5-6.1,79.6-6.1,79.6-6.1z"/>
	<path fill="#FFFFFF" d="M80.6-7.9c0-1.5,0.6-2.3,1.6-2.3c1,0,1.6,0.8,1.6,2.3c0,1.5-0.6,2.3-1.6,2.3C81.2-5.6,80.6-6.4,80.6-7.9z
		 M81.1-7.9c0,1.3,0.4,1.8,1,1.8c0.6,0,1-0.6,1-1.8c0-1.3-0.4-1.8-1-1.8S81.1-9.1,81.1-7.9z M81.7-7.9c0-0.3,0.2-0.5,0.4-0.5
		c0.2,0,0.4,0.2,0.4,0.5c0,0.3-0.2,0.5-0.4,0.5C81.9-7.5,81.7-7.6,81.7-7.9z"/>
	<path fill="#FFFFFF" d="M86.3-6.8c0.3,0,0.6,0.2,0.6,0.6c0,0.3-0.2,0.6-0.6,0.6s-0.6-0.2-0.6-0.6C85.7-6.5,86-6.8,86.3-6.8z"/>
	<path fill="#FFFFFF" d="M88.9-7.9c0-1.5,0.6-2.3,1.6-2.3c1,0,1.6,0.8,1.6,2.3c0,1.5-0.6,2.3-1.6,2.3C89.5-5.6,88.9-6.4,88.9-7.9z
		 M89.4-7.9c0,1.3,0.4,1.8,1,1.8s1-0.6,1-1.8c0-1.3-0.4-1.8-1-1.8S89.4-9.1,89.4-7.9z M90-7.9c0-0.3,0.2-0.5,0.4-0.5
		c0.2,0,0.4,0.2,0.4,0.5c0,0.3-0.2,0.5-0.4,0.5C90.2-7.5,90-7.6,90-7.9z"/>
	<path fill="#FFFFFF" d="M94.6-6.8c0.3,0,0.6,0.2,0.6,0.6c0,0.3-0.2,0.6-0.6,0.6S94-5.8,94-6.2C94-6.5,94.3-6.8,94.6-6.8z"/>
	<path fill="#FFFFFF" d="M100.3-6.1v0.5h-3v-0.5h1.2v-3.2h-0.9v-0.4c0.5-0.1,0.8-0.2,1.1-0.3h0.4v3.9C99.1-6.1,100.3-6.1,100.3-6.1z
		"/>
	<path fill="#FFFFFF" d="M102.8-6.8c0.3,0,0.6,0.2,0.6,0.6c0,0.3-0.2,0.6-0.6,0.6s-0.6-0.2-0.6-0.6C102.3-6.5,102.5-6.8,102.8-6.8z"
		/>
	<path fill="#FFFFFF" d="M108.6-6.9H108v1.2h-0.5v-1.2h-2.3v-0.4l2.2-2.8h0.6v2.7h0.7L108.6-6.9L108.6-6.9z M107.4-7.3v-1.4
		c0-0.2,0-0.5,0-0.8h0c-0.1,0.2-0.3,0.4-0.4,0.6l-1.2,1.5H107.4z"/>
	<path fill="#FFFFFF" d="M111.1-9.2c0.3,0,0.6,0.2,0.6,0.6c0,0.4-0.2,0.6-0.6,0.6s-0.6-0.2-0.6-0.6C110.5-9,110.8-9.2,111.1-9.2z
		 M111.1-6.8c0.3,0,0.6,0.2,0.6,0.6c0,0.3-0.2,0.6-0.6,0.6s-0.6-0.2-0.6-0.6C110.5-6.5,110.8-6.8,111.1-6.8z"/>
	<path fill="#FFFFFF" d="M113.8-6.6c0.3,0.3,0.7,0.5,1.3,0.5c0.6,0,1.1-0.3,1.1-0.8c0-0.5-0.4-0.9-1.6-0.9v-0.4c1,0,1.4-0.4,1.4-0.8
		c0-0.4-0.4-0.7-0.9-0.7c-0.4,0-0.8,0.2-1.1,0.4l-0.3-0.4c0.4-0.3,0.8-0.6,1.4-0.6c0.8,0,1.5,0.4,1.5,1.1c0,0.5-0.4,0.9-0.9,1v0
		c0.6,0.1,1.1,0.5,1.1,1.1c0,0.8-0.7,1.3-1.6,1.3c-0.8,0-1.3-0.3-1.6-0.6L113.8-6.6z"/>
	<path fill="#FFFFFF" d="M117.8-7.9c0-1.5,0.6-2.3,1.6-2.3s1.6,0.8,1.6,2.3c0,1.5-0.6,2.3-1.6,2.3S117.8-6.4,117.8-7.9z M118.3-7.9
		c0,1.3,0.4,1.8,1,1.8s1-0.6,1-1.8c0-1.3-0.4-1.8-1-1.8S118.3-9.1,118.3-7.9z M118.9-7.9c0-0.3,0.2-0.5,0.4-0.5s0.4,0.2,0.4,0.5
		c0,0.3-0.2,0.5-0.4,0.5S118.9-7.6,118.9-7.9z"/>
	<path fill="#FFFFFF" d="M121.9-7.9c0-1.5,0.6-2.3,1.6-2.3s1.6,0.8,1.6,2.3c0,1.5-0.6,2.3-1.6,2.3S121.9-6.4,121.9-7.9z M122.4-7.9
		c0,1.3,0.4,1.8,1,1.8c0.6,0,1-0.6,1-1.8c0-1.3-0.4-1.8-1-1.8C122.9-9.7,122.4-9.1,122.4-7.9z M123-7.9c0-0.3,0.2-0.5,0.4-0.5
		s0.4,0.2,0.4,0.5c0,0.3-0.2,0.5-0.4,0.5S123-7.6,123-7.9z"/>
	<path fill="#FFFFFF" d="M126-7.9c0-1.5,0.6-2.3,1.6-2.3s1.6,0.8,1.6,2.3c0,1.5-0.6,2.3-1.6,2.3S126-6.4,126-7.9z M126.6-7.9
		c0,1.3,0.4,1.8,1,1.8c0.6,0,1-0.6,1-1.8c0-1.3-0.4-1.8-1-1.8C127-9.7,126.6-9.1,126.6-7.9z M127.2-7.9c0-0.3,0.2-0.5,0.4-0.5
		s0.4,0.2,0.4,0.5c0,0.3-0.2,0.5-0.4,0.5S127.2-7.6,127.2-7.9z"/>
</g>
<g>
	<rect x="159.6" y="-23" fill="none" width="20.2" height="6.5"/>
	<path fill="#00CAF9" d="M161.5-21.5v0.2h-1v-0.2h0.4v-1.1h-0.3v-0.1c0.2,0,0.3-0.1,0.4-0.1h0.1v1.4
		C161.1-21.5,161.5-21.5,161.5-21.5z"/>
	<path fill="#00CAF9" d="M161.9-22.1c0-0.5,0.2-0.8,0.6-0.8c0.3,0,0.6,0.3,0.6,0.8c0,0.5-0.2,0.8-0.6,0.8
		C162.1-21.3,161.9-21.6,161.9-22.1z M162-22.1c0,0.4,0.2,0.6,0.4,0.6c0.2,0,0.4-0.2,0.4-0.6c0-0.4-0.2-0.6-0.4-0.6
		C162.2-22.7,162-22.5,162-22.1z M162.3-22.1c0-0.1,0.1-0.2,0.2-0.2s0.2,0.1,0.2,0.2c0,0.1-0.1,0.2-0.2,0.2S162.3-22,162.3-22.1z"/>
	<path fill="#00CAF9" d="M163.9-21.7c0.1,0,0.2,0.1,0.2,0.2c0,0.1-0.1,0.2-0.2,0.2c-0.1,0-0.2-0.1-0.2-0.2
		C163.7-21.6,163.8-21.7,163.9-21.7z"/>
	<path fill="#00CAF9" d="M164.8-22.1c0-0.5,0.2-0.8,0.6-0.8c0.3,0,0.6,0.3,0.6,0.8c0,0.5-0.2,0.8-0.6,0.8
		C165-21.3,164.8-21.6,164.8-22.1z M165-22.1c0,0.4,0.2,0.6,0.4,0.6c0.2,0,0.4-0.2,0.4-0.6c0-0.4-0.2-0.6-0.4-0.6
		C165.1-22.7,165-22.5,165-22.1z M165.2-22.1c0-0.1,0.1-0.2,0.2-0.2s0.2,0.1,0.2,0.2c0,0.1-0.1,0.2-0.2,0.2S165.2-22,165.2-22.1z"/>
	<path fill="#00CAF9" d="M166.8-21.7c0.1,0,0.2,0.1,0.2,0.2c0,0.1-0.1,0.2-0.2,0.2c-0.1,0-0.2-0.1-0.2-0.2
		C166.6-21.6,166.7-21.7,166.8-21.7z"/>
	<path fill="#00CAF9" d="M168.8-21.5v0.2h-1v-0.2h0.4v-1.1h-0.3v-0.1c0.2,0,0.3-0.1,0.4-0.1h0.1v1.4
		C168.4-21.5,168.8-21.5,168.8-21.5z"/>
	<path fill="#00CAF9" d="M169.7-21.7c0.1,0,0.2,0.1,0.2,0.2c0,0.1-0.1,0.2-0.2,0.2c-0.1,0-0.2-0.1-0.2-0.2
		C169.5-21.6,169.6-21.7,169.7-21.7z"/>
	<path fill="#00CAF9" d="M171.8-21.7h-0.2v0.4h-0.2v-0.4h-0.8v-0.1l0.8-1h0.2v1h0.2L171.8-21.7L171.8-21.7z M171.3-21.9v-0.5
		c0-0.1,0-0.2,0-0.3h0c0,0.1-0.1,0.2-0.2,0.2l-0.4,0.5C170.8-21.9,171.3-21.9,171.3-21.9z"/>
	<path fill="#00CAF9" d="M172.6-22.6c0.1,0,0.2,0.1,0.2,0.2c0,0.1-0.1,0.2-0.2,0.2c-0.1,0-0.2-0.1-0.2-0.2
		C172.4-22.5,172.5-22.6,172.6-22.6z M172.6-21.7c0.1,0,0.2,0.1,0.2,0.2c0,0.1-0.1,0.2-0.2,0.2c-0.1,0-0.2-0.1-0.2-0.2
		C172.4-21.6,172.5-21.7,172.6-21.7z"/>
	<path fill="#00CAF9" d="M173.6-21.6c0.1,0.1,0.2,0.2,0.4,0.2c0.2,0,0.4-0.1,0.4-0.3c0-0.2-0.2-0.3-0.6-0.3v-0.2
		c0.4,0,0.5-0.1,0.5-0.3c0-0.2-0.1-0.2-0.3-0.2c-0.1,0-0.3,0.1-0.4,0.2l-0.1-0.1c0.1-0.1,0.3-0.2,0.5-0.2c0.3,0,0.5,0.1,0.5,0.4
		c0,0.2-0.1,0.3-0.3,0.4v0c0.2,0,0.4,0.2,0.4,0.4c0,0.3-0.3,0.4-0.6,0.4c-0.3,0-0.4-0.1-0.6-0.2L173.6-21.6z"/>
	<path fill="#00CAF9" d="M175-22.1c0-0.5,0.2-0.8,0.6-0.8c0.3,0,0.6,0.3,0.6,0.8c0,0.5-0.2,0.8-0.6,0.8
		C175.2-21.3,175-21.6,175-22.1z M175.2-22.1c0,0.4,0.2,0.6,0.4,0.6c0.2,0,0.4-0.2,0.4-0.6c0-0.4-0.2-0.6-0.4-0.6
		C175.3-22.7,175.2-22.5,175.2-22.1z M175.4-22.1c0-0.1,0.1-0.2,0.2-0.2s0.2,0.1,0.2,0.2c0,0.1-0.1,0.2-0.2,0.2S175.4-22,175.4-22.1
		z"/>
	<path fill="#00CAF9" d="M176.4-22.1c0-0.5,0.2-0.8,0.6-0.8c0.3,0,0.6,0.3,0.6,0.8c0,0.5-0.2,0.8-0.6,0.8
		C176.7-21.3,176.4-21.6,176.4-22.1z M176.6-22.1c0,0.4,0.2,0.6,0.4,0.6c0.2,0,0.4-0.2,0.4-0.6c0-0.4-0.2-0.6-0.4-0.6
		C176.8-22.7,176.6-22.5,176.6-22.1z M176.9-22.1c0-0.1,0.1-0.2,0.2-0.2s0.2,0.1,0.2,0.2c0,0.1-0.1,0.2-0.2,0.2S176.9-22,176.9-22.1
		z"/>
	<path fill="#00CAF9" d="M177.9-22.1c0-0.5,0.2-0.8,0.6-0.8c0.3,0,0.6,0.3,0.6,0.8c0,0.5-0.2,0.8-0.6,0.8
		C178.1-21.3,177.9-21.6,177.9-22.1z M178.1-22.1c0,0.4,0.2,0.6,0.4,0.6c0.2,0,0.4-0.2,0.4-0.6c0-0.4-0.2-0.6-0.4-0.6
		C178.2-22.7,178.1-22.5,178.1-22.1z M178.3-22.1c0-0.1,0.1-0.2,0.2-0.2s0.2,0.1,0.2,0.2c0,0.1-0.1,0.2-0.2,0.2S178.3-22,178.3-22.1
		z"/>
</g>
</svg>
