<?xml version="1.0" encoding="utf-8"?>
<!-- Generator: Adobe Illustrator 17.1.0, SVG Export Plug-In . SVG Version: 6.00 Build 0)  -->
<!DOCTYPE svg PUBLIC "-//W3C//DTD SVG 1.1//EN" "http://www.w3.org/Graphics/SVG/1.1/DTD/svg11.dtd">
<svg version="1.1" id="Layer_1" xmlns="http://www.w3.org/2000/svg" xmlns:xlink="http://www.w3.org/1999/xlink" x="0px" y="0px"
	 viewBox="0 80 150 70" style="enable-background:new 0 80 150 70;" xml:space="preserve">
<style type="text/css">
	.st0{display:none;}
	.st1{display:inline;fill:#2D3033;}
	.st2{fill:#222222;}
	.st3{fill:#3B4250;}
	.st4{fill:#242C3C;}
	.st5{fill:#E36A5C;}
	.st6{fill:#6DBEC4;}
	.st7{opacity:0.5;}
	.st8{fill:#95989F;}
	.st9{fill:#EEEEEE;}
	.st10{fill:#606060;}
	.st11{fill:#A0A0A0;}
	.st12{fill:#FFFFFF;}
	.st13{fill:#0F8487;}
	.st14{fill-rule:evenodd;clip-rule:evenodd;fill:#FFFFFF;}
</style>
<g id="Layer_2" class="st0">
	<rect x="-19.0540543" y="29.3454094" class="st1" width="195" height="90.4054031"/>
</g>
<g id="Layer_1_1_">
	<g>
		<g>
			<g>
				<path class="st2" d="M97.7705383,86.0521622h-82.757843c-2.0736494,0-3.7767553,1.7031097-3.7767553,3.7763519v52.6909409
					h90.3117523V89.8293304C101.5476913,87.7556763,99.8433762,86.0521622,97.7705383,86.0521622z"/>
			</g>
			<g>
				<g>
					<g>
						<rect x="14.250206" y="88.9030838" class="st3" width="84.2622147" height="50.5442162"/>
					</g>
				</g>
				<g>
					<g>
						<rect x="14.2502022" y="88.9030838" class="st4" width="84.2247849" height="7.2324963"/>
					</g>
				</g>
				<g>
					<g>
						<rect x="21.2689362" y="102.0632095" class="st5" width="10.5280972" height="1.7546824"/>
					</g>
				</g>
				<g>
					<g>
						<rect x="21.2689362" y="98.5538406" class="st6" width="7.0187311" height="1.7546831"/>
					</g>
				</g>
				<g>
					<g class="st7">
						<g>
							<rect x="24.8331337" y="109.0819397" class="st8" width="21.0561962" height="1.7546824"/>
						</g>
					</g>
					<g>
						<g>
							<rect x="49.3438644" y="109.0819397" class="st8" width="21.0561981" height="1.7546824"/>
						</g>
					</g>
					<g class="st7">
						<g>
							<rect x="31.8244495" y="116.1006699" class="st8" width="17.519413" height="1.7546824"/>
						</g>
					</g>
					<g>
						<g>
							<rect x="28.2876701" y="112.7528" class="st5" width="7.0735655" height="1.7546824"/>
						</g>
					</g>
					<g>
						<g>
							<rect x="38.788353" y="112.7528" class="st8" width="14.0648813" height="1.7546824"/>
						</g>
					</g>
					<g class="st7">
						<g>
							<rect x="35.3612366" y="119.7715302" class="st8" width="21.0013618" height="1.7546824"/>
						</g>
					</g>
					<g>
						<g>
							<rect x="59.8719597" y="119.7715302" class="st8" width="31.5842953" height="1.7546824"/>
						</g>
					</g>
					<g>
						<g>
							<rect x="21.2689362" y="137.0878754" class="st6" width="10.5280972" height="1.7546824"/>
						</g>
					</g>
					<g class="st7">
						<g>
							<rect x="35.3201103" y="137.0878754" class="st8" width="24.5518513" height="1.7546824"/>
						</g>
					</g>
					<g class="st7">
						<g>
							<rect x="52.8532333" y="116.1696548" class="st8" width="7.0187297" height="1.7546824"/>
						</g>
					</g>
					<g class="st7">
						<g>
							<rect x="21.2689381" y="126.7902603" class="st8" width="14.0374651" height="1.7546824"/>
						</g>
					</g>
					<g>
						<g>
							<rect x="24.8331356" y="130.1381378" class="st8" width="13.9552145" height="1.7546824"/>
						</g>
					</g>
					<g>
						<g>
							<rect x="63.436161" y="116.1006699" class="st6" width="14.0374651" height="1.7546824"/>
						</g>
					</g>
				</g>
			</g>
			<g>
				<path class="st9" d="M-0.0578426,142.4829712C-0.0578426,146.6302643,3.3118873,150,7.4587774,150l0,0l0,0h97.7173004
					c4.1468887,0,7.5170212-3.3697357,7.5170212-7.5170288H-0.0578426z"/>
			</g>
			<g>
				<g id="XMLID_1_">
					<g>
						<path class="st10" d="M101.5489197,89.8297348v52.6905441H11.2367506V89.8297348
							c0-2.075676,1.7027035-3.7783813,3.7743254-3.7783813h82.7594604
							C99.8421555,86.0513535,101.5489197,87.7540588,101.5489197,89.8297348z M98.5124207,139.4472961V89.7932434
							c0-0.4094543-0.3324356-0.74189-0.7418823-0.74189v0.0364838H14.9745893c-0.405405,0-0.7418928,0.3324356-0.7418928,0.7418976
							v49.6175613H98.5124207z"/>
					</g>
				</g>
			</g>
			<path class="st11" d="M63.9268875,142.4829712H60.150135h-6.146759h-1.4071579h-3.7767563h-3.7767563
				c0,2.0732422,1.7035141,3.7767639,3.7767563,3.7767639h15.0705376c2.0736542,0,3.7767563-1.6658173,3.7767563-3.7767639
				H63.9268875z"/>
		</g>
	</g>
	<g>
		<g>
			<path class="st10" d="M150.0578308,135.8939667c0,0.9717407-0.7950592,1.7668152-1.7667999,1.7668152h-14.1359558
				c-0.9717255,0-1.7670898-0.7950745-1.7670898-1.7668152v-28.2716751c0-0.9718018,0.7953644-1.7669601,1.7670898-1.7669601
				h14.1359558c0.9717407,0,1.7667999,0.7951584,1.7667999,1.7669601V135.8939667z"/>
		</g>
		<g>
			<circle cx="141.2229156" cy="135.8939667" r="1.1042992"/>
		</g>
		<g>
			<rect x="134.1550751" y="109.4445038" class="st12" width="14.135952" height="24.6823673"/>
		</g>
		<g>
			<circle class="st6" cx="141.2229156" cy="120.5591583" r="5.3010144"/>
		</g>
		<g>
			<g>
				<path d="M142.1064606,108.1902466h-1.7670898c-0.3136444,0-0.5679626-0.254303-0.5679626-0.567955
					c0-0.3136597,0.2543182-0.5679626,0.5679626-0.5679626h1.7670898c0.3136597,0,0.5679626,0.254303,0.5679626,0.5679626
					C142.6744232,107.9359436,142.4201202,108.1902466,142.1064606,108.1902466z"/>
			</g>
		</g>
		<g>
			<g>
				<g>
					<rect x="137.9477539" y="118.8552933" class="st13" width="6.4602084" height="1.1359127"/>
				</g>
			</g>
			<g>
				<g>
					<rect x="137.9477539" y="121.1271133" class="st13" width="4.3794622" height="1.1359127"/>
				</g>
			</g>
		</g>
	</g>
</g>
<path class="st14" d="M123.2468948,119.9262695l-5.6711578-0.0094452l4.5408783-4.3151855l-6.6228714-0.018837l-4.6526184,6.0413589
	h4.9896011l-3.4303589,6.3644104L123.2468948,119.9262695z"/>
</svg>
