<?xml version="1.0" encoding="utf-8"?>
<!-- Generator: Adobe Illustrator 17.1.0, SVG Export Plug-In . SVG Version: 6.00 Build 0)  -->
<!DOCTYPE svg PUBLIC "-//W3C//DTD SVG 1.1//EN" "http://www.w3.org/Graphics/SVG/1.1/DTD/svg11.dtd">
<svg version="1.1" id="Layer_1" xmlns="http://www.w3.org/2000/svg" xmlns:xlink="http://www.w3.org/1999/xlink" x="0px" y="0px"
	 viewBox="-0.193 133.505 500.386 213.162" enable-background="new -0.193 133.505 500.386 213.162" xml:space="preserve">
<g id="Layer_1_1_">
	<g>
		<g>
			<g>
				<path fill="#222222" d="M325.902,133.507H50.042c-6.912,0-12.589,5.677-12.589,12.588v175.636h301.039V146.098
					C338.492,139.186,332.811,133.507,325.902,133.507z"/>
			</g>
			<g>
				<g>
					<g>
						<rect x="47.501" y="143.01" fill="#3B4250" width="280.874" height="168.481"/>
					</g>
				</g>
				<g>
					<g>
						<rect x="47.501" y="143.01" fill="#242C3C" width="280.749" height="24.108"/>
					</g>
				</g>
				<g>
					<g>
						<rect x="70.896" y="186.877" fill="#E36A5C" width="35.094" height="5.849"/>
					</g>
				</g>
				<g>
					<g>
						<rect x="70.896" y="175.179" fill="#6DBEC4" width="23.396" height="5.849"/>
					</g>
				</g>
				<g>
					<g opacity="0.5">
						<g>
							<rect x="82.777" y="210.273" fill="#95989F" width="70.187" height="5.849"/>
						</g>
					</g>
					<g>
						<g>
							<rect x="164.48" y="210.273" fill="#95989F" width="70.187" height="5.849"/>
						</g>
					</g>
					<g opacity="0.5">
						<g>
							<rect x="106.081" y="233.669" fill="#95989F" width="58.398" height="5.849"/>
						</g>
					</g>
					<g>
						<g>
							<rect x="94.292" y="222.509" fill="#E36A5C" width="23.579" height="5.849"/>
						</g>
					</g>
					<g>
						<g>
							<rect x="129.295" y="222.509" fill="#95989F" width="46.883" height="5.849"/>
						</g>
					</g>
					<g opacity="0.5">
						<g>
							<rect x="117.871" y="245.905" fill="#95989F" width="70.005" height="5.849"/>
						</g>
					</g>
					<g>
						<g>
							<rect x="199.573" y="245.905" fill="#95989F" width="105.281" height="5.849"/>
						</g>
					</g>
					<g>
						<g>
							<rect x="70.896" y="303.626" fill="#6DBEC4" width="35.094" height="5.849"/>
						</g>
					</g>
					<g opacity="0.5">
						<g>
							<rect x="117.734" y="303.626" fill="#95989F" width="81.84" height="5.849"/>
						</g>
					</g>
					<g opacity="0.5">
						<g>
							<rect x="176.177" y="233.899" fill="#95989F" width="23.396" height="5.849"/>
						</g>
					</g>
					<g opacity="0.5">
						<g>
							<rect x="70.896" y="269.301" fill="#95989F" width="46.792" height="5.849"/>
						</g>
					</g>
					<g>
						<g>
							<rect x="82.777" y="280.46" fill="#95989F" width="46.517" height="5.849"/>
						</g>
					</g>
					<g>
						<g>
							<rect x="211.454" y="233.669" fill="#6DBEC4" width="46.792" height="5.849"/>
						</g>
					</g>
				</g>
			</g>
			<g>
				<path fill="#EEEEEE" d="M-0.193,321.61c0,13.824,11.232,25.057,25.055,25.057l0,0l0,0h325.724
					c13.823,0,25.057-11.232,25.057-25.057H-0.193z"/>
			</g>
			<g>
				<g id="XMLID_1_">
					<g>
						<path fill="#606060" d="M338.496,146.099v175.635H37.456V146.099c0-6.919,5.676-12.595,12.581-12.595h275.865
							C332.807,133.505,338.496,139.18,338.496,146.099z M328.375,311.491V145.977c0-1.365-1.108-2.473-2.473-2.473v0.122H49.915
							c-1.351,0-2.473,1.108-2.473,2.473v165.392H328.375z"/>
					</g>
				</g>
			</g>
			<path fill="#A0A0A0" d="M213.09,321.61H200.5h-20.489h-4.691h-12.589h-12.589c0,6.911,5.678,12.589,12.589,12.589h50.235
				c6.912,0,12.589-5.553,12.589-12.589H213.09z"/>
		</g>
	</g>
	<g>
		<g>
			<path fill="#606060" d="M500.193,299.647c0,3.239-2.65,5.889-5.889,5.889h-47.12c-3.239,0-5.89-2.65-5.89-5.889v-94.239
				c0-3.239,2.651-5.89,5.89-5.89h47.12c3.239,0,5.889,2.651,5.889,5.89V299.647z"/>
		</g>
		<g>
			<circle cx="470.743" cy="299.647" r="3.681"/>
		</g>
		<g>
			<rect x="447.184" y="211.482" fill="#FFFFFF" width="47.12" height="82.275"/>
		</g>
		<g>
			<circle fill="#6DBEC4" cx="470.743" cy="248.531" r="17.67"/>
		</g>
		<g>
			<g>
				<path d="M473.688,207.301h-5.89c-1.045,0-1.893-0.848-1.893-1.893c0-1.046,0.848-1.893,1.893-1.893h5.89
					c1.046,0,1.893,0.848,1.893,1.893C475.581,206.453,474.734,207.301,473.688,207.301z"/>
			</g>
		</g>
		<g>
			<g>
				<g>
					<rect x="459.826" y="242.851" fill="#0F8487" width="21.534" height="3.786"/>
				</g>
			</g>
			<g>
				<g>
					<rect x="459.826" y="250.424" fill="#0F8487" width="14.598" height="3.786"/>
				</g>
			</g>
		</g>
	</g>
</g>
<path fill="#FFFFFF" d="M410.823,246.421l-18.904-0.031l15.136-14.384l-22.076-0.063l-15.509,20.138h16.632l-11.435,21.215
	L410.823,246.421z"/>
</svg>
