<?xml version="1.0" encoding="utf-8"?>
<!-- Generator: Adobe Illustrator 16.0.0, SVG Export Plug-In . SVG Version: 6.00 Build 0)  -->
<!DOCTYPE svg PUBLIC "-//W3C//DTD SVG 1.1//EN" "http://www.w3.org/Graphics/SVG/1.1/DTD/svg11.dtd">
<svg version="1.1" xmlns="http://www.w3.org/2000/svg" xmlns:xlink="http://www.w3.org/1999/xlink" x="0px" y="0px" width="240.5px"
     height="192.6px" viewBox="0 0 240.5 192.6" enable-background="new 0 0 240.5 192.6" xml:space="preserve">
<g id="step_4_terminal_1">
    <path fill="#F1F2F2" d="M233.5,0.2c3.7,0,6.7,3,6.7,6.7v16.4h-0.4H0.2V7c0-3.7,3-6.7,6.7-6.7H233.5z"/>
    <path fill="#333333" d="M0.2,23.4h239.6h0.4v162.2c0,3.7-3,6.7-6.7,6.7H7c-3.7,0-6.7-3-6.7-6.7V23.4z"/>
</g>
<g>
    <text transform="matrix(1 0 0 1 7 43.2041)"><tspan x="0" y="0" fill="#F6863D" font-family="'Monaco'" font-size="14">&lt;html&gt;</tspan><tspan x="0" y="16.8" fill="#F6863D" font-family="'Monaco'" font-size="14">  &lt;body&gt;</tspan><tspan x="0" y="33.6" fill="#FFFFFF" font-family="'Monaco'" font-size="14">      Hello world!</tspan><tspan x="0" y="50.4" fill="#F6863D" font-family="'Monaco'" font-size="14">  &lt;/body&gt;</tspan><tspan x="0" y="67.2" fill="#F6863D" font-family="'Monaco'" font-size="14">&lt;/html&gt;</tspan></text>
</g>
<g>
    <text transform="matrix(1 0 0 1 78.2432 16.7041)" font-family="'Monaco'" font-size="14">index.html</text>
</g>
</svg>