<?xml version="1.0" encoding="utf-8"?>
<!-- Generator: Adobe Illustrator 16.0.0, SVG Export Plug-In . SVG Version: 6.00 Build 0)  -->
<!DOCTYPE svg PUBLIC "-//W3C//DTD SVG 1.1//EN" "http://www.w3.org/Graphics/SVG/1.1/DTD/svg11.dtd">
<svg version="1.1" id="Layer_1" xmlns="http://www.w3.org/2000/svg" xmlns:xlink="http://www.w3.org/1999/xlink" x="0px" y="0px"
	 width="95px" height="195px" viewBox="-0.513 1.95 95 195" enable-background="new -0.513 1.95 95 195" xml:space="preserve">
<g>
	<g id="step_4_iphone">
		<path fill="#EEEEEE" d="M94.486,187.244c0,5.392-4.447,9.706-10.006,9.706H9.492c-5.56,0-10.005-4.314-10.005-9.706V11.656
			c0-5.392,4.446-9.706,10.005-9.706H84.48c5.559,0,10.006,4.314,10.006,9.706V187.244z"/>
	</g>
	<path fill="#FFFFFF" stroke="#DDDDDD" stroke-miterlimit="10" d="M89.332,168.715c0,1.078-0.91,1.961-2.021,1.961H6.662
		c-1.111,0-2.021-0.883-2.021-1.961V27.833c0-1.08,0.91-1.961,2.021-1.961h80.649c1.111,0,2.023,0.881,2.023,1.961v140.882H89.332z"
		/>
	<g>
		<text transform="matrix(1.0308 0 0 1 6.3931 38.4954)" font-family="'ArialMT'" font-size="11.7647">Hello world!</text>
	</g>
	<g>
		
			<ellipse fill="#666666" stroke="#222222" stroke-width="0.5" stroke-miterlimit="10" cx="46.986" cy="185.185" rx="7.782" ry="7.549"/>
	</g>
</g>
</svg>
