<?xml version="1.0" encoding="utf-8"?>
<!-- Generator: Adobe Illustrator 16.0.0, SVG Export Plug-In . SVG Version: 6.00 Build 0)  -->
<!DOCTYPE svg PUBLIC "-//W3C//DTD SVG 1.1//EN" "http://www.w3.org/Graphics/SVG/1.1/DTD/svg11.dtd">
<svg version="1.1" id="Layer_1" xmlns="http://www.w3.org/2000/svg" xmlns:xlink="http://www.w3.org/1999/xlink" x="0px" y="0px"
	 width="296.1px" height="195px" viewBox="0 0 296.1 195" enable-background="new 0 0 296.1 195" xml:space="preserve">
<g>
	<g>
		<g>
			<path fill="#EFEEEE" d="M95,185.3c0,5.4-4.5,9.7-10,9.7H10c-5.5,0-10-4.3-10-9.7V9.7C0,4.3,4.5,0,10,0h75c5.5,0,10,4.3,10,9.7
				V185.3z"/>
		</g>
		<g>
			<g>
				<path fill="#222222" d="M90.9,162.3c0,1.3-1,2.3-2.3,2.3H7.7c-1.3,0-2.3-1-2.3-2.3V21.5c0-1.3,1-2.3,2.3-2.3h80.8
					c1.3,0,2.3,1,2.3,2.3V162.3z"/>
				<polygon fill="#383636" points="90.9,92 90.9,119.5 44.4,164.5 16.1,164.5 				"/>
				<polygon fill="#383636" points="61.8,19.3 5.4,74.1 5.4,58.1 45.2,19.3 				"/>
			</g>
		</g>
		<g>
			<path fill="#676767" d="M47.5,175.6c4.3,0,7.9,3.4,7.9,7.6c0,4.2-3.5,7.7-7.9,7.7c-4.4,0-7.9-3.4-7.9-7.7S43.1,175.6,47.5,175.6z
				"/>
		</g>
	</g>
	<path id="text1535" fill="#EEEEEE" d="M40.8,75.9c1.3,0,2.8,0.3,4.6,0.8c1.8,0.5,3,0.8,3.6,0.8c0.8,0,2-0.3,3.7-0.9
		c1.7-0.6,3.2-0.9,4.5-0.9c2.1,0,3.9,0.6,5.5,1.7c0.9,0.6,1.8,1.5,2.7,2.6c-1.3,1.1-2.3,2.2-2.9,3c-1.1,1.6-1.7,3.4-1.7,5.3
		c0,2.1,0.6,4.1,1.8,5.8c1.2,1.7,2.6,2.8,4.1,3.2c-0.6,2.1-1.7,4.2-3.2,6.5c-2.2,3.4-4.4,5.1-6.6,5.1c-0.9,0-2.1-0.3-3.6-0.8
		c-1.5-0.6-2.8-0.8-3.9-0.8c-1.1,0-2.3,0.3-3.7,0.9c-1.4,0.6-2.5,0.9-3.4,0.9c-2.6,0-5.2-2.2-7.8-6.7c-2.5-4.4-3.8-8.7-3.8-13
		c0-3.9,1-7.2,2.9-9.6C35.4,77.2,37.8,75.9,40.8,75.9 M56.6,66c0.1,0.2,0.1,0.4,0.1,0.6c0,0.2,0,0.3,0,0.5c0,1.1-0.3,2.2-0.8,3.5
		c-0.5,1.3-1.3,2.5-2.4,3.6c-0.9,0.9-1.9,1.5-2.8,1.9c-0.6,0.2-1.5,0.3-2.7,0.4c0-2.6,0.7-4.8,2-6.6C51.5,68,53.6,66.7,56.6,66"/>
</g>
<g>
	<g id="step_2_android">
		<path fill="#444444" d="M186.7,2.9C179.9,1.2,164.9,0,147.5,0s-32.3,1.2-39.1,2.9c-4.7,0.6-8.4,4.6-8.4,9.4v169.9
			c0,3.1,1.5,5.8,3.8,7.6c2.3,2.9,20.9,5.2,43.6,5.2c18.7,0,34.6-1.6,41-3.8h0.1c0.1,0,0.2-0.1,0.2-0.1c3.7-1.3,6.3-4.8,6.3-8.9
			V12.3C195.1,7.5,191.4,3.5,186.7,2.9z"/>
	</g>
	<g>
		<path fill="#383636" d="M191.5,175c0,1.1-0.9,2-2,2h-84c-1.1,0-2-0.9-2-2V20c0-1.1,0.9-2,2-2h84c1.1,0,2,0.9,2,2V175z"/>
		<g>
			<g>
				<path fill="#222222" d="M191.5,127.3v47.5c0,1.2-0.9,2.1-2.1,2.1h-45.8L191.5,127.3z"/>
				<path fill="#222222" d="M105.6,18h39l-41.1,42.6V20C103.5,19,104.4,18,105.6,18z"/>
				<path fill="#222222" d="M103.5,78.1l58-60.1h27.9c1.1,0,2.1,1,2.1,2.1v77.1l-76.9,79.8h-9c-1.1,0-2.1-1-2.1-2.1V78.1z"/>
			</g>
			<g>
				<path fill="#EEEEEE" d="M165.5,80c-1.5,0-2.7,1.2-2.7,2.8v10.9c0,1.5,1.2,2.8,2.7,2.8s2.7-1.2,2.7-2.8V82.8
					C168.2,81.3,167,80,165.5,80z M132.4,80c-1.5,0-2.7,1.2-2.7,2.8v10.9c0,1.5,1.2,2.8,2.7,2.8c1.5,0,2.7-1.2,2.7-2.8V82.8
					C135.2,81.3,133.9,80,132.4,80z"/>
				<path fill="#EEEEEE" d="M136.8,80.1V100c0,1.2,1,2.1,2.1,2.1h2.4v6.1c0,1.5,1.2,2.8,2.7,2.8c1.5,0,2.7-1.2,2.7-2.8v-6.1h4.3v6.1
					c0,1.5,1.2,2.8,2.7,2.8c1.5,0,2.7-1.2,2.7-2.8v-6.1h2.4c1.2,0,2.1-1,2.1-2.1V80.1H136.8z"/>
				<path fill="#EEEEEE" d="M154.7,69.8l2.3-3.3c0.1-0.2,0.1-0.4-0.1-0.6c-0.2-0.1-0.4-0.1-0.6,0.1l-2.3,3.4
					c-1.5-0.6-3.3-0.9-5.1-0.9c-1.8,0-3.5,0.3-5.1,0.9l-2.3-3.4c-0.1-0.2-0.4-0.3-0.6-0.1c-0.2,0.1-0.2,0.4-0.1,0.6l2.3,3.3
					c-3.6,1.7-6.1,4.8-6.4,8.5h24.4C160.8,74.6,158.3,71.5,154.7,69.8z M143.8,75c-0.7,0-1.3-0.6-1.3-1.4c0-0.7,0.6-1.3,1.3-1.3
					c0.7,0,1.3,0.6,1.3,1.3C145.2,74.3,144.5,75,143.8,75z M154.3,75c-0.7,0-1.3-0.6-1.3-1.4c0-0.7,0.6-1.3,1.3-1.3
					c0.7,0,1.3,0.6,1.3,1.3C155.6,74.3,155,75,154.3,75z"/>
			</g>
		</g>
	</g>
</g>
<g>
	<path fill="#444444" d="M296.1,188.1c0,3.8-2.8,6.9-6.2,6.9h-82.6c-3.5,0-6.2-3-6.2-6.9V6.9c0-3.9,2.8-6.9,6.2-6.9h82.6
		c3.5,0,6.2,3,6.2,6.9V188.1z"/>
	<g id="step_2_win8">
		<path fill="#222222" d="M289.9,128.5v48c0,1.2-0.9,2.2-2,2.2h-43L289.9,128.5z"/>
		<path fill="#222222" d="M289.9,98l-72.3,80.6h-8.3c-1.1,0-2-1-2-2.2V78.7l54.4-60.8h26.2c1.1,0,2,1,2,2.2V98z"/>
		<polygon fill="#383636" points="289.9,98 289.9,128.5 245,178.6 217.6,178.6 		"/>
		<polygon fill="#383636" points="207.3,60.9 245.8,17.9 261.7,17.9 207.3,78.7 		"/>
		<path fill="#222222" d="M207.3,20.1c0-1.2,0.9-2.2,2-2.2h36.6l-38.6,43V20.1z"/>
	</g>
	<path fill="#EEEEEE" d="M256,92.2c-2.3-0.3-4.1-1.2-5.7-2.3l0,0l-0.8,0.4l-3.5,12.1l0,0c1.6,1.1,3.9,2.3,6.3,2.6
		c3.6,0.4,7.5-1,8.6-1.6l3.5-12.2l-0.8-0.4C263.8,90.7,260.3,92.7,256,92.2z M248.4,88.6c-1.7-1.2-3.5-2.2-5.9-2.5
		c-0.4,0-0.8-0.1-1.2-0.1c-4.1,0-6.7,1.8-6.7,1.8l-3.5,12l0,0l0.7,0.4c1.3-0.6,3.8-1.5,6.9-1.3c2.3,0.2,3.9,1.1,5.6,2.1l0.7-0.4l0,0
		L248.4,88.6z M242.7,84.9c2.2,0.2,3.9,1.1,5.6,2.1l0.7-0.4l0,0l3.5-12.1c-1.7-1.2-3.5-2.2-5.9-2.5c-0.4,0-0.8-0.1-1.2-0.1
		c-4.1,0-6.7,1.8-6.7,1.8l-3.5,12l0.7,0.4C237.1,85.6,239.6,84.7,242.7,84.9z M267.8,76.6L267.8,76.6c0,0-3.5,2-7.8,1.5
		c-2.3-0.3-4.1-1.2-5.7-2.3l-0.8,0.4l-3.5,12.1l0,0c1.6,1.1,3.9,2.3,6.3,2.6c3.6,0.4,7.5-1,8.6-1.6l3.5-12.2L267.8,76.6z"/>
</g>
</svg>
