<?xml version="1.0" encoding="utf-8"?>
<!-- Generator: Adobe Illustrator 16.0.0, SVG Export Plug-In . SVG Version: 6.00 Build 0)  -->
<!DOCTYPE svg PUBLIC "-//W3C//DTD SVG 1.1//EN" "http://www.w3.org/Graphics/SVG/1.1/DTD/svg11.dtd">
<svg version="1.1" id="Layer_1" xmlns="http://www.w3.org/2000/svg" xmlns:xlink="http://www.w3.org/1999/xlink" x="0px" y="0px"
	 width="335.8px" height="192.3px" viewBox="0.2 0 335.8 192.3" enable-background="new 0.2 0 335.8 192.3" xml:space="preserve">
<g id="step_3_terminal">
	<path fill="#F1F2F2" d="M233.5,0.2c3.7,0,6.7,3,6.7,6.7v16.4h-0.4H0.2V7c0-3.7,3-6.7,6.7-6.7L233.5,0.2L233.5,0.2z"/>
	<path fill="#333333" d="M0.2,23.4h239.6h0.4v162.2c0,3.7-3,6.7-6.7,6.7H7c-3.7,0-6.7-3-6.7-6.7L0.2,23.4L0.2,23.4z"/>
</g>
<g>
	<text transform="matrix(1 0 0 1 7 43.2043)" fill="#FFFFFF" font-family="'Monaco', Courier, monospace" font-size="14">$ phonegap create myApp</text>
	<text transform="matrix(1 0 0 1 7 60.0042)" fill="#FFFFFF" font-family="'Monaco', Courier, monospace" font-size="14">$ cd myApp/</text>
	<text transform="matrix(1 0 0 1 7 76.804)" fill="#FFFFFF" font-family="'Monaco', Courier, monospace" font-size="14">$ phonegap server</text>
	<text transform="matrix(1 0 0 1 7 93.6047)" fill="#FFFFFF" font-family="'Monaco', Courier, monospace" font-size="14">listening on 127.0.0.1:3000</text>
</g>
<g>
	<path fill="#EEEEEE" d="M336,182.2c0,5.2-4.2,9.6-9.6,9.6h-71.5c-5.2,0-9.6-4.2-9.6-9.6V9.6c0-5.2,4.2-9.6,9.6-9.6h71.5
		c5.2,0,9.6,4.2,9.6,9.6V182.2z"/>
	<path fill="#D6D6D6" d="M331.1,164.3c0,1-0.8,1.9-1.9,1.9h-76.9c-1,0-1.9-0.8-1.9-1.9V25.8c0-1,0.8-1.9,1.9-1.9h76.9
		c1,0,1.9,0.8,1.9,1.9V164.3z"/>
	<circle fill="#666666" cx="290.6" cy="180.1" r="7.4"/>
	<polygon fill="#B5B5B5" points="331.1,123.8 331.1,123.8 250.4,123.8 250.4,123.8 250.4,51.1 250.4,51.1 331.1,51.1 331.1,51.1 	
		"/>
	<g>
		<path fill="#6D6D6D" d="M329.1,87.4c0-14-2.6-25.6-6-28.2c-0.8-3.6-15-6.4-32.2-6.4c-17.4,0-31.4,2.8-32.2,6.4
			c-3.4,2.6-6,14.2-6,28.2c0,14,2.6,25.6,6,28.2c0.8,3.6,15,6.4,32.2,6.4c17.4,0,31.4-2.8,32.2-6.4
			C326.5,113,329.1,101.4,329.1,87.4z"/>
		<path fill="#0B2F47" d="M328.1,89.4c0-13.2-2.6-24.2-5.8-26.6c-0.8-3.4-14.6-6-31.4-6s-30.6,2.6-31.4,6
			c-3.4,2.4-5.8,13.4-5.8,26.6c0,13.2,2.6,24.2,5.8,26.6c0.8,3.4,14.6,6,31.4,6s30.6-2.6,31.4-6C325.5,113.6,328.1,102.6,328.1,89.4
			z"/>
	</g>
	<rect x="250.6" y="123" fill="#868687" width="80.5" height="12.2"/>
	<text transform="matrix(1 0 0 1 256.8687 79.9143)" fill="#00CAF9" font-family="'Monaco', Courier, monospace" font-size="8">127.0.0.1:3000</text>
	<path fill="#00CAF9" d="M315.4,105.6c0,0.8-0.7,1.5-1.5,1.5H268c-0.8,0-1.5-0.7-1.5-1.5v-7.1c0-0.8,0.7-1.5,1.5-1.5h46
		c0.8,0,1.5,0.7,1.5,1.5L315.4,105.6L315.4,105.6z"/>
	<text transform="matrix(1 0 0 1 274.7681 104.8059)" fill="#15497C" font-family="'Monaco', Courier, monospace" font-size="7.7146">Connect</text>
</g>
</svg>
