<?xml version="1.0" encoding="utf-8"?>
<!-- Generator: Adobe Illustrator 16.0.0, SVG Export Plug-In . SVG Version: 6.00 Build 0)  -->
<!DOCTYPE svg PUBLIC "-//W3C//DTD SVG 1.1//EN" "http://www.w3.org/Graphics/SVG/1.1/DTD/svg11.dtd">
<svg version="1.1" xmlns="http://www.w3.org/2000/svg" xmlns:xlink="http://www.w3.org/1999/xlink" x="0px" y="0px" width="94px"
     height="198.9px" viewBox="0 0 94 198.9" enable-background="new 0 0 94 198.9" xml:space="preserve">
<g id="step_4_iphone">
    <path fill="#EEEEEE" d="M94,189c0,5.5-4.4,9.9-9.9,9.9H9.9c-5.5,0-9.9-4.4-9.9-9.9V9.9C0,4.4,4.4,0,9.9,0h74.2
        C89.6,0,94,4.4,94,9.9V189z"/>
</g>
<g>
    <line fill="none" x1="91.8" y1="78.2" x2="-2.2" y2="172.2"/>
    <line fill="none" x1="92.2" y1="122.2" x2="34.9" y2="179.6"/>
    <path fill="#FFFFFF" stroke="#DDDDDD" stroke-miterlimit="10" d="M88.9,170.1c0,1.1-0.9,2-2,2H7.1c-1.1,0-2-0.9-2-2V26.4
        c0-1.1,0.9-2,2-2h79.8c1.1,0,2,0.9,2,2V170.1z"/>
</g>
<g>
    <text transform="matrix(1 0 0 1 6.8335 37.2759)" font-family="'ArialMT'" font-size="12">Hello world!</text>
</g>
<g>
    <circle fill="#666666" stroke="#222222" stroke-width="0.5" stroke-miterlimit="10" cx="47" cy="186.9" r="7.7"/>
</g>
</svg>