<?xml version="1.0" encoding="utf-8"?>
<!-- Generator: Adobe Illustrator 16.0.0, SVG Export Plug-In . SVG Version: 6.00 Build 0)  -->
<!DOCTYPE svg PUBLIC "-//W3C//DTD SVG 1.1//EN" "http://www.w3.org/Graphics/SVG/1.1/DTD/svg11.dtd">
<svg version="1.1" id="Layer_1" xmlns="http://www.w3.org/2000/svg" xmlns:xlink="http://www.w3.org/1999/xlink" x="0px" y="0px"
	 width="197.25px" height="192.1px" viewBox="0.2 0.2 197.25 192.1" enable-background="new 0.2 0.2 197.25 192.1"
	 xml:space="preserve">
<g>
	<path fill="#F1F2F2" d="M191.943,0.2v0.1H5.707C2.666,0.3,0.2,3.3,0.2,7v16.3h196.921h0.329V6.9
		C197.45,3.2,194.984,0.2,191.943,0.2z"/>
	<path fill="#222222" d="M0.282,23.4v162.2c0,3.7,2.465,6.7,5.506,6.7h186.155c3.041,0,5.507-3,5.507-6.7V23.4h-0.329H0.282z"/>
</g>
<g>
	<text transform="matrix(1 0 0 1 56.8184 16.2043)" font-family="'Monaco', Courier, monospace" font-size="14">index.html</text>
</g>
<rect x="-0.247" y="23.3" fill="#545051" width="14.395" height="169"/>
<rect x="190.75" y="155.3" fill="#222222" width="6.7" height="37"/>
<g>
	<g>
		<text transform="matrix(1 0 0 1 20.5 41.2043)" fill="#EE3551" font-family="'Monaco', Courier, monospace" font-size="14">&lt;html&gt;</text>
		<text transform="matrix(1 0 0 1 20.5 108.4045)" fill="#EE3551" font-family="'Monaco', Courier, monospace" font-size="14">&lt;/html&gt;</text>
	</g>
	<text transform="matrix(1 0 0 1 75 74.804)" fill="#FFFFFF" font-family="'Monaco', Courier, monospace" font-size="14">Hello world!</text>
	<text transform="matrix(1 0 0 1 50 57.0042)" fill="#EE3551" font-family="'Monaco', Courier, monospace" font-size="14">&lt;body&gt;</text>
	<text transform="matrix(1 0 0 1 50 90.6047)" fill="#EE3551" font-family="'Monaco', Courier, monospace" font-size="14">&lt;/body&gt;</text>
</g>
</svg>
