<?xml version="1.0" encoding="utf-8"?>
<!-- Generator: Adobe Illustrator 16.0.0, SVG Export Plug-In . SVG Version: 6.00 Build 0)  -->
<!DOCTYPE svg PUBLIC "-//W3C//DTD SVG 1.1//EN" "http://www.w3.org/Graphics/SVG/1.1/DTD/svg11.dtd">
<svg version="1.1" xmlns="http://www.w3.org/2000/svg" xmlns:xlink="http://www.w3.org/1999/xlink" x="0px" y="0px" width="94px"
     height="198.9px" viewBox="0 0 94 198.9" enable-background="new 0 0 94 198.9" xml:space="preserve">
<g id="step_3_iphone">
    <path fill="#EEEEEE" d="M94,189c0,5.5-4.4,9.9-9.9,9.9H9.9c-5.5,0-9.9-4.4-9.9-9.9V9.9C0,4.4,4.4,0,9.9,0h74.2
        C89.6,0,94,4.4,94,9.9V189z"/>
</g>
<g>
    <line fill="none" x1="91.8" y1="78.2" x2="-2.2" y2="172.2"/>
    <line fill="none" x1="92.2" y1="122.2" x2="34.9" y2="179.6"/>
    <g>
        <path fill="#A8A8A8" d="M89.3,125.9v44.1c0,1.1-0.9,2-2,2H43.2L89.3,125.9z"/>
        <polygon fill="#A8A8A8" points="89.3,97.9 89.3,125.9 43.2,171.9 15.2,171.9"/>
        <path fill="#A8A8A8" d="M89.3,26.3v71.6l-74.1,74.1H6.7c-1.1,0-2-0.9-2-2V80.1l0.2-0.2l55.6-55.6h26.8
            C88.4,24.3,89.3,25.2,89.3,26.3z"/>
        <polygon fill="#A8A8A8" points="60.5,24.3 4.9,79.9 4.7,80.1 4.7,63.8 44.2,24.3"/>
        <path fill="#A8A8A8" d="M44.2,24.3L4.7,63.8V26.3c0-1.1,0.9-2,2-2H44.2z"/>
    </g>
    <path fill="#A8A8A8" d="M88.9,170.4c0,1.1-0.9,2-2,2H7.1c-1.1,0-2-0.9-2-2V26.8c0-1.1,0.9-2,2-2h79.8c1.1,0,2,0.9,2,2V170.4z"/>
</g>
<g>
    <rect x="7.1" y="133.2" fill="#DBDBDB" width="79.8" height="8"/>
</g>
<g>
    <rect x="9.3" y="58.6" fill="#EEEEEE" width="75.3" height="75.3"/>
</g>
<g>
    <path fill="#15497C" d="M80.2,121.9c0,3.9-3.1,7-7,7H20.8c-3.9,0-7-3.1-7-7V69.4c0-3.9,3.1-7,7-7h52.5c3.9,0,7,3.1,7,7V121.9z"/>
</g>
<g>
    <text transform="matrix(1 0 0 1 21.7954 88.2759)" fill="#00CAF9" font-family="'Monaco', Courier, monospace" font-size="6">127.0.0.1:3000</text>
    <path fill="none" stroke="#00CAF9" stroke-miterlimit="10" d="M79,86.4c0,3.6-2.9,6.5-6.5,6.5h-51c-3.6,0-6.5-2.9-6.5-6.5l0,0
        c0-3.6,2.9-6.5,6.5-6.5h51C76.1,79.9,79,82.9,79,86.4L79,86.4z"/>
    <path fill="#00CAF9" d="M72.4,117c0,0.9-0.7,1.6-1.6,1.6H23.2c-0.9,0-1.6-0.7-1.6-1.6v-7.2c0-0.9,0.7-1.6,1.6-1.6h47.7
        c0.9,0,1.6,0.7,1.6,1.6V117z"/>
</g>
<g>
    <text transform="matrix(1 0 0 1 30.1978 116.2749)" fill="#15497C" font-family="'Monaco', Courier, monospace" font-size="8">Connect</text>
</g>
<g>
    <circle fill="#666666" stroke="#222222" stroke-width="0.5" stroke-miterlimit="10" cx="47" cy="186.9" r="7.7"/>
</g>
</svg>