<?xml version="1.0" encoding="utf-8"?>
<!-- Generator: Adobe Illustrator 16.0.0, SVG Export Plug-In . SVG Version: 6.00 Build 0)  -->
<!DOCTYPE svg PUBLIC "-//W3C//DTD SVG 1.1//EN" "http://www.w3.org/Graphics/SVG/1.1/DTD/svg11.dtd">
<svg version="1.1" id="Layer_2" xmlns="http://www.w3.org/2000/svg" xmlns:xlink="http://www.w3.org/1999/xlink" x="0px" y="0px"
	 width="95px" height="195px" viewBox="6 2 95 195" enable-background="new 6 2 95 195" xml:space="preserve">
<path fill="#444444" d="M101,190.1c0,3.8-2.8,6.9-6.2,6.9H12.2c-3.5,0-6.2-3-6.2-6.9V8.9C6,5,8.8,2,12.2,2h82.6c3.5,0,6.2,3,6.2,6.9
	V190.1z"/>
<g id="step_2_win8">
	<path fill="#222222" d="M94.8,130.5v48c0,1.2-0.9,2.2-2,2.2h-43L94.8,130.5z"/>
	<path fill="#222222" d="M94.8,100l-72.3,80.6h-8.3c-1.1,0-2-1-2-2.2V80.7l54.4-60.8h26.2c1.1,0,2,1,2,2.2V100z"/>
	<polygon fill="#545051" points="94.8,100 94.8,130.5 49.9,180.6 22.5,180.6 	"/>
	<polygon fill="#545051" points="12.2,62.9 50.7,19.9 66.6,19.9 12.2,80.7 	"/>
	<path fill="#222222" d="M12.2,22.1c0-1.2,0.9-2.2,2-2.2h36.6L12.2,62.9V22.1z"/>
</g>
</svg>
