<?xml version="1.0" encoding="utf-8"?>
<!-- Generator: Adobe Illustrator 16.0.0, SVG Export Plug-In . SVG Version: 6.00 Build 0)  -->
<!DOCTYPE svg PUBLIC "-//W3C//DTD SVG 1.1//EN" "http://www.w3.org/Graphics/SVG/1.1/DTD/svg11.dtd">
<svg version="1.1" id="Layer_2" xmlns="http://www.w3.org/2000/svg" xmlns:xlink="http://www.w3.org/1999/xlink" x="0px" y="0px"
	 width="95px" height="195px" viewBox="6 2 95 195" enable-background="new 6 2 95 195" xml:space="preserve">
<path fill="#444444" d="M101,190.1c0,3.801-2.8,6.9-6.2,6.9H12.2c-3.5,0-6.2-3-6.2-6.9V8.9C6,5,8.8,2,12.2,2h82.6
	c3.5,0,6.2,3,6.2,6.9V190.1z"/>
<g id="step_2_win8">
	<path fill="#222222" d="M94.8,130.5v48c0,1.2-0.899,2.2-2,2.2h-43L94.8,130.5z"/>
	<path fill="#222222" d="M94.8,100l-72.3,80.6h-8.3c-1.1,0-2-1-2-2.199V80.7L66.6,19.9h26.2c1.101,0,2,1,2,2.2V100z"/>
	<polygon fill="#545051" points="94.8,100 94.8,130.5 49.9,180.6 22.5,180.6 	"/>
	<polygon fill="#545051" points="12.2,62.9 50.7,19.9 66.6,19.9 12.2,80.7 	"/>
	<path fill="#222222" d="M12.2,22.1c0-1.2,0.9-2.2,2-2.2h36.6l-38.6,43V22.1z"/>
</g>
<path fill="#EEEEEE" d="M60.88,94.199c-2.341-0.277-4.084-1.229-5.692-2.299l0,0l-0.755,0.377l-3.484,12.059l0,0
	c1.646,1.088,3.927,2.307,6.326,2.586c3.631,0.422,7.514-1.004,8.638-1.613l3.537-12.244l-0.757-0.379
	C68.692,92.686,65.164,94.703,60.88,94.199z M53.313,90.605c-1.711-1.175-3.483-2.232-5.912-2.453
	c-0.43-0.039-0.847-0.057-1.25-0.057c-4.068,0-6.687,1.82-6.687,1.82L36,101.91l0,0l0.71,0.381c1.326-0.645,3.757-1.549,6.878-1.33
	c2.251,0.152,3.945,1.055,5.563,2.068l0.687-0.352l0,0L53.313,90.605z M47.607,86.915c2.248,0.154,3.947,1.055,5.563,2.072
	l0.688-0.352l0,0l3.478-12.074c-1.717-1.178-3.487-2.235-5.915-2.454c-0.431-0.04-0.847-0.058-1.248-0.058
	c-4.07,0-6.688,1.82-6.688,1.82l-3.468,11.997l0.711,0.381C42.054,87.604,44.485,86.701,47.607,86.915z M72.712,78.64L72.712,78.64
	c0,0.003-3.526,2.017-7.81,1.513c-2.344-0.276-4.086-1.225-5.692-2.299l-0.758,0.38l-3.481,12.058l0,0
	c1.644,1.085,3.927,2.31,6.325,2.587c3.63,0.424,7.511-1.006,8.638-1.617l3.533-12.241L72.712,78.64z"/>
</svg>
