<?xml version="1.0" encoding="utf-8"?>
<!-- Generator: Adobe Illustrator 16.0.0, SVG Export Plug-In . SVG Version: 6.00 Build 0)  -->
<!DOCTYPE svg PUBLIC "-//W3C//DTD SVG 1.1//EN" "http://www.w3.org/Graphics/SVG/1.1/DTD/svg11.dtd">
<svg version="1.1" id="Layer_2" xmlns="http://www.w3.org/2000/svg" xmlns:xlink="http://www.w3.org/1999/xlink" x="0px" y="0px"
     width="107px" height="199px" viewBox="0 0 107 199" enable-background="new 0 0 107 199" xml:space="preserve">
<path fill="#444444" d="M107,192c0,3.9-3.1,7-7,7H7c-3.9,0-7-3.1-7-7V7c0-3.9,3.1-7,7-7h93c3.9,0,7,3.1,7,7V192z"/>
<g id="step_2_win8">
    <path fill="#222222" d="M100,131.1v49c0,1.2-1,2.2-2.2,2.2H49.4L100,131.1z"/>
    <path fill="#222222" d="M100,100l-81.4,82.3H9.2c-1.2,0-2.2-1-2.2-2.2V80.3l61.3-62h29.5c1.2,0,2.2,1,2.2,2.2V100z"/>
    <polygon fill="#545051" points="100,100 100,131.1 49.4,182.3 18.6,182.3"/>
    <polygon fill="#545051" points="7,62.1 50.4,18.3 68.3,18.3 7,80.3" />
    <path fill="#222222" d="M7,20.5c0-1.2,1-2.2,2.2-2.2h41.2L7,62.1V20.5z"/>
</g>
</svg>