<?xml version="1.0" encoding="utf-8"?>
<!-- Generator: Adobe Illustrator 17.0.0, SVG Export Plug-In . SVG Version: 6.00 Build 0)  -->
<!DOCTYPE svg PUBLIC "-//W3C//DTD SVG 1.1//EN" "http://www.w3.org/Graphics/SVG/1.1/DTD/svg11.dtd">
<svg version="1.1" id="Layer_1" xmlns="http://www.w3.org/2000/svg" xmlns:xlink="http://www.w3.org/1999/xlink" x="0px" y="0px"
	 width="512px" height="512px" viewBox="0 0 512 512" enable-background="new 0 0 512 512" xml:space="preserve">
<g>
	<path fill="#FFFFFF" d="M81.673,405.942h-0.452c-1.216,7.84-2.915,18.884-4.161,25.675l-4.478,24.305h17.112l-4.161-24.365
		C84.346,424.452,82.829,413.782,81.673,405.942z"/>
	<path fill="#FFFFFF" d="M368.202,431.326c-7.422,0-10.576,10.876-10.801,19.696h20.596
		C378.103,439.262,374.706,431.326,368.202,431.326z"/>
	<path fill="#FFFFFF" d="M297.133,433.253c-3.89,0-7.031,4.223-8.158,8.758c-0.392,1.427-0.632,3.649-0.632,5.18v23.029
		c0,2.058,0.242,3.982,0.678,5.271c2.057,6.897,5.476,8.595,8.269,8.595c7.932,0,11.099-10.052,11.099-26.125
		C308.389,443.33,304.975,433.253,297.133,433.253z"/>
	<path fill="#FFFFFF" d="M153.583,433.253c-8.247,0-11.281,11.882-11.281,25.778c0,15.967,4.326,25.056,10.996,25.056
		c3.05,0,6.778-1.563,8.687-8.264c0.466-1.336,0.92-3.123,0.92-5.212v-21.766c0-1.517-0.214-3.291-0.514-4.914
		C161.594,438.314,158.39,433.253,153.583,433.253z"/>
	<path fill="#FFFFFF" d="M225.344,431.568c-8.654,0-10.472,15.154-10.472,26.765c0,14.016,2.283,26.989,10.635,26.989h0.181
		c7.826,0,9.765-14.775,9.765-26.989C235.452,446.722,233.514,431.568,225.344,431.568z"/>
	<path fill="#FFFFFF" d="M445.294,15.902h-0.104c-10.966,0-19.829,9.364-19.829,20.887s8.863,20.801,19.934,20.801
		c10.965,0.12,19.723-9.321,19.723-20.844C465.018,25.223,456.26,15.902,445.294,15.902z M451.167,51.182
		c-0.661-0.98-1.232-3.447-1.788-7.082c-0.541-3.349-2.419-4.678-5.859-4.678h-3.277v11.76h-4.9V23.666
		c2.94-0.33,4.804-0.782,8.468-0.782c4.432,0,7.276,0.902,9.047,2.238c1.547,1.216,2.46,3.078,2.46,5.754
		c0,3.546-2.335,5.857-5.275,6.639v0.211c1.96,0.452,3.979,2.568,4.536,6.683c0.661,4.326,1.23,5.794,1.682,6.774H451.167z"/>
	<path fill="#FFFFFF" d="M443.663,26.655c-1.457,0-2.439,0-3.419,0.106v8.742h0.409h2.974c3.667,0,6.568-1.096,6.568-4.311
		C450.195,28.773,448.32,26.655,443.663,26.655z"/>
	<path fill="#FFFFFF" d="M0,0v512h512V0H0z M42.363,11.002h130.914L42.363,325.036V11.002z M219.5,126.521l83.566,198.082h-54.754
		l-24.998-62.72h-61.183L219.5,126.521z M96.922,500.022l-5.288-27.44H70.347l-5.408,27.44H44.96l24.921-113.68h24.485
		l22.638,113.68H96.922z M165.948,500.022l-1.156-9.8h-0.42c-2.974,5.88-9.448,10.798-17.185,10.798
		c-16.96,0-25.371-18.726-25.371-42.357c0-28.794,12.542-42.731,26.212-42.731c7.151,0,11.778,3.731,14.107,8.631h0.769v-42.14h19.6
		v93.659c0,7.388,0.855,16.101,1.155,23.941L165.948,500.022L165.948,500.022z M225.464,501.002h-0.166
		c-18.897,0-30.749-15.172-30.749-42.33c0-29.64,15.216-42.814,31.231-42.814c18.643,0,30.329,15.911,30.329,42.334
		C256.107,492.141,237.797,501.002,225.464,501.002z M302.267,501.214c-7.151,0-11.912-3.152-16.208-10.992h-0.433l-1.141,9.8
		h-17.606c0.301-6.86,0.884-16.552,0.884-23.941v-93.225l-0.195-0.433h20.775v43.12h0.06c4.04-5.88,9.419-9.824,17.229-9.824
		c15.458,0,23.224,17.752,23.224,40.736C328.858,485.494,317.275,501.214,302.267,501.214z M396.259,465.188l-38.933-0.117
		c0.241,14.916,8.083,19.77,17.816,19.77c6.172,0,11.461-1.37,15.367-2.839l2.764,14.752c-5.439,2.341-13.837,3.814-21.888,3.814
		c-22.007,0-34.025-15.039-34.025-40.724c0-27.565,13.94-44.121,32.147-44.121c17.591,0,27.339,14.631,27.339,38.516
		C396.846,459.707,396.621,462.787,396.259,465.188z M397.123,325.036L265.693,11.002h131.431V325.036z M445.189,61.883
		c-13.837,0-25.027-11.099-25.027-25.056c0.001-13.731,11.192-24.845,25.027-24.845h0.104c13.715,0,24.681,11.114,24.681,24.845
		C469.976,50.783,459.009,61.883,445.189,61.883z"/>
</g>
</svg>
